G04 #@! TF.GenerationSoftware,KiCad,Pcbnew,7.0.2*
G04 #@! TF.CreationDate,2023-08-07T21:15:06+02:00*
G04 #@! TF.ProjectId,programmer_board,70726f67-7261-46d6-9d65-725f626f6172,rev?*
G04 #@! TF.SameCoordinates,Original*
G04 #@! TF.FileFunction,Copper,L1,Top*
G04 #@! TF.FilePolarity,Positive*
%FSLAX46Y46*%
G04 Gerber Fmt 4.6, Leading zero omitted, Abs format (unit mm)*
G04 Created by KiCad (PCBNEW 7.0.2) date 2023-08-07 21:15:06*
%MOMM*%
%LPD*%
G01*
G04 APERTURE LIST*
G04 Aperture macros list*
%AMRoundRect*
0 Rectangle with rounded corners*
0 $1 Rounding radius*
0 $2 $3 $4 $5 $6 $7 $8 $9 X,Y pos of 4 corners*
0 Add a 4 corners polygon primitive as box body*
4,1,4,$2,$3,$4,$5,$6,$7,$8,$9,$2,$3,0*
0 Add four circle primitives for the rounded corners*
1,1,$1+$1,$2,$3*
1,1,$1+$1,$4,$5*
1,1,$1+$1,$6,$7*
1,1,$1+$1,$8,$9*
0 Add four rect primitives between the rounded corners*
20,1,$1+$1,$2,$3,$4,$5,0*
20,1,$1+$1,$4,$5,$6,$7,0*
20,1,$1+$1,$6,$7,$8,$9,0*
20,1,$1+$1,$8,$9,$2,$3,0*%
G04 Aperture macros list end*
G04 #@! TA.AperFunction,SMDPad,CuDef*
%ADD10R,1.550000X0.600000*%
G04 #@! TD*
G04 #@! TA.AperFunction,SMDPad,CuDef*
%ADD11R,1.800000X1.200000*%
G04 #@! TD*
G04 #@! TA.AperFunction,SMDPad,CuDef*
%ADD12R,0.800000X0.600000*%
G04 #@! TD*
G04 #@! TA.AperFunction,SMDPad,CuDef*
%ADD13R,0.900000X1.000000*%
G04 #@! TD*
G04 #@! TA.AperFunction,SMDPad,CuDef*
%ADD14RoundRect,0.200000X-0.200000X-0.275000X0.200000X-0.275000X0.200000X0.275000X-0.200000X0.275000X0*%
G04 #@! TD*
G04 #@! TA.AperFunction,SMDPad,CuDef*
%ADD15RoundRect,0.225000X0.225000X0.250000X-0.225000X0.250000X-0.225000X-0.250000X0.225000X-0.250000X0*%
G04 #@! TD*
G04 #@! TA.AperFunction,SMDPad,CuDef*
%ADD16RoundRect,0.049600X-0.260400X0.605400X-0.260400X-0.605400X0.260400X-0.605400X0.260400X0.605400X0*%
G04 #@! TD*
G04 #@! TA.AperFunction,SMDPad,CuDef*
%ADD17RoundRect,0.060000X-0.615000X0.240000X-0.615000X-0.240000X0.615000X-0.240000X0.615000X0.240000X0*%
G04 #@! TD*
G04 #@! TA.AperFunction,SMDPad,CuDef*
%ADD18RoundRect,0.040600X-0.564400X-0.249400X0.564400X-0.249400X0.564400X0.249400X-0.564400X0.249400X0*%
G04 #@! TD*
G04 #@! TA.AperFunction,SMDPad,CuDef*
%ADD19RoundRect,0.200000X0.200000X0.275000X-0.200000X0.275000X-0.200000X-0.275000X0.200000X-0.275000X0*%
G04 #@! TD*
G04 #@! TA.AperFunction,SMDPad,CuDef*
%ADD20RoundRect,0.225000X0.250000X-0.225000X0.250000X0.225000X-0.250000X0.225000X-0.250000X-0.225000X0*%
G04 #@! TD*
G04 #@! TA.AperFunction,SMDPad,CuDef*
%ADD21RoundRect,0.225000X-0.225000X-0.250000X0.225000X-0.250000X0.225000X0.250000X-0.225000X0.250000X0*%
G04 #@! TD*
G04 #@! TA.AperFunction,SMDPad,CuDef*
%ADD22RoundRect,0.218750X-0.218750X-0.256250X0.218750X-0.256250X0.218750X0.256250X-0.218750X0.256250X0*%
G04 #@! TD*
G04 #@! TA.AperFunction,ComponentPad*
%ADD23O,2.000000X1.000000*%
G04 #@! TD*
G04 #@! TA.AperFunction,SMDPad,CuDef*
%ADD24R,1.250000X0.300000*%
G04 #@! TD*
G04 #@! TA.AperFunction,SMDPad,CuDef*
%ADD25R,1.250000X0.600000*%
G04 #@! TD*
G04 #@! TA.AperFunction,SMDPad,CuDef*
%ADD26RoundRect,0.218750X-0.218750X-0.381250X0.218750X-0.381250X0.218750X0.381250X-0.218750X0.381250X0*%
G04 #@! TD*
G04 #@! TA.AperFunction,SMDPad,CuDef*
%ADD27R,1.200000X3.500000*%
G04 #@! TD*
G04 #@! TA.AperFunction,ViaPad*
%ADD28C,0.800000*%
G04 #@! TD*
G04 #@! TA.AperFunction,Conductor*
%ADD29C,0.200000*%
G04 #@! TD*
G04 #@! TA.AperFunction,Conductor*
%ADD30C,0.250000*%
G04 #@! TD*
G04 #@! TA.AperFunction,Conductor*
%ADD31C,0.400000*%
G04 #@! TD*
G04 APERTURE END LIST*
D10*
X125254000Y-92162000D03*
X125254000Y-91162000D03*
X125254000Y-90162000D03*
X125254000Y-89162000D03*
X125254000Y-88162000D03*
X125254000Y-87162000D03*
D11*
X129129000Y-93462000D03*
X129129000Y-85862000D03*
D12*
X116846000Y-99271500D03*
X116846000Y-101171500D03*
X118866000Y-100221500D03*
D13*
X127049000Y-99314000D03*
X122949000Y-99314000D03*
X127049000Y-100914000D03*
X122949000Y-100914000D03*
D14*
X95949000Y-101092000D03*
X97599000Y-101092000D03*
D15*
X97549000Y-94742000D03*
X95999000Y-94742000D03*
D14*
X98489000Y-88138000D03*
X100139000Y-88138000D03*
X95949000Y-97790000D03*
X97599000Y-97790000D03*
D16*
X114046000Y-95294000D03*
X112776000Y-95294000D03*
X111506000Y-95294000D03*
X110236000Y-95294000D03*
X108966000Y-95294000D03*
X107696000Y-95294000D03*
X106426000Y-95294000D03*
X105156000Y-95294000D03*
X105156000Y-100794000D03*
X106426000Y-100794000D03*
X107696000Y-100794000D03*
X108966000Y-100794000D03*
X110236000Y-100794000D03*
X111506000Y-100794000D03*
X112776000Y-100794000D03*
X114046000Y-100794000D03*
D15*
X86373000Y-89124000D03*
X84823000Y-89124000D03*
D17*
X90509000Y-86680000D03*
X90509000Y-87630000D03*
X90509000Y-88580000D03*
X92879000Y-88580000D03*
X92879000Y-86680000D03*
D18*
X99837000Y-97348000D03*
X99837000Y-98298000D03*
X99837000Y-99248000D03*
X102347000Y-99248000D03*
X102347000Y-98298000D03*
X102347000Y-97348000D03*
D14*
X113983000Y-92202000D03*
X115633000Y-92202000D03*
D13*
X127063500Y-95720000D03*
X122963500Y-95720000D03*
X127063500Y-97320000D03*
X122963500Y-97320000D03*
D19*
X118935000Y-92202000D03*
X117285000Y-92202000D03*
D20*
X120967500Y-97270000D03*
X120967500Y-95720000D03*
X120949500Y-100851000D03*
X120949500Y-99301000D03*
D21*
X95999000Y-91948000D03*
X97549000Y-91948000D03*
D15*
X86373000Y-86614000D03*
X84823000Y-86614000D03*
D12*
X116846000Y-94808000D03*
X116846000Y-96708000D03*
X118866000Y-95758000D03*
D14*
X120587000Y-92202000D03*
X122237000Y-92202000D03*
D15*
X111265000Y-90424000D03*
X109715000Y-90424000D03*
D22*
X98501000Y-86360000D03*
X100076000Y-86360000D03*
D15*
X97549000Y-96266000D03*
X95999000Y-96266000D03*
D23*
X90098000Y-100606500D03*
X90098000Y-91386500D03*
X85598000Y-100606500D03*
X85598000Y-91386500D03*
D24*
X90673000Y-94246500D03*
X90673000Y-95246500D03*
X90673000Y-96746500D03*
X90673000Y-97746500D03*
D25*
X90673000Y-98396500D03*
X90673000Y-99196500D03*
D24*
X90673000Y-97246500D03*
X90673000Y-96246500D03*
X90673000Y-95746500D03*
X90673000Y-94746500D03*
D25*
X90673000Y-93596500D03*
X90673000Y-92796500D03*
D26*
X95965500Y-90170000D03*
X98090500Y-90170000D03*
D15*
X111265000Y-88392000D03*
X109715000Y-88392000D03*
D27*
X106426000Y-86658000D03*
X106426000Y-92158000D03*
D28*
X113792000Y-93726000D03*
X115316000Y-99822000D03*
X115570000Y-95758000D03*
X96266000Y-93218000D03*
X123698000Y-93980000D03*
X122682000Y-93980000D03*
X88392000Y-87630000D03*
X123698000Y-91186000D03*
X113919000Y-89916000D03*
X109093000Y-98552000D03*
X103759000Y-93599000D03*
X116050656Y-98520829D03*
X120396000Y-94234000D03*
X99060000Y-96012000D03*
X92456000Y-91440000D03*
X96774000Y-85598000D03*
X112776000Y-89662000D03*
X100838000Y-101092000D03*
X112776000Y-88392000D03*
X92456000Y-100584000D03*
X85598000Y-87884000D03*
X122428000Y-87122000D03*
X103886000Y-97790000D03*
X102870000Y-95250000D03*
X128270000Y-100330000D03*
X127000000Y-90678000D03*
D29*
X92487300Y-96246500D02*
X90673000Y-96246500D01*
X92919200Y-96678400D02*
X92487300Y-96246500D01*
X92932600Y-96678400D02*
X92919200Y-96678400D01*
X94063971Y-96819822D02*
X94063970Y-96819823D01*
X93781127Y-97102663D02*
X94063971Y-96819822D01*
X93781128Y-97526928D02*
X93781127Y-97526927D01*
X94488235Y-97244086D02*
X94205393Y-97526927D01*
X94912499Y-97668350D02*
X94912498Y-97668351D01*
X94629655Y-97951191D02*
X94912499Y-97668350D01*
X95536100Y-99281900D02*
X94629655Y-98375455D01*
X99837000Y-99248000D02*
X99803100Y-99281900D01*
X92932569Y-96678431D02*
G75*
G03*
X93356864Y-96678398I212131J212131D01*
G01*
X94063980Y-96819833D02*
G75*
G03*
X94063971Y-96395558I-212180J212133D01*
G01*
X94063970Y-96395559D02*
G75*
G03*
X93639708Y-96395559I-212131J-212131D01*
G01*
X93781132Y-97102668D02*
G75*
G03*
X93781127Y-97526927I212168J-212132D01*
G01*
X93781169Y-97526887D02*
G75*
G03*
X94205392Y-97526926I212131J212087D01*
G01*
X94912498Y-97244087D02*
G75*
G03*
X94488236Y-97244087I-212131J-212131D01*
G01*
X93639707Y-96395558D02*
X93356865Y-96678399D01*
X94629632Y-97951168D02*
G75*
G03*
X94629655Y-98375455I212168J-212132D01*
G01*
X94912479Y-97668332D02*
G75*
G03*
X94912498Y-97244087I-212079J212132D01*
G01*
X99803100Y-99281900D02*
X95536100Y-99281900D01*
D30*
X114046000Y-94234000D02*
X114046000Y-95294000D01*
X113792000Y-93980000D02*
X114046000Y-94234000D01*
X113792000Y-93726000D02*
X113792000Y-93980000D01*
D31*
X108623000Y-99022000D02*
X109093000Y-98552000D01*
X104686000Y-99022000D02*
X108623000Y-99022000D01*
X103886000Y-99822000D02*
X104686000Y-99022000D01*
X103886000Y-101346000D02*
X103886000Y-99822000D01*
X104902000Y-102362000D02*
X103886000Y-101346000D01*
X113538000Y-102362000D02*
X104902000Y-102362000D01*
X114046000Y-101854000D02*
X113538000Y-102362000D01*
X114046000Y-100794000D02*
X114046000Y-101854000D01*
D30*
X116078000Y-100039500D02*
X116846000Y-99271500D01*
X116078000Y-100076000D02*
X116078000Y-100039500D01*
X115570000Y-100076000D02*
X116078000Y-100076000D01*
X115316000Y-99822000D02*
X115570000Y-100076000D01*
X115633000Y-95821000D02*
X115633000Y-95949000D01*
X115570000Y-95758000D02*
X115633000Y-95821000D01*
X115633000Y-95695000D02*
X115570000Y-95758000D01*
X115570000Y-96012000D02*
X115633000Y-95949000D01*
X115633000Y-92202000D02*
X115633000Y-95695000D01*
D31*
X114046000Y-98933000D02*
X114046000Y-100794000D01*
X114458171Y-98520829D02*
X114046000Y-98933000D01*
X116050656Y-98520829D02*
X114458171Y-98520829D01*
X96279000Y-93218000D02*
X97549000Y-91948000D01*
X96266000Y-93218000D02*
X96279000Y-93218000D01*
X96266000Y-94475000D02*
X95999000Y-94742000D01*
X96266000Y-93218000D02*
X96266000Y-94475000D01*
X95999000Y-96266000D02*
X95999000Y-94742000D01*
X88392000Y-87630000D02*
X88519000Y-87630000D01*
X90509000Y-87630000D02*
X88392000Y-87630000D01*
D30*
X121793000Y-90678000D02*
X122309000Y-90162000D01*
X122309000Y-90162000D02*
X125254000Y-90162000D01*
X112776000Y-91695396D02*
X113793396Y-90678000D01*
X113793396Y-90678000D02*
X121793000Y-90678000D01*
X112776000Y-95294000D02*
X112776000Y-91695396D01*
X123698000Y-91059000D02*
X123698000Y-91059000D01*
X123698000Y-91186000D02*
X123698000Y-91059000D01*
X123825000Y-91186000D02*
X123698000Y-91186000D01*
X123801000Y-91162000D02*
X123825000Y-91186000D01*
X125254000Y-91162000D02*
X123801000Y-91162000D01*
X111506000Y-92329000D02*
X113919000Y-89916000D01*
X111506000Y-95294000D02*
X111506000Y-92329000D01*
D31*
X110236000Y-97409000D02*
X110236000Y-95294000D01*
X109093000Y-98552000D02*
X110236000Y-97409000D01*
X103759000Y-93408000D02*
X98489000Y-88138000D01*
X103759000Y-93599000D02*
X103759000Y-93408000D01*
X120269000Y-94234000D02*
X120396000Y-94107000D01*
X120396000Y-94234000D02*
X120269000Y-94234000D01*
X120396000Y-94107000D02*
X120396000Y-94234000D01*
X120587000Y-93916000D02*
X120396000Y-94107000D01*
X120587000Y-92202000D02*
X120587000Y-93916000D01*
X91948000Y-85852000D02*
X87135000Y-85852000D01*
X92879000Y-86680000D02*
X97031000Y-86680000D01*
X97031000Y-86680000D02*
X98489000Y-88138000D01*
X87135000Y-85852000D02*
X86373000Y-86614000D01*
X92776000Y-86680000D02*
X91948000Y-85852000D01*
X92879000Y-86680000D02*
X92776000Y-86680000D01*
X85598000Y-87884000D02*
X85598000Y-88349000D01*
D30*
X111265000Y-88392000D02*
X112776000Y-88392000D01*
D31*
X85598000Y-87884000D02*
X85598000Y-87389000D01*
D30*
X112776000Y-89662000D02*
X112522000Y-89916000D01*
X97599000Y-101092000D02*
X100838000Y-101092000D01*
D31*
X91068500Y-99196500D02*
X92456000Y-100584000D01*
D30*
X98044000Y-97790000D02*
X98552000Y-97282000D01*
X120967500Y-95720000D02*
X122963500Y-95720000D01*
D31*
X122428000Y-87122000D02*
X125214000Y-87122000D01*
D30*
X122963500Y-95720000D02*
X127063500Y-95720000D01*
D31*
X96774000Y-85598000D02*
X97739000Y-85598000D01*
X90673000Y-99196500D02*
X91068500Y-99196500D01*
D30*
X99456164Y-98298000D02*
X98552000Y-97393836D01*
X122949000Y-99314000D02*
X127049000Y-99314000D01*
X111265000Y-90424000D02*
X112014000Y-90424000D01*
X112014000Y-90424000D02*
X112776000Y-89662000D01*
X98552000Y-97393836D02*
X98552000Y-97282000D01*
D31*
X90673000Y-92796500D02*
X91099500Y-92796500D01*
D30*
X98552000Y-96520000D02*
X99060000Y-96012000D01*
D31*
X125214000Y-87122000D02*
X125254000Y-87162000D01*
D30*
X98552000Y-97282000D02*
X98552000Y-96520000D01*
D31*
X97739000Y-85598000D02*
X98501000Y-86360000D01*
X85598000Y-88349000D02*
X84823000Y-89124000D01*
X85598000Y-87389000D02*
X84823000Y-86614000D01*
D30*
X112776000Y-88392000D02*
X112522000Y-88392000D01*
X122936000Y-99301000D02*
X122949000Y-99314000D01*
X97599000Y-97790000D02*
X98044000Y-97790000D01*
D31*
X91099500Y-92796500D02*
X92456000Y-91440000D01*
D30*
X120949500Y-99301000D02*
X122936000Y-99301000D01*
X99837000Y-98298000D02*
X99456164Y-98298000D01*
D31*
X99060000Y-91440000D02*
X102870000Y-95250000D01*
X98090500Y-89708500D02*
X96012000Y-87630000D01*
X92014538Y-87630000D02*
X91064538Y-88580000D01*
X98090500Y-90170000D02*
X98090500Y-89708500D01*
X97549000Y-94742000D02*
X97549000Y-96266000D01*
X86917000Y-88580000D02*
X86373000Y-89124000D01*
X90509000Y-88580000D02*
X86917000Y-88580000D01*
X103378000Y-98298000D02*
X103886000Y-97790000D01*
X91064538Y-86680000D02*
X90509000Y-86680000D01*
X98090500Y-90170000D02*
X98090500Y-90470500D01*
X98090500Y-90470500D02*
X99060000Y-91440000D01*
X92014538Y-87630000D02*
X91064538Y-86680000D01*
X96012000Y-87630000D02*
X92014538Y-87630000D01*
X99060000Y-91440000D02*
X99060000Y-93231000D01*
X102347000Y-98298000D02*
X103378000Y-98298000D01*
X91064538Y-88580000D02*
X90509000Y-88580000D01*
X99060000Y-93231000D02*
X97549000Y-94742000D01*
D30*
X107981000Y-86658000D02*
X109715000Y-88392000D01*
X106426000Y-86658000D02*
X107981000Y-86658000D01*
X105156000Y-95294000D02*
X105156000Y-87928000D01*
X105156000Y-87928000D02*
X106426000Y-86658000D01*
X106426000Y-95294000D02*
X106426000Y-92158000D01*
X106426000Y-92158000D02*
X107981000Y-92158000D01*
X107981000Y-92158000D02*
X109715000Y-90424000D01*
D31*
X89506500Y-98396500D02*
X88646000Y-97536000D01*
X94350500Y-93596500D02*
X95999000Y-91948000D01*
X89648000Y-93596500D02*
X90673000Y-93596500D01*
X90673000Y-98396500D02*
X89506500Y-98396500D01*
X90673000Y-93596500D02*
X94350500Y-93596500D01*
X95999000Y-90203500D02*
X95965500Y-90170000D01*
X88646000Y-97536000D02*
X88646000Y-94598500D01*
X95999000Y-91948000D02*
X95999000Y-90203500D01*
X88646000Y-94598500D02*
X89648000Y-93596500D01*
D30*
X127762000Y-89945000D02*
X125979000Y-88162000D01*
X122913500Y-97270000D02*
X122963500Y-97320000D01*
X120967500Y-97270000D02*
X122913500Y-97270000D01*
X120955500Y-97282000D02*
X120967500Y-97270000D01*
X119634000Y-97282000D02*
X120955500Y-97282000D01*
X118866000Y-95758000D02*
X118866000Y-96514000D01*
X118866000Y-96514000D02*
X119634000Y-97282000D01*
X127762000Y-94818500D02*
X127762000Y-89945000D01*
X125979000Y-88162000D02*
X125254000Y-88162000D01*
X128016000Y-96367500D02*
X128016000Y-95072500D01*
X127063500Y-97320000D02*
X122963500Y-97320000D01*
X127063500Y-97320000D02*
X128016000Y-96367500D01*
X128016000Y-95072500D02*
X127762000Y-94818500D01*
X127049000Y-100914000D02*
X122949000Y-100914000D01*
X126492000Y-89662000D02*
X125992000Y-89162000D01*
X122886000Y-100851000D02*
X122949000Y-100914000D01*
X127049000Y-100914000D02*
X127686000Y-100914000D01*
X118866000Y-100221500D02*
X120320000Y-100221500D01*
X127686000Y-100914000D02*
X128270000Y-100330000D01*
X127000000Y-90678000D02*
X126492000Y-90170000D01*
X126492000Y-90170000D02*
X126492000Y-89662000D01*
X120320000Y-100221500D02*
X120949500Y-100851000D01*
X120949500Y-100851000D02*
X122886000Y-100851000D01*
X125992000Y-89162000D02*
X125254000Y-89162000D01*
D31*
X100139000Y-88138000D02*
X100139000Y-86423000D01*
X100139000Y-86423000D02*
X100076000Y-86360000D01*
X122237000Y-92202000D02*
X125214000Y-92202000D01*
X125214000Y-92202000D02*
X125254000Y-92162000D01*
D30*
X111506000Y-95419564D02*
X111506000Y-95294000D01*
X112776000Y-95294000D02*
X112776000Y-95758000D01*
X92539500Y-97746500D02*
X95885000Y-101092000D01*
X90673000Y-97746500D02*
X92539500Y-97746500D01*
X95885000Y-101092000D02*
X95949000Y-101092000D01*
X93028762Y-94746500D02*
X90673000Y-94746500D01*
X95949000Y-97790000D02*
X95949000Y-97666738D01*
X95949000Y-97666738D02*
X93028762Y-94746500D01*
X111506000Y-99568000D02*
X111506000Y-100794000D01*
X113284000Y-97790000D02*
X111506000Y-99568000D01*
X117856000Y-93726000D02*
X117856000Y-97048000D01*
X116846000Y-101171500D02*
X117856000Y-100161500D01*
X118935000Y-92647000D02*
X117856000Y-93726000D01*
X117856000Y-97048000D02*
X117114000Y-97790000D01*
X117114000Y-97790000D02*
X113284000Y-97790000D01*
X117856000Y-100161500D02*
X117856000Y-97048000D01*
X118935000Y-92202000D02*
X118935000Y-92647000D01*
X117285000Y-92202000D02*
X116846000Y-92641000D01*
X116846000Y-92641000D02*
X116846000Y-94808000D01*
X114996000Y-96708000D02*
X116846000Y-96708000D01*
X114681000Y-92900000D02*
X113983000Y-92202000D01*
X114681000Y-96393000D02*
X114681000Y-92900000D01*
X113792000Y-97282000D02*
X114681000Y-96393000D01*
X112776000Y-97282000D02*
X113792000Y-97282000D01*
X110236000Y-100794000D02*
X110236000Y-99822000D01*
X110236000Y-99822000D02*
X112776000Y-97282000D01*
X114681000Y-96393000D02*
X114996000Y-96708000D01*
D29*
X89800500Y-95746500D02*
X90673000Y-95746500D01*
X89798000Y-96746500D02*
X89535000Y-96483500D01*
X98806000Y-100076000D02*
X101519000Y-100076000D01*
X91635501Y-96721500D02*
X92339300Y-96721500D01*
X102775000Y-96920000D02*
X108566000Y-96920000D01*
X89535000Y-96012000D02*
X89800500Y-95746500D01*
X108966000Y-96520000D02*
X108966000Y-95294000D01*
X101519000Y-100076000D02*
X102347000Y-99248000D01*
X90673000Y-96746500D02*
X91610501Y-96746500D01*
X102413000Y-97282000D02*
X102347000Y-97348000D01*
X91610501Y-96746500D02*
X91635501Y-96721500D01*
X98411900Y-99681900D02*
X98806000Y-100076000D01*
X90673000Y-96746500D02*
X89798000Y-96746500D01*
X102347000Y-97348000D02*
X102775000Y-96920000D01*
X95299700Y-99681900D02*
X98411900Y-99681900D01*
X92339300Y-96721500D02*
X95299700Y-99681900D01*
X89535000Y-96483500D02*
X89535000Y-96012000D01*
X108566000Y-96920000D02*
X108966000Y-96520000D01*
X91694000Y-96012000D02*
X91694000Y-95504000D01*
X99837000Y-97348000D02*
X100665000Y-96520000D01*
X91694000Y-95504000D02*
X91436500Y-95246500D01*
X106560209Y-96520000D02*
X107696000Y-95384209D01*
X91436500Y-95246500D02*
X90673000Y-95246500D01*
X91459500Y-96246500D02*
X91694000Y-96012000D01*
X107696000Y-95384209D02*
X107696000Y-95294000D01*
X100665000Y-96520000D02*
X106560209Y-96520000D01*
X90673000Y-96246500D02*
X91459500Y-96246500D01*
X99742000Y-99343000D02*
X99837000Y-99248000D01*
G04 #@! TA.AperFunction,Conductor*
G36*
X105301670Y-84602185D02*
G01*
X105347425Y-84654989D01*
X105357369Y-84724147D01*
X105350814Y-84749829D01*
X105346461Y-84761501D01*
X105331910Y-84800515D01*
X105331909Y-84800517D01*
X105325500Y-84860127D01*
X105325500Y-84863430D01*
X105325499Y-84863449D01*
X105325500Y-86822546D01*
X105305815Y-86889585D01*
X105289181Y-86910227D01*
X104772208Y-87427199D01*
X104756110Y-87440096D01*
X104708096Y-87491225D01*
X104705392Y-87494016D01*
X104688628Y-87510780D01*
X104688621Y-87510787D01*
X104685880Y-87513529D01*
X104683499Y-87516597D01*
X104683490Y-87516608D01*
X104683411Y-87516711D01*
X104675842Y-87525572D01*
X104645935Y-87557420D01*
X104636285Y-87574974D01*
X104625609Y-87591228D01*
X104613326Y-87607063D01*
X104595975Y-87647158D01*
X104590838Y-87657644D01*
X104569802Y-87695907D01*
X104564821Y-87715309D01*
X104558520Y-87733711D01*
X104550561Y-87752102D01*
X104543728Y-87795242D01*
X104541360Y-87806674D01*
X104530499Y-87848977D01*
X104530500Y-87869016D01*
X104528973Y-87888414D01*
X104525840Y-87908194D01*
X104529950Y-87951673D01*
X104530500Y-87963343D01*
X104530500Y-92803084D01*
X104510815Y-92870123D01*
X104458011Y-92915878D01*
X104388853Y-92925822D01*
X104333615Y-92903403D01*
X104273436Y-92859681D01*
X104211730Y-92814849D01*
X104172028Y-92797172D01*
X104133177Y-92779874D01*
X104095932Y-92754276D01*
X100596884Y-89255227D01*
X100563399Y-89193904D01*
X100568383Y-89124212D01*
X100610255Y-89068279D01*
X100620415Y-89061429D01*
X100628603Y-89056478D01*
X100628606Y-89056478D01*
X100774185Y-88968472D01*
X100894472Y-88848185D01*
X100982478Y-88702606D01*
X101033086Y-88540196D01*
X101039500Y-88469616D01*
X101039500Y-87806384D01*
X101033086Y-87735804D01*
X100982478Y-87573394D01*
X100894472Y-87427815D01*
X100875816Y-87409159D01*
X100842333Y-87347836D01*
X100839500Y-87321480D01*
X100839500Y-87138302D01*
X100857962Y-87073205D01*
X100951048Y-86922289D01*
X100953306Y-86915477D01*
X101003936Y-86762685D01*
X101014000Y-86664174D01*
X101014000Y-86055826D01*
X101013667Y-86052562D01*
X101003936Y-85957314D01*
X100969005Y-85851900D01*
X100951049Y-85797713D01*
X100862781Y-85654609D01*
X100862780Y-85654608D01*
X100862779Y-85654606D01*
X100743893Y-85535720D01*
X100620642Y-85459698D01*
X100600787Y-85447451D01*
X100600786Y-85447450D01*
X100600785Y-85447450D01*
X100441185Y-85394563D01*
X100345806Y-85384819D01*
X100345787Y-85384818D01*
X100342674Y-85384500D01*
X99809326Y-85384500D01*
X99806213Y-85384817D01*
X99806193Y-85384819D01*
X99710814Y-85394563D01*
X99551214Y-85447450D01*
X99408105Y-85535721D01*
X99375826Y-85568000D01*
X99314503Y-85601485D01*
X99244811Y-85596499D01*
X99200464Y-85567998D01*
X99168581Y-85536114D01*
X99025573Y-85447906D01*
X98866083Y-85395056D01*
X98770775Y-85385319D01*
X98764496Y-85385000D01*
X98751000Y-85385000D01*
X98751000Y-86486000D01*
X98731315Y-86553039D01*
X98678511Y-86598794D01*
X98627000Y-86610000D01*
X98375000Y-86610000D01*
X98307961Y-86590315D01*
X98262206Y-86537511D01*
X98251000Y-86486000D01*
X98251000Y-85385000D01*
X98237509Y-85385000D01*
X98231222Y-85385321D01*
X98135917Y-85395056D01*
X97976426Y-85447906D01*
X97833418Y-85536114D01*
X97714614Y-85654918D01*
X97626406Y-85797926D01*
X97573556Y-85957416D01*
X97571633Y-85976246D01*
X97545236Y-86040938D01*
X97488055Y-86081089D01*
X97418244Y-86083952D01*
X97397386Y-86076720D01*
X97386818Y-86071964D01*
X97367273Y-86060941D01*
X97358930Y-86055182D01*
X97358927Y-86055181D01*
X97358926Y-86055180D01*
X97302701Y-86033856D01*
X97295783Y-86030991D01*
X97240929Y-86006303D01*
X97230952Y-86004475D01*
X97209339Y-85998450D01*
X97199873Y-85994860D01*
X97140172Y-85987610D01*
X97132771Y-85986483D01*
X97073607Y-85975641D01*
X97013566Y-85979274D01*
X97006079Y-85979500D01*
X93856680Y-85979500D01*
X93789641Y-85959815D01*
X93781193Y-85953875D01*
X93776669Y-85950404D01*
X93776668Y-85950403D01*
X93640320Y-85893926D01*
X93584003Y-85886512D01*
X93534761Y-85880029D01*
X93534757Y-85880028D01*
X93530741Y-85879500D01*
X93526688Y-85879500D01*
X93017519Y-85879500D01*
X92950480Y-85859815D01*
X92929838Y-85843181D01*
X92460940Y-85374283D01*
X92455822Y-85368847D01*
X92415929Y-85323817D01*
X92366432Y-85289651D01*
X92360405Y-85285216D01*
X92313054Y-85248120D01*
X92303813Y-85243961D01*
X92284273Y-85232941D01*
X92275930Y-85227182D01*
X92275927Y-85227181D01*
X92275926Y-85227180D01*
X92219701Y-85205856D01*
X92212783Y-85202991D01*
X92157929Y-85178303D01*
X92147952Y-85176475D01*
X92126339Y-85170450D01*
X92116873Y-85166860D01*
X92057172Y-85159610D01*
X92049771Y-85158483D01*
X91990607Y-85147641D01*
X91930566Y-85151274D01*
X91923079Y-85151500D01*
X87159921Y-85151500D01*
X87152434Y-85151274D01*
X87092391Y-85147641D01*
X87033227Y-85158483D01*
X87025828Y-85159610D01*
X86966124Y-85166860D01*
X86956651Y-85170453D01*
X86935047Y-85176476D01*
X86925069Y-85178305D01*
X86870225Y-85202987D01*
X86863310Y-85205851D01*
X86807070Y-85227181D01*
X86798723Y-85232943D01*
X86779187Y-85243961D01*
X86769944Y-85248121D01*
X86722608Y-85285205D01*
X86716582Y-85289639D01*
X86667072Y-85323816D01*
X86627184Y-85368838D01*
X86622052Y-85374289D01*
X86394160Y-85602181D01*
X86332837Y-85635666D01*
X86306480Y-85638500D01*
X86102805Y-85638500D01*
X86102785Y-85638500D01*
X86099656Y-85638501D01*
X86096524Y-85638820D01*
X86096522Y-85638821D01*
X86000292Y-85648650D01*
X85839300Y-85701997D01*
X85694954Y-85791031D01*
X85685325Y-85800661D01*
X85624001Y-85834145D01*
X85554310Y-85829159D01*
X85509965Y-85800659D01*
X85500732Y-85791426D01*
X85356486Y-85702453D01*
X85195606Y-85649143D01*
X85099445Y-85639319D01*
X85093168Y-85639000D01*
X85073000Y-85639000D01*
X85073000Y-87588999D01*
X85093165Y-87588999D01*
X85099447Y-87588678D01*
X85195605Y-87578856D01*
X85356484Y-87525546D01*
X85500732Y-87436572D01*
X85509963Y-87427341D01*
X85571285Y-87393854D01*
X85640977Y-87398837D01*
X85685329Y-87427341D01*
X85694957Y-87436969D01*
X85839300Y-87526002D01*
X86000292Y-87579349D01*
X86096522Y-87589180D01*
X86096523Y-87589180D01*
X86099655Y-87589500D01*
X86646344Y-87589499D01*
X86745708Y-87579349D01*
X86906697Y-87526003D01*
X86926921Y-87513529D01*
X87051044Y-87436968D01*
X87170968Y-87317044D01*
X87260002Y-87172699D01*
X87261257Y-87168914D01*
X87313349Y-87011708D01*
X87323500Y-86912345D01*
X87323499Y-86705520D01*
X87343183Y-86638481D01*
X87359819Y-86617837D01*
X87388840Y-86588817D01*
X87450164Y-86555333D01*
X87476520Y-86552500D01*
X89209500Y-86552500D01*
X89276539Y-86572185D01*
X89322294Y-86624989D01*
X89333500Y-86676500D01*
X89333500Y-86952685D01*
X89333500Y-86952700D01*
X89333501Y-86956740D01*
X89334029Y-86960753D01*
X89334030Y-86960764D01*
X89347925Y-87066319D01*
X89365497Y-87108742D01*
X89372966Y-87178211D01*
X89366291Y-87201683D01*
X89344807Y-87256162D01*
X89334440Y-87342493D01*
X89334000Y-87349857D01*
X89334000Y-87380000D01*
X89530668Y-87380000D01*
X89597707Y-87399685D01*
X89606154Y-87405624D01*
X89608599Y-87407500D01*
X89611331Y-87409596D01*
X89747680Y-87466074D01*
X89857259Y-87480500D01*
X90635000Y-87480499D01*
X90702039Y-87500183D01*
X90747794Y-87552987D01*
X90759000Y-87604499D01*
X90759000Y-87655500D01*
X90739315Y-87722539D01*
X90686511Y-87768294D01*
X90635000Y-87779500D01*
X89861314Y-87779500D01*
X89861298Y-87779500D01*
X89857260Y-87779501D01*
X89853247Y-87780029D01*
X89853235Y-87780030D01*
X89747681Y-87793925D01*
X89611330Y-87850404D01*
X89606807Y-87853875D01*
X89541638Y-87879070D01*
X89531320Y-87879500D01*
X86941910Y-87879500D01*
X86934423Y-87879274D01*
X86874391Y-87875642D01*
X86815242Y-87886481D01*
X86807843Y-87887608D01*
X86748122Y-87894860D01*
X86738641Y-87898456D01*
X86717036Y-87904479D01*
X86707067Y-87906306D01*
X86652228Y-87930986D01*
X86645313Y-87933850D01*
X86589067Y-87955182D01*
X86580720Y-87960943D01*
X86561192Y-87971957D01*
X86551948Y-87976118D01*
X86504597Y-88013214D01*
X86498568Y-88017649D01*
X86449070Y-88051816D01*
X86409183Y-88096838D01*
X86404051Y-88102290D01*
X86394160Y-88112181D01*
X86332837Y-88145666D01*
X86306480Y-88148500D01*
X86102805Y-88148500D01*
X86102785Y-88148500D01*
X86099656Y-88148501D01*
X86096524Y-88148820D01*
X86096522Y-88148821D01*
X86000292Y-88158650D01*
X85839300Y-88211997D01*
X85694954Y-88301031D01*
X85685325Y-88310661D01*
X85624001Y-88344145D01*
X85554310Y-88339159D01*
X85509965Y-88310659D01*
X85500732Y-88301426D01*
X85356486Y-88212453D01*
X85195606Y-88159143D01*
X85099445Y-88149319D01*
X85093168Y-88149000D01*
X85073000Y-88149000D01*
X85073000Y-90098999D01*
X85093165Y-90098999D01*
X85099447Y-90098678D01*
X85195605Y-90088856D01*
X85356484Y-90035546D01*
X85500732Y-89946572D01*
X85509963Y-89937341D01*
X85571285Y-89903854D01*
X85640977Y-89908837D01*
X85685329Y-89937341D01*
X85694957Y-89946969D01*
X85839300Y-90036002D01*
X86000292Y-90089349D01*
X86096522Y-90099180D01*
X86096523Y-90099180D01*
X86099655Y-90099500D01*
X86646344Y-90099499D01*
X86745708Y-90089349D01*
X86906697Y-90036003D01*
X86920089Y-90027743D01*
X87051044Y-89946968D01*
X87170968Y-89827044D01*
X87260002Y-89682699D01*
X87264553Y-89668967D01*
X87313349Y-89521708D01*
X87323500Y-89422345D01*
X87323500Y-89404500D01*
X87343185Y-89337461D01*
X87395989Y-89291706D01*
X87447500Y-89280500D01*
X89531320Y-89280500D01*
X89598359Y-89300185D01*
X89606807Y-89306125D01*
X89611331Y-89309596D01*
X89747680Y-89366074D01*
X89857259Y-89380500D01*
X91160740Y-89380499D01*
X91270320Y-89366074D01*
X91406669Y-89309596D01*
X91523754Y-89219754D01*
X91527729Y-89214574D01*
X91595624Y-89126091D01*
X91652052Y-89084888D01*
X91721798Y-89080733D01*
X91782718Y-89114945D01*
X91792376Y-89126091D01*
X91864245Y-89219754D01*
X91943412Y-89280500D01*
X91981331Y-89309596D01*
X92117680Y-89366074D01*
X92227259Y-89380500D01*
X93530740Y-89380499D01*
X93640320Y-89366074D01*
X93776669Y-89309596D01*
X93893754Y-89219754D01*
X93983596Y-89102669D01*
X94040074Y-88966320D01*
X94054500Y-88856741D01*
X94054499Y-88454499D01*
X94074183Y-88387461D01*
X94126987Y-88341706D01*
X94178499Y-88330500D01*
X95670481Y-88330500D01*
X95737520Y-88350185D01*
X95758162Y-88366819D01*
X96249162Y-88857819D01*
X96282647Y-88919142D01*
X96277663Y-88988834D01*
X96235791Y-89044767D01*
X96170327Y-89069184D01*
X96161481Y-89069500D01*
X95698826Y-89069500D01*
X95695713Y-89069817D01*
X95695693Y-89069819D01*
X95600314Y-89079563D01*
X95440714Y-89132450D01*
X95297606Y-89220720D01*
X95178720Y-89339606D01*
X95090450Y-89482714D01*
X95037563Y-89642314D01*
X95027819Y-89737693D01*
X95027817Y-89737713D01*
X95027500Y-89740826D01*
X95027500Y-90599174D01*
X95027818Y-90602287D01*
X95027819Y-90602306D01*
X95037563Y-90697685D01*
X95090450Y-90857285D01*
X95178720Y-91000393D01*
X95224475Y-91046148D01*
X95257960Y-91107471D01*
X95252976Y-91177163D01*
X95224478Y-91221508D01*
X95201030Y-91244956D01*
X95111997Y-91389300D01*
X95058650Y-91550292D01*
X95048819Y-91646522D01*
X95048817Y-91646542D01*
X95048500Y-91649655D01*
X95048500Y-91652803D01*
X95048500Y-91856480D01*
X95028815Y-91923519D01*
X95012181Y-91944161D01*
X94096662Y-92859681D01*
X94035339Y-92893166D01*
X94008981Y-92896000D01*
X91639439Y-92896000D01*
X91572400Y-92876315D01*
X91565129Y-92871268D01*
X91540331Y-92852704D01*
X91405483Y-92802409D01*
X91345873Y-92796000D01*
X91342551Y-92796000D01*
X90547000Y-92796000D01*
X90479961Y-92776315D01*
X90434206Y-92723511D01*
X90423000Y-92672000D01*
X90423000Y-92670500D01*
X90442685Y-92603461D01*
X90495489Y-92557706D01*
X90547000Y-92546500D01*
X91798000Y-92546500D01*
X91798000Y-92451981D01*
X91797645Y-92445367D01*
X91791599Y-92389128D01*
X91741352Y-92254410D01*
X91655188Y-92139311D01*
X91540085Y-92053145D01*
X91537600Y-92052218D01*
X91481668Y-92010344D01*
X91457254Y-91944879D01*
X91469610Y-91881431D01*
X91541060Y-91735771D01*
X91592063Y-91538785D01*
X91602369Y-91335564D01*
X91602366Y-91335546D01*
X91571556Y-91134428D01*
X91500886Y-90943613D01*
X91393254Y-90770931D01*
X91347069Y-90722345D01*
X91253059Y-90623447D01*
X91086049Y-90507205D01*
X90899058Y-90426960D01*
X90699741Y-90386000D01*
X89547258Y-90386000D01*
X89544147Y-90386316D01*
X89544134Y-90386317D01*
X89395559Y-90401426D01*
X89201412Y-90462341D01*
X89023500Y-90561089D01*
X88869104Y-90693635D01*
X88744551Y-90854542D01*
X88654940Y-91037227D01*
X88629773Y-91134429D01*
X88603937Y-91234215D01*
X88603414Y-91244522D01*
X88593630Y-91437437D01*
X88624443Y-91638571D01*
X88695113Y-91829386D01*
X88802747Y-92002071D01*
X88942940Y-92149552D01*
X88961345Y-92162363D01*
X89005123Y-92216817D01*
X89012511Y-92286295D01*
X88986055Y-92343173D01*
X88984401Y-92345171D01*
X88914421Y-92493887D01*
X88883623Y-92655333D01*
X88893943Y-92819358D01*
X88910438Y-92870123D01*
X88944732Y-92975671D01*
X88978059Y-93028185D01*
X89020955Y-93095779D01*
X89040256Y-93162930D01*
X89020189Y-93229855D01*
X89003939Y-93249902D01*
X88168290Y-94085551D01*
X88162838Y-94090683D01*
X88117816Y-94130570D01*
X88083649Y-94180068D01*
X88079213Y-94186097D01*
X88042121Y-94233442D01*
X88037961Y-94242686D01*
X88026941Y-94262225D01*
X88021182Y-94270569D01*
X87999853Y-94326805D01*
X87996989Y-94333719D01*
X87972303Y-94388570D01*
X87970475Y-94398547D01*
X87964454Y-94420148D01*
X87960859Y-94429628D01*
X87953609Y-94489327D01*
X87952483Y-94496726D01*
X87941641Y-94555890D01*
X87945274Y-94615933D01*
X87945500Y-94623420D01*
X87945500Y-97511075D01*
X87945274Y-97518562D01*
X87941641Y-97578607D01*
X87952483Y-97637771D01*
X87953610Y-97645172D01*
X87960860Y-97704873D01*
X87964450Y-97714339D01*
X87970475Y-97735952D01*
X87972303Y-97745929D01*
X87996991Y-97800783D01*
X87999856Y-97807701D01*
X88021180Y-97863926D01*
X88021182Y-97863930D01*
X88026941Y-97872273D01*
X88037961Y-97891813D01*
X88042120Y-97901054D01*
X88042121Y-97901055D01*
X88042122Y-97901057D01*
X88056400Y-97919282D01*
X88079216Y-97948405D01*
X88083651Y-97954432D01*
X88092679Y-97967511D01*
X88116872Y-98002561D01*
X88117817Y-98003929D01*
X88162847Y-98043822D01*
X88168283Y-98048940D01*
X88948413Y-98829070D01*
X88981898Y-98890393D01*
X88976914Y-98960085D01*
X88972931Y-98969545D01*
X88914421Y-99093887D01*
X88905568Y-99140295D01*
X88883623Y-99255333D01*
X88893943Y-99419358D01*
X88936716Y-99551000D01*
X88944732Y-99575671D01*
X88999391Y-99661800D01*
X89018692Y-99728949D01*
X88998625Y-99795875D01*
X88975467Y-99822324D01*
X88925603Y-99865132D01*
X88869104Y-99913635D01*
X88744551Y-100074542D01*
X88654940Y-100257227D01*
X88603937Y-100454216D01*
X88593630Y-100657437D01*
X88624443Y-100858571D01*
X88695113Y-101049386D01*
X88802745Y-101222068D01*
X88802748Y-101222071D01*
X88942941Y-101369553D01*
X89109951Y-101485795D01*
X89296942Y-101566040D01*
X89496259Y-101607000D01*
X89496261Y-101607000D01*
X90645600Y-101607000D01*
X90648742Y-101607000D01*
X90800438Y-101591574D01*
X90994588Y-101530659D01*
X91172502Y-101431909D01*
X91326895Y-101299366D01*
X91451448Y-101138458D01*
X91541060Y-100955771D01*
X91592063Y-100758785D01*
X91602369Y-100555564D01*
X91598053Y-100527394D01*
X91571556Y-100354428D01*
X91500887Y-100163616D01*
X91500886Y-100163613D01*
X91475369Y-100122674D01*
X91456614Y-100055373D01*
X91477223Y-99988612D01*
X91530653Y-99943591D01*
X91537271Y-99940903D01*
X91540089Y-99939851D01*
X91655188Y-99853688D01*
X91741352Y-99738589D01*
X91791599Y-99603871D01*
X91797645Y-99547632D01*
X91798000Y-99541018D01*
X91798000Y-99446500D01*
X90547000Y-99446500D01*
X90479961Y-99426815D01*
X90434206Y-99374011D01*
X90423000Y-99322500D01*
X90423000Y-99320999D01*
X90442685Y-99253960D01*
X90495489Y-99208205D01*
X90547000Y-99196999D01*
X91342561Y-99196999D01*
X91345872Y-99196999D01*
X91405483Y-99190591D01*
X91540331Y-99140296D01*
X91655546Y-99054046D01*
X91698857Y-98996189D01*
X91754792Y-98954318D01*
X91797972Y-98946527D01*
X91798000Y-98946500D01*
X91798000Y-98851995D01*
X91797644Y-98845365D01*
X91794068Y-98812102D01*
X91794068Y-98785594D01*
X91798500Y-98744373D01*
X91798499Y-98495998D01*
X91818183Y-98428961D01*
X91870987Y-98383206D01*
X91922499Y-98372000D01*
X92229048Y-98372000D01*
X92296087Y-98391685D01*
X92316729Y-98408319D01*
X95012181Y-101103771D01*
X95045666Y-101165094D01*
X95048500Y-101191452D01*
X95048500Y-101423616D01*
X95048754Y-101426420D01*
X95048755Y-101426424D01*
X95054913Y-101494193D01*
X95054914Y-101494196D01*
X95105522Y-101656606D01*
X95138437Y-101711054D01*
X95193528Y-101802186D01*
X95313813Y-101922471D01*
X95313815Y-101922472D01*
X95459394Y-102010478D01*
X95621804Y-102061086D01*
X95692384Y-102067500D01*
X95695203Y-102067500D01*
X96202797Y-102067500D01*
X96205616Y-102067500D01*
X96276196Y-102061086D01*
X96438606Y-102010478D01*
X96584185Y-101922472D01*
X96686674Y-101819982D01*
X96747995Y-101786499D01*
X96817687Y-101791483D01*
X96862036Y-101819984D01*
X96964126Y-101922075D01*
X97109603Y-102010019D01*
X97271893Y-102060590D01*
X97339620Y-102066745D01*
X97345238Y-102066999D01*
X97348999Y-102066998D01*
X97349000Y-102066998D01*
X97349000Y-101342000D01*
X97849000Y-101342000D01*
X97849000Y-102066999D01*
X97852753Y-102066999D01*
X97858389Y-102066743D01*
X97926104Y-102060591D01*
X98088397Y-102010018D01*
X98233875Y-101922074D01*
X98354074Y-101801875D01*
X98442019Y-101656396D01*
X98492590Y-101494106D01*
X98498744Y-101426384D01*
X98499000Y-101420755D01*
X98499000Y-101342000D01*
X97849000Y-101342000D01*
X97349000Y-101342000D01*
X97349000Y-100966000D01*
X97368685Y-100898961D01*
X97421489Y-100853206D01*
X97473000Y-100842000D01*
X98498999Y-100842000D01*
X98498999Y-100782659D01*
X98518684Y-100715620D01*
X98571488Y-100669865D01*
X98639185Y-100659720D01*
X98649236Y-100661043D01*
X98649238Y-100661044D01*
X98806000Y-100681683D01*
X98837308Y-100677560D01*
X98853494Y-100676500D01*
X101471513Y-100676500D01*
X101487697Y-100677560D01*
X101519000Y-100681682D01*
X101675762Y-100661044D01*
X101821841Y-100600536D01*
X101853856Y-100575970D01*
X101947282Y-100504282D01*
X101966509Y-100479223D01*
X101977190Y-100467043D01*
X102369415Y-100074818D01*
X102430739Y-100041333D01*
X102457097Y-100038499D01*
X102950052Y-100038499D01*
X102953758Y-100038499D01*
X102957446Y-100038056D01*
X102957448Y-100038056D01*
X103046716Y-100027337D01*
X103115624Y-100038888D01*
X103167348Y-100085860D01*
X103185500Y-100150452D01*
X103185500Y-101321079D01*
X103185274Y-101328566D01*
X103181641Y-101388607D01*
X103192483Y-101447771D01*
X103193610Y-101455172D01*
X103200860Y-101514873D01*
X103204450Y-101524339D01*
X103210475Y-101545952D01*
X103212303Y-101555929D01*
X103236991Y-101610783D01*
X103239856Y-101617701D01*
X103254612Y-101656607D01*
X103261182Y-101673930D01*
X103266941Y-101682273D01*
X103277961Y-101701813D01*
X103282120Y-101711054D01*
X103282121Y-101711055D01*
X103282122Y-101711057D01*
X103296530Y-101729447D01*
X103319216Y-101758405D01*
X103323654Y-101764436D01*
X103349710Y-101802185D01*
X103357817Y-101813929D01*
X103402847Y-101853822D01*
X103408283Y-101858940D01*
X104389058Y-102839715D01*
X104394178Y-102845153D01*
X104434071Y-102890183D01*
X104444601Y-102897451D01*
X104488590Y-102951733D01*
X104496249Y-103021182D01*
X104465145Y-103083747D01*
X104405154Y-103119564D01*
X104374159Y-103123500D01*
X84713877Y-103123500D01*
X84704147Y-103123118D01*
X84652083Y-103119020D01*
X84511427Y-103106714D01*
X84493293Y-103103760D01*
X84414590Y-103084866D01*
X84411442Y-103084067D01*
X84306205Y-103055868D01*
X84290848Y-103050655D01*
X84210531Y-103017388D01*
X84205577Y-103015208D01*
X84112224Y-102971676D01*
X84099852Y-102965028D01*
X84036940Y-102926476D01*
X84023845Y-102918451D01*
X84017513Y-102914299D01*
X83935084Y-102856582D01*
X83934839Y-102856410D01*
X83925442Y-102849135D01*
X83857023Y-102790699D01*
X83849874Y-102784090D01*
X83778908Y-102713124D01*
X83772299Y-102705975D01*
X83751538Y-102681667D01*
X83713860Y-102637551D01*
X83706594Y-102628166D01*
X83648694Y-102545477D01*
X83644547Y-102539153D01*
X83597963Y-102463135D01*
X83591329Y-102450788D01*
X83547770Y-102357376D01*
X83545622Y-102352496D01*
X83524065Y-102300451D01*
X83512343Y-102272150D01*
X83507130Y-102256793D01*
X83507080Y-102256607D01*
X83478910Y-102151476D01*
X83478153Y-102148494D01*
X83459236Y-102069698D01*
X83456285Y-102051579D01*
X83443986Y-101911001D01*
X83439882Y-101858852D01*
X83439502Y-101849092D01*
X83439510Y-101836575D01*
X83440175Y-100657437D01*
X84093630Y-100657437D01*
X84124443Y-100858571D01*
X84195113Y-101049386D01*
X84302745Y-101222068D01*
X84302748Y-101222071D01*
X84442941Y-101369553D01*
X84609951Y-101485795D01*
X84796942Y-101566040D01*
X84996259Y-101607000D01*
X84996261Y-101607000D01*
X86145600Y-101607000D01*
X86148742Y-101607000D01*
X86300438Y-101591574D01*
X86494588Y-101530659D01*
X86672502Y-101431909D01*
X86826895Y-101299366D01*
X86951448Y-101138458D01*
X87041060Y-100955771D01*
X87092063Y-100758785D01*
X87102369Y-100555564D01*
X87098053Y-100527394D01*
X87071556Y-100354428D01*
X87000886Y-100163613D01*
X86893254Y-99990931D01*
X86867651Y-99963997D01*
X86753059Y-99843447D01*
X86586049Y-99727205D01*
X86399058Y-99646960D01*
X86199741Y-99606000D01*
X85047258Y-99606000D01*
X85044147Y-99606316D01*
X85044134Y-99606317D01*
X84895559Y-99621426D01*
X84701412Y-99682341D01*
X84523500Y-99781089D01*
X84369104Y-99913635D01*
X84244551Y-100074542D01*
X84154940Y-100257227D01*
X84103937Y-100454216D01*
X84093630Y-100657437D01*
X83440175Y-100657437D01*
X83445374Y-91437437D01*
X84093630Y-91437437D01*
X84124443Y-91638571D01*
X84195113Y-91829386D01*
X84302745Y-92002068D01*
X84302748Y-92002071D01*
X84442941Y-92149553D01*
X84609951Y-92265795D01*
X84796942Y-92346040D01*
X84996259Y-92387000D01*
X84996261Y-92387000D01*
X86145600Y-92387000D01*
X86148742Y-92387000D01*
X86300438Y-92371574D01*
X86494588Y-92310659D01*
X86672502Y-92211909D01*
X86826895Y-92079366D01*
X86951448Y-91918458D01*
X87041060Y-91735771D01*
X87092063Y-91538785D01*
X87102369Y-91335564D01*
X87102366Y-91335546D01*
X87071556Y-91134428D01*
X87000886Y-90943613D01*
X86893254Y-90770931D01*
X86847069Y-90722345D01*
X86753059Y-90623447D01*
X86586049Y-90507205D01*
X86399058Y-90426960D01*
X86199741Y-90386000D01*
X85047258Y-90386000D01*
X85044147Y-90386316D01*
X85044134Y-90386317D01*
X84895559Y-90401426D01*
X84701412Y-90462341D01*
X84523500Y-90561089D01*
X84369104Y-90693635D01*
X84244551Y-90854542D01*
X84154940Y-91037227D01*
X84129773Y-91134429D01*
X84103937Y-91234215D01*
X84103414Y-91244522D01*
X84093630Y-91437437D01*
X83445374Y-91437437D01*
X83446538Y-89374000D01*
X83873001Y-89374000D01*
X83873001Y-89419165D01*
X83873321Y-89425447D01*
X83883143Y-89521605D01*
X83936453Y-89682486D01*
X84025426Y-89826732D01*
X84145267Y-89946573D01*
X84289513Y-90035546D01*
X84450393Y-90088856D01*
X84546536Y-90098678D01*
X84552851Y-90098999D01*
X84573000Y-90098999D01*
X84573000Y-89374000D01*
X83873001Y-89374000D01*
X83446538Y-89374000D01*
X83446820Y-88874000D01*
X83873000Y-88874000D01*
X84573000Y-88874000D01*
X84573000Y-88149000D01*
X84552836Y-88149000D01*
X84546550Y-88149321D01*
X84450394Y-88159143D01*
X84289513Y-88212453D01*
X84145267Y-88301426D01*
X84025426Y-88421267D01*
X83936453Y-88565513D01*
X83883143Y-88726393D01*
X83873319Y-88822554D01*
X83873000Y-88828832D01*
X83873000Y-88874000D01*
X83446820Y-88874000D01*
X83447954Y-86864000D01*
X83873001Y-86864000D01*
X83873001Y-86909165D01*
X83873321Y-86915447D01*
X83883143Y-87011605D01*
X83936453Y-87172486D01*
X84025426Y-87316732D01*
X84145267Y-87436573D01*
X84289513Y-87525546D01*
X84450393Y-87578856D01*
X84546536Y-87588678D01*
X84552851Y-87588999D01*
X84573000Y-87588999D01*
X84573000Y-86864000D01*
X83873001Y-86864000D01*
X83447954Y-86864000D01*
X83448236Y-86364000D01*
X83873000Y-86364000D01*
X84573000Y-86364000D01*
X84573000Y-85639000D01*
X84552836Y-85639000D01*
X84546550Y-85639321D01*
X84450394Y-85649143D01*
X84289513Y-85702453D01*
X84145267Y-85791426D01*
X84025426Y-85911267D01*
X83936453Y-86055513D01*
X83883143Y-86216393D01*
X83873319Y-86312554D01*
X83873000Y-86318832D01*
X83873000Y-86364000D01*
X83448236Y-86364000D01*
X83448522Y-85856834D01*
X83448904Y-85847181D01*
X83453058Y-85794407D01*
X83465275Y-85654575D01*
X83468223Y-85636464D01*
X83487407Y-85556559D01*
X83488171Y-85553553D01*
X83516086Y-85449371D01*
X83521287Y-85434050D01*
X83554884Y-85352939D01*
X83557022Y-85348083D01*
X83600236Y-85255412D01*
X83606869Y-85243066D01*
X83653822Y-85166448D01*
X83657909Y-85160213D01*
X83715453Y-85078034D01*
X83722706Y-85068666D01*
X83781577Y-84999740D01*
X83788118Y-84992664D01*
X83858671Y-84922112D01*
X83865763Y-84915556D01*
X83934704Y-84856676D01*
X83944050Y-84849440D01*
X84026228Y-84791899D01*
X84032474Y-84787806D01*
X84109086Y-84740859D01*
X84121430Y-84734225D01*
X84214133Y-84690999D01*
X84218964Y-84688874D01*
X84300070Y-84655280D01*
X84315400Y-84650076D01*
X84419608Y-84622156D01*
X84422500Y-84621421D01*
X84502503Y-84602216D01*
X84520621Y-84599266D01*
X84658061Y-84587244D01*
X84713529Y-84582879D01*
X84723194Y-84582500D01*
X105234631Y-84582500D01*
X105301670Y-84602185D01*
G37*
G04 #@! TD.AperFunction*
G04 #@! TA.AperFunction,Conductor*
G36*
X127998370Y-84602185D02*
G01*
X128044125Y-84654989D01*
X128054069Y-84724147D01*
X128025044Y-84787703D01*
X127999423Y-84805491D01*
X128000942Y-84807520D01*
X127986670Y-84818203D01*
X127986669Y-84818204D01*
X127871453Y-84904454D01*
X127871454Y-84904454D01*
X127785204Y-85019668D01*
X127734909Y-85154516D01*
X127734297Y-85160213D01*
X127728500Y-85214127D01*
X127728500Y-85217448D01*
X127728500Y-85217449D01*
X127728500Y-86506560D01*
X127728500Y-86506578D01*
X127728501Y-86509872D01*
X127728853Y-86513152D01*
X127728854Y-86513159D01*
X127734909Y-86569484D01*
X127742120Y-86588817D01*
X127785204Y-86704331D01*
X127871454Y-86819546D01*
X127986669Y-86905796D01*
X128121517Y-86956091D01*
X128181127Y-86962500D01*
X130076872Y-86962499D01*
X130136483Y-86956091D01*
X130271331Y-86905796D01*
X130386546Y-86819546D01*
X130472796Y-86704331D01*
X130523091Y-86569483D01*
X130529500Y-86509873D01*
X130529499Y-85291644D01*
X130549184Y-85224606D01*
X130601987Y-85178851D01*
X130671146Y-85168907D01*
X130734702Y-85197932D01*
X130759226Y-85226856D01*
X130762953Y-85232937D01*
X130768901Y-85242644D01*
X130775554Y-85255026D01*
X130819438Y-85349135D01*
X130821616Y-85354085D01*
X130854574Y-85433649D01*
X130859789Y-85449010D01*
X130888302Y-85555419D01*
X130889101Y-85558566D01*
X130907719Y-85636116D01*
X130910673Y-85654255D01*
X130923252Y-85798031D01*
X130927093Y-85846838D01*
X130927474Y-85856542D01*
X130927474Y-101849121D01*
X130927092Y-101858852D01*
X130922934Y-101911674D01*
X130910726Y-102051401D01*
X130907771Y-102069553D01*
X130888608Y-102149370D01*
X130887809Y-102152515D01*
X130859918Y-102256607D01*
X130854704Y-102271968D01*
X130821134Y-102353011D01*
X130818955Y-102357962D01*
X130775772Y-102450567D01*
X130769117Y-102462952D01*
X130722209Y-102539499D01*
X130718056Y-102545834D01*
X130660560Y-102627944D01*
X130653276Y-102637351D01*
X130594455Y-102706221D01*
X130587845Y-102713371D01*
X130517355Y-102783859D01*
X130510206Y-102790468D01*
X130441325Y-102849297D01*
X130431916Y-102856582D01*
X130349821Y-102914064D01*
X130343487Y-102918216D01*
X130266928Y-102965130D01*
X130254543Y-102971785D01*
X130161934Y-103014968D01*
X130156981Y-103017147D01*
X130075938Y-103050714D01*
X130060580Y-103055927D01*
X129956501Y-103083813D01*
X129953353Y-103084613D01*
X129873511Y-103103779D01*
X129855373Y-103106732D01*
X129717851Y-103118762D01*
X129705886Y-103119704D01*
X129662468Y-103123120D01*
X129652805Y-103123500D01*
X114065841Y-103123500D01*
X113998802Y-103103815D01*
X113953047Y-103051011D01*
X113943103Y-102981853D01*
X113972128Y-102918297D01*
X113995403Y-102897449D01*
X114005928Y-102890184D01*
X114005930Y-102890182D01*
X114045823Y-102845150D01*
X114050925Y-102839730D01*
X114523723Y-102366931D01*
X114529142Y-102361829D01*
X114574183Y-102321929D01*
X114608369Y-102272399D01*
X114612775Y-102266411D01*
X114649877Y-102219057D01*
X114654033Y-102209820D01*
X114665058Y-102190273D01*
X114670818Y-102181930D01*
X114692154Y-102125668D01*
X114695014Y-102118766D01*
X114719694Y-102063932D01*
X114721519Y-102053971D01*
X114727545Y-102032348D01*
X114731140Y-102022872D01*
X114738389Y-101963165D01*
X114739516Y-101955762D01*
X114739841Y-101953990D01*
X114750357Y-101896606D01*
X114746725Y-101836575D01*
X114746499Y-101829087D01*
X114746499Y-101771146D01*
X114766184Y-101704107D01*
X114771687Y-101696231D01*
X114790409Y-101671544D01*
X114845884Y-101530869D01*
X114856500Y-101442468D01*
X114856499Y-100794079D01*
X114876183Y-100727041D01*
X114928987Y-100681286D01*
X114998146Y-100671342D01*
X115030932Y-100680800D01*
X115036197Y-100683144D01*
X115036202Y-100683145D01*
X115221352Y-100722500D01*
X115221354Y-100722500D01*
X115410647Y-100722500D01*
X115487525Y-100706159D01*
X115491801Y-100705249D01*
X115536981Y-100704067D01*
X115550196Y-100706160D01*
X115593674Y-100702050D01*
X115605344Y-100701500D01*
X115821500Y-100701500D01*
X115888539Y-100721185D01*
X115934294Y-100773989D01*
X115945500Y-100825500D01*
X115945500Y-101516060D01*
X115945500Y-101516078D01*
X115945501Y-101519372D01*
X115945853Y-101522652D01*
X115945854Y-101522659D01*
X115951909Y-101578984D01*
X115977056Y-101646407D01*
X116002204Y-101713831D01*
X116088454Y-101829046D01*
X116203669Y-101915296D01*
X116338517Y-101965591D01*
X116398127Y-101972000D01*
X117293872Y-101971999D01*
X117353483Y-101965591D01*
X117488331Y-101915296D01*
X117603546Y-101829046D01*
X117689796Y-101713831D01*
X117740091Y-101578983D01*
X117746500Y-101519373D01*
X117746499Y-101206950D01*
X117766183Y-101139912D01*
X117782813Y-101119275D01*
X117983634Y-100918454D01*
X118044955Y-100884971D01*
X118114647Y-100889955D01*
X118145618Y-100906867D01*
X118223669Y-100965296D01*
X118358517Y-101015591D01*
X118418127Y-101022000D01*
X119313872Y-101021999D01*
X119373483Y-101015591D01*
X119508331Y-100965296D01*
X119623546Y-100879046D01*
X119623547Y-100879044D01*
X119633314Y-100871733D01*
X119698778Y-100847316D01*
X119707625Y-100847000D01*
X119850000Y-100847000D01*
X119917039Y-100866685D01*
X119962794Y-100919489D01*
X119974000Y-100970999D01*
X119974000Y-101121194D01*
X119974000Y-101121213D01*
X119974001Y-101124344D01*
X119974320Y-101127476D01*
X119974321Y-101127477D01*
X119984150Y-101223707D01*
X120037497Y-101384699D01*
X120126531Y-101529044D01*
X120246455Y-101648968D01*
X120390800Y-101738002D01*
X120551792Y-101791349D01*
X120648022Y-101801180D01*
X120648023Y-101801180D01*
X120651155Y-101801500D01*
X121247844Y-101801499D01*
X121347208Y-101791349D01*
X121508197Y-101738003D01*
X121522069Y-101729447D01*
X121652541Y-101648970D01*
X121652541Y-101648969D01*
X121652544Y-101648968D01*
X121772468Y-101529044D01*
X121772469Y-101529041D01*
X121782715Y-101518796D01*
X121784748Y-101520828D01*
X121820498Y-101488676D01*
X121874084Y-101476500D01*
X121902036Y-101476500D01*
X121969075Y-101496185D01*
X122014830Y-101548989D01*
X122018216Y-101557163D01*
X122055204Y-101656331D01*
X122141454Y-101771546D01*
X122256669Y-101857796D01*
X122391517Y-101908091D01*
X122451127Y-101914500D01*
X123446872Y-101914499D01*
X123506483Y-101908091D01*
X123641331Y-101857796D01*
X123756546Y-101771546D01*
X123842796Y-101656331D01*
X123856284Y-101620166D01*
X123898155Y-101564233D01*
X123963620Y-101539816D01*
X123972466Y-101539500D01*
X126025534Y-101539500D01*
X126092573Y-101559185D01*
X126138328Y-101611989D01*
X126141713Y-101620160D01*
X126155204Y-101656331D01*
X126241454Y-101771546D01*
X126356669Y-101857796D01*
X126491517Y-101908091D01*
X126551127Y-101914500D01*
X127546872Y-101914499D01*
X127606483Y-101908091D01*
X127741331Y-101857796D01*
X127856546Y-101771546D01*
X127942796Y-101656331D01*
X127993091Y-101521483D01*
X127993607Y-101516677D01*
X128020341Y-101452126D01*
X128053775Y-101423195D01*
X128072420Y-101412170D01*
X128086585Y-101398004D01*
X128101373Y-101385373D01*
X128117587Y-101373594D01*
X128145433Y-101339932D01*
X128153275Y-101331313D01*
X128217772Y-101266817D01*
X128279097Y-101233333D01*
X128305453Y-101230500D01*
X128364648Y-101230500D01*
X128488083Y-101204262D01*
X128549803Y-101191144D01*
X128722730Y-101114151D01*
X128737017Y-101103771D01*
X128875870Y-101002889D01*
X128918295Y-100955772D01*
X129002533Y-100862216D01*
X129097179Y-100698284D01*
X129155674Y-100518256D01*
X129175460Y-100330000D01*
X129155674Y-100141744D01*
X129097179Y-99961716D01*
X129097179Y-99961715D01*
X129002533Y-99797783D01*
X128875870Y-99657110D01*
X128722730Y-99545848D01*
X128549802Y-99468855D01*
X128364648Y-99429500D01*
X128364646Y-99429500D01*
X128175354Y-99429500D01*
X128175352Y-99429500D01*
X127990197Y-99468855D01*
X127805365Y-99551149D01*
X127803879Y-99547812D01*
X127759070Y-99563798D01*
X127751997Y-99564000D01*
X126099000Y-99564000D01*
X126099000Y-99858518D01*
X126099354Y-99865132D01*
X126105400Y-99921371D01*
X126160818Y-100069951D01*
X126165802Y-100139643D01*
X126160818Y-100156618D01*
X126141716Y-100207833D01*
X126099845Y-100263767D01*
X126034380Y-100288184D01*
X126025534Y-100288500D01*
X123972466Y-100288500D01*
X123905427Y-100268815D01*
X123859672Y-100216011D01*
X123856284Y-100207833D01*
X123837182Y-100156618D01*
X123832198Y-100086926D01*
X123837182Y-100069951D01*
X123892599Y-99921371D01*
X123898645Y-99865132D01*
X123899000Y-99858518D01*
X123899000Y-99564000D01*
X121988862Y-99564000D01*
X121944589Y-99551000D01*
X119974501Y-99551000D01*
X119965820Y-99559681D01*
X119904497Y-99593166D01*
X119878139Y-99596000D01*
X119707625Y-99596000D01*
X119640586Y-99576315D01*
X119633314Y-99571267D01*
X119623547Y-99563955D01*
X119623546Y-99563954D01*
X119508331Y-99477704D01*
X119373483Y-99427409D01*
X119343971Y-99424236D01*
X119317166Y-99421354D01*
X119317165Y-99421353D01*
X119313873Y-99421000D01*
X119310551Y-99421000D01*
X118605500Y-99421000D01*
X118538461Y-99401315D01*
X118492706Y-99348511D01*
X118481500Y-99297000D01*
X118481500Y-98314091D01*
X118481500Y-97313449D01*
X118501184Y-97246414D01*
X118553987Y-97200659D01*
X118623146Y-97190715D01*
X118686702Y-97219740D01*
X118693180Y-97225772D01*
X119133196Y-97665787D01*
X119146096Y-97681888D01*
X119148213Y-97683876D01*
X119148214Y-97683877D01*
X119180652Y-97714339D01*
X119197223Y-97729900D01*
X119200020Y-97732611D01*
X119219529Y-97752120D01*
X119222709Y-97754587D01*
X119231571Y-97762155D01*
X119263418Y-97792062D01*
X119277099Y-97799583D01*
X119280972Y-97801712D01*
X119297236Y-97812396D01*
X119308839Y-97821396D01*
X119313064Y-97824673D01*
X119337909Y-97835424D01*
X119353152Y-97842021D01*
X119363631Y-97847154D01*
X119401908Y-97868197D01*
X119421306Y-97873177D01*
X119439708Y-97879477D01*
X119458104Y-97887438D01*
X119501261Y-97894273D01*
X119512664Y-97896634D01*
X119554981Y-97907500D01*
X119575016Y-97907500D01*
X119594413Y-97909026D01*
X119614196Y-97912160D01*
X119657674Y-97908050D01*
X119669344Y-97907500D01*
X120052625Y-97907500D01*
X120119664Y-97927185D01*
X120140306Y-97943819D01*
X120264455Y-98067968D01*
X120408800Y-98157002D01*
X120433163Y-98165075D01*
X120490608Y-98204847D01*
X120517431Y-98269363D01*
X120505116Y-98338139D01*
X120457573Y-98389339D01*
X120433163Y-98400487D01*
X120391013Y-98414453D01*
X120246767Y-98503426D01*
X120126926Y-98623267D01*
X120037953Y-98767513D01*
X119984643Y-98928393D01*
X119974819Y-99024554D01*
X119974500Y-99030832D01*
X119974500Y-99051000D01*
X121934638Y-99051000D01*
X121978911Y-99064000D01*
X123899000Y-99064000D01*
X123899000Y-98769481D01*
X123898645Y-98762867D01*
X123892599Y-98706628D01*
X123842352Y-98571910D01*
X123756189Y-98456811D01*
X123709695Y-98422006D01*
X123667824Y-98366072D01*
X123662840Y-98296381D01*
X123696325Y-98235058D01*
X123709682Y-98223483D01*
X123771046Y-98177546D01*
X123857296Y-98062331D01*
X123870784Y-98026166D01*
X123912655Y-97970233D01*
X123978120Y-97945816D01*
X123986966Y-97945500D01*
X126040034Y-97945500D01*
X126107073Y-97965185D01*
X126152828Y-98017989D01*
X126156213Y-98026160D01*
X126169704Y-98062331D01*
X126251082Y-98171038D01*
X126255955Y-98177547D01*
X126264196Y-98183716D01*
X126292423Y-98204847D01*
X126302803Y-98212617D01*
X126344675Y-98268550D01*
X126349659Y-98338242D01*
X126316175Y-98399565D01*
X126302805Y-98411150D01*
X126241811Y-98456810D01*
X126155647Y-98571910D01*
X126105400Y-98706628D01*
X126099354Y-98762867D01*
X126099000Y-98769481D01*
X126099000Y-99064000D01*
X127999000Y-99064000D01*
X127998999Y-99063999D01*
X127999000Y-98769481D01*
X127998645Y-98762867D01*
X127992599Y-98706628D01*
X127942352Y-98571910D01*
X127856189Y-98456811D01*
X127809695Y-98422006D01*
X127767824Y-98366072D01*
X127762840Y-98296381D01*
X127796325Y-98235058D01*
X127809682Y-98223483D01*
X127871046Y-98177546D01*
X127957296Y-98062331D01*
X128007591Y-97927483D01*
X128014000Y-97867873D01*
X128013999Y-97305451D01*
X128033683Y-97238413D01*
X128050313Y-97217776D01*
X128399789Y-96868300D01*
X128415885Y-96855406D01*
X128417873Y-96853287D01*
X128417877Y-96853286D01*
X128463949Y-96804223D01*
X128466534Y-96801555D01*
X128486120Y-96781971D01*
X128488585Y-96778792D01*
X128496167Y-96769916D01*
X128526062Y-96738082D01*
X128535717Y-96720518D01*
X128546394Y-96704264D01*
X128558673Y-96688436D01*
X128576018Y-96648352D01*
X128581160Y-96637856D01*
X128602197Y-96599592D01*
X128607179Y-96580184D01*
X128613481Y-96561780D01*
X128621437Y-96543396D01*
X128628269Y-96500252D01*
X128630633Y-96488838D01*
X128641500Y-96446519D01*
X128641500Y-96426483D01*
X128643027Y-96407084D01*
X128643046Y-96406965D01*
X128646160Y-96387304D01*
X128642047Y-96343803D01*
X128641500Y-96332176D01*
X128641500Y-95155229D01*
X128643763Y-95134742D01*
X128643279Y-95119343D01*
X128641561Y-95064644D01*
X128641500Y-95060750D01*
X128641500Y-95037044D01*
X128641500Y-95033150D01*
X128640998Y-95029181D01*
X128640080Y-95017524D01*
X128638709Y-94973873D01*
X128633120Y-94954640D01*
X128629174Y-94935582D01*
X128626664Y-94915708D01*
X128623172Y-94906888D01*
X128610585Y-94875097D01*
X128606804Y-94864052D01*
X128594619Y-94822113D01*
X128594618Y-94822112D01*
X128594618Y-94822110D01*
X128584417Y-94804861D01*
X128575860Y-94787395D01*
X128568486Y-94768768D01*
X128568483Y-94768764D01*
X128568483Y-94768763D01*
X128561669Y-94759384D01*
X128538189Y-94693578D01*
X128554015Y-94625524D01*
X128604120Y-94576829D01*
X128661987Y-94562499D01*
X130073561Y-94562499D01*
X130076872Y-94562499D01*
X130136483Y-94556091D01*
X130271331Y-94505796D01*
X130386546Y-94419546D01*
X130472796Y-94304331D01*
X130523091Y-94169483D01*
X130529500Y-94109873D01*
X130529499Y-92814128D01*
X130523091Y-92754517D01*
X130472796Y-92619669D01*
X130386546Y-92504454D01*
X130271331Y-92418204D01*
X130136483Y-92367909D01*
X130076873Y-92361500D01*
X130073551Y-92361500D01*
X128511500Y-92361500D01*
X128444461Y-92341815D01*
X128398706Y-92289011D01*
X128387500Y-92237500D01*
X128387500Y-90027743D01*
X128389764Y-90007239D01*
X128388908Y-89980011D01*
X128387561Y-89937126D01*
X128387500Y-89933231D01*
X128387500Y-89909540D01*
X128387500Y-89905650D01*
X128386998Y-89901677D01*
X128386080Y-89890018D01*
X128385760Y-89879837D01*
X128384709Y-89846373D01*
X128379120Y-89827140D01*
X128375174Y-89808082D01*
X128372664Y-89788206D01*
X128356588Y-89747604D01*
X128352804Y-89736553D01*
X128341813Y-89698724D01*
X128340618Y-89694610D01*
X128330414Y-89677355D01*
X128321861Y-89659895D01*
X128315625Y-89644145D01*
X128314486Y-89641268D01*
X128288808Y-89605925D01*
X128282401Y-89596171D01*
X128260170Y-89558580D01*
X128246006Y-89544416D01*
X128233367Y-89529617D01*
X128221595Y-89513413D01*
X128187941Y-89485573D01*
X128179299Y-89477709D01*
X126562092Y-87860501D01*
X126528607Y-87799178D01*
X126526483Y-87786073D01*
X126523091Y-87754517D01*
X126504478Y-87704615D01*
X126499495Y-87634926D01*
X126504480Y-87617947D01*
X126522598Y-87569374D01*
X126528646Y-87513114D01*
X126529000Y-87506518D01*
X126529000Y-87412000D01*
X126277069Y-87412000D01*
X126233737Y-87404182D01*
X126136483Y-87367909D01*
X126076873Y-87361500D01*
X126073550Y-87361500D01*
X124434439Y-87361500D01*
X124434420Y-87361500D01*
X124431128Y-87361501D01*
X124427848Y-87361853D01*
X124427840Y-87361854D01*
X124371515Y-87367909D01*
X124274264Y-87404182D01*
X124230931Y-87412000D01*
X123979000Y-87412000D01*
X123979000Y-87506518D01*
X123979354Y-87513132D01*
X123985401Y-87569375D01*
X124003519Y-87617953D01*
X124008503Y-87687644D01*
X124003520Y-87704617D01*
X123984909Y-87754517D01*
X123979635Y-87803575D01*
X123978500Y-87814127D01*
X123978500Y-87817448D01*
X123978500Y-87817449D01*
X123978500Y-88506560D01*
X123978500Y-88506578D01*
X123978501Y-88509872D01*
X123978853Y-88513152D01*
X123978854Y-88513159D01*
X123984909Y-88569483D01*
X124003253Y-88618666D01*
X124008237Y-88688358D01*
X124003253Y-88705331D01*
X123984909Y-88754513D01*
X123981125Y-88789708D01*
X123978500Y-88814127D01*
X123978500Y-89132451D01*
X123978501Y-89412500D01*
X123958817Y-89479539D01*
X123906013Y-89525294D01*
X123854501Y-89536500D01*
X122391740Y-89536500D01*
X122371236Y-89534236D01*
X122301144Y-89536439D01*
X122297250Y-89536500D01*
X122269650Y-89536500D01*
X122265799Y-89536986D01*
X122265768Y-89536988D01*
X122265640Y-89537005D01*
X122254028Y-89537918D01*
X122210368Y-89539290D01*
X122191128Y-89544880D01*
X122172081Y-89548825D01*
X122152209Y-89551335D01*
X122111599Y-89567413D01*
X122100554Y-89571194D01*
X122058611Y-89583380D01*
X122041369Y-89593578D01*
X122023897Y-89602138D01*
X122005266Y-89609514D01*
X121969938Y-89635181D01*
X121960180Y-89641591D01*
X121922579Y-89663829D01*
X121908410Y-89677998D01*
X121893622Y-89690628D01*
X121877410Y-89702407D01*
X121849570Y-89736059D01*
X121841710Y-89744697D01*
X121570226Y-90016182D01*
X121508906Y-90049666D01*
X121482547Y-90052500D01*
X114947829Y-90052500D01*
X114880790Y-90032815D01*
X114835035Y-89980011D01*
X114826684Y-89928870D01*
X114825822Y-89928961D01*
X114823604Y-89907854D01*
X114804674Y-89727744D01*
X114749709Y-89558579D01*
X114746179Y-89547715D01*
X114651533Y-89383783D01*
X114524870Y-89243110D01*
X114371730Y-89131848D01*
X114198802Y-89054855D01*
X114013648Y-89015500D01*
X114013646Y-89015500D01*
X113824354Y-89015500D01*
X113824352Y-89015500D01*
X113639197Y-89054855D01*
X113466269Y-89131848D01*
X113313129Y-89243110D01*
X113186466Y-89383783D01*
X113091820Y-89547715D01*
X113033326Y-89727742D01*
X113015679Y-89895649D01*
X112989094Y-89960263D01*
X112980039Y-89970368D01*
X112312726Y-90637681D01*
X112251403Y-90671166D01*
X112225045Y-90674000D01*
X111515000Y-90674000D01*
X111515000Y-91384045D01*
X111495315Y-91451084D01*
X111478681Y-91471726D01*
X111122208Y-91828199D01*
X111106110Y-91841096D01*
X111058096Y-91892225D01*
X111055392Y-91895016D01*
X111038628Y-91911780D01*
X111038621Y-91911787D01*
X111035880Y-91914529D01*
X111033499Y-91917597D01*
X111033490Y-91917608D01*
X111033411Y-91917711D01*
X111025842Y-91926572D01*
X110995935Y-91958420D01*
X110986285Y-91975974D01*
X110975609Y-91992228D01*
X110963326Y-92008063D01*
X110945975Y-92048158D01*
X110940838Y-92058644D01*
X110919802Y-92096907D01*
X110914821Y-92116309D01*
X110908520Y-92134711D01*
X110900561Y-92153102D01*
X110893728Y-92196242D01*
X110891360Y-92207674D01*
X110880499Y-92249977D01*
X110880500Y-92270016D01*
X110878973Y-92289414D01*
X110875840Y-92309194D01*
X110879950Y-92352673D01*
X110880500Y-92364343D01*
X110880500Y-94066547D01*
X110860815Y-94133586D01*
X110808011Y-94179341D01*
X110738853Y-94189285D01*
X110711011Y-94181902D01*
X110627871Y-94149116D01*
X110557188Y-94140628D01*
X110539468Y-94138500D01*
X109932532Y-94138500D01*
X109928868Y-94138939D01*
X109928868Y-94138940D01*
X109844127Y-94149116D01*
X109703455Y-94204590D01*
X109675921Y-94225470D01*
X109610609Y-94250291D01*
X109542246Y-94235861D01*
X109526073Y-94225467D01*
X109498543Y-94204590D01*
X109357872Y-94149116D01*
X109287188Y-94140628D01*
X109269468Y-94138500D01*
X108662532Y-94138500D01*
X108658868Y-94138939D01*
X108658868Y-94138940D01*
X108574127Y-94149116D01*
X108433456Y-94204590D01*
X108405925Y-94225468D01*
X108340613Y-94250291D01*
X108272249Y-94235863D01*
X108256075Y-94225468D01*
X108228543Y-94204590D01*
X108087872Y-94149116D01*
X108017188Y-94140628D01*
X107999468Y-94138500D01*
X107995768Y-94138500D01*
X107644911Y-94138500D01*
X107577872Y-94118815D01*
X107532117Y-94066011D01*
X107521622Y-94001245D01*
X107525273Y-93967283D01*
X107526500Y-93955873D01*
X107526500Y-92907499D01*
X107546185Y-92840461D01*
X107598989Y-92794706D01*
X107650500Y-92783500D01*
X107898256Y-92783500D01*
X107918762Y-92785764D01*
X107921665Y-92785672D01*
X107921667Y-92785673D01*
X107988872Y-92783561D01*
X107992768Y-92783500D01*
X108016448Y-92783500D01*
X108020350Y-92783500D01*
X108024313Y-92782999D01*
X108035962Y-92782080D01*
X108079627Y-92780709D01*
X108098859Y-92775120D01*
X108117918Y-92771174D01*
X108124196Y-92770381D01*
X108137792Y-92768664D01*
X108178407Y-92752582D01*
X108189444Y-92748803D01*
X108231390Y-92736618D01*
X108248629Y-92726422D01*
X108266102Y-92717862D01*
X108284732Y-92710486D01*
X108320064Y-92684814D01*
X108329830Y-92678400D01*
X108340652Y-92672000D01*
X108367420Y-92656170D01*
X108381585Y-92642004D01*
X108396373Y-92629373D01*
X108412587Y-92617594D01*
X108440438Y-92583926D01*
X108448279Y-92575309D01*
X109587771Y-91435818D01*
X109649095Y-91402333D01*
X109675453Y-91399499D01*
X109985195Y-91399499D01*
X109988344Y-91399499D01*
X110087708Y-91389349D01*
X110248697Y-91336003D01*
X110393044Y-91246968D01*
X110402672Y-91237339D01*
X110463992Y-91203854D01*
X110533684Y-91208837D01*
X110578036Y-91237341D01*
X110587269Y-91246574D01*
X110731513Y-91335546D01*
X110892393Y-91388856D01*
X110988536Y-91398678D01*
X110994851Y-91398999D01*
X111014999Y-91398999D01*
X111015000Y-90298000D01*
X111034685Y-90230960D01*
X111087489Y-90185206D01*
X111139000Y-90174000D01*
X112214999Y-90174000D01*
X112214999Y-90128834D01*
X112214678Y-90122552D01*
X112204856Y-90026394D01*
X112151546Y-89865513D01*
X112062573Y-89721267D01*
X111942732Y-89601426D01*
X111800244Y-89513538D01*
X111753519Y-89461590D01*
X111742298Y-89392628D01*
X111770141Y-89328546D01*
X111800244Y-89302462D01*
X111942732Y-89214573D01*
X112062573Y-89094732D01*
X112151546Y-88950486D01*
X112204856Y-88789606D01*
X112214680Y-88693445D01*
X112215000Y-88687167D01*
X112215000Y-88642000D01*
X111139000Y-88642000D01*
X111071961Y-88622315D01*
X111026206Y-88569511D01*
X111015000Y-88518000D01*
X111014999Y-87417000D01*
X111515000Y-87417000D01*
X111515000Y-88142000D01*
X112214999Y-88142000D01*
X112214999Y-88096834D01*
X112214678Y-88090552D01*
X112204856Y-87994394D01*
X112151546Y-87833513D01*
X112062573Y-87689267D01*
X111942732Y-87569426D01*
X111798486Y-87480453D01*
X111637606Y-87427143D01*
X111541445Y-87417319D01*
X111535168Y-87417000D01*
X111515000Y-87417000D01*
X111014999Y-87417000D01*
X110994836Y-87417000D01*
X110988550Y-87417321D01*
X110892394Y-87427143D01*
X110731513Y-87480453D01*
X110587266Y-87569426D01*
X110578032Y-87578661D01*
X110516708Y-87612145D01*
X110447016Y-87607159D01*
X110402672Y-87578659D01*
X110393044Y-87569031D01*
X110248699Y-87479997D01*
X110087707Y-87426650D01*
X109991477Y-87416819D01*
X109991458Y-87416818D01*
X109988345Y-87416500D01*
X109985196Y-87416500D01*
X109675453Y-87416500D01*
X109608414Y-87396815D01*
X109587772Y-87380181D01*
X109119590Y-86911999D01*
X123978999Y-86911999D01*
X123979000Y-86912000D01*
X125004000Y-86912000D01*
X125004000Y-86362000D01*
X125504000Y-86362000D01*
X125504000Y-86912000D01*
X126529000Y-86912000D01*
X126529000Y-86817481D01*
X126528645Y-86810867D01*
X126522599Y-86754628D01*
X126472352Y-86619910D01*
X126386188Y-86504811D01*
X126271089Y-86418647D01*
X126136371Y-86368400D01*
X126080132Y-86362354D01*
X126073518Y-86362000D01*
X125504000Y-86362000D01*
X125004000Y-86362000D01*
X124434482Y-86362000D01*
X124427867Y-86362354D01*
X124371628Y-86368400D01*
X124236910Y-86418647D01*
X124121811Y-86504811D01*
X124035647Y-86619910D01*
X123985400Y-86754628D01*
X123979354Y-86810867D01*
X123979000Y-86817481D01*
X123978999Y-86911999D01*
X109119590Y-86911999D01*
X108481802Y-86274211D01*
X108468906Y-86258113D01*
X108417775Y-86210098D01*
X108414978Y-86207387D01*
X108398227Y-86190636D01*
X108395471Y-86187880D01*
X108392290Y-86185412D01*
X108383422Y-86177837D01*
X108351582Y-86147938D01*
X108334024Y-86138285D01*
X108317764Y-86127604D01*
X108301936Y-86115327D01*
X108261851Y-86097980D01*
X108251361Y-86092841D01*
X108213091Y-86071802D01*
X108193691Y-86066821D01*
X108175284Y-86060519D01*
X108156897Y-86052562D01*
X108113758Y-86045729D01*
X108102324Y-86043361D01*
X108060019Y-86032500D01*
X108039984Y-86032500D01*
X108020586Y-86030973D01*
X108013162Y-86029797D01*
X108000805Y-86027840D01*
X108000804Y-86027840D01*
X107967751Y-86030964D01*
X107957325Y-86031950D01*
X107945656Y-86032500D01*
X107650499Y-86032500D01*
X107583460Y-86012815D01*
X107537705Y-85960011D01*
X107526499Y-85908500D01*
X107526499Y-85394563D01*
X107526499Y-84860128D01*
X107520091Y-84800517D01*
X107501186Y-84749832D01*
X107496203Y-84680142D01*
X107529688Y-84618819D01*
X107591011Y-84585334D01*
X107617369Y-84582500D01*
X127931331Y-84582500D01*
X127998370Y-84602185D01*
G37*
G04 #@! TD.AperFunction*
G04 #@! TA.AperFunction,Conductor*
G36*
X97742039Y-91717685D02*
G01*
X97787794Y-91770489D01*
X97799000Y-91822000D01*
X97799000Y-92922999D01*
X97819165Y-92922999D01*
X97825447Y-92922678D01*
X97921605Y-92912856D01*
X98082481Y-92859547D01*
X98114618Y-92839725D01*
X98182010Y-92821284D01*
X98248674Y-92842205D01*
X98293445Y-92895847D01*
X98302107Y-92965177D01*
X98271912Y-93028185D01*
X98267398Y-93032944D01*
X97570160Y-93730181D01*
X97508837Y-93763666D01*
X97482480Y-93766500D01*
X97278805Y-93766500D01*
X97278785Y-93766500D01*
X97275656Y-93766501D01*
X97272524Y-93766820D01*
X97272522Y-93766821D01*
X97176292Y-93776650D01*
X97015300Y-93829997D01*
X96870954Y-93919031D01*
X96861325Y-93928661D01*
X96800001Y-93962145D01*
X96730310Y-93957159D01*
X96685965Y-93928659D01*
X96676732Y-93919426D01*
X96532486Y-93830453D01*
X96371606Y-93777143D01*
X96275445Y-93767319D01*
X96269168Y-93767000D01*
X96249000Y-93767000D01*
X96249000Y-96392000D01*
X96229315Y-96459039D01*
X96176511Y-96504794D01*
X96125000Y-96516000D01*
X95873000Y-96516000D01*
X95805961Y-96496315D01*
X95760206Y-96443511D01*
X95749000Y-96392000D01*
X95749000Y-94992000D01*
X95049001Y-94992000D01*
X95049001Y-95037165D01*
X95049321Y-95043447D01*
X95059143Y-95139605D01*
X95112453Y-95300484D01*
X95197831Y-95438901D01*
X95216272Y-95506294D01*
X95197831Y-95569096D01*
X95104844Y-95719851D01*
X95101156Y-95717576D01*
X95076635Y-95752976D01*
X95012113Y-95779784D01*
X94943340Y-95767453D01*
X94911043Y-95744190D01*
X93675534Y-94508681D01*
X93642049Y-94447358D01*
X93647033Y-94377666D01*
X93688905Y-94321733D01*
X93754369Y-94297316D01*
X93763215Y-94297000D01*
X94325579Y-94297000D01*
X94333066Y-94297226D01*
X94336206Y-94297415D01*
X94393106Y-94300858D01*
X94452282Y-94290013D01*
X94459681Y-94288887D01*
X94519372Y-94281640D01*
X94528835Y-94278050D01*
X94550458Y-94272022D01*
X94560432Y-94270195D01*
X94615308Y-94245496D01*
X94622173Y-94242652D01*
X94678430Y-94221318D01*
X94686770Y-94215560D01*
X94706319Y-94204535D01*
X94715557Y-94200378D01*
X94762913Y-94163275D01*
X94768920Y-94158855D01*
X94818429Y-94124683D01*
X94858323Y-94079650D01*
X94863424Y-94074231D01*
X94939059Y-93998596D01*
X95000380Y-93965113D01*
X95070072Y-93970097D01*
X95126005Y-94011969D01*
X95150422Y-94077433D01*
X95135570Y-94145706D01*
X95132277Y-94151375D01*
X95112453Y-94183514D01*
X95059143Y-94344393D01*
X95049319Y-94440554D01*
X95049000Y-94446832D01*
X95049000Y-94492000D01*
X95749000Y-94492000D01*
X95749000Y-93767000D01*
X95728836Y-93767000D01*
X95722550Y-93767321D01*
X95626394Y-93777143D01*
X95465514Y-93830453D01*
X95433375Y-93850277D01*
X95365983Y-93868717D01*
X95299319Y-93847794D01*
X95254550Y-93794152D01*
X95245889Y-93724821D01*
X95276086Y-93661814D01*
X95280579Y-93657076D01*
X95977837Y-92959818D01*
X96039161Y-92926333D01*
X96065519Y-92923499D01*
X96269195Y-92923499D01*
X96272344Y-92923499D01*
X96371708Y-92913349D01*
X96532697Y-92860003D01*
X96677044Y-92770968D01*
X96686672Y-92761339D01*
X96747992Y-92727854D01*
X96817684Y-92732837D01*
X96862036Y-92761341D01*
X96871269Y-92770574D01*
X97015513Y-92859546D01*
X97176393Y-92912856D01*
X97272536Y-92922678D01*
X97278851Y-92922999D01*
X97299000Y-92922999D01*
X97299000Y-91822000D01*
X97318685Y-91754961D01*
X97371489Y-91709206D01*
X97423000Y-91698000D01*
X97675000Y-91698000D01*
X97742039Y-91717685D01*
G37*
G04 #@! TD.AperFunction*
G04 #@! TA.AperFunction,Conductor*
G36*
X99955977Y-93326634D02*
G01*
X101943495Y-95314152D01*
X101976980Y-95375475D01*
X101979134Y-95388869D01*
X101984325Y-95438254D01*
X102042820Y-95618284D01*
X102109340Y-95733500D01*
X102125813Y-95801401D01*
X102102960Y-95867427D01*
X102048039Y-95910618D01*
X102001953Y-95919500D01*
X100712487Y-95919500D01*
X100696302Y-95918439D01*
X100692376Y-95917922D01*
X100664999Y-95914317D01*
X100528549Y-95932282D01*
X100508238Y-95934956D01*
X100362158Y-95995464D01*
X100236716Y-96091718D01*
X100217494Y-96116770D01*
X100206800Y-96128964D01*
X99814582Y-96521181D01*
X99753259Y-96554666D01*
X99726901Y-96557500D01*
X99233948Y-96557500D01*
X99233931Y-96557500D01*
X99230242Y-96557501D01*
X99226571Y-96557941D01*
X99226567Y-96557942D01*
X99143282Y-96567943D01*
X99004905Y-96622511D01*
X98886386Y-96712386D01*
X98796511Y-96830906D01*
X98741941Y-96969285D01*
X98731941Y-97052561D01*
X98731940Y-97052576D01*
X98731500Y-97056241D01*
X98731500Y-97059940D01*
X98731500Y-97059941D01*
X98731500Y-97339849D01*
X98711815Y-97406888D01*
X98659011Y-97452643D01*
X98589853Y-97462587D01*
X98526297Y-97433562D01*
X98489115Y-97376739D01*
X98442019Y-97225603D01*
X98355816Y-97083006D01*
X98337980Y-97015451D01*
X98356393Y-96953763D01*
X98436003Y-96824697D01*
X98489349Y-96663708D01*
X98499500Y-96564345D01*
X98499499Y-95967656D01*
X98489349Y-95868292D01*
X98436003Y-95707303D01*
X98350753Y-95569093D01*
X98332314Y-95501706D01*
X98350753Y-95438906D01*
X98436003Y-95300697D01*
X98489349Y-95139708D01*
X98499500Y-95040345D01*
X98499499Y-94833518D01*
X98519183Y-94766479D01*
X98535813Y-94745842D01*
X99537731Y-93743924D01*
X99543150Y-93738823D01*
X99588183Y-93698929D01*
X99622377Y-93649389D01*
X99626770Y-93643419D01*
X99663878Y-93596056D01*
X99668035Y-93586818D01*
X99679061Y-93567268D01*
X99684818Y-93558930D01*
X99706152Y-93502674D01*
X99708994Y-93495811D01*
X99733695Y-93440931D01*
X99735522Y-93430956D01*
X99741549Y-93409339D01*
X99745140Y-93399872D01*
X99745200Y-93399373D01*
X99746283Y-93396857D01*
X99750482Y-93385788D01*
X99750967Y-93385972D01*
X99772816Y-93335197D01*
X99830748Y-93296137D01*
X99900600Y-93294597D01*
X99955977Y-93326634D01*
G37*
G04 #@! TD.AperFunction*
G04 #@! TA.AperFunction,Conductor*
G36*
X101184539Y-97140185D02*
G01*
X101230294Y-97192989D01*
X101241500Y-97244500D01*
X101241500Y-97636051D01*
X101241500Y-97636067D01*
X101241501Y-97639758D01*
X101241941Y-97643429D01*
X101241942Y-97643432D01*
X101251943Y-97726720D01*
X101271972Y-97777511D01*
X101278253Y-97847097D01*
X101271972Y-97868487D01*
X101251942Y-97919281D01*
X101241941Y-98002561D01*
X101241940Y-98002576D01*
X101241500Y-98006241D01*
X101241500Y-98009940D01*
X101241500Y-98009941D01*
X101241500Y-98586051D01*
X101241500Y-98586067D01*
X101241501Y-98589758D01*
X101241941Y-98593429D01*
X101241942Y-98593432D01*
X101251943Y-98676720D01*
X101271972Y-98727511D01*
X101278253Y-98797097D01*
X101271972Y-98818487D01*
X101251942Y-98869281D01*
X101241941Y-98952561D01*
X101241941Y-98952567D01*
X101241500Y-98956241D01*
X101241500Y-99208205D01*
X101241501Y-99351500D01*
X101221817Y-99418539D01*
X101169013Y-99464294D01*
X101117501Y-99475500D01*
X101066500Y-99475500D01*
X100999461Y-99455815D01*
X100953706Y-99403011D01*
X100942500Y-99351500D01*
X100942499Y-98959948D01*
X100942499Y-98959941D01*
X100942499Y-98956242D01*
X100932057Y-98869282D01*
X100911757Y-98817806D01*
X100905477Y-98748221D01*
X100911759Y-98726826D01*
X100931567Y-98676597D01*
X100941559Y-98593391D01*
X100942000Y-98586027D01*
X100942000Y-98548000D01*
X100744405Y-98548000D01*
X100677366Y-98528315D01*
X100669481Y-98522805D01*
X100669093Y-98522511D01*
X100669092Y-98522510D01*
X100587587Y-98490369D01*
X100530714Y-98467941D01*
X100447438Y-98457941D01*
X100447424Y-98457940D01*
X100443759Y-98457500D01*
X100440058Y-98457500D01*
X99233948Y-98457500D01*
X99233931Y-98457500D01*
X99230242Y-98457501D01*
X99226571Y-98457941D01*
X99226567Y-98457942D01*
X99143299Y-98467941D01*
X99143282Y-98467943D01*
X99004908Y-98522510D01*
X99004907Y-98522510D01*
X99004906Y-98522511D01*
X99004519Y-98522805D01*
X98994657Y-98526552D01*
X98989053Y-98528763D01*
X98989025Y-98528693D01*
X98939207Y-98547627D01*
X98929595Y-98548000D01*
X98732000Y-98548000D01*
X98732000Y-98557400D01*
X98712315Y-98624439D01*
X98659511Y-98670194D01*
X98608000Y-98681400D01*
X98464197Y-98681400D01*
X98397158Y-98661715D01*
X98351403Y-98608911D01*
X98341459Y-98539753D01*
X98358080Y-98493250D01*
X98442019Y-98354396D01*
X98492590Y-98192106D01*
X98498744Y-98124384D01*
X98499000Y-98118755D01*
X98499000Y-98114362D01*
X98515879Y-98056879D01*
X98499000Y-98040000D01*
X97473000Y-98040000D01*
X97405961Y-98020315D01*
X97360206Y-97967511D01*
X97349000Y-97916000D01*
X97349000Y-97664000D01*
X97368685Y-97596961D01*
X97421489Y-97551206D01*
X97473000Y-97540000D01*
X98498998Y-97540000D01*
X98519818Y-97519180D01*
X98581141Y-97485694D01*
X98650833Y-97490678D01*
X98706766Y-97532549D01*
X98731184Y-97598013D01*
X98731500Y-97606856D01*
X98731500Y-97636049D01*
X98731501Y-97636058D01*
X98731501Y-97639758D01*
X98731941Y-97643429D01*
X98731942Y-97643432D01*
X98741943Y-97726721D01*
X98762240Y-97778192D01*
X98768521Y-97847779D01*
X98762240Y-97869167D01*
X98742431Y-97919400D01*
X98733818Y-97991126D01*
X98716202Y-98032202D01*
X98732000Y-98048000D01*
X98929595Y-98048000D01*
X98996634Y-98067685D01*
X99004518Y-98073194D01*
X99004908Y-98073490D01*
X99143282Y-98128057D01*
X99143285Y-98128058D01*
X99218897Y-98137137D01*
X99230241Y-98138500D01*
X100443758Y-98138499D01*
X100530718Y-98128057D01*
X100669092Y-98073490D01*
X100669481Y-98073194D01*
X100679342Y-98069447D01*
X100684947Y-98067237D01*
X100684974Y-98067306D01*
X100734793Y-98048373D01*
X100744405Y-98048000D01*
X100941999Y-98048000D01*
X100942000Y-98009972D01*
X100941559Y-98002608D01*
X100931567Y-97919399D01*
X100911759Y-97869170D01*
X100905477Y-97799583D01*
X100911754Y-97778201D01*
X100932057Y-97726718D01*
X100932057Y-97726715D01*
X100932058Y-97726714D01*
X100942058Y-97643438D01*
X100942500Y-97639759D01*
X100942499Y-97244499D01*
X100962183Y-97177461D01*
X101014987Y-97131706D01*
X101066499Y-97120500D01*
X101117500Y-97120500D01*
X101184539Y-97140185D01*
G37*
G04 #@! TD.AperFunction*
G04 #@! TA.AperFunction,Conductor*
G36*
X126681380Y-91521861D02*
G01*
X126705275Y-91532500D01*
X126720199Y-91539145D01*
X126905352Y-91578500D01*
X127012500Y-91578500D01*
X127079539Y-91598185D01*
X127125294Y-91650989D01*
X127136500Y-91702500D01*
X127136500Y-94735756D01*
X127134235Y-94756266D01*
X127136439Y-94826372D01*
X127136500Y-94830267D01*
X127136500Y-94857850D01*
X127136988Y-94861719D01*
X127136989Y-94861725D01*
X127137004Y-94861843D01*
X127137918Y-94873467D01*
X127139290Y-94917126D01*
X127144879Y-94936360D01*
X127148825Y-94955416D01*
X127151335Y-94975292D01*
X127167414Y-95015904D01*
X127171197Y-95026951D01*
X127183382Y-95068891D01*
X127193580Y-95086135D01*
X127202136Y-95103600D01*
X127209514Y-95122232D01*
X127209515Y-95122233D01*
X127235180Y-95157559D01*
X127241593Y-95167322D01*
X127263828Y-95204918D01*
X127277179Y-95218269D01*
X127310666Y-95279591D01*
X127313500Y-95305952D01*
X127313500Y-95846000D01*
X127293815Y-95913039D01*
X127241011Y-95958794D01*
X127189500Y-95970000D01*
X126113500Y-95970000D01*
X126113500Y-96264518D01*
X126113854Y-96271132D01*
X126119900Y-96327371D01*
X126175318Y-96475951D01*
X126180302Y-96545643D01*
X126175318Y-96562618D01*
X126169704Y-96577668D01*
X126169704Y-96577669D01*
X126156216Y-96613833D01*
X126114345Y-96669767D01*
X126048880Y-96694184D01*
X126040034Y-96694500D01*
X123986966Y-96694500D01*
X123919927Y-96674815D01*
X123874172Y-96622011D01*
X123870784Y-96613833D01*
X123857296Y-96577669D01*
X123857295Y-96577668D01*
X123851682Y-96562618D01*
X123846698Y-96492926D01*
X123851682Y-96475951D01*
X123907099Y-96327371D01*
X123913145Y-96271132D01*
X123913500Y-96264518D01*
X123913500Y-95970000D01*
X120841500Y-95970000D01*
X120774461Y-95950315D01*
X120728706Y-95897511D01*
X120717500Y-95846000D01*
X120717500Y-95594000D01*
X120737185Y-95526961D01*
X120789989Y-95481206D01*
X120841500Y-95470000D01*
X122713500Y-95470000D01*
X122713500Y-94720000D01*
X123213500Y-94720000D01*
X123213500Y-95470000D01*
X123913500Y-95470000D01*
X126113500Y-95470000D01*
X126813500Y-95470000D01*
X126813500Y-94720000D01*
X126568982Y-94720000D01*
X126562367Y-94720354D01*
X126506128Y-94726400D01*
X126371410Y-94776647D01*
X126256311Y-94862811D01*
X126170147Y-94977910D01*
X126119900Y-95112628D01*
X126113854Y-95168867D01*
X126113500Y-95175481D01*
X126113500Y-95470000D01*
X123913500Y-95470000D01*
X123913500Y-95175481D01*
X123913145Y-95168867D01*
X123907099Y-95112628D01*
X123856852Y-94977910D01*
X123770688Y-94862811D01*
X123655589Y-94776647D01*
X123520871Y-94726400D01*
X123464632Y-94720354D01*
X123458018Y-94720000D01*
X123213500Y-94720000D01*
X122713500Y-94720000D01*
X122468982Y-94720000D01*
X122462367Y-94720354D01*
X122406128Y-94726400D01*
X122271410Y-94776647D01*
X122156311Y-94862811D01*
X122070147Y-94977911D01*
X122038258Y-95063409D01*
X121996386Y-95119343D01*
X121930921Y-95143759D01*
X121862649Y-95128907D01*
X121816538Y-95085173D01*
X121790072Y-95042266D01*
X121670232Y-94922426D01*
X121525986Y-94833453D01*
X121365106Y-94780143D01*
X121324591Y-94776004D01*
X121259900Y-94749607D01*
X121219750Y-94692425D01*
X121216888Y-94622614D01*
X121219265Y-94614328D01*
X121223177Y-94602286D01*
X121223179Y-94602284D01*
X121281674Y-94422256D01*
X121301460Y-94234000D01*
X121281674Y-94045744D01*
X121281671Y-94045737D01*
X121281248Y-94041704D01*
X121282601Y-94006388D01*
X121291358Y-93958606D01*
X121287726Y-93898566D01*
X121287500Y-93891079D01*
X121287500Y-93018519D01*
X121307185Y-92951480D01*
X121323731Y-92930926D01*
X121323819Y-92930838D01*
X121324232Y-92930424D01*
X121385520Y-92896879D01*
X121455216Y-92901794D01*
X121499680Y-92930338D01*
X121601813Y-93032471D01*
X121632245Y-93050868D01*
X121747394Y-93120478D01*
X121909804Y-93171086D01*
X121980384Y-93177500D01*
X121983203Y-93177500D01*
X122490797Y-93177500D01*
X122493616Y-93177500D01*
X122564196Y-93171086D01*
X122726606Y-93120478D01*
X122872185Y-93032472D01*
X122912496Y-92992161D01*
X122965839Y-92938819D01*
X123027162Y-92905334D01*
X123053520Y-92902500D01*
X124205459Y-92902500D01*
X124248792Y-92910318D01*
X124359154Y-92951480D01*
X124371517Y-92956091D01*
X124431127Y-92962500D01*
X126076872Y-92962499D01*
X126136483Y-92956091D01*
X126271331Y-92905796D01*
X126386546Y-92819546D01*
X126472796Y-92704331D01*
X126523091Y-92569483D01*
X126529500Y-92509873D01*
X126529499Y-91814128D01*
X126523091Y-91754517D01*
X126504745Y-91705331D01*
X126499762Y-91635643D01*
X126504743Y-91618675D01*
X126514765Y-91591805D01*
X126556636Y-91535874D01*
X126622100Y-91511457D01*
X126681380Y-91521861D01*
G37*
G04 #@! TD.AperFunction*
G04 #@! TA.AperFunction,Conductor*
G36*
X113562380Y-93141974D02*
G01*
X113655804Y-93171086D01*
X113726384Y-93177500D01*
X113931500Y-93177500D01*
X113998539Y-93197185D01*
X114044294Y-93249989D01*
X114055500Y-93301500D01*
X114055500Y-94015000D01*
X114035815Y-94082039D01*
X113983011Y-94127794D01*
X113931501Y-94139000D01*
X113746281Y-94139000D01*
X113738901Y-94139442D01*
X113654250Y-94149607D01*
X113570989Y-94182441D01*
X113501403Y-94188722D01*
X113439467Y-94156385D01*
X113404846Y-94095696D01*
X113401500Y-94067086D01*
X113401500Y-93260362D01*
X113421185Y-93193323D01*
X113473989Y-93147568D01*
X113543147Y-93137624D01*
X113562380Y-93141974D01*
G37*
G04 #@! TD.AperFunction*
M02*
