G04 #@! TF.GenerationSoftware,KiCad,Pcbnew,7.0.2*
G04 #@! TF.CreationDate,2023-10-30T14:31:13+01:00*
G04 #@! TF.ProjectId,programmer_board,70726f67-7261-46d6-9d65-725f626f6172,rev?*
G04 #@! TF.SameCoordinates,Original*
G04 #@! TF.FileFunction,Copper,L2,Bot*
G04 #@! TF.FilePolarity,Positive*
%FSLAX46Y46*%
G04 Gerber Fmt 4.6, Leading zero omitted, Abs format (unit mm)*
G04 Created by KiCad (PCBNEW 7.0.2) date 2023-10-30 14:31:13*
%MOMM*%
%LPD*%
G01*
G04 APERTURE LIST*
G04 #@! TA.AperFunction,ComponentPad*
%ADD10O,2.000000X1.000000*%
G04 #@! TD*
G04 #@! TA.AperFunction,ViaPad*
%ADD11C,0.800000*%
G04 #@! TD*
G04 #@! TA.AperFunction,Conductor*
%ADD12C,0.400000*%
G04 #@! TD*
G04 #@! TA.AperFunction,Conductor*
%ADD13C,0.250000*%
G04 #@! TD*
G04 APERTURE END LIST*
D10*
X85598000Y-91386500D03*
X85598000Y-100606500D03*
X90098000Y-91386500D03*
X90098000Y-100606500D03*
D11*
X116050656Y-98520829D03*
X107492800Y-99009200D03*
X120396000Y-94234000D03*
X103759000Y-93599000D03*
X99060000Y-96012000D03*
X92456000Y-91440000D03*
X96774000Y-85598000D03*
X123698000Y-93980000D03*
X112776000Y-89662000D03*
X100838000Y-101092000D03*
X88392000Y-87630000D03*
X113792000Y-93726000D03*
X122682000Y-93980000D03*
X112776000Y-88392000D03*
X92456000Y-100584000D03*
X96266000Y-93218000D03*
X85598000Y-87884000D03*
X122428000Y-87122000D03*
X103886000Y-97790000D03*
X102870000Y-95250000D03*
X128270000Y-100330000D03*
X127000000Y-90678000D03*
X113919000Y-89916000D03*
X123698000Y-91186000D03*
X115570000Y-95758000D03*
X115316000Y-99822000D03*
D12*
X106603800Y-98120200D02*
X107492800Y-99009200D01*
X116050656Y-98520829D02*
X116109171Y-98520829D01*
X106588728Y-98120200D02*
X106603800Y-98120200D01*
X103759000Y-93599000D02*
X103759000Y-95290472D01*
X103759000Y-95290472D02*
X106588728Y-98120200D01*
X116109171Y-98520829D02*
X120396000Y-94234000D01*
X116050656Y-98520829D02*
X116019485Y-98552000D01*
X102870000Y-95250000D02*
X103886000Y-96266000D01*
X103886000Y-96266000D02*
X103886000Y-97790000D01*
D13*
X128270000Y-91948000D02*
X127000000Y-90678000D01*
X128270000Y-100330000D02*
X128270000Y-91948000D01*
X122428000Y-89916000D02*
X123698000Y-91186000D01*
X113919000Y-89916000D02*
X122428000Y-89916000D01*
X115570000Y-95758000D02*
X114808000Y-96520000D01*
X114808000Y-96520000D02*
X114808000Y-99314000D01*
X114808000Y-99314000D02*
X115316000Y-99822000D01*
G04 #@! TA.AperFunction,Conductor*
G36*
X129662826Y-84582881D02*
G01*
X129714962Y-84586983D01*
X129855570Y-84599283D01*
X129873675Y-84602232D01*
X129952436Y-84621139D01*
X129955468Y-84621909D01*
X130060779Y-84650125D01*
X130076131Y-84655335D01*
X130156449Y-84688603D01*
X130161385Y-84690775D01*
X130254751Y-84734311D01*
X130267136Y-84740966D01*
X130343144Y-84787542D01*
X130349468Y-84791688D01*
X130349503Y-84791712D01*
X130432138Y-84849573D01*
X130441545Y-84856857D01*
X130509969Y-84915295D01*
X130517119Y-84921904D01*
X130588080Y-84992863D01*
X130594689Y-85000012D01*
X130653124Y-85068429D01*
X130660404Y-85077831D01*
X130718301Y-85160514D01*
X130722446Y-85166837D01*
X130769019Y-85242837D01*
X130775674Y-85255221D01*
X130819214Y-85348591D01*
X130821393Y-85353544D01*
X130854651Y-85433835D01*
X130859865Y-85449195D01*
X130888070Y-85554458D01*
X130888869Y-85557604D01*
X130907754Y-85636266D01*
X130910709Y-85654418D01*
X130923195Y-85797314D01*
X130927093Y-85846838D01*
X130927474Y-85856541D01*
X130927474Y-101849123D01*
X130927092Y-101858853D01*
X130922994Y-101910919D01*
X130910688Y-102051569D01*
X130907734Y-102069703D01*
X130888842Y-102148397D01*
X130888043Y-102151545D01*
X130859840Y-102256799D01*
X130854626Y-102272158D01*
X130821374Y-102352434D01*
X130819194Y-102357387D01*
X130775648Y-102450768D01*
X130768994Y-102463152D01*
X130722435Y-102539129D01*
X130718282Y-102545463D01*
X130660380Y-102628154D01*
X130653095Y-102637563D01*
X130594677Y-102705960D01*
X130588069Y-102713109D01*
X130517096Y-102784081D01*
X130509944Y-102790691D01*
X130441527Y-102849122D01*
X130432121Y-102856405D01*
X130349458Y-102914286D01*
X130343123Y-102918440D01*
X130267126Y-102965009D01*
X130254742Y-102971663D01*
X130161375Y-103015200D01*
X130156421Y-103017379D01*
X130076124Y-103050637D01*
X130060766Y-103055850D01*
X129955525Y-103084048D01*
X129952378Y-103084847D01*
X129873668Y-103103742D01*
X129855542Y-103106695D01*
X129717046Y-103118825D01*
X129700049Y-103120163D01*
X129662470Y-103123120D01*
X129652803Y-103123500D01*
X84713877Y-103123500D01*
X84704147Y-103123118D01*
X84652083Y-103119020D01*
X84511427Y-103106714D01*
X84493293Y-103103760D01*
X84414590Y-103084866D01*
X84411442Y-103084067D01*
X84306205Y-103055868D01*
X84290848Y-103050655D01*
X84210531Y-103017388D01*
X84205577Y-103015208D01*
X84205560Y-103015200D01*
X84112224Y-102971676D01*
X84099852Y-102965028D01*
X84052554Y-102936044D01*
X84023845Y-102918451D01*
X84017513Y-102914299D01*
X83982624Y-102889869D01*
X83934832Y-102856405D01*
X83925442Y-102849135D01*
X83857023Y-102790699D01*
X83849874Y-102784090D01*
X83778908Y-102713124D01*
X83772299Y-102705975D01*
X83751538Y-102681667D01*
X83713860Y-102637551D01*
X83706594Y-102628166D01*
X83648694Y-102545477D01*
X83644547Y-102539153D01*
X83597963Y-102463135D01*
X83591329Y-102450788D01*
X83547770Y-102357376D01*
X83545622Y-102352496D01*
X83512343Y-102272150D01*
X83507130Y-102256793D01*
X83478910Y-102151476D01*
X83478153Y-102148494D01*
X83459236Y-102069698D01*
X83456285Y-102051579D01*
X83443986Y-101911001D01*
X83439881Y-101858853D01*
X83439502Y-101849092D01*
X83439648Y-101591574D01*
X83440175Y-100657437D01*
X84093630Y-100657437D01*
X84124443Y-100858571D01*
X84195113Y-101049386D01*
X84302745Y-101222068D01*
X84302748Y-101222071D01*
X84442941Y-101369553D01*
X84609951Y-101485795D01*
X84796942Y-101566040D01*
X84996259Y-101607000D01*
X84996261Y-101607000D01*
X86145600Y-101607000D01*
X86148742Y-101607000D01*
X86300438Y-101591574D01*
X86494588Y-101530659D01*
X86672502Y-101431909D01*
X86826895Y-101299366D01*
X86951448Y-101138458D01*
X87041060Y-100955771D01*
X87092063Y-100758785D01*
X87097203Y-100657437D01*
X88593630Y-100657437D01*
X88624443Y-100858571D01*
X88695113Y-101049386D01*
X88802745Y-101222068D01*
X88802748Y-101222071D01*
X88942941Y-101369553D01*
X89109951Y-101485795D01*
X89296942Y-101566040D01*
X89496259Y-101607000D01*
X89496261Y-101607000D01*
X90645600Y-101607000D01*
X90648742Y-101607000D01*
X90800438Y-101591574D01*
X90994588Y-101530659D01*
X91172502Y-101431909D01*
X91326895Y-101299366D01*
X91451448Y-101138458D01*
X91541060Y-100955771D01*
X91592063Y-100758785D01*
X91602369Y-100555564D01*
X91571556Y-100354429D01*
X91562508Y-100329999D01*
X91500886Y-100163613D01*
X91393254Y-99990931D01*
X91386803Y-99984144D01*
X91253059Y-99843447D01*
X91086049Y-99727205D01*
X90899058Y-99646960D01*
X90699741Y-99606000D01*
X90699739Y-99606000D01*
X90291079Y-99606000D01*
X90224040Y-99586315D01*
X90178285Y-99533511D01*
X90168341Y-99464353D01*
X90169267Y-99458806D01*
X90192376Y-99337670D01*
X90182056Y-99173640D01*
X90131268Y-99017329D01*
X90077392Y-98932434D01*
X90043202Y-98878559D01*
X89923393Y-98766052D01*
X89779365Y-98686871D01*
X89620179Y-98646000D01*
X89620177Y-98646000D01*
X89497075Y-98646000D01*
X89493216Y-98646487D01*
X89493208Y-98646488D01*
X89374940Y-98661428D01*
X89222129Y-98721931D01*
X89089165Y-98818534D01*
X88984399Y-98945175D01*
X88950446Y-99017329D01*
X88914421Y-99093887D01*
X88904085Y-99148069D01*
X88883623Y-99255333D01*
X88893943Y-99419358D01*
X88933602Y-99541416D01*
X88944732Y-99575671D01*
X88999391Y-99661800D01*
X89018692Y-99728949D01*
X88998625Y-99795875D01*
X88975467Y-99822324D01*
X88873688Y-99909700D01*
X88869104Y-99913635D01*
X88744551Y-100074542D01*
X88654940Y-100257227D01*
X88603937Y-100454216D01*
X88593630Y-100657437D01*
X87097203Y-100657437D01*
X87102369Y-100555564D01*
X87071556Y-100354429D01*
X87062508Y-100329999D01*
X87000886Y-100163613D01*
X86893254Y-99990931D01*
X86886803Y-99984144D01*
X86753059Y-99843447D01*
X86586049Y-99727205D01*
X86399058Y-99646960D01*
X86199741Y-99606000D01*
X85047258Y-99606000D01*
X85044147Y-99606316D01*
X85044134Y-99606317D01*
X84895559Y-99621426D01*
X84701412Y-99682341D01*
X84523500Y-99781089D01*
X84369104Y-99913635D01*
X84244551Y-100074542D01*
X84154940Y-100257227D01*
X84103937Y-100454216D01*
X84093630Y-100657437D01*
X83440175Y-100657437D01*
X83443225Y-95250000D01*
X101964540Y-95250000D01*
X101984326Y-95438257D01*
X102042820Y-95618284D01*
X102137466Y-95782216D01*
X102264129Y-95922889D01*
X102417269Y-96034151D01*
X102590197Y-96111144D01*
X102745126Y-96144075D01*
X102806608Y-96177267D01*
X102807027Y-96177684D01*
X103149181Y-96519838D01*
X103182666Y-96581161D01*
X103185500Y-96607519D01*
X103185500Y-97174608D01*
X103165815Y-97241647D01*
X103153655Y-97257575D01*
X103153467Y-97257783D01*
X103058820Y-97421715D01*
X103000326Y-97601742D01*
X102980540Y-97790000D01*
X103000326Y-97978257D01*
X103058820Y-98158284D01*
X103153466Y-98322216D01*
X103280129Y-98462889D01*
X103433269Y-98574151D01*
X103606197Y-98651144D01*
X103791352Y-98690500D01*
X103791354Y-98690500D01*
X103980648Y-98690500D01*
X104117420Y-98661428D01*
X104165803Y-98651144D01*
X104338730Y-98574151D01*
X104338729Y-98574150D01*
X104491870Y-98462889D01*
X104618533Y-98322216D01*
X104713179Y-98158284D01*
X104716503Y-98148055D01*
X104771674Y-97978256D01*
X104791460Y-97790000D01*
X104772108Y-97605878D01*
X104784677Y-97537152D01*
X104832409Y-97486128D01*
X104900150Y-97469010D01*
X104966391Y-97491232D01*
X104983110Y-97505239D01*
X106075786Y-98597915D01*
X106080906Y-98603353D01*
X106120799Y-98648383D01*
X106170313Y-98682560D01*
X106176332Y-98686990D01*
X106187054Y-98695390D01*
X106198263Y-98705320D01*
X106566295Y-99073352D01*
X106599780Y-99134675D01*
X106601934Y-99148069D01*
X106607125Y-99197454D01*
X106665620Y-99377484D01*
X106760266Y-99541416D01*
X106886929Y-99682089D01*
X107040069Y-99793351D01*
X107212997Y-99870344D01*
X107398152Y-99909700D01*
X107398154Y-99909700D01*
X107587448Y-99909700D01*
X107710884Y-99883462D01*
X107772603Y-99870344D01*
X107945530Y-99793351D01*
X108054142Y-99714440D01*
X108098670Y-99682089D01*
X108225333Y-99541416D01*
X108319979Y-99377484D01*
X108336783Y-99325767D01*
X108378474Y-99197456D01*
X108398260Y-99009200D01*
X108378474Y-98820944D01*
X108336090Y-98690500D01*
X108319979Y-98640915D01*
X108225333Y-98476983D01*
X108098670Y-98336310D01*
X107945530Y-98225048D01*
X107772602Y-98148055D01*
X107617672Y-98115124D01*
X107556190Y-98081932D01*
X107555772Y-98081515D01*
X107116740Y-97642483D01*
X107111622Y-97637047D01*
X107071729Y-97592017D01*
X107022207Y-97557833D01*
X107016225Y-97553432D01*
X107005457Y-97544996D01*
X106994262Y-97535077D01*
X105959379Y-96500194D01*
X114177840Y-96500194D01*
X114181950Y-96543673D01*
X114182500Y-96555343D01*
X114182500Y-99231256D01*
X114180235Y-99251766D01*
X114182439Y-99321872D01*
X114182500Y-99325767D01*
X114182500Y-99353350D01*
X114182988Y-99357219D01*
X114182989Y-99357225D01*
X114183004Y-99357343D01*
X114183918Y-99368967D01*
X114185290Y-99412626D01*
X114190879Y-99431860D01*
X114194825Y-99450916D01*
X114197335Y-99470792D01*
X114213414Y-99511404D01*
X114217197Y-99522451D01*
X114229382Y-99564391D01*
X114239580Y-99581635D01*
X114248136Y-99599100D01*
X114255514Y-99617732D01*
X114255515Y-99617733D01*
X114281180Y-99653059D01*
X114287593Y-99662822D01*
X114309826Y-99700416D01*
X114309829Y-99700419D01*
X114309830Y-99700420D01*
X114323995Y-99714585D01*
X114336627Y-99729375D01*
X114348406Y-99745587D01*
X114368669Y-99762350D01*
X114407777Y-99820250D01*
X114412950Y-99844932D01*
X114430326Y-100010257D01*
X114488820Y-100190284D01*
X114583466Y-100354216D01*
X114710129Y-100494889D01*
X114863269Y-100606151D01*
X115036197Y-100683144D01*
X115221352Y-100722500D01*
X115221354Y-100722500D01*
X115410648Y-100722500D01*
X115534083Y-100696262D01*
X115595803Y-100683144D01*
X115768730Y-100606151D01*
X115921871Y-100494888D01*
X116048533Y-100354216D01*
X116143179Y-100190284D01*
X116201674Y-100010256D01*
X116221460Y-99822000D01*
X116201674Y-99633744D01*
X116176028Y-99554817D01*
X116174034Y-99484978D01*
X116210114Y-99425145D01*
X116268177Y-99395211D01*
X116330459Y-99381973D01*
X116503386Y-99304980D01*
X116576629Y-99251766D01*
X116656526Y-99193718D01*
X116674604Y-99173641D01*
X116783189Y-99053045D01*
X116877835Y-98889113D01*
X116936330Y-98709085D01*
X116936330Y-98709082D01*
X116939047Y-98700721D01*
X116969295Y-98651360D01*
X120458974Y-95161682D01*
X120520295Y-95128199D01*
X120520818Y-95128086D01*
X120675803Y-95095144D01*
X120848730Y-95018151D01*
X121001871Y-94906888D01*
X121128533Y-94766216D01*
X121223179Y-94602284D01*
X121281674Y-94422256D01*
X121301460Y-94234000D01*
X121281674Y-94045744D01*
X121223179Y-93865716D01*
X121223179Y-93865715D01*
X121128533Y-93701783D01*
X121001870Y-93561110D01*
X120848730Y-93449848D01*
X120675802Y-93372855D01*
X120490648Y-93333500D01*
X120490646Y-93333500D01*
X120301354Y-93333500D01*
X120301352Y-93333500D01*
X120116197Y-93372855D01*
X119943269Y-93449848D01*
X119790129Y-93561110D01*
X119663466Y-93701783D01*
X119568820Y-93865715D01*
X119510325Y-94045746D01*
X119505134Y-94095129D01*
X119478549Y-94159743D01*
X119469495Y-94169846D01*
X116055333Y-97584010D01*
X115994010Y-97617495D01*
X115967652Y-97620329D01*
X115956008Y-97620329D01*
X115770857Y-97659683D01*
X115607936Y-97732221D01*
X115538686Y-97741505D01*
X115475409Y-97711877D01*
X115438196Y-97652742D01*
X115433500Y-97618941D01*
X115433500Y-96830451D01*
X115453185Y-96763412D01*
X115469815Y-96742774D01*
X115517772Y-96694817D01*
X115579095Y-96661334D01*
X115605452Y-96658500D01*
X115664648Y-96658500D01*
X115788084Y-96632262D01*
X115849803Y-96619144D01*
X116022730Y-96542151D01*
X116175871Y-96430888D01*
X116302533Y-96290216D01*
X116397179Y-96126284D01*
X116455674Y-95946256D01*
X116475460Y-95758000D01*
X116455674Y-95569744D01*
X116397179Y-95389716D01*
X116397179Y-95389715D01*
X116302533Y-95225783D01*
X116175870Y-95085110D01*
X116022730Y-94973848D01*
X115849802Y-94896855D01*
X115664648Y-94857500D01*
X115664646Y-94857500D01*
X115475354Y-94857500D01*
X115475352Y-94857500D01*
X115290197Y-94896855D01*
X115117269Y-94973848D01*
X114964129Y-95085110D01*
X114837466Y-95225783D01*
X114742820Y-95389715D01*
X114684326Y-95569742D01*
X114666679Y-95737649D01*
X114640094Y-95802263D01*
X114631039Y-95812368D01*
X114424208Y-96019199D01*
X114408110Y-96032096D01*
X114360096Y-96083225D01*
X114357392Y-96086016D01*
X114340628Y-96102780D01*
X114340621Y-96102787D01*
X114337880Y-96105529D01*
X114335499Y-96108597D01*
X114335490Y-96108608D01*
X114335411Y-96108711D01*
X114327842Y-96117572D01*
X114297935Y-96149420D01*
X114288285Y-96166974D01*
X114277609Y-96183228D01*
X114265326Y-96199063D01*
X114247975Y-96239158D01*
X114242838Y-96249644D01*
X114221802Y-96287907D01*
X114216821Y-96307309D01*
X114210520Y-96325711D01*
X114202561Y-96344102D01*
X114195728Y-96387242D01*
X114193360Y-96398674D01*
X114182499Y-96440977D01*
X114182500Y-96461016D01*
X114180973Y-96480414D01*
X114177840Y-96500194D01*
X105959379Y-96500194D01*
X104495819Y-95036633D01*
X104462334Y-94975310D01*
X104459500Y-94948952D01*
X104459500Y-94214391D01*
X104479185Y-94147352D01*
X104491354Y-94131415D01*
X104491387Y-94131377D01*
X104491533Y-94131216D01*
X104586179Y-93967284D01*
X104644674Y-93787256D01*
X104664460Y-93599000D01*
X104644674Y-93410744D01*
X104586179Y-93230716D01*
X104586179Y-93230715D01*
X104491533Y-93066783D01*
X104364870Y-92926110D01*
X104211730Y-92814848D01*
X104038802Y-92737855D01*
X103853648Y-92698500D01*
X103853646Y-92698500D01*
X103664354Y-92698500D01*
X103664352Y-92698500D01*
X103479197Y-92737855D01*
X103306269Y-92814848D01*
X103153129Y-92926110D01*
X103026466Y-93066783D01*
X102931820Y-93230715D01*
X102873326Y-93410742D01*
X102853540Y-93598999D01*
X102873326Y-93787257D01*
X102931820Y-93967284D01*
X103026465Y-94131214D01*
X103026646Y-94131415D01*
X103026964Y-94132078D01*
X103032983Y-94142503D01*
X103032188Y-94142961D01*
X103056879Y-94194405D01*
X103058500Y-94214391D01*
X103058500Y-94225500D01*
X103038815Y-94292539D01*
X102986011Y-94338294D01*
X102934500Y-94349500D01*
X102775352Y-94349500D01*
X102590197Y-94388855D01*
X102417269Y-94465848D01*
X102264129Y-94577110D01*
X102137466Y-94717783D01*
X102042820Y-94881715D01*
X101984326Y-95061742D01*
X101964540Y-95250000D01*
X83443225Y-95250000D01*
X83445375Y-91437437D01*
X84093630Y-91437437D01*
X84124443Y-91638571D01*
X84195113Y-91829386D01*
X84302745Y-92002068D01*
X84302748Y-92002071D01*
X84442941Y-92149553D01*
X84609951Y-92265795D01*
X84796942Y-92346040D01*
X84996259Y-92387000D01*
X84996261Y-92387000D01*
X86145600Y-92387000D01*
X86148742Y-92387000D01*
X86300438Y-92371574D01*
X86494588Y-92310659D01*
X86672502Y-92211909D01*
X86826895Y-92079366D01*
X86951448Y-91918458D01*
X87041060Y-91735771D01*
X87092063Y-91538785D01*
X87097203Y-91437437D01*
X88593630Y-91437437D01*
X88624443Y-91638571D01*
X88695113Y-91829386D01*
X88802747Y-92002071D01*
X88942940Y-92149552D01*
X88961345Y-92162363D01*
X89005123Y-92216817D01*
X89012511Y-92286295D01*
X88986055Y-92343173D01*
X88984401Y-92345171D01*
X88914421Y-92493887D01*
X88883623Y-92655333D01*
X88893943Y-92819358D01*
X88893944Y-92819360D01*
X88944732Y-92975671D01*
X88978922Y-93029545D01*
X89032797Y-93114440D01*
X89096716Y-93174463D01*
X89152607Y-93226948D01*
X89296632Y-93306127D01*
X89296634Y-93306128D01*
X89455821Y-93347000D01*
X89455823Y-93347000D01*
X89575030Y-93347000D01*
X89578925Y-93347000D01*
X89680773Y-93334133D01*
X89701059Y-93331571D01*
X89777464Y-93301319D01*
X89853871Y-93271068D01*
X89986837Y-93174463D01*
X90091600Y-93047826D01*
X90161579Y-92899113D01*
X90192376Y-92737670D01*
X90182056Y-92573640D01*
X90182056Y-92573639D01*
X90174154Y-92549317D01*
X90172159Y-92479476D01*
X90208240Y-92419643D01*
X90270941Y-92388816D01*
X90292085Y-92387000D01*
X90645600Y-92387000D01*
X90648742Y-92387000D01*
X90800438Y-92371574D01*
X90994588Y-92310659D01*
X91172502Y-92211909D01*
X91326895Y-92079366D01*
X91451448Y-91918458D01*
X91541060Y-91735771D01*
X91592063Y-91538785D01*
X91602369Y-91335564D01*
X91580521Y-91192952D01*
X91571556Y-91134428D01*
X91500886Y-90943613D01*
X91393254Y-90770931D01*
X91386803Y-90764144D01*
X91253059Y-90623447D01*
X91086049Y-90507205D01*
X90899058Y-90426960D01*
X90699741Y-90386000D01*
X89547258Y-90386000D01*
X89544147Y-90386316D01*
X89544134Y-90386317D01*
X89395559Y-90401426D01*
X89201412Y-90462341D01*
X89023500Y-90561089D01*
X88991117Y-90588889D01*
X88887318Y-90677999D01*
X88869104Y-90693635D01*
X88744551Y-90854542D01*
X88654940Y-91037227D01*
X88603937Y-91234216D01*
X88593630Y-91437437D01*
X87097203Y-91437437D01*
X87102369Y-91335564D01*
X87080521Y-91192952D01*
X87071556Y-91134428D01*
X87000886Y-90943613D01*
X86893254Y-90770931D01*
X86886803Y-90764144D01*
X86753059Y-90623447D01*
X86586049Y-90507205D01*
X86399058Y-90426960D01*
X86199741Y-90386000D01*
X85047258Y-90386000D01*
X85044147Y-90386316D01*
X85044134Y-90386317D01*
X84895559Y-90401426D01*
X84701412Y-90462341D01*
X84523500Y-90561089D01*
X84491117Y-90588889D01*
X84387318Y-90677999D01*
X84369104Y-90693635D01*
X84244551Y-90854542D01*
X84154940Y-91037227D01*
X84103937Y-91234216D01*
X84093630Y-91437437D01*
X83445375Y-91437437D01*
X83446233Y-89916000D01*
X113013540Y-89916000D01*
X113033326Y-90104257D01*
X113091820Y-90284284D01*
X113186466Y-90448216D01*
X113313129Y-90588889D01*
X113466269Y-90700151D01*
X113639197Y-90777144D01*
X113824352Y-90816500D01*
X113824354Y-90816500D01*
X114013648Y-90816500D01*
X114137083Y-90790262D01*
X114198803Y-90777144D01*
X114371730Y-90700151D01*
X114524871Y-90588888D01*
X114530598Y-90582527D01*
X114590084Y-90545879D01*
X114622747Y-90541500D01*
X122117548Y-90541500D01*
X122184587Y-90561185D01*
X122205228Y-90577818D01*
X122485345Y-90857936D01*
X122759038Y-91131629D01*
X122792523Y-91192952D01*
X122794678Y-91206348D01*
X122812326Y-91374257D01*
X122870820Y-91554284D01*
X122965466Y-91718216D01*
X123092129Y-91858889D01*
X123245269Y-91970151D01*
X123418197Y-92047144D01*
X123603352Y-92086500D01*
X123603354Y-92086500D01*
X123792648Y-92086500D01*
X123916084Y-92060262D01*
X123977803Y-92047144D01*
X124150730Y-91970151D01*
X124303871Y-91858888D01*
X124430533Y-91718216D01*
X124525179Y-91554284D01*
X124583674Y-91374256D01*
X124603460Y-91186000D01*
X124583674Y-90997744D01*
X124525179Y-90817716D01*
X124525179Y-90817715D01*
X124444514Y-90677999D01*
X126094540Y-90677999D01*
X126114326Y-90866257D01*
X126172820Y-91046284D01*
X126267466Y-91210216D01*
X126394129Y-91350889D01*
X126547269Y-91462151D01*
X126720197Y-91539144D01*
X126905352Y-91578500D01*
X126905354Y-91578500D01*
X126964548Y-91578500D01*
X127031587Y-91598185D01*
X127052229Y-91614819D01*
X127608181Y-92170771D01*
X127641666Y-92232094D01*
X127644500Y-92258452D01*
X127644500Y-99631312D01*
X127624815Y-99698351D01*
X127612650Y-99714284D01*
X127537466Y-99797783D01*
X127442820Y-99961715D01*
X127384326Y-100141742D01*
X127364540Y-100329999D01*
X127384326Y-100518257D01*
X127442820Y-100698284D01*
X127537466Y-100862216D01*
X127664129Y-101002889D01*
X127817269Y-101114151D01*
X127990197Y-101191144D01*
X128175352Y-101230500D01*
X128175354Y-101230500D01*
X128364648Y-101230500D01*
X128488083Y-101204262D01*
X128549803Y-101191144D01*
X128722730Y-101114151D01*
X128722729Y-101114151D01*
X128875870Y-101002889D01*
X128918295Y-100955772D01*
X129002533Y-100862216D01*
X129097179Y-100698284D01*
X129155674Y-100518256D01*
X129175460Y-100330000D01*
X129155674Y-100141744D01*
X129097179Y-99961716D01*
X129097179Y-99961715D01*
X129002535Y-99797786D01*
X128990478Y-99784396D01*
X128927347Y-99714282D01*
X128897119Y-99651293D01*
X128895500Y-99631324D01*
X128895500Y-92030738D01*
X128897763Y-92010238D01*
X128897506Y-92002071D01*
X128895561Y-91940144D01*
X128895500Y-91936250D01*
X128895500Y-91912544D01*
X128895500Y-91908650D01*
X128894998Y-91904681D01*
X128894080Y-91893024D01*
X128892709Y-91849373D01*
X128887120Y-91830140D01*
X128883174Y-91811082D01*
X128880664Y-91791208D01*
X128864588Y-91750606D01*
X128860804Y-91739552D01*
X128848619Y-91697613D01*
X128848618Y-91697612D01*
X128848618Y-91697610D01*
X128838417Y-91680361D01*
X128829860Y-91662895D01*
X128822486Y-91644268D01*
X128796813Y-91608932D01*
X128790402Y-91599172D01*
X128768169Y-91561578D01*
X128754006Y-91547415D01*
X128741369Y-91532620D01*
X128729595Y-91516414D01*
X128729594Y-91516413D01*
X128695935Y-91488568D01*
X128687305Y-91480714D01*
X127938960Y-90732369D01*
X127905475Y-90671046D01*
X127903323Y-90657668D01*
X127885674Y-90489744D01*
X127851965Y-90386000D01*
X127827179Y-90309715D01*
X127732533Y-90145783D01*
X127605870Y-90005110D01*
X127452730Y-89893848D01*
X127279802Y-89816855D01*
X127094648Y-89777500D01*
X127094646Y-89777500D01*
X126905354Y-89777500D01*
X126905352Y-89777500D01*
X126720197Y-89816855D01*
X126547269Y-89893848D01*
X126394129Y-90005110D01*
X126267466Y-90145783D01*
X126172820Y-90309715D01*
X126114326Y-90489742D01*
X126094540Y-90677999D01*
X124444514Y-90677999D01*
X124430533Y-90653783D01*
X124303870Y-90513110D01*
X124150730Y-90401848D01*
X123977802Y-90324855D01*
X123792648Y-90285500D01*
X123792646Y-90285500D01*
X123733453Y-90285500D01*
X123666414Y-90265815D01*
X123645772Y-90249181D01*
X122928802Y-89532211D01*
X122915906Y-89516113D01*
X122864775Y-89468098D01*
X122861978Y-89465387D01*
X122845227Y-89448636D01*
X122842471Y-89445880D01*
X122839290Y-89443412D01*
X122830422Y-89435837D01*
X122798582Y-89405938D01*
X122781024Y-89396285D01*
X122764764Y-89385604D01*
X122748936Y-89373327D01*
X122708851Y-89355980D01*
X122698361Y-89350841D01*
X122660091Y-89329802D01*
X122640691Y-89324821D01*
X122622284Y-89318519D01*
X122603897Y-89310562D01*
X122560758Y-89303729D01*
X122549324Y-89301361D01*
X122507019Y-89290500D01*
X122486984Y-89290500D01*
X122467586Y-89288973D01*
X122460162Y-89287797D01*
X122447805Y-89285840D01*
X122447804Y-89285840D01*
X122414751Y-89288964D01*
X122404325Y-89289950D01*
X122392656Y-89290500D01*
X114622747Y-89290500D01*
X114555708Y-89270815D01*
X114530599Y-89249473D01*
X114524871Y-89243112D01*
X114371730Y-89131849D01*
X114371729Y-89131848D01*
X114371727Y-89131847D01*
X114198802Y-89054855D01*
X114013648Y-89015500D01*
X114013646Y-89015500D01*
X113824354Y-89015500D01*
X113824352Y-89015500D01*
X113639197Y-89054855D01*
X113466269Y-89131848D01*
X113313129Y-89243110D01*
X113186466Y-89383783D01*
X113091820Y-89547715D01*
X113033326Y-89727742D01*
X113013540Y-89916000D01*
X83446233Y-89916000D01*
X83448522Y-85856831D01*
X83448904Y-85847179D01*
X83448932Y-85846824D01*
X83453003Y-85795101D01*
X83465312Y-85654415D01*
X83468264Y-85636295D01*
X83468271Y-85636266D01*
X83487181Y-85557499D01*
X83487925Y-85554567D01*
X83516167Y-85449170D01*
X83521361Y-85433869D01*
X83554661Y-85353478D01*
X83556782Y-85348659D01*
X83600351Y-85255227D01*
X83606996Y-85242860D01*
X83653584Y-85166836D01*
X83657716Y-85160535D01*
X83657740Y-85160502D01*
X83715622Y-85077837D01*
X83722887Y-85068455D01*
X83781345Y-85000012D01*
X83787906Y-84992913D01*
X83858930Y-84921890D01*
X83866036Y-84915323D01*
X83934471Y-84856875D01*
X83943866Y-84849601D01*
X84026589Y-84791679D01*
X84032816Y-84787596D01*
X84108893Y-84740977D01*
X84121233Y-84734347D01*
X84214710Y-84690759D01*
X84219522Y-84688643D01*
X84299885Y-84655357D01*
X84315211Y-84650154D01*
X84420632Y-84621909D01*
X84423477Y-84621187D01*
X84502355Y-84602251D01*
X84520434Y-84599306D01*
X84658849Y-84587182D01*
X84713528Y-84582879D01*
X84723196Y-84582500D01*
X129653105Y-84582500D01*
X129662826Y-84582881D01*
G37*
G04 #@! TD.AperFunction*
M02*
