G04 #@! TF.GenerationSoftware,KiCad,Pcbnew,7.0.2*
G04 #@! TF.CreationDate,2023-10-30T14:31:13+01:00*
G04 #@! TF.ProjectId,programmer_board,70726f67-7261-46d6-9d65-725f626f6172,rev?*
G04 #@! TF.SameCoordinates,Original*
G04 #@! TF.FileFunction,Legend,Bot*
G04 #@! TF.FilePolarity,Positive*
%FSLAX46Y46*%
G04 Gerber Fmt 4.6, Leading zero omitted, Abs format (unit mm)*
G04 Created by KiCad (PCBNEW 7.0.2) date 2023-10-30 14:31:13*
%MOMM*%
%LPD*%
G01*
G04 APERTURE LIST*
%ADD10C,0.150000*%
%ADD11C,0.800000*%
%ADD12O,2.000000X1.000000*%
G04 APERTURE END LIST*
D10*
G36*
X129875429Y-86862216D02*
G01*
X129875429Y-86698085D01*
X129538960Y-86698085D01*
X129538960Y-86982237D01*
X129544976Y-86986574D01*
X129550948Y-86990824D01*
X129556877Y-86994986D01*
X129562763Y-86999061D01*
X129568605Y-87003049D01*
X129574403Y-87006949D01*
X129580159Y-87010761D01*
X129591539Y-87018123D01*
X129602745Y-87025136D01*
X129613778Y-87031798D01*
X129624637Y-87038111D01*
X129635323Y-87044073D01*
X129645835Y-87049686D01*
X129656173Y-87054949D01*
X129666338Y-87059861D01*
X129676329Y-87064424D01*
X129686147Y-87068637D01*
X129695790Y-87072500D01*
X129705260Y-87076013D01*
X129709930Y-87077638D01*
X129719314Y-87080702D01*
X129728916Y-87083569D01*
X129738736Y-87086237D01*
X129748773Y-87088708D01*
X129759028Y-87090982D01*
X129769500Y-87093057D01*
X129780190Y-87094935D01*
X129791098Y-87096616D01*
X129802224Y-87098098D01*
X129813568Y-87099383D01*
X129825129Y-87100471D01*
X129836908Y-87101360D01*
X129848904Y-87102052D01*
X129861119Y-87102546D01*
X129873551Y-87102843D01*
X129886200Y-87102942D01*
X129893998Y-87102900D01*
X129901706Y-87102776D01*
X129909323Y-87102569D01*
X129916850Y-87102279D01*
X129924286Y-87101906D01*
X129931631Y-87101451D01*
X129938886Y-87100913D01*
X129946051Y-87100292D01*
X129953125Y-87099588D01*
X129960108Y-87098801D01*
X129967001Y-87097931D01*
X129973804Y-87096979D01*
X129987138Y-87094826D01*
X130000109Y-87092341D01*
X130012719Y-87089526D01*
X130024967Y-87086379D01*
X130036852Y-87082901D01*
X130048376Y-87079091D01*
X130059538Y-87074951D01*
X130070338Y-87070479D01*
X130080776Y-87065675D01*
X130090852Y-87060541D01*
X130100587Y-87055079D01*
X130110046Y-87049294D01*
X130119228Y-87043186D01*
X130128134Y-87036755D01*
X130136763Y-87030000D01*
X130145116Y-87022922D01*
X130153192Y-87015521D01*
X130160992Y-87007797D01*
X130168515Y-86999749D01*
X130175762Y-86991378D01*
X130182733Y-86982684D01*
X130189426Y-86973667D01*
X130195844Y-86964326D01*
X130201985Y-86954663D01*
X130207849Y-86944675D01*
X130213437Y-86934365D01*
X130218696Y-86923776D01*
X130223615Y-86912994D01*
X130228195Y-86902020D01*
X130232436Y-86890853D01*
X130236338Y-86879494D01*
X130239900Y-86867943D01*
X130243123Y-86856200D01*
X130246007Y-86844264D01*
X130248551Y-86832136D01*
X130250757Y-86819815D01*
X130252623Y-86807302D01*
X130254149Y-86794597D01*
X130255337Y-86781700D01*
X130256185Y-86768610D01*
X130256694Y-86755328D01*
X130256863Y-86741853D01*
X130256817Y-86734733D01*
X130256678Y-86727672D01*
X130256446Y-86720670D01*
X130256121Y-86713726D01*
X130255703Y-86706840D01*
X130255192Y-86700013D01*
X130253893Y-86686533D01*
X130252222Y-86673288D01*
X130250180Y-86660276D01*
X130247766Y-86647498D01*
X130244981Y-86634954D01*
X130241825Y-86622643D01*
X130238297Y-86610567D01*
X130234398Y-86598724D01*
X130230128Y-86587114D01*
X130225486Y-86575739D01*
X130220474Y-86564597D01*
X130215089Y-86553689D01*
X130209334Y-86543015D01*
X130203199Y-86532596D01*
X130196719Y-86522496D01*
X130189895Y-86512715D01*
X130182727Y-86503254D01*
X130175213Y-86494111D01*
X130167355Y-86485288D01*
X130159153Y-86476785D01*
X130150606Y-86468600D01*
X130141714Y-86460735D01*
X130132477Y-86453189D01*
X130122896Y-86445962D01*
X130112971Y-86439054D01*
X130102701Y-86432466D01*
X130092086Y-86426197D01*
X130081126Y-86420247D01*
X130069822Y-86414616D01*
X130060674Y-86410517D01*
X130051138Y-86406682D01*
X130041215Y-86403112D01*
X130030905Y-86399806D01*
X130020208Y-86396765D01*
X130009123Y-86393988D01*
X129997650Y-86391475D01*
X129985790Y-86389227D01*
X129973543Y-86387244D01*
X129960909Y-86385525D01*
X129947887Y-86384070D01*
X129934478Y-86382880D01*
X129927628Y-86382384D01*
X129920682Y-86381954D01*
X129913638Y-86381591D01*
X129906498Y-86381293D01*
X129899261Y-86381062D01*
X129891927Y-86380897D01*
X129884496Y-86380797D01*
X129876968Y-86380764D01*
X129869727Y-86380786D01*
X129862601Y-86380850D01*
X129855590Y-86380957D01*
X129848694Y-86381106D01*
X129835246Y-86381534D01*
X129822258Y-86382132D01*
X129809729Y-86382901D01*
X129797659Y-86383842D01*
X129786049Y-86384953D01*
X129774899Y-86386235D01*
X129764208Y-86387689D01*
X129753977Y-86389313D01*
X129744205Y-86391108D01*
X129734892Y-86393074D01*
X129726039Y-86395211D01*
X129717645Y-86397519D01*
X129709711Y-86399998D01*
X129702237Y-86402648D01*
X129695069Y-86405457D01*
X129688057Y-86408456D01*
X129681199Y-86411644D01*
X129674497Y-86415022D01*
X129667949Y-86418590D01*
X129661557Y-86422347D01*
X129655319Y-86426294D01*
X129649236Y-86430431D01*
X129643308Y-86434757D01*
X129637535Y-86439273D01*
X129631917Y-86443979D01*
X129626454Y-86448875D01*
X129621146Y-86453960D01*
X129615993Y-86459234D01*
X129610995Y-86464699D01*
X129606152Y-86470353D01*
X129601439Y-86476176D01*
X129596874Y-86482192D01*
X129592457Y-86488401D01*
X129588189Y-86494801D01*
X129584069Y-86501394D01*
X129580097Y-86508180D01*
X129576274Y-86515157D01*
X129572599Y-86522327D01*
X129569072Y-86529690D01*
X129565693Y-86537245D01*
X129562463Y-86544992D01*
X129559381Y-86552931D01*
X129556447Y-86561063D01*
X129553661Y-86569387D01*
X129551024Y-86577903D01*
X129548535Y-86586612D01*
X129758657Y-86621490D01*
X129761252Y-86614687D01*
X129764167Y-86608190D01*
X129767399Y-86602001D01*
X129770951Y-86596117D01*
X129776181Y-86588749D01*
X129781978Y-86581927D01*
X129788342Y-86575649D01*
X129795271Y-86569916D01*
X129802767Y-86564728D01*
X129808720Y-86561184D01*
X129814973Y-86557988D01*
X129821526Y-86555141D01*
X129828381Y-86552643D01*
X129835535Y-86550493D01*
X129842990Y-86548692D01*
X129850746Y-86547239D01*
X129858803Y-86546135D01*
X129867159Y-86545380D01*
X129875817Y-86544973D01*
X129881755Y-86544896D01*
X129890596Y-86545078D01*
X129899210Y-86545625D01*
X129907597Y-86546536D01*
X129915757Y-86547813D01*
X129923690Y-86549454D01*
X129931395Y-86551459D01*
X129938874Y-86553829D01*
X129946125Y-86556564D01*
X129953150Y-86559664D01*
X129959947Y-86563128D01*
X129966518Y-86566957D01*
X129972861Y-86571150D01*
X129978977Y-86575708D01*
X129984866Y-86580631D01*
X129990528Y-86585918D01*
X129995963Y-86591570D01*
X130001118Y-86597617D01*
X130005941Y-86604089D01*
X130010431Y-86610985D01*
X130014588Y-86618306D01*
X130018413Y-86626052D01*
X130021905Y-86634222D01*
X130025065Y-86642817D01*
X130027892Y-86651837D01*
X130030386Y-86661282D01*
X130032548Y-86671152D01*
X130034377Y-86681446D01*
X130035874Y-86692165D01*
X130037038Y-86703309D01*
X130037870Y-86714877D01*
X130038368Y-86726870D01*
X130038535Y-86739288D01*
X130038366Y-86752490D01*
X130037862Y-86765212D01*
X130037020Y-86777452D01*
X130035842Y-86789212D01*
X130034327Y-86800490D01*
X130032476Y-86811288D01*
X130030288Y-86821605D01*
X130027764Y-86831441D01*
X130024903Y-86840796D01*
X130021705Y-86849671D01*
X130018171Y-86858064D01*
X130014300Y-86865977D01*
X130010092Y-86873409D01*
X130005548Y-86880360D01*
X130000668Y-86886830D01*
X129995450Y-86892819D01*
X129989933Y-86898389D01*
X129984150Y-86903599D01*
X129978104Y-86908449D01*
X129971792Y-86912940D01*
X129965217Y-86917072D01*
X129958377Y-86920845D01*
X129951272Y-86924259D01*
X129943903Y-86927313D01*
X129936269Y-86930007D01*
X129928371Y-86932343D01*
X129920209Y-86934319D01*
X129911782Y-86935936D01*
X129903090Y-86937194D01*
X129894135Y-86938092D01*
X129884914Y-86938631D01*
X129875429Y-86938810D01*
X129866376Y-86938698D01*
X129857424Y-86938362D01*
X129848574Y-86937801D01*
X129839825Y-86937015D01*
X129831178Y-86936005D01*
X129822632Y-86934771D01*
X129814187Y-86933313D01*
X129805845Y-86931630D01*
X129797363Y-86929677D01*
X129788587Y-86927409D01*
X129781813Y-86925501D01*
X129774873Y-86923416D01*
X129767768Y-86921153D01*
X129760497Y-86918713D01*
X129753062Y-86916096D01*
X129745461Y-86913302D01*
X129737695Y-86910330D01*
X129729763Y-86907181D01*
X129729763Y-86862216D01*
X129875429Y-86862216D01*
G37*
G36*
X129412614Y-86391706D02*
G01*
X129209159Y-86391706D01*
X128943643Y-86786305D01*
X128943643Y-86391706D01*
X128738479Y-86391706D01*
X128738479Y-87092000D01*
X128943643Y-87092000D01*
X129207792Y-86699452D01*
X129207792Y-87092000D01*
X129412614Y-87092000D01*
X129412614Y-86391706D01*
G37*
G36*
X128595206Y-87092000D02*
G01*
X128271560Y-87092000D01*
X128264241Y-87091925D01*
X128256816Y-87091700D01*
X128249286Y-87091326D01*
X128241651Y-87090803D01*
X128233910Y-87090130D01*
X128226063Y-87089307D01*
X128218111Y-87088334D01*
X128210053Y-87087212D01*
X128201890Y-87085941D01*
X128193622Y-87084520D01*
X128185247Y-87082949D01*
X128176768Y-87081228D01*
X128168182Y-87079358D01*
X128159492Y-87077339D01*
X128150695Y-87075170D01*
X128141794Y-87072851D01*
X128132012Y-87070009D01*
X128122351Y-87066678D01*
X128115977Y-87064185D01*
X128109657Y-87061474D01*
X128103390Y-87058545D01*
X128097176Y-87055399D01*
X128091016Y-87052035D01*
X128084909Y-87048454D01*
X128078855Y-87044654D01*
X128072855Y-87040637D01*
X128066909Y-87036402D01*
X128061016Y-87031950D01*
X128055176Y-87027279D01*
X128049390Y-87022391D01*
X128043657Y-87017286D01*
X128038029Y-87011972D01*
X128032557Y-87006504D01*
X128027242Y-87000881D01*
X128022083Y-86995102D01*
X128017080Y-86989169D01*
X128012233Y-86983081D01*
X128007543Y-86976838D01*
X128003009Y-86970440D01*
X127998631Y-86963887D01*
X127994409Y-86957179D01*
X127990344Y-86950316D01*
X127986435Y-86943298D01*
X127982683Y-86936126D01*
X127979086Y-86928798D01*
X127975646Y-86921315D01*
X127972362Y-86913678D01*
X127969236Y-86905744D01*
X127966312Y-86897417D01*
X127963589Y-86888695D01*
X127961068Y-86879580D01*
X127958748Y-86870070D01*
X127956630Y-86860167D01*
X127954714Y-86849869D01*
X127953000Y-86839178D01*
X127951487Y-86828092D01*
X127950176Y-86816612D01*
X127949067Y-86804739D01*
X127948159Y-86792471D01*
X127947454Y-86779809D01*
X127946949Y-86766753D01*
X127946647Y-86753303D01*
X127946571Y-86746431D01*
X127946562Y-86743905D01*
X128165387Y-86743905D01*
X128165452Y-86753944D01*
X128165644Y-86763630D01*
X128165965Y-86772964D01*
X128166413Y-86781945D01*
X128166990Y-86790574D01*
X128167696Y-86798850D01*
X128168529Y-86806773D01*
X128169491Y-86814344D01*
X128170581Y-86821562D01*
X128171799Y-86828428D01*
X128173867Y-86838065D01*
X128176223Y-86846909D01*
X128178867Y-86854959D01*
X128181801Y-86862216D01*
X128183880Y-86866683D01*
X128187185Y-86873066D01*
X128190712Y-86879067D01*
X128195761Y-86886475D01*
X128201206Y-86893204D01*
X128207045Y-86899255D01*
X128213280Y-86904627D01*
X128219911Y-86909321D01*
X128226937Y-86913336D01*
X128228781Y-86914230D01*
X128236926Y-86917522D01*
X128243841Y-86919694D01*
X128251448Y-86921610D01*
X128259746Y-86923270D01*
X128268735Y-86924675D01*
X128278415Y-86925825D01*
X128285252Y-86926449D01*
X128292397Y-86926960D01*
X128299849Y-86927357D01*
X128307608Y-86927641D01*
X128315674Y-86927812D01*
X128324048Y-86927868D01*
X128377390Y-86927868D01*
X128377390Y-86555838D01*
X128323022Y-86555838D01*
X128317780Y-86555877D01*
X128307577Y-86556189D01*
X128297752Y-86556814D01*
X128288303Y-86557752D01*
X128279231Y-86559002D01*
X128270536Y-86560565D01*
X128262217Y-86562440D01*
X128254275Y-86564628D01*
X128246709Y-86567129D01*
X128239521Y-86569942D01*
X128232709Y-86573067D01*
X128226273Y-86576505D01*
X128220214Y-86580256D01*
X128214532Y-86584319D01*
X128209227Y-86588695D01*
X128201975Y-86595845D01*
X128197545Y-86601091D01*
X128193400Y-86606872D01*
X128189541Y-86613187D01*
X128185968Y-86620037D01*
X128182681Y-86627421D01*
X128179680Y-86635339D01*
X128176964Y-86643791D01*
X128174534Y-86652778D01*
X128172391Y-86662298D01*
X128170533Y-86672354D01*
X128168961Y-86682943D01*
X128167674Y-86694067D01*
X128166674Y-86705725D01*
X128165959Y-86717917D01*
X128165530Y-86730644D01*
X128165387Y-86743905D01*
X127946562Y-86743905D01*
X127946546Y-86739459D01*
X127946613Y-86730535D01*
X127946816Y-86721670D01*
X127947153Y-86712866D01*
X127947625Y-86704122D01*
X127948232Y-86695438D01*
X127948974Y-86686814D01*
X127949851Y-86678250D01*
X127950863Y-86669746D01*
X127952010Y-86661303D01*
X127953291Y-86652919D01*
X127954708Y-86644596D01*
X127956259Y-86636332D01*
X127957945Y-86628129D01*
X127959767Y-86619986D01*
X127961723Y-86611903D01*
X127963814Y-86603880D01*
X127966055Y-86595928D01*
X127968462Y-86588100D01*
X127971035Y-86580397D01*
X127973773Y-86572817D01*
X127976677Y-86565362D01*
X127979746Y-86558031D01*
X127982981Y-86550824D01*
X127986382Y-86543741D01*
X127989948Y-86536783D01*
X127993680Y-86529949D01*
X127997578Y-86523239D01*
X128001641Y-86516653D01*
X128005870Y-86510192D01*
X128010264Y-86503855D01*
X128014824Y-86497642D01*
X128019550Y-86491553D01*
X128024439Y-86485614D01*
X128029488Y-86479849D01*
X128034697Y-86474260D01*
X128040066Y-86468846D01*
X128045596Y-86463607D01*
X128051286Y-86458542D01*
X128057137Y-86453653D01*
X128063147Y-86448939D01*
X128069318Y-86444399D01*
X128075650Y-86440035D01*
X128082141Y-86435845D01*
X128088793Y-86431831D01*
X128095605Y-86427991D01*
X128102577Y-86424327D01*
X128109710Y-86420837D01*
X128117003Y-86417523D01*
X128124519Y-86414397D01*
X128132321Y-86411472D01*
X128140409Y-86408749D01*
X128148782Y-86406228D01*
X128157441Y-86403909D01*
X128166387Y-86401791D01*
X128175618Y-86399875D01*
X128185135Y-86398161D01*
X128194937Y-86396648D01*
X128205026Y-86395337D01*
X128215400Y-86394228D01*
X128226060Y-86393320D01*
X128237007Y-86392614D01*
X128248238Y-86392110D01*
X128259756Y-86391807D01*
X128271560Y-86391706D01*
X128595206Y-86391706D01*
X128595206Y-87092000D01*
G37*
G36*
X130229337Y-88268000D02*
G01*
X129853374Y-88268000D01*
X129846576Y-88267845D01*
X129838233Y-88267380D01*
X129830962Y-88266828D01*
X129822823Y-88266101D01*
X129813816Y-88265201D01*
X129803940Y-88264126D01*
X129796873Y-88263313D01*
X129789421Y-88262422D01*
X129781582Y-88261453D01*
X129773358Y-88260407D01*
X129764747Y-88259284D01*
X129755750Y-88258083D01*
X129745610Y-88256625D01*
X129735963Y-88255008D01*
X129726809Y-88253231D01*
X129718148Y-88251295D01*
X129709979Y-88249200D01*
X129702304Y-88246945D01*
X129695121Y-88244532D01*
X129688431Y-88241959D01*
X129680278Y-88238280D01*
X129673001Y-88234318D01*
X129667539Y-88230975D01*
X129659622Y-88225685D01*
X129652036Y-88220064D01*
X129644780Y-88214112D01*
X129637855Y-88207830D01*
X129631260Y-88201217D01*
X129624996Y-88194274D01*
X129619062Y-88187000D01*
X129613459Y-88179396D01*
X129608187Y-88171461D01*
X129603245Y-88163195D01*
X129601678Y-88160374D01*
X129597275Y-88151777D01*
X129593319Y-88142983D01*
X129589811Y-88133990D01*
X129586751Y-88124798D01*
X129584139Y-88115409D01*
X129581975Y-88105821D01*
X129580258Y-88096034D01*
X129578990Y-88086050D01*
X129578169Y-88075867D01*
X129577870Y-88068968D01*
X129577771Y-88061981D01*
X129577911Y-88053417D01*
X129578332Y-88045039D01*
X129579033Y-88036844D01*
X129579808Y-88030522D01*
X129796099Y-88030522D01*
X129796460Y-88038689D01*
X129797542Y-88046433D01*
X129799345Y-88053755D01*
X129801870Y-88060656D01*
X129805115Y-88067134D01*
X129809082Y-88073190D01*
X129813771Y-88078824D01*
X129819180Y-88084036D01*
X129820655Y-88085256D01*
X129827203Y-88089749D01*
X129834787Y-88093623D01*
X129841155Y-88096121D01*
X129848107Y-88098271D01*
X129855641Y-88100072D01*
X129863758Y-88101525D01*
X129872459Y-88102629D01*
X129881742Y-88103384D01*
X129891609Y-88103791D01*
X129898510Y-88103868D01*
X130009641Y-88103868D01*
X130009641Y-87961621D01*
X129899023Y-87961621D01*
X129891999Y-87961695D01*
X129881968Y-87962085D01*
X129872544Y-87962807D01*
X129863728Y-87963864D01*
X129855518Y-87965254D01*
X129847916Y-87966977D01*
X129840920Y-87969034D01*
X129832537Y-87972296D01*
X129825234Y-87976151D01*
X129819009Y-87980599D01*
X129813640Y-87985493D01*
X129808986Y-87990772D01*
X129805049Y-87996435D01*
X129801827Y-88002483D01*
X129799321Y-88008916D01*
X129797531Y-88015733D01*
X129796457Y-88022935D01*
X129796099Y-88030522D01*
X129579808Y-88030522D01*
X129580015Y-88028834D01*
X129581277Y-88021008D01*
X129582820Y-88013366D01*
X129584643Y-88005909D01*
X129586747Y-87998636D01*
X129589131Y-87991548D01*
X129591795Y-87984643D01*
X129594741Y-87977924D01*
X129597966Y-87971388D01*
X129601473Y-87965037D01*
X129605259Y-87958870D01*
X129609327Y-87952887D01*
X129613674Y-87947089D01*
X129618299Y-87941488D01*
X129623238Y-87936096D01*
X129628493Y-87930914D01*
X129634062Y-87925942D01*
X129639948Y-87921180D01*
X129646148Y-87916627D01*
X129652663Y-87912284D01*
X129659494Y-87908150D01*
X129666640Y-87904227D01*
X129674102Y-87900513D01*
X129681878Y-87897009D01*
X129689970Y-87893714D01*
X129698377Y-87890629D01*
X129707099Y-87887754D01*
X129716136Y-87885089D01*
X129725489Y-87882633D01*
X129719342Y-87880514D01*
X129710472Y-87877163D01*
X129702023Y-87873604D01*
X129693995Y-87869838D01*
X129686387Y-87865864D01*
X129679201Y-87861683D01*
X129672435Y-87857295D01*
X129666089Y-87852699D01*
X129660165Y-87847896D01*
X129654661Y-87842886D01*
X129649578Y-87837668D01*
X129644858Y-87832259D01*
X129640442Y-87826718D01*
X129636331Y-87821045D01*
X129632524Y-87815239D01*
X129629022Y-87809301D01*
X129625824Y-87803231D01*
X129622931Y-87797029D01*
X129620342Y-87790694D01*
X129618058Y-87784227D01*
X129616079Y-87777628D01*
X129614404Y-87770897D01*
X129613979Y-87768767D01*
X129823967Y-87768767D01*
X129824143Y-87774254D01*
X129824925Y-87781186D01*
X129826780Y-87789235D01*
X129829613Y-87796600D01*
X129833422Y-87803280D01*
X129838208Y-87809276D01*
X129843971Y-87814587D01*
X129850977Y-87819118D01*
X129857671Y-87822191D01*
X129865331Y-87824771D01*
X129873958Y-87826860D01*
X129881063Y-87828104D01*
X129888712Y-87829072D01*
X129896905Y-87829763D01*
X129905642Y-87830178D01*
X129914923Y-87830316D01*
X130009641Y-87830316D01*
X130009641Y-87709953D01*
X129913385Y-87709953D01*
X129904379Y-87710090D01*
X129895890Y-87710500D01*
X129887918Y-87711184D01*
X129880462Y-87712141D01*
X129873524Y-87713372D01*
X129865077Y-87715438D01*
X129857549Y-87717991D01*
X129850940Y-87721030D01*
X129843971Y-87725512D01*
X129841549Y-87727504D01*
X129836177Y-87732899D01*
X129831781Y-87738887D01*
X129828363Y-87745468D01*
X129825921Y-87752642D01*
X129824456Y-87760408D01*
X129823967Y-87768767D01*
X129613979Y-87768767D01*
X129613033Y-87764033D01*
X129611967Y-87757038D01*
X129611206Y-87749910D01*
X129610749Y-87742649D01*
X129610597Y-87735257D01*
X129610810Y-87726456D01*
X129611449Y-87717834D01*
X129612514Y-87709391D01*
X129614006Y-87701127D01*
X129615923Y-87693042D01*
X129618266Y-87685136D01*
X129621036Y-87677409D01*
X129624232Y-87669861D01*
X129627853Y-87662492D01*
X129631901Y-87655302D01*
X129636375Y-87648291D01*
X129641275Y-87641459D01*
X129646601Y-87634805D01*
X129652354Y-87628331D01*
X129658532Y-87622036D01*
X129665136Y-87615920D01*
X129672139Y-87610082D01*
X129679511Y-87604620D01*
X129687254Y-87599535D01*
X129695366Y-87594827D01*
X129703848Y-87590495D01*
X129712701Y-87586540D01*
X129721923Y-87582961D01*
X129731515Y-87579760D01*
X129741478Y-87576935D01*
X129751810Y-87574486D01*
X129762512Y-87572415D01*
X129773585Y-87570720D01*
X129785027Y-87569401D01*
X129796839Y-87568460D01*
X129809022Y-87567895D01*
X129821574Y-87567706D01*
X130229337Y-87567706D01*
X130229337Y-88268000D01*
G37*
G36*
X129142023Y-87556857D02*
G01*
X129152530Y-87557137D01*
X129162890Y-87557603D01*
X129173103Y-87558255D01*
X129183169Y-87559093D01*
X129193087Y-87560118D01*
X129202859Y-87561329D01*
X129212483Y-87562727D01*
X129221959Y-87564311D01*
X129231289Y-87566081D01*
X129240471Y-87568037D01*
X129249506Y-87570180D01*
X129258393Y-87572509D01*
X129267133Y-87575025D01*
X129275727Y-87577727D01*
X129284172Y-87580615D01*
X129292471Y-87583689D01*
X129300622Y-87586950D01*
X129308626Y-87590397D01*
X129316483Y-87594030D01*
X129324193Y-87597850D01*
X129331755Y-87601856D01*
X129339170Y-87606049D01*
X129346438Y-87610428D01*
X129353558Y-87614993D01*
X129360531Y-87619744D01*
X129367357Y-87624682D01*
X129374036Y-87629806D01*
X129380567Y-87635116D01*
X129386951Y-87640613D01*
X129393188Y-87646296D01*
X129399278Y-87652166D01*
X129405189Y-87658191D01*
X129410913Y-87664365D01*
X129416449Y-87670687D01*
X129421798Y-87677157D01*
X129426959Y-87683774D01*
X129431932Y-87690540D01*
X129436717Y-87697453D01*
X129441315Y-87704514D01*
X129445725Y-87711724D01*
X129449948Y-87719081D01*
X129453983Y-87726586D01*
X129457830Y-87734239D01*
X129461489Y-87742040D01*
X129464961Y-87749989D01*
X129468245Y-87758086D01*
X129471342Y-87766331D01*
X129474251Y-87774724D01*
X129476972Y-87783264D01*
X129479505Y-87791953D01*
X129481851Y-87800789D01*
X129484009Y-87809774D01*
X129485980Y-87818906D01*
X129487763Y-87828186D01*
X129489358Y-87837615D01*
X129490765Y-87847191D01*
X129491985Y-87856915D01*
X129493017Y-87866787D01*
X129493862Y-87876807D01*
X129494519Y-87886975D01*
X129494988Y-87897290D01*
X129495269Y-87907754D01*
X129495363Y-87918366D01*
X129495316Y-87925977D01*
X129495173Y-87933508D01*
X129494936Y-87940959D01*
X129494604Y-87948331D01*
X129494178Y-87955623D01*
X129493656Y-87962835D01*
X129493040Y-87969967D01*
X129492328Y-87977019D01*
X129491522Y-87983992D01*
X129490621Y-87990885D01*
X129488535Y-88004431D01*
X129486069Y-88017657D01*
X129483224Y-88030565D01*
X129480000Y-88043153D01*
X129476396Y-88055422D01*
X129472413Y-88067372D01*
X129468051Y-88079003D01*
X129463309Y-88090314D01*
X129458188Y-88101306D01*
X129452687Y-88111979D01*
X129446808Y-88122333D01*
X129440623Y-88132335D01*
X129434207Y-88141995D01*
X129427559Y-88151312D01*
X129420681Y-88160288D01*
X129413572Y-88168922D01*
X129406232Y-88177214D01*
X129398660Y-88185165D01*
X129390858Y-88192773D01*
X129382824Y-88200039D01*
X129374559Y-88206963D01*
X129366064Y-88213546D01*
X129357337Y-88219786D01*
X129348379Y-88225684D01*
X129339190Y-88231241D01*
X129329770Y-88236456D01*
X129320119Y-88241328D01*
X129310191Y-88245883D01*
X129299942Y-88250144D01*
X129289370Y-88254111D01*
X129278477Y-88257784D01*
X129267262Y-88261163D01*
X129255725Y-88264249D01*
X129243866Y-88267040D01*
X129231685Y-88269538D01*
X129219182Y-88271742D01*
X129206357Y-88273652D01*
X129193210Y-88275268D01*
X129179742Y-88276591D01*
X129172887Y-88277142D01*
X129165951Y-88277619D01*
X129158935Y-88278023D01*
X129151839Y-88278354D01*
X129144662Y-88278611D01*
X129137405Y-88278795D01*
X129130067Y-88278905D01*
X129122648Y-88278942D01*
X129115356Y-88278899D01*
X129108139Y-88278771D01*
X129100999Y-88278558D01*
X129093934Y-88278260D01*
X129086944Y-88277877D01*
X129080031Y-88277409D01*
X129066431Y-88276217D01*
X129053135Y-88274684D01*
X129040142Y-88272811D01*
X129027452Y-88270597D01*
X129015066Y-88268042D01*
X129002982Y-88265147D01*
X128991202Y-88261911D01*
X128979725Y-88258335D01*
X128968551Y-88254418D01*
X128957680Y-88250161D01*
X128947113Y-88245562D01*
X128936849Y-88240624D01*
X128926888Y-88235344D01*
X128917202Y-88229759D01*
X128907806Y-88223903D01*
X128898700Y-88217775D01*
X128889884Y-88211376D01*
X128881357Y-88204707D01*
X128873120Y-88197766D01*
X128865174Y-88190553D01*
X128857517Y-88183070D01*
X128850150Y-88175316D01*
X128843072Y-88167290D01*
X128836285Y-88158993D01*
X128829788Y-88150426D01*
X128823580Y-88141587D01*
X128817662Y-88132476D01*
X128812034Y-88123095D01*
X128806696Y-88113443D01*
X128801644Y-88103462D01*
X128796919Y-88093137D01*
X128792519Y-88082470D01*
X128788445Y-88071459D01*
X128784697Y-88060105D01*
X128781275Y-88048407D01*
X128778179Y-88036367D01*
X128775408Y-88023983D01*
X128772964Y-88011255D01*
X128770846Y-87998185D01*
X128769053Y-87984771D01*
X128768279Y-87977935D01*
X128767587Y-87971014D01*
X128766975Y-87964007D01*
X128766446Y-87956914D01*
X128765998Y-87949735D01*
X128765631Y-87942470D01*
X128765346Y-87935119D01*
X128765142Y-87927683D01*
X128765020Y-87920161D01*
X128764979Y-87912553D01*
X128765011Y-87908963D01*
X128982795Y-87908963D01*
X128982833Y-87916149D01*
X128982945Y-87923196D01*
X128983396Y-87936873D01*
X128984147Y-87949995D01*
X128985199Y-87962562D01*
X128986552Y-87974572D01*
X128988205Y-87986027D01*
X128990158Y-87996927D01*
X128992412Y-88007270D01*
X128994967Y-88017058D01*
X128997822Y-88026291D01*
X129000977Y-88034967D01*
X129004433Y-88043088D01*
X129008190Y-88050654D01*
X129012247Y-88057664D01*
X129016605Y-88064118D01*
X129021263Y-88070016D01*
X129026196Y-88075441D01*
X129031377Y-88080515D01*
X129036807Y-88085239D01*
X129042485Y-88089614D01*
X129048411Y-88093638D01*
X129054586Y-88097313D01*
X129061010Y-88100637D01*
X129067682Y-88103612D01*
X129074602Y-88106237D01*
X129081771Y-88108511D01*
X129089188Y-88110436D01*
X129096853Y-88112011D01*
X129104767Y-88113236D01*
X129112930Y-88114110D01*
X129121341Y-88114635D01*
X129130000Y-88114810D01*
X129138416Y-88114631D01*
X129146608Y-88114094D01*
X129154578Y-88113200D01*
X129162324Y-88111947D01*
X129169848Y-88110336D01*
X129177148Y-88108367D01*
X129184225Y-88106040D01*
X129191079Y-88103355D01*
X129197710Y-88100313D01*
X129204118Y-88096912D01*
X129210303Y-88093153D01*
X129216265Y-88089037D01*
X129222004Y-88084562D01*
X129227520Y-88079729D01*
X129232813Y-88074539D01*
X129237882Y-88068990D01*
X129242685Y-88063033D01*
X129247179Y-88056614D01*
X129251362Y-88049734D01*
X129255236Y-88042394D01*
X129258799Y-88034593D01*
X129262053Y-88026331D01*
X129264997Y-88017608D01*
X129267631Y-88008424D01*
X129269955Y-87998780D01*
X129271969Y-87988675D01*
X129273674Y-87978109D01*
X129275068Y-87967082D01*
X129276153Y-87955594D01*
X129276928Y-87943645D01*
X129277392Y-87931236D01*
X129277547Y-87918366D01*
X129277392Y-87905371D01*
X129276925Y-87892846D01*
X129276147Y-87880789D01*
X129275058Y-87869201D01*
X129273657Y-87858082D01*
X129271945Y-87847432D01*
X129269922Y-87837251D01*
X129267588Y-87827538D01*
X129264943Y-87818294D01*
X129261986Y-87809519D01*
X129258719Y-87801213D01*
X129255140Y-87793376D01*
X129251249Y-87786008D01*
X129247048Y-87779108D01*
X129242535Y-87772677D01*
X129237711Y-87766715D01*
X129232610Y-87761167D01*
X129227306Y-87755976D01*
X129221801Y-87751144D01*
X129216094Y-87746669D01*
X129210186Y-87742553D01*
X129204076Y-87738794D01*
X129197764Y-87735393D01*
X129191250Y-87732351D01*
X129184535Y-87729666D01*
X129177618Y-87727339D01*
X129170499Y-87725370D01*
X129163179Y-87723759D01*
X129155657Y-87722506D01*
X129147933Y-87721611D01*
X129140008Y-87721075D01*
X129131881Y-87720896D01*
X129123401Y-87721072D01*
X129115145Y-87721601D01*
X129107111Y-87722482D01*
X129099300Y-87723717D01*
X129091713Y-87725303D01*
X129084349Y-87727243D01*
X129077207Y-87729535D01*
X129070289Y-87732180D01*
X129063594Y-87735177D01*
X129057122Y-87738527D01*
X129050872Y-87742229D01*
X129044846Y-87746285D01*
X129039043Y-87750692D01*
X129033464Y-87755453D01*
X129028107Y-87760566D01*
X129022973Y-87766032D01*
X129018108Y-87771879D01*
X129013556Y-87778138D01*
X129009319Y-87784809D01*
X129005395Y-87791891D01*
X129001785Y-87799384D01*
X128998490Y-87807289D01*
X128995508Y-87815605D01*
X128992840Y-87824332D01*
X128990485Y-87833471D01*
X128988445Y-87843022D01*
X128986719Y-87852983D01*
X128985306Y-87863356D01*
X128984208Y-87874141D01*
X128983423Y-87885337D01*
X128982952Y-87896944D01*
X128982795Y-87908963D01*
X128765011Y-87908963D01*
X128765072Y-87902090D01*
X128765351Y-87891774D01*
X128765816Y-87881604D01*
X128766467Y-87871582D01*
X128767304Y-87861705D01*
X128768327Y-87851975D01*
X128769536Y-87842392D01*
X128770931Y-87832956D01*
X128772512Y-87823666D01*
X128774279Y-87814522D01*
X128776232Y-87805526D01*
X128778371Y-87796675D01*
X128780696Y-87787972D01*
X128783207Y-87779415D01*
X128785904Y-87771004D01*
X128788787Y-87762740D01*
X128791856Y-87754623D01*
X128795111Y-87746653D01*
X128798552Y-87738829D01*
X128802179Y-87731151D01*
X128805992Y-87723620D01*
X128809990Y-87716236D01*
X128814175Y-87708998D01*
X128818546Y-87701907D01*
X128823103Y-87694963D01*
X128827846Y-87688165D01*
X128832775Y-87681513D01*
X128837890Y-87675009D01*
X128843191Y-87668651D01*
X128848678Y-87662439D01*
X128854351Y-87656374D01*
X128860210Y-87650456D01*
X128866240Y-87644692D01*
X128872429Y-87639110D01*
X128878774Y-87633712D01*
X128885278Y-87628497D01*
X128891939Y-87623465D01*
X128898758Y-87618615D01*
X128905734Y-87613949D01*
X128912868Y-87609466D01*
X128920160Y-87605166D01*
X128927609Y-87601048D01*
X128935216Y-87597114D01*
X128942980Y-87593363D01*
X128950902Y-87589794D01*
X128958982Y-87586409D01*
X128967219Y-87583207D01*
X128975614Y-87580187D01*
X128984167Y-87577351D01*
X128992877Y-87574697D01*
X129001745Y-87572227D01*
X129010770Y-87569940D01*
X129019953Y-87567835D01*
X129029294Y-87565914D01*
X129038792Y-87564175D01*
X129048448Y-87562620D01*
X129058261Y-87561248D01*
X129068232Y-87560058D01*
X129078361Y-87559052D01*
X129088647Y-87558228D01*
X129099091Y-87557588D01*
X129109692Y-87557130D01*
X129120451Y-87556856D01*
X129131368Y-87556764D01*
X129142023Y-87556857D01*
G37*
G36*
X128326154Y-87556857D02*
G01*
X128336661Y-87557137D01*
X128347022Y-87557603D01*
X128357235Y-87558255D01*
X128367300Y-87559093D01*
X128377219Y-87560118D01*
X128386990Y-87561329D01*
X128396614Y-87562727D01*
X128406090Y-87564311D01*
X128415420Y-87566081D01*
X128424602Y-87568037D01*
X128433637Y-87570180D01*
X128442524Y-87572509D01*
X128451265Y-87575025D01*
X128459858Y-87577727D01*
X128468304Y-87580615D01*
X128476602Y-87583689D01*
X128484753Y-87586950D01*
X128492757Y-87590397D01*
X128500614Y-87594030D01*
X128508324Y-87597850D01*
X128515886Y-87601856D01*
X128523301Y-87606049D01*
X128530569Y-87610428D01*
X128537689Y-87614993D01*
X128544662Y-87619744D01*
X128551488Y-87624682D01*
X128558167Y-87629806D01*
X128564698Y-87635116D01*
X128571083Y-87640613D01*
X128577319Y-87646296D01*
X128583409Y-87652166D01*
X128589321Y-87658191D01*
X128595044Y-87664365D01*
X128600581Y-87670687D01*
X128605929Y-87677157D01*
X128611090Y-87683774D01*
X128616063Y-87690540D01*
X128620849Y-87697453D01*
X128625446Y-87704514D01*
X128629857Y-87711724D01*
X128634079Y-87719081D01*
X128638114Y-87726586D01*
X128641961Y-87734239D01*
X128645621Y-87742040D01*
X128649092Y-87749989D01*
X128652376Y-87758086D01*
X128655473Y-87766331D01*
X128658382Y-87774724D01*
X128661103Y-87783264D01*
X128663636Y-87791953D01*
X128665982Y-87800789D01*
X128668140Y-87809774D01*
X128670111Y-87818906D01*
X128671894Y-87828186D01*
X128673489Y-87837615D01*
X128674896Y-87847191D01*
X128676116Y-87856915D01*
X128677148Y-87866787D01*
X128677993Y-87876807D01*
X128678650Y-87886975D01*
X128679119Y-87897290D01*
X128679400Y-87907754D01*
X128679494Y-87918366D01*
X128679447Y-87925977D01*
X128679305Y-87933508D01*
X128679068Y-87940959D01*
X128678736Y-87948331D01*
X128678309Y-87955623D01*
X128677787Y-87962835D01*
X128677171Y-87969967D01*
X128676460Y-87977019D01*
X128675653Y-87983992D01*
X128674753Y-87990885D01*
X128672666Y-88004431D01*
X128670200Y-88017657D01*
X128667355Y-88030565D01*
X128664131Y-88043153D01*
X128660527Y-88055422D01*
X128656544Y-88067372D01*
X128652182Y-88079003D01*
X128647440Y-88090314D01*
X128642319Y-88101306D01*
X128636819Y-88111979D01*
X128630939Y-88122333D01*
X128624754Y-88132335D01*
X128618338Y-88141995D01*
X128611691Y-88151312D01*
X128604812Y-88160288D01*
X128597703Y-88168922D01*
X128590363Y-88177214D01*
X128582791Y-88185165D01*
X128574989Y-88192773D01*
X128566955Y-88200039D01*
X128558691Y-88206963D01*
X128550195Y-88213546D01*
X128541468Y-88219786D01*
X128532510Y-88225684D01*
X128523321Y-88231241D01*
X128513901Y-88236456D01*
X128504250Y-88241328D01*
X128494322Y-88245883D01*
X128484073Y-88250144D01*
X128473501Y-88254111D01*
X128462608Y-88257784D01*
X128451393Y-88261163D01*
X128439856Y-88264249D01*
X128427997Y-88267040D01*
X128415816Y-88269538D01*
X128403313Y-88271742D01*
X128390488Y-88273652D01*
X128377342Y-88275268D01*
X128363873Y-88276591D01*
X128357018Y-88277142D01*
X128350083Y-88277619D01*
X128343067Y-88278023D01*
X128335970Y-88278354D01*
X128328793Y-88278611D01*
X128321536Y-88278795D01*
X128314198Y-88278905D01*
X128306780Y-88278942D01*
X128299487Y-88278899D01*
X128292271Y-88278771D01*
X128285130Y-88278558D01*
X128278065Y-88278260D01*
X128271076Y-88277877D01*
X128264162Y-88277409D01*
X128250563Y-88276217D01*
X128237266Y-88274684D01*
X128224273Y-88272811D01*
X128211583Y-88270597D01*
X128199197Y-88268042D01*
X128187113Y-88265147D01*
X128175333Y-88261911D01*
X128163856Y-88258335D01*
X128152682Y-88254418D01*
X128141812Y-88250161D01*
X128131244Y-88245562D01*
X128120980Y-88240624D01*
X128111019Y-88235344D01*
X128101333Y-88229759D01*
X128091937Y-88223903D01*
X128082831Y-88217775D01*
X128074015Y-88211376D01*
X128065488Y-88204707D01*
X128057252Y-88197766D01*
X128049305Y-88190553D01*
X128041648Y-88183070D01*
X128034281Y-88175316D01*
X128027204Y-88167290D01*
X128020416Y-88158993D01*
X128013919Y-88150426D01*
X128007711Y-88141587D01*
X128001793Y-88132476D01*
X127996165Y-88123095D01*
X127990827Y-88113443D01*
X127985776Y-88103462D01*
X127981050Y-88093137D01*
X127976650Y-88082470D01*
X127972576Y-88071459D01*
X127968828Y-88060105D01*
X127965406Y-88048407D01*
X127962310Y-88036367D01*
X127959540Y-88023983D01*
X127957095Y-88011255D01*
X127954977Y-87998185D01*
X127953184Y-87984771D01*
X127952410Y-87977935D01*
X127951718Y-87971014D01*
X127951107Y-87964007D01*
X127950577Y-87956914D01*
X127950129Y-87949735D01*
X127949762Y-87942470D01*
X127949477Y-87935119D01*
X127949273Y-87927683D01*
X127949151Y-87920161D01*
X127949110Y-87912553D01*
X127949142Y-87908963D01*
X128166926Y-87908963D01*
X128166964Y-87916149D01*
X128167076Y-87923196D01*
X128167527Y-87936873D01*
X128168279Y-87949995D01*
X128169330Y-87962562D01*
X128170683Y-87974572D01*
X128172336Y-87986027D01*
X128174289Y-87996927D01*
X128176543Y-88007270D01*
X128179098Y-88017058D01*
X128181953Y-88026291D01*
X128185108Y-88034967D01*
X128188565Y-88043088D01*
X128192321Y-88050654D01*
X128196378Y-88057664D01*
X128200736Y-88064118D01*
X128205394Y-88070016D01*
X128210327Y-88075441D01*
X128215508Y-88080515D01*
X128220938Y-88085239D01*
X128226616Y-88089614D01*
X128232543Y-88093638D01*
X128238718Y-88097313D01*
X128245141Y-88100637D01*
X128251813Y-88103612D01*
X128258733Y-88106237D01*
X128265902Y-88108511D01*
X128273319Y-88110436D01*
X128280985Y-88112011D01*
X128288899Y-88113236D01*
X128297061Y-88114110D01*
X128305472Y-88114635D01*
X128314131Y-88114810D01*
X128322547Y-88114631D01*
X128330740Y-88114094D01*
X128338709Y-88113200D01*
X128346455Y-88111947D01*
X128353979Y-88110336D01*
X128361279Y-88108367D01*
X128368356Y-88106040D01*
X128375210Y-88103355D01*
X128381842Y-88100313D01*
X128388250Y-88096912D01*
X128394435Y-88093153D01*
X128400396Y-88089037D01*
X128406135Y-88084562D01*
X128411651Y-88079729D01*
X128416944Y-88074539D01*
X128422013Y-88068990D01*
X128426817Y-88063033D01*
X128431310Y-88056614D01*
X128435493Y-88049734D01*
X128439367Y-88042394D01*
X128442931Y-88034593D01*
X128446184Y-88026331D01*
X128449128Y-88017608D01*
X128451762Y-88008424D01*
X128454086Y-87998780D01*
X128456101Y-87988675D01*
X128457805Y-87978109D01*
X128459199Y-87967082D01*
X128460284Y-87955594D01*
X128461059Y-87943645D01*
X128461524Y-87931236D01*
X128461678Y-87918366D01*
X128461523Y-87905371D01*
X128461056Y-87892846D01*
X128460278Y-87880789D01*
X128459189Y-87869201D01*
X128457788Y-87858082D01*
X128456077Y-87847432D01*
X128454054Y-87837251D01*
X128451719Y-87827538D01*
X128449074Y-87818294D01*
X128446118Y-87809519D01*
X128442850Y-87801213D01*
X128439271Y-87793376D01*
X128435381Y-87786008D01*
X128431179Y-87779108D01*
X128426666Y-87772677D01*
X128421842Y-87766715D01*
X128416741Y-87761167D01*
X128411437Y-87755976D01*
X128405932Y-87751144D01*
X128400225Y-87746669D01*
X128394317Y-87742553D01*
X128388207Y-87738794D01*
X128381895Y-87735393D01*
X128375381Y-87732351D01*
X128368666Y-87729666D01*
X128361749Y-87727339D01*
X128354631Y-87725370D01*
X128347310Y-87723759D01*
X128339788Y-87722506D01*
X128332065Y-87721611D01*
X128324139Y-87721075D01*
X128316012Y-87720896D01*
X128307532Y-87721072D01*
X128299276Y-87721601D01*
X128291242Y-87722482D01*
X128283432Y-87723717D01*
X128275844Y-87725303D01*
X128268480Y-87727243D01*
X128261338Y-87729535D01*
X128254420Y-87732180D01*
X128247725Y-87735177D01*
X128241253Y-87738527D01*
X128235004Y-87742229D01*
X128228978Y-87746285D01*
X128223175Y-87750692D01*
X128217595Y-87755453D01*
X128212238Y-87760566D01*
X128207104Y-87766032D01*
X128202239Y-87771879D01*
X128197687Y-87778138D01*
X128193450Y-87784809D01*
X128189526Y-87791891D01*
X128185917Y-87799384D01*
X128182621Y-87807289D01*
X128179639Y-87815605D01*
X128176971Y-87824332D01*
X128174617Y-87833471D01*
X128172576Y-87843022D01*
X128170850Y-87852983D01*
X128169437Y-87863356D01*
X128168339Y-87874141D01*
X128167554Y-87885337D01*
X128167083Y-87896944D01*
X128166926Y-87908963D01*
X127949142Y-87908963D01*
X127949203Y-87902090D01*
X127949482Y-87891774D01*
X127949947Y-87881604D01*
X127950598Y-87871582D01*
X127951435Y-87861705D01*
X127952458Y-87851975D01*
X127953667Y-87842392D01*
X127955062Y-87832956D01*
X127956643Y-87823666D01*
X127958410Y-87814522D01*
X127960363Y-87805526D01*
X127962502Y-87796675D01*
X127964827Y-87787972D01*
X127967338Y-87779415D01*
X127970035Y-87771004D01*
X127972918Y-87762740D01*
X127975987Y-87754623D01*
X127979242Y-87746653D01*
X127982683Y-87738829D01*
X127986310Y-87731151D01*
X127990123Y-87723620D01*
X127994122Y-87716236D01*
X127998307Y-87708998D01*
X128002677Y-87701907D01*
X128007234Y-87694963D01*
X128011977Y-87688165D01*
X128016906Y-87681513D01*
X128022021Y-87675009D01*
X128027322Y-87668651D01*
X128032809Y-87662439D01*
X128038482Y-87656374D01*
X128044341Y-87650456D01*
X128050371Y-87644692D01*
X128056560Y-87639110D01*
X128062906Y-87633712D01*
X128069409Y-87628497D01*
X128076070Y-87623465D01*
X128082889Y-87618615D01*
X128089866Y-87613949D01*
X128097000Y-87609466D01*
X128104291Y-87605166D01*
X128111740Y-87601048D01*
X128119347Y-87597114D01*
X128127112Y-87593363D01*
X128135034Y-87589794D01*
X128143113Y-87586409D01*
X128151351Y-87583207D01*
X128159745Y-87580187D01*
X128168298Y-87577351D01*
X128177008Y-87574697D01*
X128185876Y-87572227D01*
X128194901Y-87569940D01*
X128204084Y-87567835D01*
X128213425Y-87565914D01*
X128222923Y-87564175D01*
X128232579Y-87562620D01*
X128242392Y-87561248D01*
X128252363Y-87560058D01*
X128262492Y-87559052D01*
X128272778Y-87558228D01*
X128283222Y-87557588D01*
X128293823Y-87557130D01*
X128304582Y-87556856D01*
X128315499Y-87556764D01*
X128326154Y-87556857D01*
G37*
G36*
X127911155Y-87567706D02*
G01*
X127248988Y-87567706D01*
X127248988Y-87731838D01*
X127471078Y-87731838D01*
X127471078Y-88268000D01*
X127688894Y-88268000D01*
X127688894Y-87731838D01*
X127911155Y-87731838D01*
X127911155Y-87567706D01*
G37*
G36*
X130226944Y-89444000D02*
G01*
X130008273Y-89444000D01*
X130008273Y-89159505D01*
X129988953Y-89159505D01*
X129981612Y-89159759D01*
X129974464Y-89160521D01*
X129967507Y-89161789D01*
X129960743Y-89163566D01*
X129954172Y-89165850D01*
X129947792Y-89168642D01*
X129941605Y-89171941D01*
X129935611Y-89175748D01*
X129932329Y-89178343D01*
X129926667Y-89183805D01*
X129921963Y-89189195D01*
X129917103Y-89195495D01*
X129912089Y-89202702D01*
X129908227Y-89208704D01*
X129904277Y-89215216D01*
X129900241Y-89222240D01*
X129896117Y-89229774D01*
X129779857Y-89444000D01*
X129533660Y-89444000D01*
X129638978Y-89242768D01*
X129642398Y-89236477D01*
X129646065Y-89230536D01*
X129650476Y-89223961D01*
X129654539Y-89218244D01*
X129659078Y-89212121D01*
X129664092Y-89205593D01*
X129669581Y-89198658D01*
X129672382Y-89195145D01*
X129677730Y-89188584D01*
X129682742Y-89182642D01*
X129687416Y-89177321D01*
X129692787Y-89171541D01*
X129698537Y-89165883D01*
X129704288Y-89161044D01*
X129710363Y-89156979D01*
X129717472Y-89152906D01*
X129723905Y-89149642D01*
X129731000Y-89146372D01*
X129738758Y-89143097D01*
X129747178Y-89139817D01*
X129753928Y-89137353D01*
X129761050Y-89134886D01*
X129752128Y-89132783D01*
X129743569Y-89130578D01*
X129735374Y-89128271D01*
X129727543Y-89125862D01*
X129720075Y-89123350D01*
X129712971Y-89120737D01*
X129706231Y-89118021D01*
X129699854Y-89115203D01*
X129691917Y-89111287D01*
X129684627Y-89107189D01*
X129679229Y-89103835D01*
X129671408Y-89098572D01*
X129663918Y-89093030D01*
X129656758Y-89087208D01*
X129649929Y-89081107D01*
X129643431Y-89074726D01*
X129637263Y-89068066D01*
X129631425Y-89061126D01*
X129625919Y-89053907D01*
X129620743Y-89046408D01*
X129615897Y-89038630D01*
X129611405Y-89030570D01*
X129607356Y-89022229D01*
X129603748Y-89013604D01*
X129600582Y-89004697D01*
X129597857Y-88995508D01*
X129595575Y-88986036D01*
X129593734Y-88976282D01*
X129592335Y-88966245D01*
X129591648Y-88959397D01*
X129591412Y-88956051D01*
X129809606Y-88956051D01*
X129809820Y-88961698D01*
X129810688Y-88968532D01*
X129812611Y-88976402D01*
X129815496Y-88983912D01*
X129819343Y-88991060D01*
X129823284Y-88996742D01*
X129825025Y-88998891D01*
X129830625Y-89004713D01*
X129836789Y-89009598D01*
X129843519Y-89013545D01*
X129850814Y-89016554D01*
X129858674Y-89018626D01*
X129863909Y-89019786D01*
X129871355Y-89021384D01*
X129878314Y-89022815D01*
X129886836Y-89024461D01*
X129894493Y-89025807D01*
X129901283Y-89026854D01*
X129908554Y-89027742D01*
X129916462Y-89028200D01*
X130008273Y-89028200D01*
X130008273Y-88885953D01*
X129912530Y-88885953D01*
X129908838Y-88885971D01*
X129901677Y-88886113D01*
X129894814Y-88886396D01*
X129885078Y-88887086D01*
X129876013Y-88888095D01*
X129867618Y-88889422D01*
X129859892Y-88891068D01*
X129852837Y-88893033D01*
X129844473Y-88896148D01*
X129837300Y-88899829D01*
X129831319Y-88904076D01*
X129826230Y-88908853D01*
X129821820Y-88914121D01*
X129818088Y-88919880D01*
X129815034Y-88926131D01*
X129812659Y-88932874D01*
X129810963Y-88940108D01*
X129809945Y-88947834D01*
X129809606Y-88956051D01*
X129591412Y-88956051D01*
X129591157Y-88952423D01*
X129590863Y-88945324D01*
X129590764Y-88938099D01*
X129590893Y-88929823D01*
X129591277Y-88921705D01*
X129591918Y-88913746D01*
X129592816Y-88905946D01*
X129593970Y-88898305D01*
X129595381Y-88890823D01*
X129597047Y-88883500D01*
X129598971Y-88876336D01*
X129601151Y-88869331D01*
X129603587Y-88862485D01*
X129606280Y-88855798D01*
X129609229Y-88849270D01*
X129612435Y-88842900D01*
X129615897Y-88836690D01*
X129619616Y-88830639D01*
X129623591Y-88824746D01*
X129625652Y-88821858D01*
X129629895Y-88816255D01*
X129634300Y-88810882D01*
X129638867Y-88805741D01*
X129646020Y-88798463D01*
X129653537Y-88791704D01*
X129661418Y-88785466D01*
X129669662Y-88779747D01*
X129678270Y-88774548D01*
X129687241Y-88769870D01*
X129696576Y-88765711D01*
X129703001Y-88763227D01*
X129709588Y-88760974D01*
X129716443Y-88758883D01*
X129723669Y-88756927D01*
X129731269Y-88755106D01*
X129739241Y-88753420D01*
X129747586Y-88751868D01*
X129756303Y-88750452D01*
X129765393Y-88749170D01*
X129774856Y-88748023D01*
X129784692Y-88747012D01*
X129794900Y-88746135D01*
X129805481Y-88745393D01*
X129816434Y-88744786D01*
X129827760Y-88744313D01*
X129839459Y-88743976D01*
X129851530Y-88743774D01*
X129863974Y-88743706D01*
X130226944Y-88743706D01*
X130226944Y-89444000D01*
G37*
G36*
X129505963Y-89205838D02*
G01*
X129298748Y-89192332D01*
X129297374Y-89201923D01*
X129295754Y-89211079D01*
X129293888Y-89219799D01*
X129291775Y-89228083D01*
X129289416Y-89235932D01*
X129286810Y-89243344D01*
X129283958Y-89250321D01*
X129280860Y-89256862D01*
X129277515Y-89262967D01*
X129272672Y-89270430D01*
X129271392Y-89272175D01*
X129267069Y-89277537D01*
X129260162Y-89284931D01*
X129252746Y-89291548D01*
X129244822Y-89297386D01*
X129236391Y-89302445D01*
X129227452Y-89306726D01*
X129218004Y-89310229D01*
X129211424Y-89312132D01*
X129204618Y-89313688D01*
X129197586Y-89314899D01*
X129190329Y-89315764D01*
X129182845Y-89316283D01*
X129175136Y-89316456D01*
X129166574Y-89316267D01*
X129158391Y-89315699D01*
X129150586Y-89314752D01*
X129143160Y-89313427D01*
X129136112Y-89311722D01*
X129129443Y-89309640D01*
X129121140Y-89306274D01*
X129113511Y-89302235D01*
X129106555Y-89297522D01*
X129103329Y-89294914D01*
X129097398Y-89289419D01*
X129092259Y-89283704D01*
X129087910Y-89277771D01*
X129084351Y-89271619D01*
X129081584Y-89265248D01*
X129079607Y-89258657D01*
X129078421Y-89251848D01*
X129078025Y-89244819D01*
X129078614Y-89236520D01*
X129080379Y-89228504D01*
X129083322Y-89220772D01*
X129087442Y-89213324D01*
X129091585Y-89207569D01*
X129096482Y-89201997D01*
X129102132Y-89196606D01*
X129109110Y-89191301D01*
X129115647Y-89187371D01*
X129123303Y-89183483D01*
X129132077Y-89179637D01*
X129138547Y-89177096D01*
X129145514Y-89174574D01*
X129152978Y-89172071D01*
X129160938Y-89169587D01*
X129169396Y-89167121D01*
X129178351Y-89164674D01*
X129187802Y-89162246D01*
X129197750Y-89159836D01*
X129208196Y-89157445D01*
X129213605Y-89156257D01*
X129222479Y-89154259D01*
X129231193Y-89152221D01*
X129239747Y-89150140D01*
X129248140Y-89148018D01*
X129256374Y-89145855D01*
X129264447Y-89143651D01*
X129272359Y-89141405D01*
X129280112Y-89139117D01*
X129287704Y-89136788D01*
X129295136Y-89134418D01*
X129302407Y-89132007D01*
X129309519Y-89129554D01*
X129316470Y-89127059D01*
X129323260Y-89124523D01*
X129329891Y-89121946D01*
X129336361Y-89119327D01*
X129342671Y-89116667D01*
X129354810Y-89111223D01*
X129366307Y-89105613D01*
X129377164Y-89099838D01*
X129387379Y-89093896D01*
X129396954Y-89087790D01*
X129405887Y-89081517D01*
X129414179Y-89075079D01*
X129418085Y-89071798D01*
X129425538Y-89065081D01*
X129432510Y-89058136D01*
X129439002Y-89050965D01*
X129445012Y-89043566D01*
X129450542Y-89035941D01*
X129455591Y-89028088D01*
X129460159Y-89020009D01*
X129464247Y-89011702D01*
X129467853Y-89003168D01*
X129470978Y-88994407D01*
X129473623Y-88985419D01*
X129475787Y-88976204D01*
X129477470Y-88966762D01*
X129478672Y-88957093D01*
X129479393Y-88947197D01*
X129479634Y-88937073D01*
X129479357Y-88927028D01*
X129478528Y-88917088D01*
X129477145Y-88907253D01*
X129475210Y-88897523D01*
X129472722Y-88887899D01*
X129469680Y-88878379D01*
X129466086Y-88868965D01*
X129461938Y-88859656D01*
X129458866Y-88853509D01*
X129455548Y-88847408D01*
X129451985Y-88841354D01*
X129448175Y-88835346D01*
X129444119Y-88829443D01*
X129439814Y-88823699D01*
X129435260Y-88818116D01*
X129430459Y-88812693D01*
X129425408Y-88807430D01*
X129420110Y-88802328D01*
X129414562Y-88797386D01*
X129408767Y-88792604D01*
X129402723Y-88787982D01*
X129396430Y-88783521D01*
X129389889Y-88779220D01*
X129383100Y-88775079D01*
X129376062Y-88771099D01*
X129368776Y-88767279D01*
X129361241Y-88763619D01*
X129353458Y-88760120D01*
X129345368Y-88756807D01*
X129336911Y-88753708D01*
X129328089Y-88750823D01*
X129318901Y-88748152D01*
X129309346Y-88745694D01*
X129299426Y-88743450D01*
X129289140Y-88741420D01*
X129278488Y-88739603D01*
X129267469Y-88738000D01*
X129256085Y-88736611D01*
X129244335Y-88735436D01*
X129232219Y-88734474D01*
X129219737Y-88733726D01*
X129206889Y-88733192D01*
X129193674Y-88732871D01*
X129180094Y-88732764D01*
X129171705Y-88732813D01*
X129163442Y-88732958D01*
X129155304Y-88733200D01*
X129147292Y-88733539D01*
X129139406Y-88733975D01*
X129131646Y-88734507D01*
X129124012Y-88735137D01*
X129116504Y-88735863D01*
X129109122Y-88736686D01*
X129101866Y-88737606D01*
X129094735Y-88738623D01*
X129087731Y-88739737D01*
X129080852Y-88740947D01*
X129074099Y-88742254D01*
X129060971Y-88745160D01*
X129048347Y-88748452D01*
X129036226Y-88752132D01*
X129024609Y-88756199D01*
X129013495Y-88760654D01*
X129002885Y-88765496D01*
X128992778Y-88770725D01*
X128983175Y-88776342D01*
X128974076Y-88782346D01*
X128965431Y-88788772D01*
X128957235Y-88795655D01*
X128949488Y-88802994D01*
X128942190Y-88810791D01*
X128935340Y-88819044D01*
X128928939Y-88827754D01*
X128922988Y-88836921D01*
X128917484Y-88846545D01*
X128912430Y-88856625D01*
X128907825Y-88867163D01*
X128903668Y-88878157D01*
X128899960Y-88889608D01*
X128896701Y-88901516D01*
X128893891Y-88913880D01*
X128891529Y-88926702D01*
X128889616Y-88939980D01*
X129094951Y-88951606D01*
X129096648Y-88943234D01*
X129098660Y-88935301D01*
X129100988Y-88927807D01*
X129103631Y-88920751D01*
X129106589Y-88914134D01*
X129109864Y-88907956D01*
X129114720Y-88900402D01*
X129120138Y-88893627D01*
X129126117Y-88887632D01*
X129129316Y-88884928D01*
X129136168Y-88880039D01*
X129143646Y-88875802D01*
X129151748Y-88872217D01*
X129158235Y-88869956D01*
X129165074Y-88868062D01*
X129172264Y-88866534D01*
X129179806Y-88865373D01*
X129187699Y-88864579D01*
X129195945Y-88864151D01*
X129201637Y-88864069D01*
X129208589Y-88864209D01*
X129217350Y-88864830D01*
X129225529Y-88865948D01*
X129233125Y-88867563D01*
X129240139Y-88869675D01*
X129246570Y-88872283D01*
X129253790Y-88876243D01*
X129258912Y-88879969D01*
X129264428Y-88885105D01*
X129269009Y-88890575D01*
X129272656Y-88896379D01*
X129275798Y-88903784D01*
X129277593Y-88911670D01*
X129278060Y-88918609D01*
X129277299Y-88925709D01*
X129275017Y-88932498D01*
X129271213Y-88938976D01*
X129266741Y-88944282D01*
X129262160Y-88948528D01*
X129256320Y-88952757D01*
X129250164Y-88956073D01*
X129242688Y-88959331D01*
X129236215Y-88961736D01*
X129229000Y-88964108D01*
X129221042Y-88966446D01*
X129212342Y-88968752D01*
X129202900Y-88971024D01*
X129196193Y-88972521D01*
X129189156Y-88974003D01*
X129180312Y-88975895D01*
X129171627Y-88977790D01*
X129163101Y-88979686D01*
X129154732Y-88981584D01*
X129146522Y-88983485D01*
X129138470Y-88985387D01*
X129130576Y-88987292D01*
X129122841Y-88989198D01*
X129115264Y-88991106D01*
X129107845Y-88993017D01*
X129100584Y-88994929D01*
X129093482Y-88996844D01*
X129086538Y-88998760D01*
X129079752Y-89000678D01*
X129073125Y-89002599D01*
X129060345Y-89006446D01*
X129048198Y-89010300D01*
X129036684Y-89014163D01*
X129025804Y-89018034D01*
X129015556Y-89021913D01*
X129005942Y-89025800D01*
X128996960Y-89029695D01*
X128988612Y-89033598D01*
X128984676Y-89035552D01*
X128977072Y-89039501D01*
X128969732Y-89043566D01*
X128962657Y-89047750D01*
X128955846Y-89052051D01*
X128949300Y-89056469D01*
X128943018Y-89061005D01*
X128937000Y-89065659D01*
X128931248Y-89070430D01*
X128925759Y-89075319D01*
X128920535Y-89080325D01*
X128915576Y-89085449D01*
X128910881Y-89090690D01*
X128906450Y-89096049D01*
X128902284Y-89101525D01*
X128896531Y-89109960D01*
X128894745Y-89112831D01*
X128889704Y-89121582D01*
X128885158Y-89130526D01*
X128881109Y-89139662D01*
X128877555Y-89148991D01*
X128874497Y-89158512D01*
X128871935Y-89168225D01*
X128869869Y-89178130D01*
X128868299Y-89188228D01*
X128867527Y-89195067D01*
X128866976Y-89201991D01*
X128866646Y-89209001D01*
X128866535Y-89216096D01*
X128866682Y-89224434D01*
X128867123Y-89232691D01*
X128867858Y-89240868D01*
X128868886Y-89248965D01*
X128870209Y-89256982D01*
X128871825Y-89264919D01*
X128873735Y-89272776D01*
X128875939Y-89280552D01*
X128878437Y-89288249D01*
X128881228Y-89295865D01*
X128884314Y-89303401D01*
X128887693Y-89310857D01*
X128891366Y-89318232D01*
X128895333Y-89325528D01*
X128899594Y-89332743D01*
X128904149Y-89339879D01*
X128908946Y-89346846D01*
X128913977Y-89353599D01*
X128919242Y-89360139D01*
X128924740Y-89366465D01*
X128930472Y-89372577D01*
X128936438Y-89378475D01*
X128942638Y-89384160D01*
X128949071Y-89389631D01*
X128955738Y-89394888D01*
X128962639Y-89399932D01*
X128969774Y-89404762D01*
X128977142Y-89409378D01*
X128984744Y-89413781D01*
X128992580Y-89417969D01*
X129000650Y-89421944D01*
X129008953Y-89425706D01*
X129017490Y-89429246D01*
X129026302Y-89432558D01*
X129035388Y-89435641D01*
X129044750Y-89438496D01*
X129054387Y-89441123D01*
X129064300Y-89443521D01*
X129074487Y-89445691D01*
X129084950Y-89447633D01*
X129095687Y-89449346D01*
X129106700Y-89450830D01*
X129117988Y-89452087D01*
X129129551Y-89453114D01*
X129141390Y-89453914D01*
X129153503Y-89454485D01*
X129165892Y-89454827D01*
X129178556Y-89454942D01*
X129189689Y-89454873D01*
X129200606Y-89454667D01*
X129211307Y-89454324D01*
X129221792Y-89453844D01*
X129232061Y-89453226D01*
X129242114Y-89452471D01*
X129251951Y-89451579D01*
X129261572Y-89450550D01*
X129270977Y-89449383D01*
X129280166Y-89448079D01*
X129289139Y-89446638D01*
X129297895Y-89445060D01*
X129306436Y-89443345D01*
X129314761Y-89441492D01*
X129322869Y-89439502D01*
X129330762Y-89437374D01*
X129338438Y-89435110D01*
X129345899Y-89432708D01*
X129353143Y-89430169D01*
X129360171Y-89427493D01*
X129366983Y-89424679D01*
X129373580Y-89421729D01*
X129379960Y-89418641D01*
X129386124Y-89415415D01*
X129397804Y-89408553D01*
X129408620Y-89401142D01*
X129418571Y-89393182D01*
X129427659Y-89384673D01*
X129436079Y-89375720D01*
X129444029Y-89366470D01*
X129451509Y-89356924D01*
X129458519Y-89347081D01*
X129465059Y-89336942D01*
X129471128Y-89326506D01*
X129476727Y-89315773D01*
X129481856Y-89304744D01*
X129486515Y-89293419D01*
X129490704Y-89281797D01*
X129494423Y-89269879D01*
X129497671Y-89257664D01*
X129500449Y-89245152D01*
X129502758Y-89232344D01*
X129504595Y-89219239D01*
X129505963Y-89205838D01*
G37*
G36*
X128810457Y-88743706D02*
G01*
X128148290Y-88743706D01*
X128148290Y-88907838D01*
X128370381Y-88907838D01*
X128370381Y-89444000D01*
X128588196Y-89444000D01*
X128588196Y-88907838D01*
X128810457Y-88907838D01*
X128810457Y-88743706D01*
G37*
G36*
X130279431Y-89919706D02*
G01*
X129617265Y-89919706D01*
X129617265Y-90083838D01*
X129839355Y-90083838D01*
X129839355Y-90620000D01*
X130057170Y-90620000D01*
X130057170Y-90083838D01*
X130279431Y-90083838D01*
X130279431Y-89919706D01*
G37*
G36*
X129571274Y-89919706D02*
G01*
X129331403Y-89919706D01*
X129206253Y-90135129D01*
X129085206Y-89919706D01*
X128847558Y-89919706D01*
X129066912Y-90258911D01*
X128826870Y-90620000D01*
X129071699Y-90620000D01*
X129210698Y-90395003D01*
X129350039Y-90620000D01*
X129593500Y-90620000D01*
X129350039Y-90254979D01*
X129571274Y-89919706D01*
G37*
G36*
X130226944Y-91796000D02*
G01*
X130008273Y-91796000D01*
X130008273Y-91511505D01*
X129988953Y-91511505D01*
X129981612Y-91511759D01*
X129974464Y-91512521D01*
X129967507Y-91513789D01*
X129960743Y-91515566D01*
X129954172Y-91517850D01*
X129947792Y-91520642D01*
X129941605Y-91523941D01*
X129935611Y-91527748D01*
X129932329Y-91530343D01*
X129926667Y-91535805D01*
X129921963Y-91541195D01*
X129917103Y-91547495D01*
X129912089Y-91554702D01*
X129908227Y-91560704D01*
X129904277Y-91567216D01*
X129900241Y-91574240D01*
X129896117Y-91581774D01*
X129779857Y-91796000D01*
X129533660Y-91796000D01*
X129638978Y-91594768D01*
X129642398Y-91588477D01*
X129646065Y-91582536D01*
X129650476Y-91575961D01*
X129654539Y-91570244D01*
X129659078Y-91564121D01*
X129664092Y-91557593D01*
X129669581Y-91550658D01*
X129672382Y-91547145D01*
X129677730Y-91540584D01*
X129682742Y-91534642D01*
X129687416Y-91529321D01*
X129692787Y-91523541D01*
X129698537Y-91517883D01*
X129704288Y-91513044D01*
X129710363Y-91508979D01*
X129717472Y-91504906D01*
X129723905Y-91501642D01*
X129731000Y-91498372D01*
X129738758Y-91495097D01*
X129747178Y-91491817D01*
X129753928Y-91489353D01*
X129761050Y-91486886D01*
X129752128Y-91484783D01*
X129743569Y-91482578D01*
X129735374Y-91480271D01*
X129727543Y-91477862D01*
X129720075Y-91475350D01*
X129712971Y-91472737D01*
X129706231Y-91470021D01*
X129699854Y-91467203D01*
X129691917Y-91463287D01*
X129684627Y-91459189D01*
X129679229Y-91455835D01*
X129671408Y-91450572D01*
X129663918Y-91445030D01*
X129656758Y-91439208D01*
X129649929Y-91433107D01*
X129643431Y-91426726D01*
X129637263Y-91420066D01*
X129631425Y-91413126D01*
X129625919Y-91405907D01*
X129620743Y-91398408D01*
X129615897Y-91390630D01*
X129611405Y-91382570D01*
X129607356Y-91374229D01*
X129603748Y-91365604D01*
X129600582Y-91356697D01*
X129597857Y-91347508D01*
X129595575Y-91338036D01*
X129593734Y-91328282D01*
X129592335Y-91318245D01*
X129591648Y-91311397D01*
X129591412Y-91308051D01*
X129809606Y-91308051D01*
X129809820Y-91313698D01*
X129810688Y-91320532D01*
X129812611Y-91328402D01*
X129815496Y-91335912D01*
X129819343Y-91343060D01*
X129823284Y-91348742D01*
X129825025Y-91350891D01*
X129830625Y-91356713D01*
X129836789Y-91361598D01*
X129843519Y-91365545D01*
X129850814Y-91368554D01*
X129858674Y-91370626D01*
X129863909Y-91371786D01*
X129871355Y-91373384D01*
X129878314Y-91374815D01*
X129886836Y-91376461D01*
X129894493Y-91377807D01*
X129901283Y-91378854D01*
X129908554Y-91379742D01*
X129916462Y-91380200D01*
X130008273Y-91380200D01*
X130008273Y-91237953D01*
X129912530Y-91237953D01*
X129908838Y-91237971D01*
X129901677Y-91238113D01*
X129894814Y-91238396D01*
X129885078Y-91239086D01*
X129876013Y-91240095D01*
X129867618Y-91241422D01*
X129859892Y-91243068D01*
X129852837Y-91245033D01*
X129844473Y-91248148D01*
X129837300Y-91251829D01*
X129831319Y-91256076D01*
X129826230Y-91260853D01*
X129821820Y-91266121D01*
X129818088Y-91271880D01*
X129815034Y-91278131D01*
X129812659Y-91284874D01*
X129810963Y-91292108D01*
X129809945Y-91299834D01*
X129809606Y-91308051D01*
X129591412Y-91308051D01*
X129591157Y-91304423D01*
X129590863Y-91297324D01*
X129590764Y-91290099D01*
X129590893Y-91281823D01*
X129591277Y-91273705D01*
X129591918Y-91265746D01*
X129592816Y-91257946D01*
X129593970Y-91250305D01*
X129595381Y-91242823D01*
X129597047Y-91235500D01*
X129598971Y-91228336D01*
X129601151Y-91221331D01*
X129603587Y-91214485D01*
X129606280Y-91207798D01*
X129609229Y-91201270D01*
X129612435Y-91194900D01*
X129615897Y-91188690D01*
X129619616Y-91182639D01*
X129623591Y-91176746D01*
X129625652Y-91173858D01*
X129629895Y-91168255D01*
X129634300Y-91162882D01*
X129638867Y-91157741D01*
X129646020Y-91150463D01*
X129653537Y-91143704D01*
X129661418Y-91137466D01*
X129669662Y-91131747D01*
X129678270Y-91126548D01*
X129687241Y-91121870D01*
X129696576Y-91117711D01*
X129703001Y-91115227D01*
X129709588Y-91112974D01*
X129716443Y-91110883D01*
X129723669Y-91108927D01*
X129731269Y-91107106D01*
X129739241Y-91105420D01*
X129747586Y-91103868D01*
X129756303Y-91102452D01*
X129765393Y-91101170D01*
X129774856Y-91100023D01*
X129784692Y-91099012D01*
X129794900Y-91098135D01*
X129805481Y-91097393D01*
X129816434Y-91096786D01*
X129827760Y-91096313D01*
X129839459Y-91095976D01*
X129851530Y-91095774D01*
X129863974Y-91095706D01*
X130226944Y-91095706D01*
X130226944Y-91796000D01*
G37*
G36*
X129516563Y-91095706D02*
G01*
X129276692Y-91095706D01*
X129151542Y-91311129D01*
X129030496Y-91095706D01*
X128792847Y-91095706D01*
X129012202Y-91434911D01*
X128772160Y-91796000D01*
X129016989Y-91796000D01*
X129155988Y-91571003D01*
X129295328Y-91796000D01*
X129538789Y-91796000D01*
X129295328Y-91430979D01*
X129516563Y-91095706D01*
G37*
G36*
X130071703Y-92479606D02*
G01*
X130256863Y-92448831D01*
X130253812Y-92437607D01*
X130250428Y-92426717D01*
X130246711Y-92416161D01*
X130242662Y-92405939D01*
X130238280Y-92396051D01*
X130233566Y-92386497D01*
X130228519Y-92377276D01*
X130223140Y-92368390D01*
X130217427Y-92359837D01*
X130211383Y-92351619D01*
X130205005Y-92343734D01*
X130198296Y-92336183D01*
X130191253Y-92328967D01*
X130183878Y-92322084D01*
X130176170Y-92315535D01*
X130168130Y-92309320D01*
X130159710Y-92303440D01*
X130150865Y-92297940D01*
X130141593Y-92292819D01*
X130131895Y-92288077D01*
X130121771Y-92283714D01*
X130111221Y-92279731D01*
X130100245Y-92276128D01*
X130088843Y-92272903D01*
X130077014Y-92270058D01*
X130064760Y-92267592D01*
X130052079Y-92265506D01*
X130038973Y-92263799D01*
X130025440Y-92262471D01*
X130018514Y-92261950D01*
X130011481Y-92261523D01*
X130004342Y-92261191D01*
X129997097Y-92260954D01*
X129989744Y-92260812D01*
X129982286Y-92260764D01*
X129973726Y-92260813D01*
X129965317Y-92260959D01*
X129957057Y-92261203D01*
X129948946Y-92261544D01*
X129940986Y-92261983D01*
X129933174Y-92262519D01*
X129925513Y-92263153D01*
X129918001Y-92263885D01*
X129910639Y-92264713D01*
X129903426Y-92265640D01*
X129896363Y-92266663D01*
X129889449Y-92267785D01*
X129882685Y-92269004D01*
X129869606Y-92271734D01*
X129857125Y-92274854D01*
X129845242Y-92278364D01*
X129833958Y-92282264D01*
X129823273Y-92286555D01*
X129813186Y-92291235D01*
X129803697Y-92296305D01*
X129794806Y-92301766D01*
X129786514Y-92307616D01*
X129782593Y-92310688D01*
X129775139Y-92317007D01*
X129768167Y-92323529D01*
X129761676Y-92330252D01*
X129755665Y-92337177D01*
X129750135Y-92344304D01*
X129745086Y-92351632D01*
X129740518Y-92359162D01*
X129736431Y-92366894D01*
X129732824Y-92374827D01*
X129729699Y-92382962D01*
X129727054Y-92391299D01*
X129724890Y-92399838D01*
X129723207Y-92408578D01*
X129722005Y-92417520D01*
X129721284Y-92426663D01*
X129721043Y-92436009D01*
X129721264Y-92444207D01*
X129721927Y-92452261D01*
X129723031Y-92460171D01*
X129724578Y-92467937D01*
X129726566Y-92475559D01*
X129728996Y-92483036D01*
X129731867Y-92490369D01*
X129735181Y-92497558D01*
X129738936Y-92504602D01*
X129743133Y-92511503D01*
X129746176Y-92516023D01*
X129751080Y-92522676D01*
X129756432Y-92529174D01*
X129762232Y-92535515D01*
X129768480Y-92541700D01*
X129775175Y-92547729D01*
X129782318Y-92553601D01*
X129789909Y-92559317D01*
X129797948Y-92564877D01*
X129806434Y-92570281D01*
X129812341Y-92573796D01*
X129818446Y-92577242D01*
X129821574Y-92578939D01*
X129814082Y-92580891D01*
X129806930Y-92582901D01*
X129800117Y-92584967D01*
X129791562Y-92587810D01*
X129783611Y-92590756D01*
X129776263Y-92593802D01*
X129769519Y-92596951D01*
X129763379Y-92600200D01*
X129759170Y-92602704D01*
X129752735Y-92606929D01*
X129746573Y-92611398D01*
X129740685Y-92616110D01*
X129735071Y-92621065D01*
X129729730Y-92626264D01*
X129724663Y-92631706D01*
X129719869Y-92637391D01*
X129715348Y-92643320D01*
X129711101Y-92649493D01*
X129707127Y-92655909D01*
X129704630Y-92660321D01*
X129701147Y-92667111D01*
X129698007Y-92674144D01*
X129695209Y-92681420D01*
X129692753Y-92688940D01*
X129690641Y-92696703D01*
X129688870Y-92704710D01*
X129687443Y-92712960D01*
X129686358Y-92721454D01*
X129685616Y-92730191D01*
X129685216Y-92739171D01*
X129685140Y-92745293D01*
X129685266Y-92753032D01*
X129685645Y-92760731D01*
X129686276Y-92768392D01*
X129687159Y-92776014D01*
X129688295Y-92783598D01*
X129689684Y-92791143D01*
X129691325Y-92798649D01*
X129693218Y-92806116D01*
X129695364Y-92813544D01*
X129697762Y-92820934D01*
X129700413Y-92828285D01*
X129703316Y-92835598D01*
X129706472Y-92842871D01*
X129709880Y-92850106D01*
X129713540Y-92857302D01*
X129717453Y-92864459D01*
X129721582Y-92871474D01*
X129725932Y-92878284D01*
X129730504Y-92884890D01*
X129735298Y-92891291D01*
X129740314Y-92897488D01*
X129745551Y-92903481D01*
X129751010Y-92909269D01*
X129756691Y-92914853D01*
X129762593Y-92920232D01*
X129768717Y-92925408D01*
X129775063Y-92930378D01*
X129781631Y-92935145D01*
X129788420Y-92939707D01*
X129795431Y-92944065D01*
X129802664Y-92948218D01*
X129810119Y-92952167D01*
X129817833Y-92955894D01*
X129825845Y-92959380D01*
X129834155Y-92962626D01*
X129842763Y-92965631D01*
X129851669Y-92968396D01*
X129860873Y-92970920D01*
X129870374Y-92973204D01*
X129880174Y-92975248D01*
X129890271Y-92977051D01*
X129900666Y-92978614D01*
X129911359Y-92979936D01*
X129922350Y-92981018D01*
X129933639Y-92981860D01*
X129945225Y-92982461D01*
X129957110Y-92982821D01*
X129969292Y-92982942D01*
X129981144Y-92982854D01*
X129992680Y-92982592D01*
X130003899Y-92982154D01*
X130014802Y-92981542D01*
X130025388Y-92980754D01*
X130035658Y-92979792D01*
X130045611Y-92978655D01*
X130055247Y-92977342D01*
X130064567Y-92975855D01*
X130073570Y-92974193D01*
X130082257Y-92972355D01*
X130090627Y-92970343D01*
X130098681Y-92968156D01*
X130106418Y-92965794D01*
X130113838Y-92963257D01*
X130120942Y-92960545D01*
X130127811Y-92957643D01*
X130134526Y-92954579D01*
X130141088Y-92951354D01*
X130147496Y-92947968D01*
X130153750Y-92944419D01*
X130159851Y-92940709D01*
X130165799Y-92936838D01*
X130171592Y-92932805D01*
X130177232Y-92928610D01*
X130182719Y-92924253D01*
X130188051Y-92919735D01*
X130193231Y-92915056D01*
X130198256Y-92910215D01*
X130203128Y-92905212D01*
X130207846Y-92900047D01*
X130212411Y-92894721D01*
X130216813Y-92889207D01*
X130221085Y-92883520D01*
X130225228Y-92877661D01*
X130229241Y-92871629D01*
X130233125Y-92865426D01*
X130236879Y-92859050D01*
X130240503Y-92852501D01*
X130243998Y-92845781D01*
X130247363Y-92838888D01*
X130250599Y-92831823D01*
X130253705Y-92824585D01*
X130256682Y-92817175D01*
X130259529Y-92809593D01*
X130262246Y-92801839D01*
X130264834Y-92793912D01*
X130267293Y-92785813D01*
X130071703Y-92764100D01*
X130069442Y-92773098D01*
X130066956Y-92781565D01*
X130064245Y-92789500D01*
X130061308Y-92796902D01*
X130058146Y-92803773D01*
X130054759Y-92810112D01*
X130051146Y-92815918D01*
X130045978Y-92822833D01*
X130040410Y-92828803D01*
X130035970Y-92832659D01*
X130029655Y-92837107D01*
X130022934Y-92840962D01*
X130015806Y-92844223D01*
X130008273Y-92846892D01*
X130000334Y-92848968D01*
X129991988Y-92850451D01*
X129983237Y-92851340D01*
X129974079Y-92851637D01*
X129966822Y-92851398D01*
X129959796Y-92850681D01*
X129953001Y-92849486D01*
X129944302Y-92847150D01*
X129936014Y-92843965D01*
X129928137Y-92839929D01*
X129920672Y-92835045D01*
X129913618Y-92829311D01*
X129908598Y-92824452D01*
X129903892Y-92819166D01*
X129899650Y-92813563D01*
X129895870Y-92807645D01*
X129892553Y-92801412D01*
X129889699Y-92794862D01*
X129887308Y-92787998D01*
X129885379Y-92780817D01*
X129883914Y-92773322D01*
X129882911Y-92765510D01*
X129882371Y-92757383D01*
X129882268Y-92751790D01*
X129882491Y-92743288D01*
X129883158Y-92735155D01*
X129884270Y-92727391D01*
X129885826Y-92719998D01*
X129887828Y-92712974D01*
X129890274Y-92706319D01*
X129893166Y-92700035D01*
X129897712Y-92692230D01*
X129903050Y-92685083D01*
X129907572Y-92680154D01*
X129914138Y-92674183D01*
X129921271Y-92669009D01*
X129928970Y-92664630D01*
X129937235Y-92661048D01*
X129943806Y-92658883D01*
X129950695Y-92657167D01*
X129957903Y-92655898D01*
X129965429Y-92655077D01*
X129973274Y-92654704D01*
X129975960Y-92654679D01*
X129983594Y-92654946D01*
X129992072Y-92655748D01*
X129999461Y-92656774D01*
X130007389Y-92658141D01*
X130015858Y-92659851D01*
X130022563Y-92661358D01*
X130029572Y-92663057D01*
X130036885Y-92664948D01*
X130039390Y-92665621D01*
X130029302Y-92521323D01*
X130022473Y-92522122D01*
X130015530Y-92522795D01*
X130008144Y-92523276D01*
X130003828Y-92523374D01*
X129996728Y-92523189D01*
X129989853Y-92522635D01*
X129981037Y-92521321D01*
X129972622Y-92519349D01*
X129964608Y-92516720D01*
X129956995Y-92513435D01*
X129949782Y-92509492D01*
X129942970Y-92504891D01*
X129939714Y-92502345D01*
X129933663Y-92496967D01*
X129928419Y-92491349D01*
X129923982Y-92485491D01*
X129920352Y-92479392D01*
X129917528Y-92473053D01*
X129915511Y-92466473D01*
X129914301Y-92459653D01*
X129913898Y-92452593D01*
X129914369Y-92444262D01*
X129915784Y-92436474D01*
X129918143Y-92429229D01*
X129921444Y-92422526D01*
X129925689Y-92416366D01*
X129930878Y-92410748D01*
X129933217Y-92408653D01*
X129939556Y-92403876D01*
X129946604Y-92399908D01*
X129954362Y-92396750D01*
X129961079Y-92394806D01*
X129968251Y-92393381D01*
X129975876Y-92392474D01*
X129983956Y-92392085D01*
X129986047Y-92392069D01*
X129994521Y-92392374D01*
X130002588Y-92393287D01*
X130010250Y-92394810D01*
X130017505Y-92396942D01*
X130024355Y-92399683D01*
X130030798Y-92403033D01*
X130036836Y-92406992D01*
X130042467Y-92411560D01*
X130047636Y-92416849D01*
X130052373Y-92423058D01*
X130056676Y-92430185D01*
X130060547Y-92438231D01*
X130063166Y-92444869D01*
X130065542Y-92452024D01*
X130067674Y-92459695D01*
X130069563Y-92467884D01*
X130071209Y-92476589D01*
X130071703Y-92479606D01*
G37*
G36*
X129646501Y-92271706D02*
G01*
X129418598Y-92271706D01*
X129259937Y-92775726D01*
X129103671Y-92271706D01*
X128882436Y-92271706D01*
X129144020Y-92972000D01*
X129380129Y-92972000D01*
X129646501Y-92271706D01*
G37*
G36*
X128656755Y-92479606D02*
G01*
X128841916Y-92448831D01*
X128838864Y-92437607D01*
X128835480Y-92426717D01*
X128831764Y-92416161D01*
X128827715Y-92405939D01*
X128823333Y-92396051D01*
X128818618Y-92386497D01*
X128813571Y-92377276D01*
X128808192Y-92368390D01*
X128802480Y-92359837D01*
X128796435Y-92351619D01*
X128790058Y-92343734D01*
X128783348Y-92336183D01*
X128776305Y-92328967D01*
X128768930Y-92322084D01*
X128761223Y-92315535D01*
X128753182Y-92309320D01*
X128744763Y-92303440D01*
X128735917Y-92297940D01*
X128726645Y-92292819D01*
X128716947Y-92288077D01*
X128706823Y-92283714D01*
X128696273Y-92279731D01*
X128685297Y-92276128D01*
X128673895Y-92272903D01*
X128662067Y-92270058D01*
X128649812Y-92267592D01*
X128637132Y-92265506D01*
X128624025Y-92263799D01*
X128610493Y-92262471D01*
X128603566Y-92261950D01*
X128596534Y-92261523D01*
X128589395Y-92261191D01*
X128582149Y-92260954D01*
X128574797Y-92260812D01*
X128567338Y-92260764D01*
X128558779Y-92260813D01*
X128550369Y-92260959D01*
X128542109Y-92261203D01*
X128533999Y-92261544D01*
X128526038Y-92261983D01*
X128518227Y-92262519D01*
X128510565Y-92263153D01*
X128503053Y-92263885D01*
X128495691Y-92264713D01*
X128488478Y-92265640D01*
X128481415Y-92266663D01*
X128474501Y-92267785D01*
X128467737Y-92269004D01*
X128454658Y-92271734D01*
X128442177Y-92274854D01*
X128430295Y-92278364D01*
X128419011Y-92282264D01*
X128408325Y-92286555D01*
X128398238Y-92291235D01*
X128388749Y-92296305D01*
X128379859Y-92301766D01*
X128371567Y-92307616D01*
X128367645Y-92310688D01*
X128360192Y-92317007D01*
X128353219Y-92323529D01*
X128346728Y-92330252D01*
X128340717Y-92337177D01*
X128335187Y-92344304D01*
X128330138Y-92351632D01*
X128325570Y-92359162D01*
X128321483Y-92366894D01*
X128317877Y-92374827D01*
X128314751Y-92382962D01*
X128312106Y-92391299D01*
X128309943Y-92399838D01*
X128308260Y-92408578D01*
X128307058Y-92417520D01*
X128306336Y-92426663D01*
X128306096Y-92436009D01*
X128306317Y-92444207D01*
X128306979Y-92452261D01*
X128308084Y-92460171D01*
X128309630Y-92467937D01*
X128311618Y-92475559D01*
X128314048Y-92483036D01*
X128316920Y-92490369D01*
X128320233Y-92497558D01*
X128323988Y-92504602D01*
X128328185Y-92511503D01*
X128331228Y-92516023D01*
X128336133Y-92522676D01*
X128341485Y-92529174D01*
X128347284Y-92535515D01*
X128353532Y-92541700D01*
X128360227Y-92547729D01*
X128367371Y-92553601D01*
X128374961Y-92559317D01*
X128383000Y-92564877D01*
X128391487Y-92570281D01*
X128397393Y-92573796D01*
X128403499Y-92577242D01*
X128406626Y-92578939D01*
X128399134Y-92580891D01*
X128391982Y-92582901D01*
X128385170Y-92584967D01*
X128376614Y-92587810D01*
X128368663Y-92590756D01*
X128361315Y-92593802D01*
X128354571Y-92596951D01*
X128348431Y-92600200D01*
X128344222Y-92602704D01*
X128337787Y-92606929D01*
X128331626Y-92611398D01*
X128325738Y-92616110D01*
X128320123Y-92621065D01*
X128314782Y-92626264D01*
X128309715Y-92631706D01*
X128304921Y-92637391D01*
X128300400Y-92643320D01*
X128296153Y-92649493D01*
X128292180Y-92655909D01*
X128289683Y-92660321D01*
X128286200Y-92667111D01*
X128283059Y-92674144D01*
X128280261Y-92681420D01*
X128277806Y-92688940D01*
X128275693Y-92696703D01*
X128273923Y-92704710D01*
X128272495Y-92712960D01*
X128271410Y-92721454D01*
X128270668Y-92730191D01*
X128270268Y-92739171D01*
X128270192Y-92745293D01*
X128270318Y-92753032D01*
X128270697Y-92760731D01*
X128271328Y-92768392D01*
X128272212Y-92776014D01*
X128273348Y-92783598D01*
X128274736Y-92791143D01*
X128276377Y-92798649D01*
X128278270Y-92806116D01*
X128280416Y-92813544D01*
X128282814Y-92820934D01*
X128285465Y-92828285D01*
X128288368Y-92835598D01*
X128291524Y-92842871D01*
X128294932Y-92850106D01*
X128298592Y-92857302D01*
X128302505Y-92864459D01*
X128306634Y-92871474D01*
X128310984Y-92878284D01*
X128315557Y-92884890D01*
X128320350Y-92891291D01*
X128325366Y-92897488D01*
X128330603Y-92903481D01*
X128336062Y-92909269D01*
X128341743Y-92914853D01*
X128347646Y-92920232D01*
X128353770Y-92925408D01*
X128360116Y-92930378D01*
X128366683Y-92935145D01*
X128373473Y-92939707D01*
X128380484Y-92944065D01*
X128387717Y-92948218D01*
X128395171Y-92952167D01*
X128402886Y-92955894D01*
X128410898Y-92959380D01*
X128419208Y-92962626D01*
X128427816Y-92965631D01*
X128436722Y-92968396D01*
X128445925Y-92970920D01*
X128455427Y-92973204D01*
X128465226Y-92975248D01*
X128475323Y-92977051D01*
X128485718Y-92978614D01*
X128496411Y-92979936D01*
X128507402Y-92981018D01*
X128518691Y-92981860D01*
X128530278Y-92982461D01*
X128542162Y-92982821D01*
X128554344Y-92982942D01*
X128566197Y-92982854D01*
X128577732Y-92982592D01*
X128588952Y-92982154D01*
X128599854Y-92981542D01*
X128610440Y-92980754D01*
X128620710Y-92979792D01*
X128630663Y-92978655D01*
X128640299Y-92977342D01*
X128649619Y-92975855D01*
X128658623Y-92974193D01*
X128667309Y-92972355D01*
X128675679Y-92970343D01*
X128683733Y-92968156D01*
X128691470Y-92965794D01*
X128698891Y-92963257D01*
X128705995Y-92960545D01*
X128712863Y-92957643D01*
X128719579Y-92954579D01*
X128726140Y-92951354D01*
X128732548Y-92947968D01*
X128738803Y-92944419D01*
X128744904Y-92940709D01*
X128750851Y-92936838D01*
X128756644Y-92932805D01*
X128762284Y-92928610D01*
X128767771Y-92924253D01*
X128773104Y-92919735D01*
X128778283Y-92915056D01*
X128783308Y-92910215D01*
X128788180Y-92905212D01*
X128792899Y-92900047D01*
X128797464Y-92894721D01*
X128801865Y-92889207D01*
X128806138Y-92883520D01*
X128810280Y-92877661D01*
X128814293Y-92871629D01*
X128818177Y-92865426D01*
X128821931Y-92859050D01*
X128825555Y-92852501D01*
X128829050Y-92845781D01*
X128832416Y-92838888D01*
X128835651Y-92831823D01*
X128838757Y-92824585D01*
X128841734Y-92817175D01*
X128844581Y-92809593D01*
X128847299Y-92801839D01*
X128849887Y-92793912D01*
X128852345Y-92785813D01*
X128656755Y-92764100D01*
X128654495Y-92773098D01*
X128652009Y-92781565D01*
X128649298Y-92789500D01*
X128646361Y-92796902D01*
X128643199Y-92803773D01*
X128639811Y-92810112D01*
X128636198Y-92815918D01*
X128631030Y-92822833D01*
X128625462Y-92828803D01*
X128621023Y-92832659D01*
X128614707Y-92837107D01*
X128607986Y-92840962D01*
X128600859Y-92844223D01*
X128593325Y-92846892D01*
X128585386Y-92848968D01*
X128577040Y-92850451D01*
X128568289Y-92851340D01*
X128559131Y-92851637D01*
X128551874Y-92851398D01*
X128544848Y-92850681D01*
X128538053Y-92849486D01*
X128529354Y-92847150D01*
X128521066Y-92843965D01*
X128513189Y-92839929D01*
X128505724Y-92835045D01*
X128498670Y-92829311D01*
X128493650Y-92824452D01*
X128488945Y-92819166D01*
X128484702Y-92813563D01*
X128480922Y-92807645D01*
X128477605Y-92801412D01*
X128474751Y-92794862D01*
X128472360Y-92787998D01*
X128470432Y-92780817D01*
X128468966Y-92773322D01*
X128467963Y-92765510D01*
X128467423Y-92757383D01*
X128467321Y-92751790D01*
X128467543Y-92743288D01*
X128468210Y-92735155D01*
X128469322Y-92727391D01*
X128470879Y-92719998D01*
X128472880Y-92712974D01*
X128475327Y-92706319D01*
X128478218Y-92700035D01*
X128482765Y-92692230D01*
X128488102Y-92685083D01*
X128492624Y-92680154D01*
X128499190Y-92674183D01*
X128506323Y-92669009D01*
X128514022Y-92664630D01*
X128522287Y-92661048D01*
X128528858Y-92658883D01*
X128535747Y-92657167D01*
X128542955Y-92655898D01*
X128550481Y-92655077D01*
X128558326Y-92654704D01*
X128561012Y-92654679D01*
X128568646Y-92654946D01*
X128577124Y-92655748D01*
X128584513Y-92656774D01*
X128592442Y-92658141D01*
X128600910Y-92659851D01*
X128607616Y-92661358D01*
X128614625Y-92663057D01*
X128621937Y-92664948D01*
X128624442Y-92665621D01*
X128614355Y-92521323D01*
X128607526Y-92522122D01*
X128600583Y-92522795D01*
X128593196Y-92523276D01*
X128588880Y-92523374D01*
X128581780Y-92523189D01*
X128574905Y-92522635D01*
X128566090Y-92521321D01*
X128557675Y-92519349D01*
X128549661Y-92516720D01*
X128542047Y-92513435D01*
X128534834Y-92509492D01*
X128528022Y-92504891D01*
X128524766Y-92502345D01*
X128518716Y-92496967D01*
X128513472Y-92491349D01*
X128509035Y-92485491D01*
X128505404Y-92479392D01*
X128502580Y-92473053D01*
X128500563Y-92466473D01*
X128499353Y-92459653D01*
X128498950Y-92452593D01*
X128499422Y-92444262D01*
X128500837Y-92436474D01*
X128503195Y-92429229D01*
X128506497Y-92422526D01*
X128510742Y-92416366D01*
X128515930Y-92410748D01*
X128518270Y-92408653D01*
X128524608Y-92403876D01*
X128531657Y-92399908D01*
X128539415Y-92396750D01*
X128546132Y-92394806D01*
X128553303Y-92393381D01*
X128560929Y-92392474D01*
X128569008Y-92392085D01*
X128571099Y-92392069D01*
X128579573Y-92392374D01*
X128587641Y-92393287D01*
X128595302Y-92394810D01*
X128602558Y-92396942D01*
X128609407Y-92399683D01*
X128615851Y-92403033D01*
X128621888Y-92406992D01*
X128627519Y-92411560D01*
X128632689Y-92416849D01*
X128637425Y-92423058D01*
X128641729Y-92430185D01*
X128645599Y-92438231D01*
X128648219Y-92444869D01*
X128650594Y-92452024D01*
X128652727Y-92459695D01*
X128654615Y-92467884D01*
X128656261Y-92476589D01*
X128656755Y-92479606D01*
G37*
G36*
X127508917Y-92260857D02*
G01*
X127519425Y-92261137D01*
X127529785Y-92261603D01*
X127539998Y-92262255D01*
X127550064Y-92263093D01*
X127559982Y-92264118D01*
X127569753Y-92265329D01*
X127579377Y-92266727D01*
X127588854Y-92268311D01*
X127598183Y-92270081D01*
X127607365Y-92272037D01*
X127616400Y-92274180D01*
X127625288Y-92276509D01*
X127634028Y-92279025D01*
X127642621Y-92281727D01*
X127651067Y-92284615D01*
X127659366Y-92287689D01*
X127667517Y-92290950D01*
X127675521Y-92294397D01*
X127683378Y-92298030D01*
X127691087Y-92301850D01*
X127698649Y-92305856D01*
X127706064Y-92310049D01*
X127713332Y-92314428D01*
X127720453Y-92318993D01*
X127727426Y-92323744D01*
X127734252Y-92328682D01*
X127740930Y-92333806D01*
X127747462Y-92339116D01*
X127753846Y-92344613D01*
X127760083Y-92350296D01*
X127766173Y-92356166D01*
X127772084Y-92362191D01*
X127777808Y-92368365D01*
X127783344Y-92374687D01*
X127788693Y-92381157D01*
X127793853Y-92387774D01*
X127798826Y-92394540D01*
X127803612Y-92401453D01*
X127808210Y-92408514D01*
X127812620Y-92415724D01*
X127816842Y-92423081D01*
X127820877Y-92430586D01*
X127824724Y-92438239D01*
X127828384Y-92446040D01*
X127831856Y-92453989D01*
X127835140Y-92462086D01*
X127838236Y-92470331D01*
X127841145Y-92478724D01*
X127843866Y-92487264D01*
X127846400Y-92495953D01*
X127848746Y-92504789D01*
X127850904Y-92513774D01*
X127852874Y-92522906D01*
X127854657Y-92532186D01*
X127856252Y-92541615D01*
X127857660Y-92551191D01*
X127858880Y-92560915D01*
X127859912Y-92570787D01*
X127860756Y-92580807D01*
X127861413Y-92590975D01*
X127861882Y-92601290D01*
X127862164Y-92611754D01*
X127862258Y-92622366D01*
X127862210Y-92629977D01*
X127862068Y-92637508D01*
X127861831Y-92644959D01*
X127861499Y-92652331D01*
X127861072Y-92659623D01*
X127860551Y-92666835D01*
X127859934Y-92673967D01*
X127859223Y-92681019D01*
X127858417Y-92687992D01*
X127857516Y-92694885D01*
X127855430Y-92708431D01*
X127852964Y-92721657D01*
X127850119Y-92734565D01*
X127846894Y-92747153D01*
X127843291Y-92759422D01*
X127839308Y-92771372D01*
X127834945Y-92783003D01*
X127830203Y-92794314D01*
X127825082Y-92805306D01*
X127819582Y-92815979D01*
X127813702Y-92826333D01*
X127807517Y-92836335D01*
X127801101Y-92845995D01*
X127794454Y-92855312D01*
X127787576Y-92864288D01*
X127780467Y-92872922D01*
X127773126Y-92881214D01*
X127765555Y-92889165D01*
X127757752Y-92896773D01*
X127749719Y-92904039D01*
X127741454Y-92910963D01*
X127732958Y-92917546D01*
X127724231Y-92923786D01*
X127715274Y-92929684D01*
X127706085Y-92935241D01*
X127696665Y-92940456D01*
X127687013Y-92945328D01*
X127677086Y-92949883D01*
X127666836Y-92954144D01*
X127656265Y-92958111D01*
X127645372Y-92961784D01*
X127634156Y-92965163D01*
X127622619Y-92968249D01*
X127610760Y-92971040D01*
X127598579Y-92973538D01*
X127586076Y-92975742D01*
X127573252Y-92977652D01*
X127560105Y-92979268D01*
X127546636Y-92980591D01*
X127539781Y-92981142D01*
X127532846Y-92981619D01*
X127525830Y-92982023D01*
X127518734Y-92982354D01*
X127511557Y-92982611D01*
X127504299Y-92982795D01*
X127496961Y-92982905D01*
X127489543Y-92982942D01*
X127482251Y-92982899D01*
X127475034Y-92982771D01*
X127467893Y-92982558D01*
X127460828Y-92982260D01*
X127453839Y-92981877D01*
X127446926Y-92981409D01*
X127433326Y-92980217D01*
X127420030Y-92978684D01*
X127407037Y-92976811D01*
X127394347Y-92974597D01*
X127381960Y-92972042D01*
X127369877Y-92969147D01*
X127358097Y-92965911D01*
X127346620Y-92962335D01*
X127335446Y-92958418D01*
X127324575Y-92954161D01*
X127314008Y-92949562D01*
X127303743Y-92944624D01*
X127293782Y-92939344D01*
X127284097Y-92933759D01*
X127274701Y-92927903D01*
X127265594Y-92921775D01*
X127256778Y-92915376D01*
X127248252Y-92908707D01*
X127240015Y-92901766D01*
X127232068Y-92894553D01*
X127224411Y-92887070D01*
X127217044Y-92879316D01*
X127209967Y-92871290D01*
X127203180Y-92862993D01*
X127196682Y-92854426D01*
X127190475Y-92845587D01*
X127184557Y-92836476D01*
X127178929Y-92827095D01*
X127173591Y-92817443D01*
X127168539Y-92807462D01*
X127163813Y-92797137D01*
X127159413Y-92786470D01*
X127155340Y-92775459D01*
X127151592Y-92764105D01*
X127148169Y-92752407D01*
X127145073Y-92740367D01*
X127142303Y-92727983D01*
X127139859Y-92715255D01*
X127137740Y-92702185D01*
X127135948Y-92688771D01*
X127135174Y-92681935D01*
X127134481Y-92675014D01*
X127133870Y-92668007D01*
X127133340Y-92660914D01*
X127132892Y-92653735D01*
X127132526Y-92646470D01*
X127132241Y-92639119D01*
X127132037Y-92631683D01*
X127131915Y-92624161D01*
X127131874Y-92616553D01*
X127131906Y-92612963D01*
X127349690Y-92612963D01*
X127349727Y-92620149D01*
X127349840Y-92627196D01*
X127350291Y-92640873D01*
X127351042Y-92653995D01*
X127352094Y-92666562D01*
X127353446Y-92678572D01*
X127355099Y-92690027D01*
X127357053Y-92700927D01*
X127359307Y-92711270D01*
X127361861Y-92721058D01*
X127364716Y-92730291D01*
X127367872Y-92738967D01*
X127371328Y-92747088D01*
X127375085Y-92754654D01*
X127379142Y-92761664D01*
X127383500Y-92768118D01*
X127388158Y-92774016D01*
X127393091Y-92779441D01*
X127398272Y-92784515D01*
X127403701Y-92789239D01*
X127409380Y-92793614D01*
X127415306Y-92797638D01*
X127421481Y-92801313D01*
X127427904Y-92804637D01*
X127434576Y-92807612D01*
X127441497Y-92810237D01*
X127448665Y-92812511D01*
X127456082Y-92814436D01*
X127463748Y-92816011D01*
X127471662Y-92817236D01*
X127479825Y-92818110D01*
X127488235Y-92818635D01*
X127496895Y-92818810D01*
X127505310Y-92818631D01*
X127513503Y-92818094D01*
X127521472Y-92817200D01*
X127529219Y-92815947D01*
X127536742Y-92814336D01*
X127544042Y-92812367D01*
X127551120Y-92810040D01*
X127557974Y-92807355D01*
X127564605Y-92804313D01*
X127571013Y-92800912D01*
X127577198Y-92797153D01*
X127583160Y-92793037D01*
X127588899Y-92788562D01*
X127594415Y-92783729D01*
X127599707Y-92778539D01*
X127604777Y-92772990D01*
X127609580Y-92767033D01*
X127614073Y-92760614D01*
X127618257Y-92753734D01*
X127622130Y-92746394D01*
X127625694Y-92738593D01*
X127628948Y-92730331D01*
X127631892Y-92721608D01*
X127634526Y-92712424D01*
X127636850Y-92702780D01*
X127638864Y-92692675D01*
X127640568Y-92682109D01*
X127641963Y-92671082D01*
X127643047Y-92659594D01*
X127643822Y-92647645D01*
X127644287Y-92635236D01*
X127644442Y-92622366D01*
X127644286Y-92609371D01*
X127643819Y-92596846D01*
X127643041Y-92584789D01*
X127641952Y-92573201D01*
X127640552Y-92562082D01*
X127638840Y-92551432D01*
X127636817Y-92541251D01*
X127634483Y-92531538D01*
X127631838Y-92522294D01*
X127628881Y-92513519D01*
X127625613Y-92505213D01*
X127622034Y-92497376D01*
X127618144Y-92490008D01*
X127613942Y-92483108D01*
X127609430Y-92476677D01*
X127604606Y-92470715D01*
X127599504Y-92465167D01*
X127594201Y-92459976D01*
X127588696Y-92455144D01*
X127582989Y-92450669D01*
X127577080Y-92446553D01*
X127570970Y-92442794D01*
X127564658Y-92439393D01*
X127558145Y-92436351D01*
X127551430Y-92433666D01*
X127544513Y-92431339D01*
X127537394Y-92429370D01*
X127530074Y-92427759D01*
X127522552Y-92426506D01*
X127514828Y-92425611D01*
X127506903Y-92425075D01*
X127498775Y-92424896D01*
X127490296Y-92425072D01*
X127482039Y-92425601D01*
X127474006Y-92426482D01*
X127466195Y-92427717D01*
X127458608Y-92429303D01*
X127451243Y-92431243D01*
X127444102Y-92433535D01*
X127437184Y-92436180D01*
X127430488Y-92439177D01*
X127424016Y-92442527D01*
X127417767Y-92446229D01*
X127411741Y-92450285D01*
X127405938Y-92454692D01*
X127400358Y-92459453D01*
X127395001Y-92464566D01*
X127389868Y-92470032D01*
X127385002Y-92475879D01*
X127380451Y-92482138D01*
X127376213Y-92488809D01*
X127372290Y-92495891D01*
X127368680Y-92503384D01*
X127365384Y-92511289D01*
X127362402Y-92519605D01*
X127359734Y-92528332D01*
X127357380Y-92537471D01*
X127355340Y-92547022D01*
X127353613Y-92556983D01*
X127352201Y-92567356D01*
X127351102Y-92578141D01*
X127350317Y-92589337D01*
X127349847Y-92600944D01*
X127349690Y-92612963D01*
X127131906Y-92612963D01*
X127131967Y-92606090D01*
X127132246Y-92595774D01*
X127132711Y-92585604D01*
X127133362Y-92575582D01*
X127134199Y-92565705D01*
X127135222Y-92555975D01*
X127136431Y-92546392D01*
X127137826Y-92536956D01*
X127139407Y-92527666D01*
X127141174Y-92518522D01*
X127143127Y-92509526D01*
X127145266Y-92500675D01*
X127147591Y-92491972D01*
X127150102Y-92483415D01*
X127152799Y-92475004D01*
X127155681Y-92466740D01*
X127158750Y-92458623D01*
X127162005Y-92450653D01*
X127165446Y-92442829D01*
X127169073Y-92435151D01*
X127172886Y-92427620D01*
X127176885Y-92420236D01*
X127181070Y-92412998D01*
X127185441Y-92405907D01*
X127189998Y-92398963D01*
X127194741Y-92392165D01*
X127199670Y-92385513D01*
X127204785Y-92379009D01*
X127210085Y-92372651D01*
X127215572Y-92366439D01*
X127221245Y-92360374D01*
X127227104Y-92354456D01*
X127233135Y-92348692D01*
X127239323Y-92343110D01*
X127245669Y-92337712D01*
X127252173Y-92332497D01*
X127258834Y-92327465D01*
X127265653Y-92322615D01*
X127272629Y-92317949D01*
X127279763Y-92313466D01*
X127287055Y-92309166D01*
X127294504Y-92305048D01*
X127302111Y-92301114D01*
X127309875Y-92297363D01*
X127317797Y-92293794D01*
X127325877Y-92290409D01*
X127334114Y-92287207D01*
X127342509Y-92284187D01*
X127351061Y-92281351D01*
X127359772Y-92278697D01*
X127368639Y-92276227D01*
X127377665Y-92273940D01*
X127386848Y-92271835D01*
X127396188Y-92269914D01*
X127405686Y-92268175D01*
X127415342Y-92266620D01*
X127425156Y-92265248D01*
X127435127Y-92264058D01*
X127445255Y-92263052D01*
X127455541Y-92262228D01*
X127465985Y-92261588D01*
X127476587Y-92261130D01*
X127487346Y-92260856D01*
X127498263Y-92260764D01*
X127508917Y-92260857D01*
G37*
G36*
X126560321Y-92271706D02*
G01*
X126343018Y-92271706D01*
X126343018Y-92688360D01*
X126343094Y-92696070D01*
X126343323Y-92703726D01*
X126343704Y-92711329D01*
X126344237Y-92718878D01*
X126344922Y-92726374D01*
X126345759Y-92733817D01*
X126346749Y-92741206D01*
X126347891Y-92748542D01*
X126349185Y-92755824D01*
X126350632Y-92763053D01*
X126352231Y-92770228D01*
X126353982Y-92777350D01*
X126355885Y-92784419D01*
X126357941Y-92791434D01*
X126360149Y-92798396D01*
X126362509Y-92805304D01*
X126365031Y-92812132D01*
X126367726Y-92818853D01*
X126370593Y-92825468D01*
X126373633Y-92831975D01*
X126376844Y-92838376D01*
X126380228Y-92844670D01*
X126383785Y-92850857D01*
X126387513Y-92856937D01*
X126391414Y-92862910D01*
X126395487Y-92868776D01*
X126399733Y-92874536D01*
X126404151Y-92880189D01*
X126408741Y-92885734D01*
X126413503Y-92891173D01*
X126418438Y-92896506D01*
X126423545Y-92901731D01*
X126428754Y-92906785D01*
X126433996Y-92911647D01*
X126439269Y-92916317D01*
X126444575Y-92920794D01*
X126449912Y-92925079D01*
X126457978Y-92931146D01*
X126466117Y-92936780D01*
X126474327Y-92941981D01*
X126482610Y-92946749D01*
X126490965Y-92951085D01*
X126499392Y-92954988D01*
X126507891Y-92958458D01*
X126510740Y-92959519D01*
X126518789Y-92962355D01*
X126527035Y-92965008D01*
X126535480Y-92967479D01*
X126544122Y-92969766D01*
X126552961Y-92971871D01*
X126561999Y-92973792D01*
X126571234Y-92975530D01*
X126580667Y-92977086D01*
X126590297Y-92978458D01*
X126600125Y-92979648D01*
X126610151Y-92980654D01*
X126620374Y-92981478D01*
X126630796Y-92982118D01*
X126641414Y-92982576D01*
X126652231Y-92982850D01*
X126663245Y-92982942D01*
X126672977Y-92982878D01*
X126682874Y-92982689D01*
X126692936Y-92982374D01*
X126703164Y-92981932D01*
X126710074Y-92981567D01*
X126717058Y-92981146D01*
X126724115Y-92980670D01*
X126731246Y-92980137D01*
X126738450Y-92979548D01*
X126745727Y-92978902D01*
X126753079Y-92978201D01*
X126760503Y-92977444D01*
X126768001Y-92976630D01*
X126775572Y-92975761D01*
X126783082Y-92974808D01*
X126790436Y-92973747D01*
X126797636Y-92972575D01*
X126804680Y-92971294D01*
X126811570Y-92969904D01*
X126818304Y-92968404D01*
X126828116Y-92965948D01*
X126837578Y-92963247D01*
X126846693Y-92960298D01*
X126855458Y-92957104D01*
X126863875Y-92953663D01*
X126871943Y-92949975D01*
X126877129Y-92947380D01*
X126884730Y-92943248D01*
X126892211Y-92938805D01*
X126899572Y-92934048D01*
X126906813Y-92928979D01*
X126913934Y-92923598D01*
X126920934Y-92917904D01*
X126927815Y-92911897D01*
X126934575Y-92905578D01*
X126941214Y-92898946D01*
X126947734Y-92892002D01*
X126952013Y-92887198D01*
X126958173Y-92879836D01*
X126963957Y-92872432D01*
X126969365Y-92864986D01*
X126974397Y-92857498D01*
X126979054Y-92849967D01*
X126983335Y-92842395D01*
X126987240Y-92834780D01*
X126990770Y-92827124D01*
X126993924Y-92819425D01*
X126996703Y-92811684D01*
X126998346Y-92806501D01*
X127000789Y-92798225D01*
X127003075Y-92790069D01*
X127005202Y-92782031D01*
X127007173Y-92774112D01*
X127008985Y-92766313D01*
X127010640Y-92758632D01*
X127012137Y-92751070D01*
X127013477Y-92743626D01*
X127014659Y-92736302D01*
X127015684Y-92729097D01*
X127016551Y-92722010D01*
X127017260Y-92715042D01*
X127017812Y-92708193D01*
X127018343Y-92698143D01*
X127018521Y-92688360D01*
X127018521Y-92271706D01*
X126801218Y-92271706D01*
X126801218Y-92697422D01*
X126801093Y-92704462D01*
X126800718Y-92711308D01*
X126799688Y-92721210D01*
X126798096Y-92730674D01*
X126795941Y-92739699D01*
X126793225Y-92748285D01*
X126789947Y-92756433D01*
X126786106Y-92764141D01*
X126781704Y-92771411D01*
X126776740Y-92778242D01*
X126771214Y-92784635D01*
X126769247Y-92786668D01*
X126763034Y-92792412D01*
X126756386Y-92797591D01*
X126749302Y-92802206D01*
X126741782Y-92806255D01*
X126733826Y-92809739D01*
X126725435Y-92812658D01*
X126716608Y-92815012D01*
X126707345Y-92816801D01*
X126697646Y-92818026D01*
X126687512Y-92818685D01*
X126680513Y-92818810D01*
X126673577Y-92818687D01*
X126663528Y-92818038D01*
X126653906Y-92816834D01*
X126644711Y-92815073D01*
X126635942Y-92812756D01*
X126627600Y-92809884D01*
X126619685Y-92806455D01*
X126612197Y-92802471D01*
X126605135Y-92797930D01*
X126598501Y-92792833D01*
X126592293Y-92787181D01*
X126586579Y-92781018D01*
X126581427Y-92774388D01*
X126576838Y-92767293D01*
X126572810Y-92759732D01*
X126569344Y-92751705D01*
X126566441Y-92743213D01*
X126564099Y-92734255D01*
X126562319Y-92724830D01*
X126561102Y-92714940D01*
X126560602Y-92708088D01*
X126560352Y-92701029D01*
X126560321Y-92697422D01*
X126560321Y-92271706D01*
G37*
G36*
X126252746Y-92271706D02*
G01*
X125590579Y-92271706D01*
X125590579Y-92435838D01*
X125812669Y-92435838D01*
X125812669Y-92972000D01*
X126030485Y-92972000D01*
X126030485Y-92435838D01*
X126252746Y-92435838D01*
X126252746Y-92271706D01*
G37*
%LPC*%
D11*
X89538000Y-92696500D03*
X89538000Y-99296500D03*
D12*
X85598000Y-91386500D03*
X85598000Y-100606500D03*
X90098000Y-91386500D03*
X90098000Y-100606500D03*
%LPD*%
M02*
