%TF.GenerationSoftware,KiCad,Pcbnew,7.0.2*%
%TF.CreationDate,2023-10-30T14:33:18+01:00*%
%TF.ProjectId,programmer_board,70726f67-7261-46d6-9d65-725f626f6172,rev?*%
%TF.SameCoordinates,Original*%
%TF.FileFunction,Drillmap*%
%TF.FilePolarity,Positive*%
%FSLAX45Y45*%
G04 Gerber Fmt 4.5, Leading zero omitted, Abs format (unit mm)*
G04 Created by KiCad (PCBNEW 7.0.2) date 2023-10-30 14:33:18*
%MOMM*%
%LPD*%
G01*
G04 APERTURE LIST*
%ADD10C,0.100000*%
%ADD11C,0.200000*%
%ADD12C,0.080000*%
G04 APERTURE END LIST*
D10*
X8344803Y-8585200D02*
X8343900Y-10185400D01*
X13092797Y-10185400D02*
X13092797Y-8585200D01*
X12965797Y-10312397D02*
G75*
G03*
X13092797Y-10185400I3J126997D01*
G01*
X8471803Y-8458203D02*
G75*
G03*
X8344803Y-8585200I-3J-126997D01*
G01*
X8343900Y-10185400D02*
G75*
G03*
X8470900Y-10312400I127000J0D01*
G01*
X13092800Y-8585200D02*
G75*
G03*
X12965797Y-8458200I-127000J0D01*
G01*
X8470900Y-10312400D02*
X12965797Y-10312400D01*
X8471803Y-8458200D02*
X12965797Y-8458200D01*
D11*
D12*
X8913800Y-9229650D02*
X8993800Y-9309650D01*
X8993800Y-9229650D02*
X8913800Y-9309650D01*
X8913800Y-9889650D02*
X8993800Y-9969650D01*
X8993800Y-9889650D02*
X8913800Y-9969650D01*
D11*
X8586519Y-10629924D02*
X8586519Y-10429924D01*
X8586519Y-10429924D02*
X8634138Y-10429924D01*
X8634138Y-10429924D02*
X8662710Y-10439448D01*
X8662710Y-10439448D02*
X8681757Y-10458495D01*
X8681757Y-10458495D02*
X8691281Y-10477543D01*
X8691281Y-10477543D02*
X8700805Y-10515638D01*
X8700805Y-10515638D02*
X8700805Y-10544210D01*
X8700805Y-10544210D02*
X8691281Y-10582305D01*
X8691281Y-10582305D02*
X8681757Y-10601352D01*
X8681757Y-10601352D02*
X8662710Y-10620400D01*
X8662710Y-10620400D02*
X8634138Y-10629924D01*
X8634138Y-10629924D02*
X8586519Y-10629924D01*
X8786519Y-10629924D02*
X8786519Y-10496590D01*
X8786519Y-10534686D02*
X8796043Y-10515638D01*
X8796043Y-10515638D02*
X8805567Y-10506114D01*
X8805567Y-10506114D02*
X8824614Y-10496590D01*
X8824614Y-10496590D02*
X8843662Y-10496590D01*
X8910329Y-10629924D02*
X8910329Y-10496590D01*
X8910329Y-10429924D02*
X8900805Y-10439448D01*
X8900805Y-10439448D02*
X8910329Y-10448971D01*
X8910329Y-10448971D02*
X8919852Y-10439448D01*
X8919852Y-10439448D02*
X8910329Y-10429924D01*
X8910329Y-10429924D02*
X8910329Y-10448971D01*
X9034138Y-10629924D02*
X9015090Y-10620400D01*
X9015090Y-10620400D02*
X9005567Y-10601352D01*
X9005567Y-10601352D02*
X9005567Y-10429924D01*
X9138900Y-10629924D02*
X9119852Y-10620400D01*
X9119852Y-10620400D02*
X9110329Y-10601352D01*
X9110329Y-10601352D02*
X9110329Y-10429924D01*
X9367471Y-10629924D02*
X9367471Y-10429924D01*
X9367471Y-10429924D02*
X9434138Y-10572781D01*
X9434138Y-10572781D02*
X9500805Y-10429924D01*
X9500805Y-10429924D02*
X9500805Y-10629924D01*
X9681757Y-10629924D02*
X9681757Y-10525162D01*
X9681757Y-10525162D02*
X9672233Y-10506114D01*
X9672233Y-10506114D02*
X9653186Y-10496590D01*
X9653186Y-10496590D02*
X9615090Y-10496590D01*
X9615090Y-10496590D02*
X9596043Y-10506114D01*
X9681757Y-10620400D02*
X9662710Y-10629924D01*
X9662710Y-10629924D02*
X9615090Y-10629924D01*
X9615090Y-10629924D02*
X9596043Y-10620400D01*
X9596043Y-10620400D02*
X9586519Y-10601352D01*
X9586519Y-10601352D02*
X9586519Y-10582305D01*
X9586519Y-10582305D02*
X9596043Y-10563257D01*
X9596043Y-10563257D02*
X9615090Y-10553733D01*
X9615090Y-10553733D02*
X9662710Y-10553733D01*
X9662710Y-10553733D02*
X9681757Y-10544210D01*
X9776995Y-10496590D02*
X9776995Y-10696590D01*
X9776995Y-10506114D02*
X9796043Y-10496590D01*
X9796043Y-10496590D02*
X9834138Y-10496590D01*
X9834138Y-10496590D02*
X9853186Y-10506114D01*
X9853186Y-10506114D02*
X9862710Y-10515638D01*
X9862710Y-10515638D02*
X9872233Y-10534686D01*
X9872233Y-10534686D02*
X9872233Y-10591829D01*
X9872233Y-10591829D02*
X9862710Y-10610876D01*
X9862710Y-10610876D02*
X9853186Y-10620400D01*
X9853186Y-10620400D02*
X9834138Y-10629924D01*
X9834138Y-10629924D02*
X9796043Y-10629924D01*
X9796043Y-10629924D02*
X9776995Y-10620400D01*
X9957948Y-10610876D02*
X9967471Y-10620400D01*
X9967471Y-10620400D02*
X9957948Y-10629924D01*
X9957948Y-10629924D02*
X9948424Y-10620400D01*
X9948424Y-10620400D02*
X9957948Y-10610876D01*
X9957948Y-10610876D02*
X9957948Y-10629924D01*
X9957948Y-10506114D02*
X9967471Y-10515638D01*
X9967471Y-10515638D02*
X9957948Y-10525162D01*
X9957948Y-10525162D02*
X9948424Y-10515638D01*
X9948424Y-10515638D02*
X9957948Y-10506114D01*
X9957948Y-10506114D02*
X9957948Y-10525162D01*
D12*
X8258900Y-10917400D02*
X8338900Y-10997400D01*
X8338900Y-10917400D02*
X8258900Y-10997400D01*
D11*
X8624614Y-10849924D02*
X8643662Y-10849924D01*
X8643662Y-10849924D02*
X8662710Y-10859448D01*
X8662710Y-10859448D02*
X8672233Y-10868971D01*
X8672233Y-10868971D02*
X8681757Y-10888019D01*
X8681757Y-10888019D02*
X8691281Y-10926114D01*
X8691281Y-10926114D02*
X8691281Y-10973733D01*
X8691281Y-10973733D02*
X8681757Y-11011829D01*
X8681757Y-11011829D02*
X8672233Y-11030876D01*
X8672233Y-11030876D02*
X8662710Y-11040400D01*
X8662710Y-11040400D02*
X8643662Y-11049924D01*
X8643662Y-11049924D02*
X8624614Y-11049924D01*
X8624614Y-11049924D02*
X8605567Y-11040400D01*
X8605567Y-11040400D02*
X8596043Y-11030876D01*
X8596043Y-11030876D02*
X8586519Y-11011829D01*
X8586519Y-11011829D02*
X8576995Y-10973733D01*
X8576995Y-10973733D02*
X8576995Y-10926114D01*
X8576995Y-10926114D02*
X8586519Y-10888019D01*
X8586519Y-10888019D02*
X8596043Y-10868971D01*
X8596043Y-10868971D02*
X8605567Y-10859448D01*
X8605567Y-10859448D02*
X8624614Y-10849924D01*
X8776995Y-11030876D02*
X8786519Y-11040400D01*
X8786519Y-11040400D02*
X8776995Y-11049924D01*
X8776995Y-11049924D02*
X8767471Y-11040400D01*
X8767471Y-11040400D02*
X8776995Y-11030876D01*
X8776995Y-11030876D02*
X8776995Y-11049924D01*
X8900805Y-10935638D02*
X8881757Y-10926114D01*
X8881757Y-10926114D02*
X8872233Y-10916590D01*
X8872233Y-10916590D02*
X8862710Y-10897543D01*
X8862710Y-10897543D02*
X8862710Y-10888019D01*
X8862710Y-10888019D02*
X8872233Y-10868971D01*
X8872233Y-10868971D02*
X8881757Y-10859448D01*
X8881757Y-10859448D02*
X8900805Y-10849924D01*
X8900805Y-10849924D02*
X8938900Y-10849924D01*
X8938900Y-10849924D02*
X8957948Y-10859448D01*
X8957948Y-10859448D02*
X8967471Y-10868971D01*
X8967471Y-10868971D02*
X8976995Y-10888019D01*
X8976995Y-10888019D02*
X8976995Y-10897543D01*
X8976995Y-10897543D02*
X8967471Y-10916590D01*
X8967471Y-10916590D02*
X8957948Y-10926114D01*
X8957948Y-10926114D02*
X8938900Y-10935638D01*
X8938900Y-10935638D02*
X8900805Y-10935638D01*
X8900805Y-10935638D02*
X8881757Y-10945162D01*
X8881757Y-10945162D02*
X8872233Y-10954686D01*
X8872233Y-10954686D02*
X8862710Y-10973733D01*
X8862710Y-10973733D02*
X8862710Y-11011829D01*
X8862710Y-11011829D02*
X8872233Y-11030876D01*
X8872233Y-11030876D02*
X8881757Y-11040400D01*
X8881757Y-11040400D02*
X8900805Y-11049924D01*
X8900805Y-11049924D02*
X8938900Y-11049924D01*
X8938900Y-11049924D02*
X8957948Y-11040400D01*
X8957948Y-11040400D02*
X8967471Y-11030876D01*
X8967471Y-11030876D02*
X8976995Y-11011829D01*
X8976995Y-11011829D02*
X8976995Y-10973733D01*
X8976995Y-10973733D02*
X8967471Y-10954686D01*
X8967471Y-10954686D02*
X8957948Y-10945162D01*
X8957948Y-10945162D02*
X8938900Y-10935638D01*
X9100805Y-10849924D02*
X9119852Y-10849924D01*
X9119852Y-10849924D02*
X9138900Y-10859448D01*
X9138900Y-10859448D02*
X9148424Y-10868971D01*
X9148424Y-10868971D02*
X9157948Y-10888019D01*
X9157948Y-10888019D02*
X9167471Y-10926114D01*
X9167471Y-10926114D02*
X9167471Y-10973733D01*
X9167471Y-10973733D02*
X9157948Y-11011829D01*
X9157948Y-11011829D02*
X9148424Y-11030876D01*
X9148424Y-11030876D02*
X9138900Y-11040400D01*
X9138900Y-11040400D02*
X9119852Y-11049924D01*
X9119852Y-11049924D02*
X9100805Y-11049924D01*
X9100805Y-11049924D02*
X9081757Y-11040400D01*
X9081757Y-11040400D02*
X9072233Y-11030876D01*
X9072233Y-11030876D02*
X9062710Y-11011829D01*
X9062710Y-11011829D02*
X9053186Y-10973733D01*
X9053186Y-10973733D02*
X9053186Y-10926114D01*
X9053186Y-10926114D02*
X9062710Y-10888019D01*
X9062710Y-10888019D02*
X9072233Y-10868971D01*
X9072233Y-10868971D02*
X9081757Y-10859448D01*
X9081757Y-10859448D02*
X9100805Y-10849924D01*
X9291281Y-10849924D02*
X9310329Y-10849924D01*
X9310329Y-10849924D02*
X9329376Y-10859448D01*
X9329376Y-10859448D02*
X9338900Y-10868971D01*
X9338900Y-10868971D02*
X9348424Y-10888019D01*
X9348424Y-10888019D02*
X9357948Y-10926114D01*
X9357948Y-10926114D02*
X9357948Y-10973733D01*
X9357948Y-10973733D02*
X9348424Y-11011829D01*
X9348424Y-11011829D02*
X9338900Y-11030876D01*
X9338900Y-11030876D02*
X9329376Y-11040400D01*
X9329376Y-11040400D02*
X9310329Y-11049924D01*
X9310329Y-11049924D02*
X9291281Y-11049924D01*
X9291281Y-11049924D02*
X9272233Y-11040400D01*
X9272233Y-11040400D02*
X9262710Y-11030876D01*
X9262710Y-11030876D02*
X9253186Y-11011829D01*
X9253186Y-11011829D02*
X9243662Y-10973733D01*
X9243662Y-10973733D02*
X9243662Y-10926114D01*
X9243662Y-10926114D02*
X9253186Y-10888019D01*
X9253186Y-10888019D02*
X9262710Y-10868971D01*
X9262710Y-10868971D02*
X9272233Y-10859448D01*
X9272233Y-10859448D02*
X9291281Y-10849924D01*
X9443662Y-11049924D02*
X9443662Y-10916590D01*
X9443662Y-10935638D02*
X9453186Y-10926114D01*
X9453186Y-10926114D02*
X9472233Y-10916590D01*
X9472233Y-10916590D02*
X9500805Y-10916590D01*
X9500805Y-10916590D02*
X9519852Y-10926114D01*
X9519852Y-10926114D02*
X9529376Y-10945162D01*
X9529376Y-10945162D02*
X9529376Y-11049924D01*
X9529376Y-10945162D02*
X9538900Y-10926114D01*
X9538900Y-10926114D02*
X9557948Y-10916590D01*
X9557948Y-10916590D02*
X9586519Y-10916590D01*
X9586519Y-10916590D02*
X9605567Y-10926114D01*
X9605567Y-10926114D02*
X9615091Y-10945162D01*
X9615091Y-10945162D02*
X9615091Y-11049924D01*
X9710329Y-11049924D02*
X9710329Y-10916590D01*
X9710329Y-10935638D02*
X9719852Y-10926114D01*
X9719852Y-10926114D02*
X9738900Y-10916590D01*
X9738900Y-10916590D02*
X9767472Y-10916590D01*
X9767472Y-10916590D02*
X9786519Y-10926114D01*
X9786519Y-10926114D02*
X9796043Y-10945162D01*
X9796043Y-10945162D02*
X9796043Y-11049924D01*
X9796043Y-10945162D02*
X9805567Y-10926114D01*
X9805567Y-10926114D02*
X9824614Y-10916590D01*
X9824614Y-10916590D02*
X9853186Y-10916590D01*
X9853186Y-10916590D02*
X9872233Y-10926114D01*
X9872233Y-10926114D02*
X9881757Y-10945162D01*
X9881757Y-10945162D02*
X9881757Y-11049924D01*
X10272233Y-10840400D02*
X10100805Y-11097543D01*
X10529376Y-10849924D02*
X10548424Y-10849924D01*
X10548424Y-10849924D02*
X10567472Y-10859448D01*
X10567472Y-10859448D02*
X10576995Y-10868971D01*
X10576995Y-10868971D02*
X10586519Y-10888019D01*
X10586519Y-10888019D02*
X10596043Y-10926114D01*
X10596043Y-10926114D02*
X10596043Y-10973733D01*
X10596043Y-10973733D02*
X10586519Y-11011829D01*
X10586519Y-11011829D02*
X10576995Y-11030876D01*
X10576995Y-11030876D02*
X10567472Y-11040400D01*
X10567472Y-11040400D02*
X10548424Y-11049924D01*
X10548424Y-11049924D02*
X10529376Y-11049924D01*
X10529376Y-11049924D02*
X10510329Y-11040400D01*
X10510329Y-11040400D02*
X10500805Y-11030876D01*
X10500805Y-11030876D02*
X10491281Y-11011829D01*
X10491281Y-11011829D02*
X10481757Y-10973733D01*
X10481757Y-10973733D02*
X10481757Y-10926114D01*
X10481757Y-10926114D02*
X10491281Y-10888019D01*
X10491281Y-10888019D02*
X10500805Y-10868971D01*
X10500805Y-10868971D02*
X10510329Y-10859448D01*
X10510329Y-10859448D02*
X10529376Y-10849924D01*
X10681757Y-11030876D02*
X10691281Y-11040400D01*
X10691281Y-11040400D02*
X10681757Y-11049924D01*
X10681757Y-11049924D02*
X10672234Y-11040400D01*
X10672234Y-11040400D02*
X10681757Y-11030876D01*
X10681757Y-11030876D02*
X10681757Y-11049924D01*
X10815091Y-10849924D02*
X10834138Y-10849924D01*
X10834138Y-10849924D02*
X10853186Y-10859448D01*
X10853186Y-10859448D02*
X10862710Y-10868971D01*
X10862710Y-10868971D02*
X10872234Y-10888019D01*
X10872234Y-10888019D02*
X10881757Y-10926114D01*
X10881757Y-10926114D02*
X10881757Y-10973733D01*
X10881757Y-10973733D02*
X10872234Y-11011829D01*
X10872234Y-11011829D02*
X10862710Y-11030876D01*
X10862710Y-11030876D02*
X10853186Y-11040400D01*
X10853186Y-11040400D02*
X10834138Y-11049924D01*
X10834138Y-11049924D02*
X10815091Y-11049924D01*
X10815091Y-11049924D02*
X10796043Y-11040400D01*
X10796043Y-11040400D02*
X10786519Y-11030876D01*
X10786519Y-11030876D02*
X10776995Y-11011829D01*
X10776995Y-11011829D02*
X10767472Y-10973733D01*
X10767472Y-10973733D02*
X10767472Y-10926114D01*
X10767472Y-10926114D02*
X10776995Y-10888019D01*
X10776995Y-10888019D02*
X10786519Y-10868971D01*
X10786519Y-10868971D02*
X10796043Y-10859448D01*
X10796043Y-10859448D02*
X10815091Y-10849924D01*
X10948424Y-10849924D02*
X11072234Y-10849924D01*
X11072234Y-10849924D02*
X11005567Y-10926114D01*
X11005567Y-10926114D02*
X11034138Y-10926114D01*
X11034138Y-10926114D02*
X11053186Y-10935638D01*
X11053186Y-10935638D02*
X11062710Y-10945162D01*
X11062710Y-10945162D02*
X11072234Y-10964210D01*
X11072234Y-10964210D02*
X11072234Y-11011829D01*
X11072234Y-11011829D02*
X11062710Y-11030876D01*
X11062710Y-11030876D02*
X11053186Y-11040400D01*
X11053186Y-11040400D02*
X11034138Y-11049924D01*
X11034138Y-11049924D02*
X10976995Y-11049924D01*
X10976995Y-11049924D02*
X10957948Y-11040400D01*
X10957948Y-11040400D02*
X10948424Y-11030876D01*
X11262710Y-11049924D02*
X11148424Y-11049924D01*
X11205567Y-11049924D02*
X11205567Y-10849924D01*
X11205567Y-10849924D02*
X11186519Y-10878495D01*
X11186519Y-10878495D02*
X11167472Y-10897543D01*
X11167472Y-10897543D02*
X11148424Y-10907067D01*
X11443662Y-10849924D02*
X11348424Y-10849924D01*
X11348424Y-10849924D02*
X11338900Y-10945162D01*
X11338900Y-10945162D02*
X11348424Y-10935638D01*
X11348424Y-10935638D02*
X11367472Y-10926114D01*
X11367472Y-10926114D02*
X11415091Y-10926114D01*
X11415091Y-10926114D02*
X11434138Y-10935638D01*
X11434138Y-10935638D02*
X11443662Y-10945162D01*
X11443662Y-10945162D02*
X11453186Y-10964210D01*
X11453186Y-10964210D02*
X11453186Y-11011829D01*
X11453186Y-11011829D02*
X11443662Y-11030876D01*
X11443662Y-11030876D02*
X11434138Y-11040400D01*
X11434138Y-11040400D02*
X11415091Y-11049924D01*
X11415091Y-11049924D02*
X11367472Y-11049924D01*
X11367472Y-11049924D02*
X11348424Y-11040400D01*
X11348424Y-11040400D02*
X11338900Y-11030876D01*
X11529376Y-10849924D02*
X11529376Y-10888019D01*
X11605567Y-10849924D02*
X11605567Y-10888019D01*
X11900805Y-11126114D02*
X11891281Y-11116590D01*
X11891281Y-11116590D02*
X11872234Y-11088019D01*
X11872234Y-11088019D02*
X11862710Y-11068971D01*
X11862710Y-11068971D02*
X11853186Y-11040400D01*
X11853186Y-11040400D02*
X11843662Y-10992781D01*
X11843662Y-10992781D02*
X11843662Y-10954686D01*
X11843662Y-10954686D02*
X11853186Y-10907067D01*
X11853186Y-10907067D02*
X11862710Y-10878495D01*
X11862710Y-10878495D02*
X11872234Y-10859448D01*
X11872234Y-10859448D02*
X11891281Y-10830876D01*
X11891281Y-10830876D02*
X11900805Y-10821352D01*
X11967472Y-10868971D02*
X11976995Y-10859448D01*
X11976995Y-10859448D02*
X11996043Y-10849924D01*
X11996043Y-10849924D02*
X12043662Y-10849924D01*
X12043662Y-10849924D02*
X12062710Y-10859448D01*
X12062710Y-10859448D02*
X12072234Y-10868971D01*
X12072234Y-10868971D02*
X12081757Y-10888019D01*
X12081757Y-10888019D02*
X12081757Y-10907067D01*
X12081757Y-10907067D02*
X12072234Y-10935638D01*
X12072234Y-10935638D02*
X11957948Y-11049924D01*
X11957948Y-11049924D02*
X12081757Y-11049924D01*
X12319853Y-11049924D02*
X12319853Y-10849924D01*
X12405567Y-11049924D02*
X12405567Y-10945162D01*
X12405567Y-10945162D02*
X12396043Y-10926114D01*
X12396043Y-10926114D02*
X12376996Y-10916590D01*
X12376996Y-10916590D02*
X12348424Y-10916590D01*
X12348424Y-10916590D02*
X12329376Y-10926114D01*
X12329376Y-10926114D02*
X12319853Y-10935638D01*
X12529376Y-11049924D02*
X12510329Y-11040400D01*
X12510329Y-11040400D02*
X12500805Y-11030876D01*
X12500805Y-11030876D02*
X12491281Y-11011829D01*
X12491281Y-11011829D02*
X12491281Y-10954686D01*
X12491281Y-10954686D02*
X12500805Y-10935638D01*
X12500805Y-10935638D02*
X12510329Y-10926114D01*
X12510329Y-10926114D02*
X12529376Y-10916590D01*
X12529376Y-10916590D02*
X12557948Y-10916590D01*
X12557948Y-10916590D02*
X12576996Y-10926114D01*
X12576996Y-10926114D02*
X12586519Y-10935638D01*
X12586519Y-10935638D02*
X12596043Y-10954686D01*
X12596043Y-10954686D02*
X12596043Y-11011829D01*
X12596043Y-11011829D02*
X12586519Y-11030876D01*
X12586519Y-11030876D02*
X12576996Y-11040400D01*
X12576996Y-11040400D02*
X12557948Y-11049924D01*
X12557948Y-11049924D02*
X12529376Y-11049924D01*
X12710329Y-11049924D02*
X12691281Y-11040400D01*
X12691281Y-11040400D02*
X12681757Y-11021352D01*
X12681757Y-11021352D02*
X12681757Y-10849924D01*
X12862710Y-11040400D02*
X12843662Y-11049924D01*
X12843662Y-11049924D02*
X12805567Y-11049924D01*
X12805567Y-11049924D02*
X12786519Y-11040400D01*
X12786519Y-11040400D02*
X12776996Y-11021352D01*
X12776996Y-11021352D02*
X12776996Y-10945162D01*
X12776996Y-10945162D02*
X12786519Y-10926114D01*
X12786519Y-10926114D02*
X12805567Y-10916590D01*
X12805567Y-10916590D02*
X12843662Y-10916590D01*
X12843662Y-10916590D02*
X12862710Y-10926114D01*
X12862710Y-10926114D02*
X12872234Y-10945162D01*
X12872234Y-10945162D02*
X12872234Y-10964210D01*
X12872234Y-10964210D02*
X12776996Y-10983257D01*
X12948424Y-11040400D02*
X12967472Y-11049924D01*
X12967472Y-11049924D02*
X13005567Y-11049924D01*
X13005567Y-11049924D02*
X13024615Y-11040400D01*
X13024615Y-11040400D02*
X13034138Y-11021352D01*
X13034138Y-11021352D02*
X13034138Y-11011829D01*
X13034138Y-11011829D02*
X13024615Y-10992781D01*
X13024615Y-10992781D02*
X13005567Y-10983257D01*
X13005567Y-10983257D02*
X12976996Y-10983257D01*
X12976996Y-10983257D02*
X12957948Y-10973733D01*
X12957948Y-10973733D02*
X12948424Y-10954686D01*
X12948424Y-10954686D02*
X12948424Y-10945162D01*
X12948424Y-10945162D02*
X12957948Y-10926114D01*
X12957948Y-10926114D02*
X12976996Y-10916590D01*
X12976996Y-10916590D02*
X13005567Y-10916590D01*
X13005567Y-10916590D02*
X13024615Y-10926114D01*
X13100805Y-11126114D02*
X13110329Y-11116590D01*
X13110329Y-11116590D02*
X13129377Y-11088019D01*
X13129377Y-11088019D02*
X13138900Y-11068971D01*
X13138900Y-11068971D02*
X13148424Y-11040400D01*
X13148424Y-11040400D02*
X13157948Y-10992781D01*
X13157948Y-10992781D02*
X13157948Y-10954686D01*
X13157948Y-10954686D02*
X13148424Y-10907067D01*
X13148424Y-10907067D02*
X13138900Y-10878495D01*
X13138900Y-10878495D02*
X13129377Y-10859448D01*
X13129377Y-10859448D02*
X13110329Y-10830876D01*
X13110329Y-10830876D02*
X13100805Y-10821352D01*
X13462710Y-11126114D02*
X13453186Y-11116590D01*
X13453186Y-11116590D02*
X13434138Y-11088019D01*
X13434138Y-11088019D02*
X13424615Y-11068971D01*
X13424615Y-11068971D02*
X13415091Y-11040400D01*
X13415091Y-11040400D02*
X13405567Y-10992781D01*
X13405567Y-10992781D02*
X13405567Y-10954686D01*
X13405567Y-10954686D02*
X13415091Y-10907067D01*
X13415091Y-10907067D02*
X13424615Y-10878495D01*
X13424615Y-10878495D02*
X13434138Y-10859448D01*
X13434138Y-10859448D02*
X13453186Y-10830876D01*
X13453186Y-10830876D02*
X13462710Y-10821352D01*
X13538900Y-10916590D02*
X13538900Y-11049924D01*
X13538900Y-10935638D02*
X13548424Y-10926114D01*
X13548424Y-10926114D02*
X13567472Y-10916590D01*
X13567472Y-10916590D02*
X13596043Y-10916590D01*
X13596043Y-10916590D02*
X13615091Y-10926114D01*
X13615091Y-10926114D02*
X13624615Y-10945162D01*
X13624615Y-10945162D02*
X13624615Y-11049924D01*
X13748424Y-11049924D02*
X13729377Y-11040400D01*
X13729377Y-11040400D02*
X13719853Y-11030876D01*
X13719853Y-11030876D02*
X13710329Y-11011829D01*
X13710329Y-11011829D02*
X13710329Y-10954686D01*
X13710329Y-10954686D02*
X13719853Y-10935638D01*
X13719853Y-10935638D02*
X13729377Y-10926114D01*
X13729377Y-10926114D02*
X13748424Y-10916590D01*
X13748424Y-10916590D02*
X13776996Y-10916590D01*
X13776996Y-10916590D02*
X13796043Y-10926114D01*
X13796043Y-10926114D02*
X13805567Y-10935638D01*
X13805567Y-10935638D02*
X13815091Y-10954686D01*
X13815091Y-10954686D02*
X13815091Y-11011829D01*
X13815091Y-11011829D02*
X13805567Y-11030876D01*
X13805567Y-11030876D02*
X13796043Y-11040400D01*
X13796043Y-11040400D02*
X13776996Y-11049924D01*
X13776996Y-11049924D02*
X13748424Y-11049924D01*
X13872234Y-10916590D02*
X13948424Y-10916590D01*
X13900805Y-10849924D02*
X13900805Y-11021352D01*
X13900805Y-11021352D02*
X13910329Y-11040400D01*
X13910329Y-11040400D02*
X13929377Y-11049924D01*
X13929377Y-11049924D02*
X13948424Y-11049924D01*
X14167472Y-10916590D02*
X14167472Y-11116590D01*
X14167472Y-10926114D02*
X14186519Y-10916590D01*
X14186519Y-10916590D02*
X14224615Y-10916590D01*
X14224615Y-10916590D02*
X14243662Y-10926114D01*
X14243662Y-10926114D02*
X14253186Y-10935638D01*
X14253186Y-10935638D02*
X14262710Y-10954686D01*
X14262710Y-10954686D02*
X14262710Y-11011829D01*
X14262710Y-11011829D02*
X14253186Y-11030876D01*
X14253186Y-11030876D02*
X14243662Y-11040400D01*
X14243662Y-11040400D02*
X14224615Y-11049924D01*
X14224615Y-11049924D02*
X14186519Y-11049924D01*
X14186519Y-11049924D02*
X14167472Y-11040400D01*
X14376996Y-11049924D02*
X14357948Y-11040400D01*
X14357948Y-11040400D02*
X14348424Y-11021352D01*
X14348424Y-11021352D02*
X14348424Y-10849924D01*
X14538900Y-11049924D02*
X14538900Y-10945162D01*
X14538900Y-10945162D02*
X14529377Y-10926114D01*
X14529377Y-10926114D02*
X14510329Y-10916590D01*
X14510329Y-10916590D02*
X14472234Y-10916590D01*
X14472234Y-10916590D02*
X14453186Y-10926114D01*
X14538900Y-11040400D02*
X14519853Y-11049924D01*
X14519853Y-11049924D02*
X14472234Y-11049924D01*
X14472234Y-11049924D02*
X14453186Y-11040400D01*
X14453186Y-11040400D02*
X14443662Y-11021352D01*
X14443662Y-11021352D02*
X14443662Y-11002305D01*
X14443662Y-11002305D02*
X14453186Y-10983257D01*
X14453186Y-10983257D02*
X14472234Y-10973733D01*
X14472234Y-10973733D02*
X14519853Y-10973733D01*
X14519853Y-10973733D02*
X14538900Y-10964210D01*
X14605567Y-10916590D02*
X14681758Y-10916590D01*
X14634139Y-10849924D02*
X14634139Y-11021352D01*
X14634139Y-11021352D02*
X14643662Y-11040400D01*
X14643662Y-11040400D02*
X14662710Y-11049924D01*
X14662710Y-11049924D02*
X14681758Y-11049924D01*
X14824615Y-11040400D02*
X14805567Y-11049924D01*
X14805567Y-11049924D02*
X14767472Y-11049924D01*
X14767472Y-11049924D02*
X14748424Y-11040400D01*
X14748424Y-11040400D02*
X14738900Y-11021352D01*
X14738900Y-11021352D02*
X14738900Y-10945162D01*
X14738900Y-10945162D02*
X14748424Y-10926114D01*
X14748424Y-10926114D02*
X14767472Y-10916590D01*
X14767472Y-10916590D02*
X14805567Y-10916590D01*
X14805567Y-10916590D02*
X14824615Y-10926114D01*
X14824615Y-10926114D02*
X14834139Y-10945162D01*
X14834139Y-10945162D02*
X14834139Y-10964210D01*
X14834139Y-10964210D02*
X14738900Y-10983257D01*
X15005567Y-11049924D02*
X15005567Y-10849924D01*
X15005567Y-11040400D02*
X14986520Y-11049924D01*
X14986520Y-11049924D02*
X14948424Y-11049924D01*
X14948424Y-11049924D02*
X14929377Y-11040400D01*
X14929377Y-11040400D02*
X14919853Y-11030876D01*
X14919853Y-11030876D02*
X14910329Y-11011829D01*
X14910329Y-11011829D02*
X14910329Y-10954686D01*
X14910329Y-10954686D02*
X14919853Y-10935638D01*
X14919853Y-10935638D02*
X14929377Y-10926114D01*
X14929377Y-10926114D02*
X14948424Y-10916590D01*
X14948424Y-10916590D02*
X14986520Y-10916590D01*
X14986520Y-10916590D02*
X15005567Y-10926114D01*
X15081758Y-11126114D02*
X15091281Y-11116590D01*
X15091281Y-11116590D02*
X15110329Y-11088019D01*
X15110329Y-11088019D02*
X15119853Y-11068971D01*
X15119853Y-11068971D02*
X15129377Y-11040400D01*
X15129377Y-11040400D02*
X15138900Y-10992781D01*
X15138900Y-10992781D02*
X15138900Y-10954686D01*
X15138900Y-10954686D02*
X15129377Y-10907067D01*
X15129377Y-10907067D02*
X15119853Y-10878495D01*
X15119853Y-10878495D02*
X15110329Y-10859448D01*
X15110329Y-10859448D02*
X15091281Y-10830876D01*
X15091281Y-10830876D02*
X15081758Y-10821352D01*
M02*
