M48
; DRILL file {KiCad 7.0.2} date Mon Oct 30 14:33:16 2023
; FORMAT={-:-/ absolute / metric / decimal}
; #@! TF.CreationDate,2023-10-30T14:33:16+01:00
; #@! TF.GenerationSoftware,Kicad,Pcbnew,7.0.2
; #@! TF.FileFunction,Plated,1,2,PTH
FMAT,2
METRIC
; #@! TA.AperFunction,Plated,PTH,ViaDrill
T1C0.400
; #@! TA.AperFunction,Plated,PTH,ComponentDrill
T2C0.600
%
G90
G05
T1
X85.598Y-87.884
X88.392Y-87.63
X92.456Y-91.44
X92.456Y-100.584
X96.266Y-93.218
X96.774Y-85.598
X99.06Y-96.012
X100.838Y-101.092
X102.87Y-95.25
X103.759Y-93.599
X103.886Y-97.79
X107.493Y-99.009
X112.776Y-88.392
X112.776Y-89.662
X113.792Y-93.726
X113.919Y-89.916
X115.316Y-99.822
X115.57Y-95.758
X116.051Y-98.521
X120.396Y-94.234
X122.428Y-87.122
X122.682Y-93.98
X123.698Y-91.186
X123.698Y-93.98
X127.0Y-90.678
X128.27Y-100.33
T2
X86.098Y-91.386G85X85.098Y-91.386
G05
X86.098Y-100.606G85X85.098Y-100.606
G05
X90.598Y-91.386G85X89.598Y-91.386
G05
X90.598Y-100.606G85X89.598Y-100.606
G05
T0
M30
