G04 #@! TF.GenerationSoftware,KiCad,Pcbnew,7.0.2*
G04 #@! TF.CreationDate,2023-11-20T14:45:42+01:00*
G04 #@! TF.ProjectId,dsp_board,6473705f-626f-4617-9264-2e6b69636164,rev?*
G04 #@! TF.SameCoordinates,Original*
G04 #@! TF.FileFunction,Paste,Bot*
G04 #@! TF.FilePolarity,Positive*
%FSLAX46Y46*%
G04 Gerber Fmt 4.6, Leading zero omitted, Abs format (unit mm)*
G04 Created by KiCad (PCBNEW 7.0.2) date 2023-11-20 14:45:42*
%MOMM*%
%LPD*%
G01*
G04 APERTURE LIST*
G04 Aperture macros list*
%AMRoundRect*
0 Rectangle with rounded corners*
0 $1 Rounding radius*
0 $2 $3 $4 $5 $6 $7 $8 $9 X,Y pos of 4 corners*
0 Add a 4 corners polygon primitive as box body*
4,1,4,$2,$3,$4,$5,$6,$7,$8,$9,$2,$3,0*
0 Add four circle primitives for the rounded corners*
1,1,$1+$1,$2,$3*
1,1,$1+$1,$4,$5*
1,1,$1+$1,$6,$7*
1,1,$1+$1,$8,$9*
0 Add four rect primitives between the rounded corners*
20,1,$1+$1,$2,$3,$4,$5,0*
20,1,$1+$1,$4,$5,$6,$7,0*
20,1,$1+$1,$6,$7,$8,$9,0*
20,1,$1+$1,$8,$9,$2,$3,0*%
G04 Aperture macros list end*
%ADD10RoundRect,0.225000X-0.225000X-0.250000X0.225000X-0.250000X0.225000X0.250000X-0.225000X0.250000X0*%
%ADD11RoundRect,0.250000X0.287500X0.275000X-0.287500X0.275000X-0.287500X-0.275000X0.287500X-0.275000X0*%
%ADD12RoundRect,0.060000X0.240000X0.615000X-0.240000X0.615000X-0.240000X-0.615000X0.240000X-0.615000X0*%
%ADD13RoundRect,0.200000X-0.200000X-0.275000X0.200000X-0.275000X0.200000X0.275000X-0.200000X0.275000X0*%
%ADD14RoundRect,0.250000X-0.287500X-0.275000X0.287500X-0.275000X0.287500X0.275000X-0.287500X0.275000X0*%
%ADD15RoundRect,0.060000X-0.615000X0.240000X-0.615000X-0.240000X0.615000X-0.240000X0.615000X0.240000X0*%
%ADD16R,1.550000X0.600000*%
%ADD17R,1.800000X1.200000*%
%ADD18RoundRect,0.225000X0.250000X-0.225000X0.250000X0.225000X-0.250000X0.225000X-0.250000X-0.225000X0*%
%ADD19R,0.457200X1.524000*%
%ADD20RoundRect,0.225000X0.225000X0.250000X-0.225000X0.250000X-0.225000X-0.250000X0.225000X-0.250000X0*%
G04 APERTURE END LIST*
D10*
X50975000Y-118250000D03*
X52525000Y-118250000D03*
D11*
X46250000Y-111000000D03*
X44825000Y-111000000D03*
D10*
X54225000Y-116000000D03*
X55775000Y-116000000D03*
D12*
X71700000Y-111385000D03*
X70750000Y-111385000D03*
X69800000Y-111385000D03*
X69800000Y-109015000D03*
X71700000Y-109015000D03*
D13*
X75425000Y-115250000D03*
X77075000Y-115250000D03*
D14*
X51012500Y-120000000D03*
X52437500Y-120000000D03*
D15*
X59935000Y-109050000D03*
X59935000Y-110000000D03*
X59935000Y-110950000D03*
X57565000Y-110950000D03*
X57565000Y-109050000D03*
D16*
X80090000Y-110519500D03*
X80090000Y-111519500D03*
X80090000Y-112519500D03*
X80090000Y-113519500D03*
X80090000Y-114519500D03*
X80090000Y-115519500D03*
D17*
X83965000Y-109219500D03*
X83965000Y-116819500D03*
D18*
X36250000Y-125300000D03*
X36250000Y-123750000D03*
D19*
X69784800Y-113968000D03*
X70419800Y-113968000D03*
X71080200Y-113968000D03*
X71715200Y-113968000D03*
X71715200Y-118032000D03*
X71080200Y-118032000D03*
X70419800Y-118032000D03*
X69784800Y-118032000D03*
D13*
X75425000Y-117000000D03*
X77075000Y-117000000D03*
D10*
X50975000Y-114250000D03*
X52525000Y-114250000D03*
D20*
X46312500Y-112750000D03*
X44762500Y-112750000D03*
D18*
X70000000Y-107275000D03*
X70000000Y-105725000D03*
X68250000Y-116750000D03*
X68250000Y-115200000D03*
D20*
X55775000Y-109250000D03*
X54225000Y-109250000D03*
D14*
X51037500Y-116000000D03*
X52462500Y-116000000D03*
D11*
X42962500Y-112750000D03*
X41537500Y-112750000D03*
D20*
X43025000Y-114500000D03*
X41475000Y-114500000D03*
X55775000Y-110750000D03*
X54225000Y-110750000D03*
X77775000Y-107250000D03*
X76225000Y-107250000D03*
D10*
X54225000Y-114250000D03*
X55775000Y-114250000D03*
D14*
X54250000Y-112500000D03*
X55675000Y-112500000D03*
D18*
X41750000Y-125300000D03*
X41750000Y-123750000D03*
D10*
X54225000Y-117750000D03*
X55775000Y-117750000D03*
D18*
X71500000Y-107275000D03*
X71500000Y-105725000D03*
D10*
X82225000Y-107250000D03*
X83775000Y-107250000D03*
M02*
