G04 #@! TF.GenerationSoftware,KiCad,Pcbnew,7.0.2*
G04 #@! TF.CreationDate,2023-11-20T14:45:42+01:00*
G04 #@! TF.ProjectId,dsp_board,6473705f-626f-4617-9264-2e6b69636164,rev?*
G04 #@! TF.SameCoordinates,Original*
G04 #@! TF.FileFunction,Profile,NP*
%FSLAX46Y46*%
G04 Gerber Fmt 4.6, Leading zero omitted, Abs format (unit mm)*
G04 Created by KiCad (PCBNEW 7.0.2) date 2023-11-20 14:45:42*
%MOMM*%
%LPD*%
G01*
G04 APERTURE LIST*
G04 #@! TA.AperFunction,Profile*
%ADD10C,0.100000*%
G04 #@! TD*
G04 #@! TA.AperFunction,Profile*
%ADD11C,0.010000*%
G04 #@! TD*
G04 APERTURE END LIST*
D10*
X34000000Y-140500000D02*
G75*
G03*
X35000000Y-141500000I1000000J0D01*
G01*
X85000001Y-121525731D02*
G75*
G03*
X85757384Y-122470463I999999J25731D01*
G01*
X85000000Y-89500000D02*
G75*
G03*
X84000000Y-88500000I-1000000J0D01*
G01*
X35000000Y-88500000D02*
X84000000Y-88500000D01*
X48750000Y-91250000D02*
G75*
G03*
X48750000Y-91250000I-1250000J0D01*
G01*
X35000000Y-88500000D02*
G75*
G03*
X34000000Y-89500000I0J-1000000D01*
G01*
X90447214Y-123881304D02*
X85757384Y-122470463D01*
X78750000Y-136500000D02*
G75*
G03*
X78750000Y-136500000I-1250000J0D01*
G01*
X83500000Y-91250000D02*
G75*
G03*
X83500000Y-91250000I-1250000J0D01*
G01*
X90000000Y-141500000D02*
X35000000Y-141500000D01*
X85000000Y-121525731D02*
X85000000Y-89500000D01*
X48750000Y-136500000D02*
G75*
G03*
X48750000Y-136500000I-1250000J0D01*
G01*
X90000000Y-141500000D02*
G75*
G03*
X91000000Y-140500000I0J1000000D01*
G01*
X34000000Y-140500000D02*
X34000000Y-89500000D01*
X90999972Y-124775731D02*
G75*
G03*
X90447214Y-123881304I-999972J31D01*
G01*
X91000000Y-140500000D02*
X91000000Y-124775731D01*
D11*
X45150000Y-138300000D02*
X43350000Y-138300000D01*
X43350000Y-138300000D02*
X43350000Y-140000000D01*
X36650000Y-138300000D02*
X34850000Y-138300000D01*
X34850000Y-138300000D02*
X34850000Y-140000000D01*
X45150000Y-140000000D02*
X45150000Y-138300000D01*
X43350000Y-140000000D02*
X45150000Y-140000000D01*
X36650000Y-140000000D02*
X36650000Y-138300000D01*
X34850000Y-140000000D02*
X36650000Y-140000000D01*
X34850000Y-91700000D02*
X36650000Y-91700000D01*
X36650000Y-91700000D02*
X36650000Y-90000000D01*
X43350000Y-91700000D02*
X45150000Y-91700000D01*
X45150000Y-91700000D02*
X45150000Y-90000000D01*
X34850000Y-90000000D02*
X34850000Y-91700000D01*
X36650000Y-90000000D02*
X34850000Y-90000000D01*
X43350000Y-90000000D02*
X43350000Y-91700000D01*
X45150000Y-90000000D02*
X43350000Y-90000000D01*
X60150000Y-138300000D02*
X58350000Y-138300000D01*
X58350000Y-138300000D02*
X58350000Y-140000000D01*
X51650000Y-138300000D02*
X49850000Y-138300000D01*
X49850000Y-138300000D02*
X49850000Y-140000000D01*
X60150000Y-140000000D02*
X60150000Y-138300000D01*
X58350000Y-140000000D02*
X60150000Y-140000000D01*
X51650000Y-140000000D02*
X51650000Y-138300000D01*
X49850000Y-140000000D02*
X51650000Y-140000000D01*
X75150000Y-138300000D02*
X73350000Y-138300000D01*
X73350000Y-138300000D02*
X73350000Y-140000000D01*
X66650000Y-138300000D02*
X64850000Y-138300000D01*
X64850000Y-138300000D02*
X64850000Y-140000000D01*
X75150000Y-140000000D02*
X75150000Y-138300000D01*
X73350000Y-140000000D02*
X75150000Y-140000000D01*
X66650000Y-140000000D02*
X66650000Y-138300000D01*
X64850000Y-140000000D02*
X66650000Y-140000000D01*
X90150000Y-138300000D02*
X88350000Y-138300000D01*
X88350000Y-138300000D02*
X88350000Y-140000000D01*
X81650000Y-138300000D02*
X79850000Y-138300000D01*
X79850000Y-138300000D02*
X79850000Y-140000000D01*
X90150000Y-140000000D02*
X90150000Y-138300000D01*
X88350000Y-140000000D02*
X90150000Y-140000000D01*
X81650000Y-140000000D02*
X81650000Y-138300000D01*
X79850000Y-140000000D02*
X81650000Y-140000000D01*
X49850000Y-91700000D02*
X51650000Y-91700000D01*
X51650000Y-91700000D02*
X51650000Y-90000000D01*
X58350000Y-91700000D02*
X60150000Y-91700000D01*
X60150000Y-91700000D02*
X60150000Y-90000000D01*
X49850000Y-90000000D02*
X49850000Y-91700000D01*
X51650000Y-90000000D02*
X49850000Y-90000000D01*
X58350000Y-90000000D02*
X58350000Y-91700000D01*
X60150000Y-90000000D02*
X58350000Y-90000000D01*
M02*
