G04 #@! TF.GenerationSoftware,KiCad,Pcbnew,7.0.2*
G04 #@! TF.CreationDate,2024-02-24T12:26:05+01:00*
G04 #@! TF.ProjectId,dsp_board,6473705f-626f-4617-9264-2e6b69636164,rev?*
G04 #@! TF.SameCoordinates,Original*
G04 #@! TF.FileFunction,Legend,Top*
G04 #@! TF.FilePolarity,Positive*
%FSLAX46Y46*%
G04 Gerber Fmt 4.6, Leading zero omitted, Abs format (unit mm)*
G04 Created by KiCad (PCBNEW 7.0.2) date 2024-02-24 12:26:05*
%MOMM*%
%LPD*%
G01*
G04 APERTURE LIST*
G04 Aperture macros list*
%AMRoundRect*
0 Rectangle with rounded corners*
0 $1 Rounding radius*
0 $2 $3 $4 $5 $6 $7 $8 $9 X,Y pos of 4 corners*
0 Add a 4 corners polygon primitive as box body*
4,1,4,$2,$3,$4,$5,$6,$7,$8,$9,$2,$3,0*
0 Add four circle primitives for the rounded corners*
1,1,$1+$1,$2,$3*
1,1,$1+$1,$4,$5*
1,1,$1+$1,$6,$7*
1,1,$1+$1,$8,$9*
0 Add four rect primitives between the rounded corners*
20,1,$1+$1,$2,$3,$4,$5,0*
20,1,$1+$1,$4,$5,$6,$7,0*
20,1,$1+$1,$6,$7,$8,$9,0*
20,1,$1+$1,$8,$9,$2,$3,0*%
%AMHorizOval*
0 Thick line with rounded ends*
0 $1 width*
0 $2 $3 position (X,Y) of the first rounded end (center of the circle)*
0 $4 $5 position (X,Y) of the second rounded end (center of the circle)*
0 Add line between two ends*
20,1,$1,$2,$3,$4,$5,0*
0 Add two circle primitives to create the rounded ends*
1,1,$1,$2,$3*
1,1,$1,$4,$5*%
G04 Aperture macros list end*
%ADD10C,0.120000*%
%ADD11C,0.127000*%
%ADD12C,0.200000*%
%ADD13RoundRect,0.218750X-0.381250X0.218750X-0.381250X-0.218750X0.381250X-0.218750X0.381250X0.218750X0*%
%ADD14RoundRect,0.200000X-0.200000X-0.275000X0.200000X-0.275000X0.200000X0.275000X-0.200000X0.275000X0*%
%ADD15O,4.000000X2.000000*%
%ADD16O,1.700000X3.400000*%
%ADD17RoundRect,0.225000X0.225000X0.250000X-0.225000X0.250000X-0.225000X-0.250000X0.225000X-0.250000X0*%
%ADD18R,3.500000X1.200000*%
%ADD19RoundRect,0.250000X0.275000X-0.287500X0.275000X0.287500X-0.275000X0.287500X-0.275000X-0.287500X0*%
%ADD20RoundRect,0.200000X0.275000X-0.200000X0.275000X0.200000X-0.275000X0.200000X-0.275000X-0.200000X0*%
%ADD21RoundRect,0.200000X-0.275000X0.200000X-0.275000X-0.200000X0.275000X-0.200000X0.275000X0.200000X0*%
%ADD22RoundRect,0.250000X-1.250000X-0.550000X1.250000X-0.550000X1.250000X0.550000X-1.250000X0.550000X0*%
%ADD23RoundRect,0.250000X0.287500X0.275000X-0.287500X0.275000X-0.287500X-0.275000X0.287500X-0.275000X0*%
%ADD24RoundRect,0.225000X-0.250000X0.225000X-0.250000X-0.225000X0.250000X-0.225000X0.250000X0.225000X0*%
%ADD25RoundRect,0.225000X0.250000X-0.225000X0.250000X0.225000X-0.250000X0.225000X-0.250000X-0.225000X0*%
%ADD26RoundRect,0.040600X0.564400X0.249400X-0.564400X0.249400X-0.564400X-0.249400X0.564400X-0.249400X0*%
%ADD27R,0.900000X1.500000*%
%ADD28R,1.500000X0.900000*%
%ADD29R,0.900000X0.900000*%
%ADD30RoundRect,0.200000X0.200000X0.275000X-0.200000X0.275000X-0.200000X-0.275000X0.200000X-0.275000X0*%
%ADD31RoundRect,0.250000X-0.287500X-0.275000X0.287500X-0.275000X0.287500X0.275000X-0.287500X0.275000X0*%
%ADD32HorizOval,0.280000X-0.452548X-0.452548X0.452548X0.452548X0*%
%ADD33HorizOval,0.280000X-0.452548X0.452548X0.452548X-0.452548X0*%
%ADD34C,0.800000*%
%ADD35R,0.600000X1.250000*%
%ADD36R,0.300000X1.250000*%
%ADD37O,1.000000X2.000000*%
%ADD38RoundRect,0.150000X0.587500X0.150000X-0.587500X0.150000X-0.587500X-0.150000X0.587500X-0.150000X0*%
%ADD39RoundRect,0.218750X0.256250X-0.218750X0.256250X0.218750X-0.256250X0.218750X-0.256250X-0.218750X0*%
G04 APERTURE END LIST*
D10*
X72810000Y-99100378D02*
X72810000Y-99899622D01*
X71690000Y-99100378D02*
X71690000Y-99899622D01*
X36762742Y-116727500D02*
X37237258Y-116727500D01*
X36762742Y-117772500D02*
X37237258Y-117772500D01*
X46890580Y-121510000D02*
X46609420Y-121510000D01*
X46890580Y-120490000D02*
X46609420Y-120490000D01*
X45715000Y-96260000D02*
X47285000Y-96260000D01*
X47285000Y-96260000D02*
X47285000Y-93950000D01*
X45715000Y-93950000D02*
X45715000Y-96260000D01*
X48977500Y-107237258D02*
X48977500Y-106762742D01*
X50022500Y-107237258D02*
X50022500Y-106762742D01*
X80522500Y-99012742D02*
X80522500Y-99487258D01*
X79477500Y-99012742D02*
X79477500Y-99487258D01*
X60977500Y-98487258D02*
X60977500Y-98012742D01*
X62022500Y-98487258D02*
X62022500Y-98012742D01*
X46890580Y-119760000D02*
X46609420Y-119760000D01*
X46890580Y-118740000D02*
X46609420Y-118740000D01*
X35940000Y-124304437D02*
X35940000Y-124940000D01*
X35940000Y-124304437D02*
X37004437Y-123240000D01*
X35940000Y-127695563D02*
X35940000Y-127060000D01*
X35940000Y-127695563D02*
X37004437Y-128760000D01*
X37004437Y-123240000D02*
X41460000Y-123240000D01*
X37004437Y-128760000D02*
X41460000Y-128760000D01*
X41460000Y-123240000D02*
X41460000Y-124940000D01*
X41460000Y-128760000D02*
X41460000Y-127060000D01*
X75760000Y-127785000D02*
X75760000Y-126215000D01*
X75760000Y-126215000D02*
X73450000Y-126215000D01*
X73450000Y-127785000D02*
X75760000Y-127785000D01*
X74522500Y-99012742D02*
X74522500Y-99487258D01*
X73477500Y-99012742D02*
X73477500Y-99487258D01*
X66977500Y-94237258D02*
X66977500Y-93762742D01*
X68022500Y-94237258D02*
X68022500Y-93762742D01*
X90685000Y-127785000D02*
X90685000Y-126215000D01*
X90685000Y-126215000D02*
X88375000Y-126215000D01*
X88375000Y-127785000D02*
X90685000Y-127785000D01*
X45977500Y-98487258D02*
X45977500Y-98012742D01*
X47022500Y-98487258D02*
X47022500Y-98012742D01*
X82260000Y-99109420D02*
X82260000Y-99390580D01*
X81240000Y-99109420D02*
X81240000Y-99390580D01*
X68490000Y-99390580D02*
X68490000Y-99109420D01*
X69510000Y-99390580D02*
X69510000Y-99109420D01*
X45760000Y-127785000D02*
X45760000Y-126215000D01*
X45760000Y-126215000D02*
X43450000Y-126215000D01*
X43450000Y-127785000D02*
X45760000Y-127785000D01*
X60760000Y-127785000D02*
X60760000Y-126215000D01*
X60760000Y-126215000D02*
X58450000Y-126215000D01*
X58450000Y-127785000D02*
X60760000Y-127785000D01*
X80940000Y-124304437D02*
X80940000Y-124940000D01*
X80940000Y-124304437D02*
X82004437Y-123240000D01*
X80940000Y-127695563D02*
X80940000Y-127060000D01*
X80940000Y-127695563D02*
X82004437Y-128760000D01*
X82004437Y-123240000D02*
X86460000Y-123240000D01*
X82004437Y-128760000D02*
X86460000Y-128760000D01*
X86460000Y-123240000D02*
X86460000Y-124940000D01*
X86460000Y-128760000D02*
X86460000Y-127060000D01*
X36390580Y-109260000D02*
X36109420Y-109260000D01*
X36390580Y-108240000D02*
X36109420Y-108240000D01*
X65940000Y-124304437D02*
X65940000Y-124940000D01*
X65940000Y-124304437D02*
X67004437Y-123240000D01*
X65940000Y-127695563D02*
X65940000Y-127060000D01*
X65940000Y-127695563D02*
X67004437Y-128760000D01*
X67004437Y-123240000D02*
X71460000Y-123240000D01*
X67004437Y-128760000D02*
X71460000Y-128760000D01*
X71460000Y-123240000D02*
X71460000Y-124940000D01*
X71460000Y-128760000D02*
X71460000Y-127060000D01*
X46487742Y-122227500D02*
X46962258Y-122227500D01*
X46487742Y-123272500D02*
X46962258Y-123272500D01*
D11*
X77800000Y-97690000D02*
X76200000Y-97690000D01*
X76200000Y-100810000D02*
X77800000Y-100810000D01*
D12*
X78400000Y-100950000D02*
G75*
G03*
X78400000Y-100950000I-100000J0D01*
G01*
D10*
X89412258Y-125022500D02*
X88937742Y-125022500D01*
X89412258Y-123977500D02*
X88937742Y-123977500D01*
X34740000Y-106215000D02*
X34740000Y-107785000D01*
X34740000Y-107785000D02*
X37050000Y-107785000D01*
X37050000Y-106215000D02*
X34740000Y-106215000D01*
X44487258Y-125022500D02*
X44012742Y-125022500D01*
X44487258Y-123977500D02*
X44012742Y-123977500D01*
X50940000Y-124304437D02*
X50940000Y-124940000D01*
X50940000Y-124304437D02*
X52004437Y-123240000D01*
X50940000Y-127695563D02*
X50940000Y-127060000D01*
X50940000Y-127695563D02*
X52004437Y-128760000D01*
X52004437Y-123240000D02*
X56460000Y-123240000D01*
X52004437Y-128760000D02*
X56460000Y-128760000D01*
X56460000Y-123240000D02*
X56460000Y-124940000D01*
X56460000Y-128760000D02*
X56460000Y-127060000D01*
D11*
X48949747Y-112000000D02*
X48744687Y-112205061D01*
X48744687Y-111794939D02*
X48949747Y-112000000D01*
X44000000Y-107050253D02*
X44205061Y-107255313D01*
X43794939Y-107255313D02*
X44000000Y-107050253D01*
X44205061Y-116744687D02*
X44000000Y-116949747D01*
X44000000Y-116949747D02*
X43794939Y-116744687D01*
X39050253Y-112000000D02*
X39255313Y-111794939D01*
X39050253Y-112000000D02*
X39255313Y-112205061D01*
D12*
X50258900Y-109730187D02*
G75*
G03*
X50258900Y-109730187I-100000J0D01*
G01*
G36*
X57881047Y-113648595D02*
G01*
X57890340Y-113648595D01*
X58238841Y-112454395D01*
X58736036Y-112454395D01*
X58118027Y-114322364D01*
X58118027Y-115707076D01*
X57606891Y-115707076D01*
X57606891Y-114322364D01*
X56988882Y-112454395D01*
X57532545Y-112454395D01*
X57881047Y-113648595D01*
G37*
G36*
X53295695Y-112919065D02*
G01*
X52412825Y-112919065D01*
X52412825Y-113778701D01*
X53114475Y-113778701D01*
X53114475Y-114243370D01*
X52412825Y-114243370D01*
X52412825Y-115242408D01*
X53295695Y-115242408D01*
X53295695Y-115707076D01*
X51901689Y-115707076D01*
X51901689Y-112454395D01*
X53295695Y-112454395D01*
X53295695Y-112919065D01*
G37*
G36*
X55205484Y-115707076D02*
G01*
X54694349Y-115707076D01*
X54601415Y-115061187D01*
X54601415Y-115070480D01*
X54020579Y-115070480D01*
X53927645Y-115707076D01*
X53453683Y-115707076D01*
X53629248Y-114629045D01*
X54080986Y-114629045D01*
X54541008Y-114629045D01*
X54313320Y-113021292D01*
X54304027Y-113021292D01*
X54080986Y-114629045D01*
X53629248Y-114629045D01*
X53983405Y-112454395D01*
X54675762Y-112454395D01*
X55205484Y-115707076D01*
G37*
G36*
X56597723Y-110835989D02*
G01*
X56602448Y-110836348D01*
X56607103Y-110836939D01*
X56611683Y-110837757D01*
X56616183Y-110838795D01*
X56620595Y-110840048D01*
X56624915Y-110841510D01*
X56629137Y-110843175D01*
X56633254Y-110845037D01*
X56637262Y-110847090D01*
X56641154Y-110849328D01*
X56644924Y-110851747D01*
X56648567Y-110854338D01*
X56652077Y-110857098D01*
X56655448Y-110860020D01*
X56658674Y-110863097D01*
X56661749Y-110866326D01*
X56664668Y-110869698D01*
X56667425Y-110873209D01*
X56670014Y-110876853D01*
X56672430Y-110880624D01*
X56674665Y-110884516D01*
X56676716Y-110888523D01*
X56678575Y-110892639D01*
X56680237Y-110896859D01*
X56681696Y-110901176D01*
X56682947Y-110905585D01*
X56683983Y-110910080D01*
X56684800Y-110914655D01*
X56685390Y-110919304D01*
X56685748Y-110924022D01*
X56685869Y-110928802D01*
X56685869Y-111393470D01*
X56685748Y-111398250D01*
X56685390Y-111402968D01*
X56684800Y-111407617D01*
X56683983Y-111412192D01*
X56682947Y-111416687D01*
X56681696Y-111421096D01*
X56680237Y-111425414D01*
X56678575Y-111429633D01*
X56676716Y-111433749D01*
X56674665Y-111437756D01*
X56672430Y-111441648D01*
X56670014Y-111445419D01*
X56667425Y-111449063D01*
X56664668Y-111452574D01*
X56661749Y-111455946D01*
X56658674Y-111459175D01*
X56655448Y-111462252D01*
X56652077Y-111465174D01*
X56648567Y-111467934D01*
X56644924Y-111470526D01*
X56641154Y-111472944D01*
X56637262Y-111475182D01*
X56633254Y-111477235D01*
X56629137Y-111479097D01*
X56624915Y-111480762D01*
X56620595Y-111482224D01*
X56616183Y-111483477D01*
X56611683Y-111484515D01*
X56607103Y-111485333D01*
X56602448Y-111485924D01*
X56597723Y-111486283D01*
X56592935Y-111486404D01*
X56588147Y-111486283D01*
X56583422Y-111485924D01*
X56578767Y-111485333D01*
X56574187Y-111484515D01*
X56569687Y-111483477D01*
X56565275Y-111482224D01*
X56560955Y-111480762D01*
X56556733Y-111479097D01*
X56552615Y-111477235D01*
X56548608Y-111475182D01*
X56544716Y-111472944D01*
X56540946Y-111470526D01*
X56537303Y-111467934D01*
X56533793Y-111465174D01*
X56530422Y-111462252D01*
X56527196Y-111459175D01*
X56524120Y-111455946D01*
X56521201Y-111452574D01*
X56518444Y-111449063D01*
X56515855Y-111445419D01*
X56513440Y-111441648D01*
X56511204Y-111437756D01*
X56509154Y-111433749D01*
X56507294Y-111429633D01*
X56505632Y-111425414D01*
X56504173Y-111421096D01*
X56502922Y-111416687D01*
X56501886Y-111412192D01*
X56501070Y-111407617D01*
X56500480Y-111402968D01*
X56500121Y-111398250D01*
X56500000Y-111393470D01*
X56500000Y-110928802D01*
X56500121Y-110924022D01*
X56500480Y-110919304D01*
X56501070Y-110914655D01*
X56501886Y-110910080D01*
X56502922Y-110905585D01*
X56504173Y-110901176D01*
X56505632Y-110896859D01*
X56507294Y-110892639D01*
X56509154Y-110888523D01*
X56511204Y-110884516D01*
X56513440Y-110880624D01*
X56515855Y-110876853D01*
X56518444Y-110873209D01*
X56521201Y-110869698D01*
X56524120Y-110866326D01*
X56527196Y-110863097D01*
X56530422Y-110860020D01*
X56533793Y-110857098D01*
X56537303Y-110854338D01*
X56540946Y-110851747D01*
X56544716Y-110849328D01*
X56548608Y-110847090D01*
X56552615Y-110845037D01*
X56556733Y-110843175D01*
X56560955Y-110841510D01*
X56565275Y-110840048D01*
X56569687Y-110838795D01*
X56574187Y-110837757D01*
X56578767Y-110836939D01*
X56583422Y-110836348D01*
X56588147Y-110835989D01*
X56592935Y-110835868D01*
X56597723Y-110835989D01*
G37*
G36*
X56997722Y-110464254D02*
G01*
X57002447Y-110464613D01*
X57007102Y-110465204D01*
X57011682Y-110466022D01*
X57016181Y-110467060D01*
X57020594Y-110468313D01*
X57024914Y-110469775D01*
X57029136Y-110471440D01*
X57033253Y-110473302D01*
X57037261Y-110475355D01*
X57041153Y-110477593D01*
X57044923Y-110480012D01*
X57048566Y-110482603D01*
X57052076Y-110485363D01*
X57055447Y-110488285D01*
X57058673Y-110491363D01*
X57061748Y-110494591D01*
X57064667Y-110497963D01*
X57067424Y-110501474D01*
X57070013Y-110505118D01*
X57072429Y-110508889D01*
X57074664Y-110512781D01*
X57076715Y-110516788D01*
X57078574Y-110520904D01*
X57080236Y-110525124D01*
X57081695Y-110529441D01*
X57082946Y-110533850D01*
X57083982Y-110538345D01*
X57084798Y-110542920D01*
X57085389Y-110547569D01*
X57085747Y-110552287D01*
X57085868Y-110557067D01*
X57085868Y-111765205D01*
X57085747Y-111769985D01*
X57085389Y-111774703D01*
X57084798Y-111779352D01*
X57083982Y-111783927D01*
X57082946Y-111788422D01*
X57081695Y-111792831D01*
X57080236Y-111797148D01*
X57078574Y-111801368D01*
X57076715Y-111805484D01*
X57074664Y-111809491D01*
X57072429Y-111813383D01*
X57070013Y-111817154D01*
X57067424Y-111820798D01*
X57064667Y-111824309D01*
X57061748Y-111827681D01*
X57058673Y-111830910D01*
X57055447Y-111833987D01*
X57052076Y-111836909D01*
X57048566Y-111839669D01*
X57044923Y-111842261D01*
X57041153Y-111844679D01*
X57037261Y-111846917D01*
X57033253Y-111848970D01*
X57029136Y-111850832D01*
X57024914Y-111852497D01*
X57020594Y-111853959D01*
X57016181Y-111855212D01*
X57011682Y-111856250D01*
X57007102Y-111857068D01*
X57002447Y-111857659D01*
X56997722Y-111858018D01*
X56992934Y-111858139D01*
X56988146Y-111858018D01*
X56983421Y-111857659D01*
X56978766Y-111857068D01*
X56974186Y-111856250D01*
X56969686Y-111855212D01*
X56965274Y-111853959D01*
X56960954Y-111852497D01*
X56956732Y-111850832D01*
X56952615Y-111848970D01*
X56948607Y-111846917D01*
X56944715Y-111844679D01*
X56940945Y-111842261D01*
X56937302Y-111839669D01*
X56933792Y-111836909D01*
X56930421Y-111833987D01*
X56927195Y-111830910D01*
X56924120Y-111827681D01*
X56921201Y-111824309D01*
X56918444Y-111820798D01*
X56915855Y-111817154D01*
X56913439Y-111813383D01*
X56911204Y-111809491D01*
X56909153Y-111805484D01*
X56907294Y-111801368D01*
X56905632Y-111797148D01*
X56904173Y-111792831D01*
X56902922Y-111788422D01*
X56901886Y-111783927D01*
X56901070Y-111779352D01*
X56900480Y-111774703D01*
X56900121Y-111769985D01*
X56900000Y-111765205D01*
X56900000Y-110557067D01*
X56900121Y-110552287D01*
X56900480Y-110547569D01*
X56901070Y-110542920D01*
X56901886Y-110538345D01*
X56902922Y-110533850D01*
X56904173Y-110529441D01*
X56905632Y-110525124D01*
X56907294Y-110520904D01*
X56909153Y-110516788D01*
X56911204Y-110512781D01*
X56913439Y-110508889D01*
X56915855Y-110505118D01*
X56918444Y-110501474D01*
X56921201Y-110497963D01*
X56924120Y-110494591D01*
X56927195Y-110491363D01*
X56930421Y-110488285D01*
X56933792Y-110485363D01*
X56937302Y-110482603D01*
X56940945Y-110480012D01*
X56944715Y-110477593D01*
X56948607Y-110475355D01*
X56952615Y-110473302D01*
X56956732Y-110471440D01*
X56960954Y-110469775D01*
X56965274Y-110468313D01*
X56969686Y-110467060D01*
X56974186Y-110466022D01*
X56978766Y-110465204D01*
X56983421Y-110464613D01*
X56988146Y-110464254D01*
X56992934Y-110464133D01*
X56997722Y-110464254D01*
G37*
G36*
X57411854Y-110092519D02*
G01*
X57416579Y-110092878D01*
X57421234Y-110093469D01*
X57425814Y-110094287D01*
X57430314Y-110095325D01*
X57434726Y-110096578D01*
X57439046Y-110098040D01*
X57443268Y-110099705D01*
X57447386Y-110101567D01*
X57451393Y-110103620D01*
X57455285Y-110105858D01*
X57459055Y-110108277D01*
X57462698Y-110110868D01*
X57466208Y-110113628D01*
X57469579Y-110116550D01*
X57472805Y-110119628D01*
X57475880Y-110122856D01*
X57478800Y-110126228D01*
X57481557Y-110129739D01*
X57484146Y-110133383D01*
X57486561Y-110137154D01*
X57488796Y-110141046D01*
X57490847Y-110145053D01*
X57492706Y-110149169D01*
X57494368Y-110153389D01*
X57495827Y-110157706D01*
X57497078Y-110162115D01*
X57498114Y-110166610D01*
X57498930Y-110171185D01*
X57499521Y-110175834D01*
X57499879Y-110180552D01*
X57500000Y-110185332D01*
X57500000Y-112136940D01*
X57499879Y-112141720D01*
X57499521Y-112146438D01*
X57498930Y-112151087D01*
X57498114Y-112155662D01*
X57497078Y-112160157D01*
X57495827Y-112164566D01*
X57494368Y-112168883D01*
X57492706Y-112173103D01*
X57490847Y-112177219D01*
X57488796Y-112181226D01*
X57486561Y-112185118D01*
X57484146Y-112188889D01*
X57481557Y-112192533D01*
X57478800Y-112196044D01*
X57475880Y-112199416D01*
X57472805Y-112202644D01*
X57469579Y-112205722D01*
X57466208Y-112208644D01*
X57462698Y-112211404D01*
X57459055Y-112213995D01*
X57455285Y-112216414D01*
X57451393Y-112218652D01*
X57447386Y-112220705D01*
X57443268Y-112222567D01*
X57439046Y-112224232D01*
X57434726Y-112225694D01*
X57430314Y-112226947D01*
X57425814Y-112227985D01*
X57421234Y-112228803D01*
X57416579Y-112229394D01*
X57411854Y-112229753D01*
X57407066Y-112229874D01*
X57402278Y-112229753D01*
X57397553Y-112229394D01*
X57392898Y-112228803D01*
X57388318Y-112227985D01*
X57383818Y-112226947D01*
X57379406Y-112225694D01*
X57375086Y-112224232D01*
X57370864Y-112222567D01*
X57366747Y-112220705D01*
X57362739Y-112218652D01*
X57358847Y-112216414D01*
X57355077Y-112213995D01*
X57351434Y-112211404D01*
X57347924Y-112208644D01*
X57344553Y-112205722D01*
X57341327Y-112202644D01*
X57338252Y-112199416D01*
X57335332Y-112196044D01*
X57332576Y-112192533D01*
X57329987Y-112188889D01*
X57327571Y-112185118D01*
X57325336Y-112181226D01*
X57323285Y-112177219D01*
X57321426Y-112173103D01*
X57319764Y-112168883D01*
X57318305Y-112164566D01*
X57317054Y-112160157D01*
X57316018Y-112155662D01*
X57315202Y-112151087D01*
X57314611Y-112146438D01*
X57314253Y-112141720D01*
X57314132Y-112136940D01*
X57314132Y-110185332D01*
X57314253Y-110180552D01*
X57314611Y-110175834D01*
X57315202Y-110171185D01*
X57316018Y-110166610D01*
X57317054Y-110162115D01*
X57318305Y-110157706D01*
X57319764Y-110153389D01*
X57321426Y-110149169D01*
X57323285Y-110145053D01*
X57325336Y-110141046D01*
X57327571Y-110137154D01*
X57329987Y-110133383D01*
X57332576Y-110129739D01*
X57335332Y-110126228D01*
X57338252Y-110122856D01*
X57341327Y-110119628D01*
X57344553Y-110116550D01*
X57347924Y-110113628D01*
X57351434Y-110110868D01*
X57355077Y-110108277D01*
X57358847Y-110105858D01*
X57362739Y-110103620D01*
X57366747Y-110101567D01*
X57370864Y-110099705D01*
X57375086Y-110098040D01*
X57379406Y-110096578D01*
X57383818Y-110095325D01*
X57388318Y-110094287D01*
X57392898Y-110093469D01*
X57397553Y-110092878D01*
X57402278Y-110092519D01*
X57407066Y-110092398D01*
X57411854Y-110092519D01*
G37*
G36*
X57811854Y-110185453D02*
G01*
X57816579Y-110185812D01*
X57821234Y-110186403D01*
X57825814Y-110187221D01*
X57830314Y-110188259D01*
X57834726Y-110189512D01*
X57839046Y-110190974D01*
X57843268Y-110192639D01*
X57847386Y-110194501D01*
X57851393Y-110196554D01*
X57855285Y-110198792D01*
X57859055Y-110201210D01*
X57862698Y-110203802D01*
X57866208Y-110206562D01*
X57869579Y-110209484D01*
X57872805Y-110212561D01*
X57875880Y-110215789D01*
X57878800Y-110219162D01*
X57881557Y-110222673D01*
X57884146Y-110226317D01*
X57886561Y-110230088D01*
X57888796Y-110233979D01*
X57890847Y-110237986D01*
X57892706Y-110242103D01*
X57894368Y-110246322D01*
X57895827Y-110250640D01*
X57897078Y-110255049D01*
X57898114Y-110259544D01*
X57898930Y-110264119D01*
X57899521Y-110268768D01*
X57899879Y-110273485D01*
X57900000Y-110278265D01*
X57900000Y-112044007D01*
X57899879Y-112048787D01*
X57899521Y-112053504D01*
X57898930Y-112058153D01*
X57898114Y-112062728D01*
X57897078Y-112067223D01*
X57895827Y-112071632D01*
X57894368Y-112075950D01*
X57892706Y-112080169D01*
X57890847Y-112084286D01*
X57888796Y-112088293D01*
X57886561Y-112092184D01*
X57884146Y-112095955D01*
X57881557Y-112099599D01*
X57878800Y-112103110D01*
X57875880Y-112106483D01*
X57872805Y-112109711D01*
X57869579Y-112112789D01*
X57866208Y-112115710D01*
X57862698Y-112118470D01*
X57859055Y-112121062D01*
X57855285Y-112123480D01*
X57851393Y-112125718D01*
X57847386Y-112127772D01*
X57843268Y-112129633D01*
X57839046Y-112131298D01*
X57834726Y-112132760D01*
X57830314Y-112134013D01*
X57825814Y-112135051D01*
X57821234Y-112135869D01*
X57816579Y-112136460D01*
X57811854Y-112136819D01*
X57807066Y-112136940D01*
X57802278Y-112136819D01*
X57797553Y-112136460D01*
X57792898Y-112135869D01*
X57788318Y-112135051D01*
X57783819Y-112134013D01*
X57779406Y-112132760D01*
X57775086Y-112131298D01*
X57770864Y-112129633D01*
X57766747Y-112127772D01*
X57762739Y-112125718D01*
X57758847Y-112123480D01*
X57755077Y-112121062D01*
X57751434Y-112118470D01*
X57747924Y-112115710D01*
X57744554Y-112112789D01*
X57741327Y-112109711D01*
X57738252Y-112106483D01*
X57735333Y-112103110D01*
X57732576Y-112099599D01*
X57729987Y-112095955D01*
X57727571Y-112092184D01*
X57725336Y-112088293D01*
X57723285Y-112084286D01*
X57721426Y-112080169D01*
X57719764Y-112075950D01*
X57718305Y-112071632D01*
X57717054Y-112067223D01*
X57716018Y-112062728D01*
X57715202Y-112058153D01*
X57714611Y-112053504D01*
X57714253Y-112048787D01*
X57714132Y-112044007D01*
X57714132Y-110278265D01*
X57714253Y-110273485D01*
X57714611Y-110268768D01*
X57715202Y-110264119D01*
X57716018Y-110259544D01*
X57717054Y-110255049D01*
X57718305Y-110250640D01*
X57719764Y-110246322D01*
X57721426Y-110242103D01*
X57723285Y-110237986D01*
X57725336Y-110233979D01*
X57727571Y-110230088D01*
X57729987Y-110226317D01*
X57732576Y-110222673D01*
X57735333Y-110219162D01*
X57738252Y-110215789D01*
X57741327Y-110212561D01*
X57744554Y-110209484D01*
X57747924Y-110206562D01*
X57751434Y-110203802D01*
X57755077Y-110201210D01*
X57758847Y-110198792D01*
X57762739Y-110196554D01*
X57766747Y-110194501D01*
X57770864Y-110192639D01*
X57775086Y-110190974D01*
X57779406Y-110189512D01*
X57783819Y-110188259D01*
X57788318Y-110187221D01*
X57792898Y-110186403D01*
X57797553Y-110185812D01*
X57802278Y-110185453D01*
X57807066Y-110185332D01*
X57811854Y-110185453D01*
G37*
G36*
X58197723Y-110557188D02*
G01*
X58202448Y-110557547D01*
X58207103Y-110558138D01*
X58211683Y-110558956D01*
X58216182Y-110559994D01*
X58220595Y-110561247D01*
X58224915Y-110562709D01*
X58229137Y-110564374D01*
X58233254Y-110566235D01*
X58237262Y-110568289D01*
X58241153Y-110570527D01*
X58244924Y-110572945D01*
X58248567Y-110575537D01*
X58252077Y-110578297D01*
X58255447Y-110581218D01*
X58258674Y-110584296D01*
X58261749Y-110587524D01*
X58264668Y-110590897D01*
X58267425Y-110594408D01*
X58270014Y-110598052D01*
X58272430Y-110601823D01*
X58274665Y-110605714D01*
X58276716Y-110609721D01*
X58278575Y-110613838D01*
X58280237Y-110618057D01*
X58281696Y-110622375D01*
X58282947Y-110626784D01*
X58283983Y-110631279D01*
X58284799Y-110635854D01*
X58285390Y-110640503D01*
X58285748Y-110645220D01*
X58285869Y-110650000D01*
X58285869Y-111672272D01*
X58285748Y-111677052D01*
X58285390Y-111681769D01*
X58284799Y-111686418D01*
X58283983Y-111690993D01*
X58282947Y-111695488D01*
X58281696Y-111699897D01*
X58280237Y-111704215D01*
X58278575Y-111708434D01*
X58276716Y-111712551D01*
X58274665Y-111716558D01*
X58272430Y-111720449D01*
X58270014Y-111724220D01*
X58267425Y-111727864D01*
X58264668Y-111731375D01*
X58261749Y-111734748D01*
X58258674Y-111737976D01*
X58255447Y-111741054D01*
X58252077Y-111743975D01*
X58248567Y-111746735D01*
X58244924Y-111749327D01*
X58241153Y-111751745D01*
X58237262Y-111753983D01*
X58233254Y-111756037D01*
X58229137Y-111757898D01*
X58224915Y-111759563D01*
X58220595Y-111761025D01*
X58216182Y-111762278D01*
X58211683Y-111763316D01*
X58207103Y-111764134D01*
X58202448Y-111764725D01*
X58197723Y-111765084D01*
X58192935Y-111765205D01*
X58188147Y-111765084D01*
X58183422Y-111764725D01*
X58178767Y-111764134D01*
X58174186Y-111763316D01*
X58169687Y-111762278D01*
X58165275Y-111761025D01*
X58160955Y-111759563D01*
X58156733Y-111757898D01*
X58152615Y-111756037D01*
X58148608Y-111753983D01*
X58144716Y-111751745D01*
X58140945Y-111749327D01*
X58137302Y-111746735D01*
X58133793Y-111743975D01*
X58130422Y-111741054D01*
X58127196Y-111737976D01*
X58124120Y-111734748D01*
X58121201Y-111731375D01*
X58118444Y-111727864D01*
X58115855Y-111724220D01*
X58113439Y-111720449D01*
X58111204Y-111716558D01*
X58109153Y-111712551D01*
X58107294Y-111708434D01*
X58105632Y-111704215D01*
X58104173Y-111699897D01*
X58102922Y-111695488D01*
X58101886Y-111690993D01*
X58101070Y-111686418D01*
X58100479Y-111681769D01*
X58100121Y-111677052D01*
X58100000Y-111672272D01*
X58100000Y-110650000D01*
X58100121Y-110645220D01*
X58100479Y-110640503D01*
X58101070Y-110635854D01*
X58101886Y-110631279D01*
X58102922Y-110626784D01*
X58104173Y-110622375D01*
X58105632Y-110618057D01*
X58107294Y-110613838D01*
X58109153Y-110609721D01*
X58111204Y-110605714D01*
X58113439Y-110601823D01*
X58115855Y-110598052D01*
X58118444Y-110594408D01*
X58121201Y-110590897D01*
X58124120Y-110587524D01*
X58127196Y-110584296D01*
X58130422Y-110581218D01*
X58133793Y-110578297D01*
X58137302Y-110575537D01*
X58140945Y-110572945D01*
X58144716Y-110570527D01*
X58148608Y-110568289D01*
X58152615Y-110566235D01*
X58156733Y-110564374D01*
X58160955Y-110562709D01*
X58165275Y-110561247D01*
X58169687Y-110559994D01*
X58174186Y-110558956D01*
X58178767Y-110558138D01*
X58183422Y-110557547D01*
X58188147Y-110557188D01*
X58192935Y-110557067D01*
X58197723Y-110557188D01*
G37*
G36*
X58611854Y-110185453D02*
G01*
X58616579Y-110185812D01*
X58621234Y-110186403D01*
X58625815Y-110187221D01*
X58630314Y-110188259D01*
X58634727Y-110189512D01*
X58639047Y-110190974D01*
X58643268Y-110192639D01*
X58647386Y-110194501D01*
X58651393Y-110196554D01*
X58655285Y-110198792D01*
X58659056Y-110201210D01*
X58662699Y-110203802D01*
X58666208Y-110206562D01*
X58669579Y-110209484D01*
X58672805Y-110212561D01*
X58675881Y-110215789D01*
X58678800Y-110219162D01*
X58681557Y-110222673D01*
X58684146Y-110226317D01*
X58686561Y-110230088D01*
X58688797Y-110233979D01*
X58690847Y-110237986D01*
X58692706Y-110242103D01*
X58694368Y-110246322D01*
X58695827Y-110250640D01*
X58697078Y-110255049D01*
X58698114Y-110259544D01*
X58698930Y-110264119D01*
X58699521Y-110268768D01*
X58699879Y-110273485D01*
X58700000Y-110278265D01*
X58700000Y-112044007D01*
X58699879Y-112048787D01*
X58699521Y-112053504D01*
X58698930Y-112058153D01*
X58698114Y-112062728D01*
X58697078Y-112067223D01*
X58695827Y-112071632D01*
X58694368Y-112075950D01*
X58692706Y-112080169D01*
X58690846Y-112084286D01*
X58688796Y-112088293D01*
X58686560Y-112092184D01*
X58684145Y-112095955D01*
X58681556Y-112099599D01*
X58678799Y-112103110D01*
X58675880Y-112106483D01*
X58672804Y-112109711D01*
X58669578Y-112112789D01*
X58666208Y-112115710D01*
X58662698Y-112118470D01*
X58659055Y-112121062D01*
X58655284Y-112123480D01*
X58651393Y-112125718D01*
X58647385Y-112127772D01*
X58643267Y-112129633D01*
X58639046Y-112131298D01*
X58634726Y-112132760D01*
X58630313Y-112134013D01*
X58625814Y-112135051D01*
X58621234Y-112135869D01*
X58616579Y-112136460D01*
X58611854Y-112136819D01*
X58607066Y-112136940D01*
X58602278Y-112136819D01*
X58597553Y-112136460D01*
X58592898Y-112135869D01*
X58588318Y-112135051D01*
X58583818Y-112134013D01*
X58579406Y-112132760D01*
X58575086Y-112131298D01*
X58570864Y-112129633D01*
X58566746Y-112127772D01*
X58562739Y-112125718D01*
X58558847Y-112123480D01*
X58555077Y-112121062D01*
X58551434Y-112118470D01*
X58547924Y-112115710D01*
X58544553Y-112112789D01*
X58541327Y-112109711D01*
X58538252Y-112106483D01*
X58535332Y-112103110D01*
X58532575Y-112099599D01*
X58529986Y-112095955D01*
X58527571Y-112092184D01*
X58525336Y-112088293D01*
X58523285Y-112084286D01*
X58521426Y-112080169D01*
X58519764Y-112075950D01*
X58518305Y-112071632D01*
X58517054Y-112067223D01*
X58516018Y-112062728D01*
X58515201Y-112058153D01*
X58514611Y-112053504D01*
X58514253Y-112048787D01*
X58514132Y-112044007D01*
X58514132Y-110278265D01*
X58514253Y-110273485D01*
X58514611Y-110268768D01*
X58515201Y-110264119D01*
X58516018Y-110259544D01*
X58517054Y-110255049D01*
X58518305Y-110250640D01*
X58519764Y-110246322D01*
X58521426Y-110242103D01*
X58523285Y-110237986D01*
X58525336Y-110233979D01*
X58527571Y-110230088D01*
X58529986Y-110226317D01*
X58532575Y-110222673D01*
X58535332Y-110219162D01*
X58538252Y-110215789D01*
X58541327Y-110212561D01*
X58544553Y-110209484D01*
X58547924Y-110206562D01*
X58551434Y-110203802D01*
X58555077Y-110201210D01*
X58558847Y-110198792D01*
X58562739Y-110196554D01*
X58566746Y-110194501D01*
X58570864Y-110192639D01*
X58575086Y-110190974D01*
X58579406Y-110189512D01*
X58583818Y-110188259D01*
X58588318Y-110187221D01*
X58592898Y-110186403D01*
X58597553Y-110185812D01*
X58602278Y-110185453D01*
X58607066Y-110185332D01*
X58611854Y-110185453D01*
G37*
G36*
X58997722Y-110557188D02*
G01*
X59002447Y-110557547D01*
X59007102Y-110558138D01*
X59011682Y-110558956D01*
X59016182Y-110559994D01*
X59020594Y-110561247D01*
X59024914Y-110562709D01*
X59029136Y-110564374D01*
X59033253Y-110566235D01*
X59037261Y-110568289D01*
X59041153Y-110570527D01*
X59044923Y-110572945D01*
X59048566Y-110575537D01*
X59052076Y-110578297D01*
X59055447Y-110581218D01*
X59058673Y-110584296D01*
X59061748Y-110587524D01*
X59064667Y-110590897D01*
X59067424Y-110594408D01*
X59070013Y-110598052D01*
X59072429Y-110601823D01*
X59074664Y-110605714D01*
X59076715Y-110609721D01*
X59078574Y-110613838D01*
X59080236Y-110618057D01*
X59081695Y-110622375D01*
X59082946Y-110626784D01*
X59083982Y-110631279D01*
X59084798Y-110635854D01*
X59085388Y-110640503D01*
X59085747Y-110645220D01*
X59085868Y-110650000D01*
X59085868Y-111672272D01*
X59085747Y-111677052D01*
X59085388Y-111681769D01*
X59084798Y-111686418D01*
X59083982Y-111690993D01*
X59082946Y-111695488D01*
X59081695Y-111699897D01*
X59080236Y-111704215D01*
X59078574Y-111708434D01*
X59076715Y-111712551D01*
X59074664Y-111716558D01*
X59072429Y-111720449D01*
X59070013Y-111724220D01*
X59067424Y-111727864D01*
X59064667Y-111731375D01*
X59061748Y-111734748D01*
X59058673Y-111737976D01*
X59055447Y-111741054D01*
X59052076Y-111743975D01*
X59048566Y-111746735D01*
X59044923Y-111749327D01*
X59041153Y-111751745D01*
X59037261Y-111753983D01*
X59033253Y-111756037D01*
X59029136Y-111757898D01*
X59024914Y-111759563D01*
X59020594Y-111761025D01*
X59016182Y-111762278D01*
X59011682Y-111763316D01*
X59007102Y-111764134D01*
X59002447Y-111764725D01*
X58997722Y-111765084D01*
X58992934Y-111765205D01*
X58988146Y-111765084D01*
X58983421Y-111764725D01*
X58978766Y-111764134D01*
X58974186Y-111763316D01*
X58969687Y-111762278D01*
X58965274Y-111761025D01*
X58960954Y-111759563D01*
X58956732Y-111757898D01*
X58952615Y-111756037D01*
X58948607Y-111753983D01*
X58944715Y-111751745D01*
X58940945Y-111749327D01*
X58937302Y-111746735D01*
X58933792Y-111743975D01*
X58930421Y-111741054D01*
X58927195Y-111737976D01*
X58924120Y-111734748D01*
X58921201Y-111731375D01*
X58918444Y-111727864D01*
X58915855Y-111724220D01*
X58913439Y-111720449D01*
X58911204Y-111716558D01*
X58909153Y-111712551D01*
X58907294Y-111708434D01*
X58905632Y-111704215D01*
X58904173Y-111699897D01*
X58902922Y-111695488D01*
X58901886Y-111690993D01*
X58901069Y-111686418D01*
X58900479Y-111681769D01*
X58900121Y-111677052D01*
X58900000Y-111672272D01*
X58900000Y-110650000D01*
X58900121Y-110645220D01*
X58900479Y-110640503D01*
X58901069Y-110635854D01*
X58901886Y-110631279D01*
X58902922Y-110626784D01*
X58904173Y-110622375D01*
X58905632Y-110618057D01*
X58907294Y-110613838D01*
X58909153Y-110609721D01*
X58911204Y-110605714D01*
X58913439Y-110601823D01*
X58915855Y-110598052D01*
X58918444Y-110594408D01*
X58921201Y-110590897D01*
X58924120Y-110587524D01*
X58927195Y-110584296D01*
X58930421Y-110581218D01*
X58933792Y-110578297D01*
X58937302Y-110575537D01*
X58940945Y-110572945D01*
X58944715Y-110570527D01*
X58948607Y-110568289D01*
X58952615Y-110566235D01*
X58956732Y-110564374D01*
X58960954Y-110562709D01*
X58965274Y-110561247D01*
X58969687Y-110559994D01*
X58974186Y-110558956D01*
X58978766Y-110558138D01*
X58983421Y-110557547D01*
X58988146Y-110557188D01*
X58992934Y-110557067D01*
X58997722Y-110557188D01*
G37*
G36*
X59397722Y-110835989D02*
G01*
X59402447Y-110836348D01*
X59407102Y-110836939D01*
X59411682Y-110837757D01*
X59416182Y-110838795D01*
X59420594Y-110840048D01*
X59424914Y-110841510D01*
X59429136Y-110843175D01*
X59433253Y-110845037D01*
X59437261Y-110847090D01*
X59441153Y-110849328D01*
X59444923Y-110851747D01*
X59448566Y-110854338D01*
X59452076Y-110857098D01*
X59455447Y-110860020D01*
X59458673Y-110863097D01*
X59461748Y-110866326D01*
X59464667Y-110869698D01*
X59467424Y-110873209D01*
X59470013Y-110876853D01*
X59472429Y-110880624D01*
X59474664Y-110884516D01*
X59476715Y-110888523D01*
X59478574Y-110892639D01*
X59480236Y-110896859D01*
X59481695Y-110901176D01*
X59482946Y-110905585D01*
X59483982Y-110910080D01*
X59484798Y-110914655D01*
X59485388Y-110919304D01*
X59485747Y-110924022D01*
X59485868Y-110928802D01*
X59485868Y-111393470D01*
X59485747Y-111398250D01*
X59485388Y-111402968D01*
X59484798Y-111407617D01*
X59483982Y-111412192D01*
X59482946Y-111416687D01*
X59481695Y-111421096D01*
X59480236Y-111425414D01*
X59478574Y-111429633D01*
X59476715Y-111433749D01*
X59474664Y-111437756D01*
X59472429Y-111441648D01*
X59470013Y-111445419D01*
X59467424Y-111449063D01*
X59464667Y-111452574D01*
X59461748Y-111455946D01*
X59458673Y-111459175D01*
X59455447Y-111462252D01*
X59452076Y-111465174D01*
X59448566Y-111467934D01*
X59444923Y-111470526D01*
X59441153Y-111472944D01*
X59437261Y-111475182D01*
X59433253Y-111477235D01*
X59429136Y-111479097D01*
X59424914Y-111480762D01*
X59420594Y-111482224D01*
X59416182Y-111483477D01*
X59411682Y-111484515D01*
X59407102Y-111485333D01*
X59402447Y-111485924D01*
X59397722Y-111486283D01*
X59392934Y-111486404D01*
X59388146Y-111486283D01*
X59383421Y-111485924D01*
X59378766Y-111485333D01*
X59374186Y-111484515D01*
X59369686Y-111483477D01*
X59365274Y-111482224D01*
X59360954Y-111480762D01*
X59356732Y-111479097D01*
X59352615Y-111477235D01*
X59348607Y-111475182D01*
X59344715Y-111472944D01*
X59340945Y-111470526D01*
X59337302Y-111467934D01*
X59333792Y-111465174D01*
X59330421Y-111462252D01*
X59327195Y-111459175D01*
X59324120Y-111455946D01*
X59321201Y-111452574D01*
X59318444Y-111449063D01*
X59315855Y-111445419D01*
X59313439Y-111441648D01*
X59311204Y-111437756D01*
X59309153Y-111433749D01*
X59307294Y-111429633D01*
X59305632Y-111425414D01*
X59304173Y-111421096D01*
X59302922Y-111416687D01*
X59301886Y-111412192D01*
X59301069Y-111407617D01*
X59300479Y-111402968D01*
X59300121Y-111398250D01*
X59300000Y-111393470D01*
X59300000Y-110928802D01*
X59300121Y-110924022D01*
X59300479Y-110919304D01*
X59301069Y-110914655D01*
X59301886Y-110910080D01*
X59302922Y-110905585D01*
X59304173Y-110901176D01*
X59305632Y-110896859D01*
X59307294Y-110892639D01*
X59309153Y-110888523D01*
X59311204Y-110884516D01*
X59313439Y-110880624D01*
X59315855Y-110876853D01*
X59318444Y-110873209D01*
X59321201Y-110869698D01*
X59324120Y-110866326D01*
X59327195Y-110863097D01*
X59330421Y-110860020D01*
X59333792Y-110857098D01*
X59337302Y-110854338D01*
X59340945Y-110851747D01*
X59344715Y-110849328D01*
X59348607Y-110847090D01*
X59352615Y-110845037D01*
X59356732Y-110843175D01*
X59360954Y-110841510D01*
X59365274Y-110840048D01*
X59369686Y-110838795D01*
X59374186Y-110837757D01*
X59378766Y-110836939D01*
X59383421Y-110836348D01*
X59388146Y-110835989D01*
X59392934Y-110835868D01*
X59397722Y-110835989D01*
G37*
G36*
X59795898Y-112455194D02*
G01*
X59841294Y-112457590D01*
X59885202Y-112461583D01*
X59927621Y-112467174D01*
X59968552Y-112474362D01*
X60007994Y-112483147D01*
X60045948Y-112493529D01*
X60082414Y-112505509D01*
X60117391Y-112519086D01*
X60150880Y-112534261D01*
X60182881Y-112551032D01*
X60213393Y-112569401D01*
X60242416Y-112589367D01*
X60269952Y-112610931D01*
X60295998Y-112634091D01*
X60320557Y-112658849D01*
X60343627Y-112685151D01*
X60365209Y-112712940D01*
X60385302Y-112742218D01*
X60403907Y-112772984D01*
X60421024Y-112805239D01*
X60436652Y-112838982D01*
X60450792Y-112874213D01*
X60463443Y-112910933D01*
X60474606Y-112949141D01*
X60484281Y-112988837D01*
X60492467Y-113030022D01*
X60499165Y-113072695D01*
X60504374Y-113116857D01*
X60508095Y-113162506D01*
X60510328Y-113209645D01*
X60511072Y-113258272D01*
X60511072Y-114903200D01*
X60510328Y-114951827D01*
X60508095Y-114998965D01*
X60504374Y-115044615D01*
X60499165Y-115088777D01*
X60492467Y-115131450D01*
X60484281Y-115172635D01*
X60474606Y-115212331D01*
X60463443Y-115250540D01*
X60450792Y-115287259D01*
X60436652Y-115322491D01*
X60421024Y-115356233D01*
X60403907Y-115388488D01*
X60385302Y-115419254D01*
X60365209Y-115448532D01*
X60343627Y-115476321D01*
X60320557Y-115502622D01*
X60295998Y-115527380D01*
X60269952Y-115550541D01*
X60242416Y-115572104D01*
X60213393Y-115592071D01*
X60182881Y-115610440D01*
X60150880Y-115627211D01*
X60117391Y-115642386D01*
X60082414Y-115655963D01*
X60045948Y-115667942D01*
X60007994Y-115678325D01*
X59968552Y-115687110D01*
X59927621Y-115694298D01*
X59885202Y-115699888D01*
X59841294Y-115703882D01*
X59795898Y-115706278D01*
X59749014Y-115707076D01*
X58968371Y-115707076D01*
X58968371Y-112919065D01*
X59479506Y-112919065D01*
X59479506Y-115242408D01*
X59739722Y-115242408D01*
X59755179Y-115242118D01*
X59770186Y-115241246D01*
X59784744Y-115239794D01*
X59798851Y-115237761D01*
X59812507Y-115235148D01*
X59825714Y-115231953D01*
X59838471Y-115228177D01*
X59850777Y-115223821D01*
X59862633Y-115218884D01*
X59874040Y-115213366D01*
X59884996Y-115207267D01*
X59895502Y-115200587D01*
X59905557Y-115193327D01*
X59915163Y-115185485D01*
X59924318Y-115177063D01*
X59933024Y-115168060D01*
X59941126Y-115158404D01*
X59948706Y-115148022D01*
X59955763Y-115136913D01*
X59962298Y-115125079D01*
X59968309Y-115112519D01*
X59973798Y-115099232D01*
X59978764Y-115085219D01*
X59983208Y-115070481D01*
X59987128Y-115055016D01*
X59990526Y-115038825D01*
X59993401Y-115021908D01*
X59995754Y-115004266D01*
X59997583Y-114985897D01*
X59998890Y-114966802D01*
X59999674Y-114946981D01*
X59999936Y-114926434D01*
X59999936Y-113235038D01*
X59999674Y-113214491D01*
X59998890Y-113194670D01*
X59997583Y-113175575D01*
X59995754Y-113157206D01*
X59993401Y-113139563D01*
X59990526Y-113122646D01*
X59987128Y-113106456D01*
X59983208Y-113090991D01*
X59978764Y-113076252D01*
X59973798Y-113062240D01*
X59968309Y-113048953D01*
X59962298Y-113036393D01*
X59955763Y-113024558D01*
X59948706Y-113013450D01*
X59941126Y-113003068D01*
X59933024Y-112993412D01*
X59924318Y-112984409D01*
X59915163Y-112975986D01*
X59905557Y-112968145D01*
X59895502Y-112960885D01*
X59884996Y-112954205D01*
X59874040Y-112948106D01*
X59862633Y-112942588D01*
X59850777Y-112937651D01*
X59838471Y-112933295D01*
X59825714Y-112929520D01*
X59812507Y-112926325D01*
X59798851Y-112923711D01*
X59784744Y-112921678D01*
X59770186Y-112920226D01*
X59755179Y-112919355D01*
X59739722Y-112919065D01*
X59479506Y-112919065D01*
X58968371Y-112919065D01*
X58968371Y-112454395D01*
X59749014Y-112454395D01*
X59795898Y-112455194D01*
G37*
G36*
X63383140Y-112455194D02*
G01*
X63428536Y-112457590D01*
X63472444Y-112461583D01*
X63514863Y-112467174D01*
X63555794Y-112474362D01*
X63595237Y-112483147D01*
X63633191Y-112493529D01*
X63669656Y-112505509D01*
X63704633Y-112519086D01*
X63738122Y-112534261D01*
X63770123Y-112551032D01*
X63800635Y-112569401D01*
X63829658Y-112589367D01*
X63857194Y-112610931D01*
X63883241Y-112634091D01*
X63907799Y-112658849D01*
X63930869Y-112685151D01*
X63952450Y-112712940D01*
X63972544Y-112742218D01*
X63991148Y-112772984D01*
X64008265Y-112805239D01*
X64023893Y-112838982D01*
X64038033Y-112874213D01*
X64050684Y-112910933D01*
X64061847Y-112949141D01*
X64071521Y-112988837D01*
X64079707Y-113030022D01*
X64086405Y-113072695D01*
X64091614Y-113116857D01*
X64095335Y-113162506D01*
X64097568Y-113209645D01*
X64098312Y-113258272D01*
X64098312Y-113578895D01*
X64097568Y-113627521D01*
X64095335Y-113674660D01*
X64091614Y-113720310D01*
X64086405Y-113764471D01*
X64079707Y-113807144D01*
X64071521Y-113848329D01*
X64061847Y-113888026D01*
X64050684Y-113926234D01*
X64038033Y-113962953D01*
X64023893Y-113998184D01*
X64008265Y-114031927D01*
X63991148Y-114064182D01*
X63972544Y-114094948D01*
X63952450Y-114124226D01*
X63930869Y-114152016D01*
X63907799Y-114178317D01*
X63883241Y-114203075D01*
X63857194Y-114226235D01*
X63829658Y-114247799D01*
X63800635Y-114267765D01*
X63770123Y-114286134D01*
X63738122Y-114302906D01*
X63704633Y-114318080D01*
X63669656Y-114331657D01*
X63633191Y-114343637D01*
X63595237Y-114354019D01*
X63555794Y-114362804D01*
X63514863Y-114369992D01*
X63472444Y-114375583D01*
X63428536Y-114379576D01*
X63383140Y-114381972D01*
X63336256Y-114382771D01*
X63094630Y-114382771D01*
X63094630Y-115707076D01*
X62583493Y-115707076D01*
X62583493Y-112919065D01*
X63094630Y-112919065D01*
X63094630Y-113918101D01*
X63336256Y-113918101D01*
X63351692Y-113917829D01*
X63366634Y-113917012D01*
X63381083Y-113915651D01*
X63395037Y-113913745D01*
X63408498Y-113911295D01*
X63421466Y-113908300D01*
X63433939Y-113904760D01*
X63445919Y-113900676D01*
X63457405Y-113896048D01*
X63468397Y-113890875D01*
X63478896Y-113885157D01*
X63488901Y-113878895D01*
X63498412Y-113872088D01*
X63507429Y-113864737D01*
X63515953Y-113856842D01*
X63523983Y-113848401D01*
X63531635Y-113839308D01*
X63538794Y-113829452D01*
X63545459Y-113818833D01*
X63551631Y-113807452D01*
X63557308Y-113795309D01*
X63562492Y-113782404D01*
X63567183Y-113768736D01*
X63571379Y-113754306D01*
X63575082Y-113739113D01*
X63578291Y-113723159D01*
X63581006Y-113706441D01*
X63583228Y-113688962D01*
X63584956Y-113670720D01*
X63586190Y-113651716D01*
X63586931Y-113631949D01*
X63587178Y-113611420D01*
X63587178Y-113225746D01*
X63586931Y-113205217D01*
X63586190Y-113185450D01*
X63584956Y-113166446D01*
X63583228Y-113148204D01*
X63581006Y-113130725D01*
X63578291Y-113114008D01*
X63575082Y-113098053D01*
X63571379Y-113082860D01*
X63567183Y-113068430D01*
X63562492Y-113054762D01*
X63557308Y-113041857D01*
X63551631Y-113029714D01*
X63545459Y-113018333D01*
X63538794Y-113007715D01*
X63531635Y-112997859D01*
X63523983Y-112988765D01*
X63515953Y-112980325D01*
X63507429Y-112972429D01*
X63498412Y-112965078D01*
X63488901Y-112958271D01*
X63478896Y-112952009D01*
X63468397Y-112946291D01*
X63457405Y-112941118D01*
X63445919Y-112936490D01*
X63433939Y-112932406D01*
X63421466Y-112928866D01*
X63408498Y-112925871D01*
X63395037Y-112923421D01*
X63381083Y-112921515D01*
X63366634Y-112920154D01*
X63351692Y-112919337D01*
X63336256Y-112919065D01*
X63094630Y-112919065D01*
X62583493Y-112919065D01*
X62583493Y-112454395D01*
X63336256Y-112454395D01*
X63383140Y-112455194D01*
G37*
G36*
X56166067Y-112408753D02*
G01*
X56209851Y-112411225D01*
X56252234Y-112415345D01*
X56293215Y-112421114D01*
X56332796Y-112428530D01*
X56370975Y-112437595D01*
X56407753Y-112448308D01*
X56443129Y-112460669D01*
X56477104Y-112474678D01*
X56509678Y-112490335D01*
X56540851Y-112507640D01*
X56570623Y-112526594D01*
X56598993Y-112547195D01*
X56625962Y-112569445D01*
X56651529Y-112593343D01*
X56675696Y-112618889D01*
X56698541Y-112646090D01*
X56719912Y-112674721D01*
X56739809Y-112704783D01*
X56758232Y-112736275D01*
X56775182Y-112769198D01*
X56790657Y-112803550D01*
X56804659Y-112839334D01*
X56817187Y-112876547D01*
X56828241Y-112915191D01*
X56837821Y-112955265D01*
X56845928Y-112996769D01*
X56852560Y-113039704D01*
X56857718Y-113084069D01*
X56861403Y-113129864D01*
X56863614Y-113177090D01*
X56864351Y-113225746D01*
X56864351Y-113360500D01*
X56381096Y-113360500D01*
X56381096Y-113193218D01*
X56380842Y-113172660D01*
X56380079Y-113152807D01*
X56378809Y-113133657D01*
X56377030Y-113115212D01*
X56374743Y-113097471D01*
X56371948Y-113080435D01*
X56368644Y-113064103D01*
X56364832Y-113048474D01*
X56360512Y-113033551D01*
X56355684Y-113019331D01*
X56350348Y-113005816D01*
X56344503Y-112993004D01*
X56338150Y-112980898D01*
X56331289Y-112969495D01*
X56323919Y-112958797D01*
X56316042Y-112948802D01*
X56307674Y-112939575D01*
X56298835Y-112930942D01*
X56289523Y-112922905D01*
X56279740Y-112915463D01*
X56269484Y-112908616D01*
X56258757Y-112902365D01*
X56247558Y-112896709D01*
X56235887Y-112891649D01*
X56223744Y-112887183D01*
X56211129Y-112883313D01*
X56198042Y-112880039D01*
X56184483Y-112877360D01*
X56170452Y-112875276D01*
X56155949Y-112873788D01*
X56140975Y-112872895D01*
X56125528Y-112872597D01*
X56109805Y-112872901D01*
X56094581Y-112873813D01*
X56079855Y-112875333D01*
X56065629Y-112877461D01*
X56051903Y-112880198D01*
X56038675Y-112883542D01*
X56025946Y-112887494D01*
X56013717Y-112892055D01*
X56001987Y-112897223D01*
X55990756Y-112903000D01*
X55980024Y-112909385D01*
X55969791Y-112916377D01*
X55960058Y-112923978D01*
X55950823Y-112932187D01*
X55942088Y-112941004D01*
X55933852Y-112950429D01*
X55926115Y-112960462D01*
X55918877Y-112971103D01*
X55912139Y-112982352D01*
X55905899Y-112994210D01*
X55900159Y-113006675D01*
X55894918Y-113019748D01*
X55890176Y-113033430D01*
X55885933Y-113047719D01*
X55882190Y-113062617D01*
X55878945Y-113078122D01*
X55876200Y-113094236D01*
X55873954Y-113110958D01*
X55872206Y-113128288D01*
X55870959Y-113146226D01*
X55870210Y-113164772D01*
X55869960Y-113183926D01*
X55870331Y-113205907D01*
X55871441Y-113227706D01*
X55873293Y-113249324D01*
X55875885Y-113270761D01*
X55879217Y-113292016D01*
X55883290Y-113313089D01*
X55888104Y-113333981D01*
X55893658Y-113354691D01*
X55899953Y-113375220D01*
X55906989Y-113395568D01*
X55914764Y-113415733D01*
X55923281Y-113435718D01*
X55932538Y-113455521D01*
X55942536Y-113475142D01*
X55953274Y-113494582D01*
X55964753Y-113513840D01*
X55977324Y-113533262D01*
X55991108Y-113553192D01*
X56006104Y-113573630D01*
X56022313Y-113594576D01*
X56039735Y-113616031D01*
X56058369Y-113637994D01*
X56078215Y-113660465D01*
X56099274Y-113683444D01*
X56121545Y-113706931D01*
X56145029Y-113730927D01*
X56169726Y-113755431D01*
X56195635Y-113780443D01*
X56222756Y-113805964D01*
X56251090Y-113831993D01*
X56311396Y-113885575D01*
X56350693Y-113920225D01*
X56388429Y-113954476D01*
X56424604Y-113988328D01*
X56459218Y-114021781D01*
X56492271Y-114054834D01*
X56523764Y-114087488D01*
X56553695Y-114119742D01*
X56582065Y-114151598D01*
X56608874Y-114183053D01*
X56634122Y-114214110D01*
X56657810Y-114244767D01*
X56679936Y-114275025D01*
X56700501Y-114304884D01*
X56719505Y-114334343D01*
X56736949Y-114363403D01*
X56752831Y-114392064D01*
X56767461Y-114420834D01*
X56781146Y-114450220D01*
X56793888Y-114480224D01*
X56805687Y-114510845D01*
X56816541Y-114542083D01*
X56826451Y-114573939D01*
X56835418Y-114606411D01*
X56843441Y-114639500D01*
X56850520Y-114673207D01*
X56856655Y-114707531D01*
X56861846Y-114742472D01*
X56866093Y-114778030D01*
X56869397Y-114814205D01*
X56871757Y-114850997D01*
X56873172Y-114888407D01*
X56873644Y-114926434D01*
X56872871Y-114975659D01*
X56870551Y-115023433D01*
X56866685Y-115069755D01*
X56861272Y-115114624D01*
X56854313Y-115158042D01*
X56845808Y-115200007D01*
X56835756Y-115240520D01*
X56824157Y-115279581D01*
X56811012Y-115317191D01*
X56796321Y-115353348D01*
X56780083Y-115388053D01*
X56762298Y-115421305D01*
X56742967Y-115453106D01*
X56722090Y-115483455D01*
X56699666Y-115512351D01*
X56675696Y-115539796D01*
X56650367Y-115565679D01*
X56623638Y-115589893D01*
X56595507Y-115612437D01*
X56565976Y-115633311D01*
X56535042Y-115652514D01*
X56502708Y-115670048D01*
X56468972Y-115685912D01*
X56433835Y-115700107D01*
X56397297Y-115712631D01*
X56359358Y-115723485D01*
X56320017Y-115732670D01*
X56279275Y-115740184D01*
X56237132Y-115746029D01*
X56193588Y-115750203D01*
X56148642Y-115752708D01*
X56102295Y-115753543D01*
X56056536Y-115752715D01*
X56012193Y-115750232D01*
X55969265Y-115746094D01*
X55927753Y-115740300D01*
X55887658Y-115732851D01*
X55848977Y-115723747D01*
X55811713Y-115712987D01*
X55775865Y-115700571D01*
X55741432Y-115686501D01*
X55708415Y-115670775D01*
X55676814Y-115653393D01*
X55646629Y-115634356D01*
X55617859Y-115613664D01*
X55590505Y-115591316D01*
X55564567Y-115567313D01*
X55540045Y-115541654D01*
X55516975Y-115514566D01*
X55495394Y-115486039D01*
X55475300Y-115456075D01*
X55456695Y-115424674D01*
X55439579Y-115391835D01*
X55423951Y-115357558D01*
X55409811Y-115321844D01*
X55397160Y-115284693D01*
X55385997Y-115246104D01*
X55376322Y-115206077D01*
X55368136Y-115164612D01*
X55361438Y-115121710D01*
X55356229Y-115077371D01*
X55352508Y-115031593D01*
X55350276Y-114984379D01*
X55349531Y-114935726D01*
X55349531Y-114749859D01*
X55832787Y-114749859D01*
X55832787Y-114972900D01*
X55833821Y-115011163D01*
X55836925Y-115046957D01*
X55842098Y-115080282D01*
X55845461Y-115096019D01*
X55849341Y-115111139D01*
X55853738Y-115125642D01*
X55858652Y-115139527D01*
X55864084Y-115152796D01*
X55870033Y-115165447D01*
X55876499Y-115177481D01*
X55883483Y-115188898D01*
X55890984Y-115199698D01*
X55899002Y-115209881D01*
X55907537Y-115219447D01*
X55916590Y-115228395D01*
X55926160Y-115236727D01*
X55936248Y-115244441D01*
X55946853Y-115251538D01*
X55957975Y-115258018D01*
X55969614Y-115263881D01*
X55981771Y-115269126D01*
X55994445Y-115273755D01*
X56007636Y-115277766D01*
X56021345Y-115281161D01*
X56035571Y-115283938D01*
X56050314Y-115286098D01*
X56065575Y-115287641D01*
X56081353Y-115288566D01*
X56097648Y-115288875D01*
X56113664Y-115288574D01*
X56129187Y-115287670D01*
X56144216Y-115286163D01*
X56158752Y-115284054D01*
X56172793Y-115281342D01*
X56186341Y-115278027D01*
X56199396Y-115274110D01*
X56211956Y-115269591D01*
X56224023Y-115264468D01*
X56235596Y-115258743D01*
X56246676Y-115252416D01*
X56257262Y-115245486D01*
X56267354Y-115237953D01*
X56276952Y-115229817D01*
X56286057Y-115221079D01*
X56294668Y-115211739D01*
X56302883Y-115201839D01*
X56310568Y-115191192D01*
X56317723Y-115179797D01*
X56324348Y-115167654D01*
X56330443Y-115154763D01*
X56336008Y-115141124D01*
X56341043Y-115126738D01*
X56345548Y-115111603D01*
X56349523Y-115095721D01*
X56352969Y-115079091D01*
X56355884Y-115061713D01*
X56358269Y-115043588D01*
X56360124Y-115024714D01*
X56361449Y-115005092D01*
X56362244Y-114984723D01*
X56362509Y-114963606D01*
X56362146Y-114938238D01*
X56361057Y-114913248D01*
X56359241Y-114888635D01*
X56356700Y-114864400D01*
X56353433Y-114840542D01*
X56349440Y-114817062D01*
X56344721Y-114793959D01*
X56339275Y-114771234D01*
X56333104Y-114748886D01*
X56326207Y-114726916D01*
X56318583Y-114705324D01*
X56310234Y-114684109D01*
X56301158Y-114663271D01*
X56291356Y-114642811D01*
X56280829Y-114622729D01*
X56269575Y-114603024D01*
X56257341Y-114583377D01*
X56243873Y-114563236D01*
X56229171Y-114542602D01*
X56213234Y-114521474D01*
X56196063Y-114499853D01*
X56177658Y-114477738D01*
X56158018Y-114455129D01*
X56137144Y-114432026D01*
X56115036Y-114408429D01*
X56091694Y-114384339D01*
X56067117Y-114359755D01*
X56041307Y-114334678D01*
X56014261Y-114309106D01*
X55985982Y-114283041D01*
X55925720Y-114229430D01*
X55849704Y-114160558D01*
X55813928Y-114126742D01*
X55779640Y-114093340D01*
X55746841Y-114060352D01*
X55715531Y-114027778D01*
X55685708Y-113995618D01*
X55657374Y-113963872D01*
X55630529Y-113932539D01*
X55605172Y-113901621D01*
X55581303Y-113871116D01*
X55558923Y-113841025D01*
X55538031Y-113811348D01*
X55518627Y-113782084D01*
X55500712Y-113753235D01*
X55484285Y-113724799D01*
X55469093Y-113696458D01*
X55454880Y-113667660D01*
X55441648Y-113638404D01*
X55429396Y-113608691D01*
X55418124Y-113578520D01*
X55407833Y-113547892D01*
X55398521Y-113516806D01*
X55390190Y-113485263D01*
X55382839Y-113453263D01*
X55376468Y-113420805D01*
X55371077Y-113387890D01*
X55366666Y-113354517D01*
X55363235Y-113320687D01*
X55360785Y-113286400D01*
X55359315Y-113251655D01*
X55358825Y-113216452D01*
X55359587Y-113168922D01*
X55361874Y-113122749D01*
X55365686Y-113077934D01*
X55371022Y-113034476D01*
X55377883Y-112992377D01*
X55386269Y-112951635D01*
X55396180Y-112912250D01*
X55407615Y-112874224D01*
X55420575Y-112837555D01*
X55435059Y-112802244D01*
X55451069Y-112768290D01*
X55468603Y-112735695D01*
X55487661Y-112704457D01*
X55508245Y-112674576D01*
X55530353Y-112646054D01*
X55553985Y-112618889D01*
X55579070Y-112593343D01*
X55605535Y-112569445D01*
X55633379Y-112547195D01*
X55662602Y-112526594D01*
X55693205Y-112507640D01*
X55725187Y-112490335D01*
X55758549Y-112474678D01*
X55793290Y-112460669D01*
X55829411Y-112448308D01*
X55866911Y-112437595D01*
X55905791Y-112428530D01*
X55946050Y-112421114D01*
X55987688Y-112415345D01*
X56030706Y-112411225D01*
X56075104Y-112408753D01*
X56120881Y-112407929D01*
X56166067Y-112408753D01*
G37*
G36*
X61583174Y-112408753D02*
G01*
X61626958Y-112411225D01*
X61669341Y-112415345D01*
X61710323Y-112421114D01*
X61749903Y-112428530D01*
X61788082Y-112437595D01*
X61824860Y-112448308D01*
X61860237Y-112460669D01*
X61894212Y-112474678D01*
X61926786Y-112490335D01*
X61957959Y-112507640D01*
X61987730Y-112526594D01*
X62016101Y-112547195D01*
X62043070Y-112569445D01*
X62068637Y-112593343D01*
X62092804Y-112618889D01*
X62115649Y-112646090D01*
X62137020Y-112674721D01*
X62156917Y-112704783D01*
X62175340Y-112736275D01*
X62192290Y-112769198D01*
X62207765Y-112803550D01*
X62221767Y-112839334D01*
X62234295Y-112876547D01*
X62245349Y-112915191D01*
X62254929Y-112955265D01*
X62263036Y-112996769D01*
X62269668Y-113039704D01*
X62274827Y-113084069D01*
X62278511Y-113129864D01*
X62280722Y-113177090D01*
X62281459Y-113225746D01*
X62281459Y-113360500D01*
X61798204Y-113360500D01*
X61798204Y-113193218D01*
X61797950Y-113172660D01*
X61797188Y-113152807D01*
X61795917Y-113133657D01*
X61794138Y-113115212D01*
X61791851Y-113097471D01*
X61789056Y-113080435D01*
X61785752Y-113064103D01*
X61781940Y-113048474D01*
X61777620Y-113033551D01*
X61772792Y-113019331D01*
X61767455Y-113005816D01*
X61761610Y-112993004D01*
X61755257Y-112980898D01*
X61748396Y-112969495D01*
X61741026Y-112958797D01*
X61733149Y-112948802D01*
X61724781Y-112939575D01*
X61715941Y-112930942D01*
X61706630Y-112922905D01*
X61696847Y-112915463D01*
X61686591Y-112908616D01*
X61675864Y-112902365D01*
X61664665Y-112896709D01*
X61652994Y-112891649D01*
X61640851Y-112887183D01*
X61628236Y-112883313D01*
X61615149Y-112880039D01*
X61601590Y-112877360D01*
X61587559Y-112875276D01*
X61573057Y-112873788D01*
X61558082Y-112872895D01*
X61542636Y-112872597D01*
X61526912Y-112872901D01*
X61511688Y-112873813D01*
X61496963Y-112875333D01*
X61482737Y-112877461D01*
X61469010Y-112880198D01*
X61455783Y-112883542D01*
X61443054Y-112887494D01*
X61430825Y-112892055D01*
X61419095Y-112897223D01*
X61407864Y-112903000D01*
X61397132Y-112909385D01*
X61386899Y-112916377D01*
X61377166Y-112923978D01*
X61367931Y-112932187D01*
X61359196Y-112941004D01*
X61350960Y-112950429D01*
X61343223Y-112960462D01*
X61335985Y-112971103D01*
X61329247Y-112982352D01*
X61323007Y-112994210D01*
X61317267Y-113006675D01*
X61312026Y-113019748D01*
X61307284Y-113033430D01*
X61303041Y-113047719D01*
X61299297Y-113062617D01*
X61296053Y-113078122D01*
X61293307Y-113094236D01*
X61291061Y-113110958D01*
X61289314Y-113128288D01*
X61288066Y-113146226D01*
X61287318Y-113164772D01*
X61287068Y-113183926D01*
X61287438Y-113205907D01*
X61288549Y-113227706D01*
X61290400Y-113249324D01*
X61292992Y-113270761D01*
X61296325Y-113292016D01*
X61300398Y-113313089D01*
X61305212Y-113333981D01*
X61310766Y-113354691D01*
X61317061Y-113375220D01*
X61324096Y-113395568D01*
X61331872Y-113415733D01*
X61340389Y-113435718D01*
X61349646Y-113455521D01*
X61359643Y-113475142D01*
X61370382Y-113494582D01*
X61381860Y-113513840D01*
X61394432Y-113533262D01*
X61408216Y-113553192D01*
X61423212Y-113573630D01*
X61439421Y-113594576D01*
X61456843Y-113616031D01*
X61475477Y-113637994D01*
X61495323Y-113660465D01*
X61516382Y-113683444D01*
X61538653Y-113706931D01*
X61562137Y-113730927D01*
X61586834Y-113755431D01*
X61612743Y-113780443D01*
X61639864Y-113805964D01*
X61668198Y-113831993D01*
X61728504Y-113885575D01*
X61767801Y-113920225D01*
X61805537Y-113954476D01*
X61841712Y-113988328D01*
X61876326Y-114021781D01*
X61909379Y-114054834D01*
X61940871Y-114087488D01*
X61970802Y-114119742D01*
X61999173Y-114151598D01*
X62025982Y-114183053D01*
X62051230Y-114214110D01*
X62074917Y-114244767D01*
X62097044Y-114275025D01*
X62117609Y-114304884D01*
X62136613Y-114334343D01*
X62154056Y-114363403D01*
X62169939Y-114392064D01*
X62184568Y-114420834D01*
X62198254Y-114450220D01*
X62210996Y-114480224D01*
X62222794Y-114510845D01*
X62233649Y-114542083D01*
X62243559Y-114573939D01*
X62252526Y-114606411D01*
X62260548Y-114639500D01*
X62267627Y-114673207D01*
X62273762Y-114707531D01*
X62278953Y-114742472D01*
X62283201Y-114778030D01*
X62286504Y-114814205D01*
X62288864Y-114850997D01*
X62290280Y-114888407D01*
X62290751Y-114926434D01*
X62289978Y-114975659D01*
X62287659Y-115023433D01*
X62283792Y-115069755D01*
X62278380Y-115114624D01*
X62271421Y-115158042D01*
X62262915Y-115200007D01*
X62252863Y-115240520D01*
X62241265Y-115279581D01*
X62228120Y-115317191D01*
X62213428Y-115353348D01*
X62197191Y-115388053D01*
X62179406Y-115421305D01*
X62160075Y-115453106D01*
X62139198Y-115483455D01*
X62116774Y-115512351D01*
X62092804Y-115539796D01*
X62067475Y-115565679D01*
X62040746Y-115589893D01*
X62012615Y-115612437D01*
X61983083Y-115633311D01*
X61952150Y-115652514D01*
X61919815Y-115670048D01*
X61886080Y-115685912D01*
X61850943Y-115700107D01*
X61814405Y-115712631D01*
X61776465Y-115723485D01*
X61737124Y-115732670D01*
X61696383Y-115740184D01*
X61654239Y-115746029D01*
X61610695Y-115750203D01*
X61565749Y-115752708D01*
X61519402Y-115753543D01*
X61473643Y-115752715D01*
X61429300Y-115750232D01*
X61386373Y-115746094D01*
X61344861Y-115740300D01*
X61304766Y-115732851D01*
X61266086Y-115723747D01*
X61228821Y-115712987D01*
X61192973Y-115700571D01*
X61158540Y-115686501D01*
X61125523Y-115670775D01*
X61093922Y-115653393D01*
X61063737Y-115634356D01*
X61034967Y-115613664D01*
X61007614Y-115591316D01*
X60981676Y-115567313D01*
X60957153Y-115541654D01*
X60934083Y-115514566D01*
X60912502Y-115486039D01*
X60892408Y-115456075D01*
X60873803Y-115424674D01*
X60856687Y-115391835D01*
X60841059Y-115357558D01*
X60826919Y-115321844D01*
X60814268Y-115284693D01*
X60803105Y-115246104D01*
X60793430Y-115206077D01*
X60785244Y-115164612D01*
X60778547Y-115121710D01*
X60773337Y-115077371D01*
X60769616Y-115031593D01*
X60767384Y-114984379D01*
X60766639Y-114935726D01*
X60766639Y-114749859D01*
X61249895Y-114749859D01*
X61249895Y-114972900D01*
X61250929Y-115011163D01*
X61254033Y-115046957D01*
X61259206Y-115080282D01*
X61262569Y-115096019D01*
X61266448Y-115111139D01*
X61270845Y-115125642D01*
X61275760Y-115139527D01*
X61281192Y-115152796D01*
X61287141Y-115165447D01*
X61293607Y-115177481D01*
X61300591Y-115188898D01*
X61308091Y-115199698D01*
X61316110Y-115209881D01*
X61324645Y-115219447D01*
X61333698Y-115228395D01*
X61343268Y-115236727D01*
X61353356Y-115244441D01*
X61363961Y-115251538D01*
X61375083Y-115258018D01*
X61386722Y-115263881D01*
X61398879Y-115269126D01*
X61411553Y-115273755D01*
X61424744Y-115277766D01*
X61438453Y-115281161D01*
X61452679Y-115283938D01*
X61467422Y-115286098D01*
X61482682Y-115287641D01*
X61498460Y-115288566D01*
X61514755Y-115288875D01*
X61530772Y-115288574D01*
X61546295Y-115287670D01*
X61561324Y-115286163D01*
X61575860Y-115284054D01*
X61589901Y-115281342D01*
X61603449Y-115278027D01*
X61616504Y-115274110D01*
X61629064Y-115269591D01*
X61641131Y-115264468D01*
X61652704Y-115258743D01*
X61663783Y-115252416D01*
X61674369Y-115245486D01*
X61684461Y-115237953D01*
X61694059Y-115229817D01*
X61703164Y-115221079D01*
X61711775Y-115211739D01*
X61719990Y-115201839D01*
X61727675Y-115191192D01*
X61734830Y-115179797D01*
X61741455Y-115167654D01*
X61747550Y-115154763D01*
X61753115Y-115141124D01*
X61758150Y-115126738D01*
X61762655Y-115111603D01*
X61766630Y-115095721D01*
X61770075Y-115079091D01*
X61772990Y-115061713D01*
X61775375Y-115043588D01*
X61777230Y-115024714D01*
X61778555Y-115005092D01*
X61779350Y-114984723D01*
X61779615Y-114963606D01*
X61779252Y-114938238D01*
X61778163Y-114913248D01*
X61776348Y-114888635D01*
X61773807Y-114864400D01*
X61770540Y-114840542D01*
X61766547Y-114817062D01*
X61761828Y-114793959D01*
X61756382Y-114771234D01*
X61750211Y-114748886D01*
X61743314Y-114726916D01*
X61735690Y-114705324D01*
X61727341Y-114684109D01*
X61718265Y-114663271D01*
X61708463Y-114642811D01*
X61697936Y-114622729D01*
X61686682Y-114603024D01*
X61674448Y-114583377D01*
X61660980Y-114563236D01*
X61646278Y-114542602D01*
X61630342Y-114521474D01*
X61613171Y-114499853D01*
X61594766Y-114477738D01*
X61575126Y-114455129D01*
X61554252Y-114432026D01*
X61532144Y-114408429D01*
X61508802Y-114384339D01*
X61484225Y-114359755D01*
X61458414Y-114334678D01*
X61431369Y-114309106D01*
X61403090Y-114283041D01*
X61342828Y-114229430D01*
X61266811Y-114160558D01*
X61231035Y-114126742D01*
X61196748Y-114093340D01*
X61163949Y-114060352D01*
X61132638Y-114027778D01*
X61102816Y-113995618D01*
X61074482Y-113963872D01*
X61047637Y-113932539D01*
X61022280Y-113901621D01*
X60998411Y-113871116D01*
X60976031Y-113841025D01*
X60955139Y-113811348D01*
X60935735Y-113782084D01*
X60917820Y-113753235D01*
X60901393Y-113724799D01*
X60886201Y-113696458D01*
X60871988Y-113667660D01*
X60858756Y-113638404D01*
X60846504Y-113608691D01*
X60835232Y-113578520D01*
X60824940Y-113547892D01*
X60815629Y-113516806D01*
X60807298Y-113485263D01*
X60799946Y-113453263D01*
X60793575Y-113420805D01*
X60788185Y-113387890D01*
X60783774Y-113354517D01*
X60780343Y-113320687D01*
X60777893Y-113286400D01*
X60776423Y-113251655D01*
X60775933Y-113216452D01*
X60776695Y-113168922D01*
X60778982Y-113122749D01*
X60782794Y-113077934D01*
X60788130Y-113034476D01*
X60794991Y-112992377D01*
X60803377Y-112951635D01*
X60813288Y-112912250D01*
X60824723Y-112874224D01*
X60837683Y-112837555D01*
X60852167Y-112802244D01*
X60868176Y-112768290D01*
X60885710Y-112735695D01*
X60904769Y-112704457D01*
X60925352Y-112674576D01*
X60947461Y-112646054D01*
X60971094Y-112618889D01*
X60996178Y-112593343D01*
X61022643Y-112569445D01*
X61050486Y-112547195D01*
X61079710Y-112526594D01*
X61110312Y-112507640D01*
X61142295Y-112490335D01*
X61175656Y-112474678D01*
X61210398Y-112460669D01*
X61246518Y-112448308D01*
X61284018Y-112437595D01*
X61322898Y-112428530D01*
X61363157Y-112421114D01*
X61404796Y-112415345D01*
X61447814Y-112411225D01*
X61492212Y-112408753D01*
X61537989Y-112407929D01*
X61583174Y-112408753D01*
G37*
D10*
X74487258Y-125022500D02*
X74012742Y-125022500D01*
X74487258Y-123977500D02*
X74012742Y-123977500D01*
X60715000Y-96260000D02*
X62285000Y-96260000D01*
X62285000Y-96260000D02*
X62285000Y-93950000D01*
X60715000Y-93950000D02*
X60715000Y-96260000D01*
X69990000Y-99390580D02*
X69990000Y-99109420D01*
X71010000Y-99390580D02*
X71010000Y-99109420D01*
X59487258Y-125022500D02*
X59012742Y-125022500D01*
X59487258Y-123977500D02*
X59012742Y-123977500D01*
X39897500Y-103887742D02*
X39897500Y-104362258D01*
X38852500Y-103887742D02*
X38852500Y-104362258D01*
X36812500Y-105760000D02*
X38237500Y-105760000D01*
X65015000Y-95485000D02*
X66485000Y-95485000D01*
X66485000Y-95485000D02*
X66485000Y-93200000D01*
X65015000Y-93200000D02*
X65015000Y-95485000D01*
%LPC*%
D13*
X72250000Y-98437500D03*
X72250000Y-100562500D03*
D14*
X36175000Y-117250000D03*
X37825000Y-117250000D03*
D15*
X70000000Y-135400000D03*
D16*
X66250000Y-131700000D03*
X73750000Y-131700000D03*
D17*
X47525000Y-121000000D03*
X45975000Y-121000000D03*
D18*
X36250000Y-120500000D03*
X41750000Y-120500000D03*
D19*
X46500000Y-95462500D03*
X46500000Y-94037500D03*
D20*
X49500000Y-107825000D03*
X49500000Y-106175000D03*
D15*
X40000000Y-135400000D03*
D16*
X36250000Y-131700000D03*
X43750000Y-131700000D03*
D21*
X80000000Y-98425000D03*
X80000000Y-100075000D03*
D20*
X61500000Y-99075000D03*
X61500000Y-97425000D03*
D17*
X47525000Y-119250000D03*
X45975000Y-119250000D03*
D15*
X55000000Y-94600000D03*
D16*
X58750000Y-98300000D03*
X51250000Y-98300000D03*
D15*
X40000000Y-94600000D03*
D16*
X43750000Y-98300000D03*
X36250000Y-98300000D03*
D22*
X36500000Y-126000000D03*
X40900000Y-126000000D03*
D23*
X74962500Y-127000000D03*
X73537500Y-127000000D03*
D21*
X74000000Y-98425000D03*
X74000000Y-100075000D03*
D20*
X67500000Y-94825000D03*
X67500000Y-93175000D03*
D23*
X89887500Y-127000000D03*
X88462500Y-127000000D03*
D15*
X85000000Y-135400000D03*
D16*
X81250000Y-131700000D03*
X88750000Y-131700000D03*
D20*
X46500000Y-99075000D03*
X46500000Y-97425000D03*
D24*
X81750000Y-98475000D03*
X81750000Y-100025000D03*
D25*
X69000000Y-100025000D03*
X69000000Y-98475000D03*
D23*
X44962500Y-127000000D03*
X43537500Y-127000000D03*
X59962500Y-127000000D03*
X58537500Y-127000000D03*
D15*
X55000000Y-135400000D03*
D16*
X51250000Y-131700000D03*
X58750000Y-131700000D03*
D22*
X81500000Y-126000000D03*
X85900000Y-126000000D03*
D17*
X37025000Y-108750000D03*
X35475000Y-108750000D03*
D22*
X66500000Y-126000000D03*
X70900000Y-126000000D03*
D14*
X45900000Y-122750000D03*
X47550000Y-122750000D03*
D26*
X78255000Y-100200000D03*
X78255000Y-99250000D03*
X78255000Y-98300000D03*
X75745000Y-98300000D03*
X75745000Y-99250000D03*
X75745000Y-100200000D03*
D27*
X83500000Y-104069500D03*
X82230000Y-104069500D03*
X80960000Y-104069500D03*
X79690000Y-104069500D03*
X78420000Y-104069500D03*
X77150000Y-104069500D03*
X75880000Y-104069500D03*
X74610000Y-104069500D03*
X73340000Y-104069500D03*
X72070000Y-104069500D03*
X70800000Y-104069500D03*
X69530000Y-104069500D03*
X68260000Y-104069500D03*
X66990000Y-104069500D03*
D28*
X65740000Y-105834500D03*
X65740000Y-107104500D03*
X65740000Y-108374500D03*
X65740000Y-109644500D03*
X65740000Y-110914500D03*
X65740000Y-112184500D03*
X65740000Y-113454500D03*
X65740000Y-114724500D03*
X65740000Y-115994500D03*
X65740000Y-117264500D03*
X65740000Y-118534500D03*
X65740000Y-119804500D03*
D27*
X66990000Y-121569500D03*
X68260000Y-121569500D03*
X69530000Y-121569500D03*
X70800000Y-121569500D03*
X72070000Y-121569500D03*
X73340000Y-121569500D03*
X74610000Y-121569500D03*
X75880000Y-121569500D03*
X77150000Y-121569500D03*
X78420000Y-121569500D03*
X79690000Y-121569500D03*
X80960000Y-121569500D03*
X82230000Y-121569500D03*
X83500000Y-121569500D03*
D29*
X75780000Y-111319500D03*
X75780000Y-109919500D03*
X75780000Y-112719500D03*
X74380000Y-109919500D03*
X74380000Y-111319500D03*
X74380000Y-112719500D03*
X77180000Y-109919500D03*
X77180000Y-111319500D03*
X77180000Y-112719500D03*
D30*
X90000000Y-124500000D03*
X88350000Y-124500000D03*
D31*
X35537500Y-107000000D03*
X36962500Y-107000000D03*
D30*
X45075000Y-124500000D03*
X43425000Y-124500000D03*
D22*
X51500000Y-126000000D03*
X55900000Y-126000000D03*
D32*
X48900250Y-110988837D03*
X48546697Y-110635284D03*
X48193143Y-110281731D03*
X47839590Y-109928177D03*
X47486036Y-109574624D03*
X47132483Y-109221070D03*
X46778930Y-108867517D03*
X46425376Y-108513964D03*
X46071823Y-108160410D03*
X45718269Y-107806857D03*
X45364716Y-107453303D03*
X45011163Y-107099750D03*
D33*
X42988837Y-107099750D03*
X42635284Y-107453303D03*
X42281731Y-107806857D03*
X41928177Y-108160410D03*
X41574624Y-108513964D03*
X41221070Y-108867517D03*
X40867517Y-109221070D03*
X40513964Y-109574624D03*
X40160410Y-109928177D03*
X39806857Y-110281731D03*
X39453303Y-110635284D03*
X39099750Y-110988837D03*
D32*
X39099750Y-113011163D03*
X39453303Y-113364716D03*
X39806857Y-113718269D03*
X40160410Y-114071823D03*
X40513964Y-114425376D03*
X40867517Y-114778930D03*
X41221070Y-115132483D03*
X41574624Y-115486036D03*
X41928177Y-115839590D03*
X42281731Y-116193143D03*
X42635284Y-116546697D03*
X42988837Y-116900250D03*
D33*
X45011163Y-116900250D03*
X45364716Y-116546697D03*
X45718269Y-116193143D03*
X46071823Y-115839590D03*
X46425376Y-115486036D03*
X46778930Y-115132483D03*
X47132483Y-114778930D03*
X47486036Y-114425376D03*
X47839590Y-114071823D03*
X48193143Y-113718269D03*
X48546697Y-113364716D03*
X48900250Y-113011163D03*
D30*
X75075000Y-124500000D03*
X73425000Y-124500000D03*
D19*
X61500000Y-95462500D03*
X61500000Y-94037500D03*
D34*
X78050000Y-94540000D03*
X71450000Y-94540000D03*
D35*
X77950000Y-95675000D03*
X77150000Y-95675000D03*
D36*
X76000000Y-95675000D03*
X75000000Y-95675000D03*
X74500000Y-95675000D03*
X73500000Y-95675000D03*
D35*
X71550000Y-95675000D03*
X72350000Y-95675000D03*
D36*
X73000000Y-95675000D03*
X74000000Y-95675000D03*
X75500000Y-95675000D03*
X76500000Y-95675000D03*
D37*
X79360000Y-90600000D03*
X70140000Y-90600000D03*
X79360000Y-95100000D03*
X70140000Y-95100000D03*
D25*
X70500000Y-100025000D03*
X70500000Y-98475000D03*
D30*
X60075000Y-124500000D03*
X58425000Y-124500000D03*
D21*
X39375000Y-103300000D03*
X39375000Y-104950000D03*
D38*
X37500000Y-105150000D03*
X37500000Y-103250000D03*
X35625000Y-104200000D03*
D39*
X65750000Y-94787500D03*
X65750000Y-93212500D03*
D34*
X42125353Y-110125353D03*
X44637563Y-115112437D03*
X76250000Y-114000000D03*
X70500000Y-116250000D03*
X81125000Y-106625000D03*
X72750000Y-107250000D03*
X65750000Y-104500000D03*
X61500000Y-108250000D03*
X51000000Y-112750000D03*
X41750000Y-122000000D03*
X49750000Y-114250000D03*
X45500000Y-114250000D03*
X36250000Y-122000000D03*
X81880000Y-111519500D03*
X81867452Y-112531551D03*
X79500000Y-107000000D03*
X76500000Y-118500000D03*
X51750000Y-106750000D03*
X38500000Y-108750000D03*
X51750000Y-108000000D03*
X39500000Y-108250000D03*
X70800000Y-120175000D03*
X72075000Y-120175000D03*
X49500000Y-118250000D03*
X64500000Y-103750000D03*
X81000000Y-101250000D03*
X41250000Y-111000000D03*
X83500000Y-120000000D03*
X47000000Y-104500000D03*
X87250000Y-128250000D03*
X42250000Y-128250000D03*
X71500000Y-97250000D03*
X78907635Y-101246731D03*
X74000000Y-101250000D03*
X77000000Y-99250000D03*
X46250000Y-105250000D03*
X38500000Y-107000000D03*
X69000000Y-97250000D03*
X83250000Y-105750000D03*
X73250000Y-109750000D03*
X84000000Y-111500000D03*
X72250000Y-128250000D03*
X49500000Y-104500000D03*
X70500000Y-97250000D03*
X57250000Y-128250000D03*
X41250000Y-117500000D03*
X44000000Y-117750000D03*
X82000000Y-96500000D03*
X46250000Y-118000000D03*
X51250000Y-110000000D03*
X39000000Y-115750000D03*
X49500000Y-117250000D03*
X73250000Y-112750000D03*
%LPD*%
M02*
