M48
; DRILL file {KiCad 7.0.2} date Sat Feb 24 12:26:32 2024
; FORMAT={-:-/ absolute / metric / decimal}
; #@! TF.CreationDate,2024-02-24T12:26:32+01:00
; #@! TF.GenerationSoftware,Kicad,Pcbnew,7.0.2
; #@! TF.FileFunction,Plated,1,2,PTH
FMAT,2
METRIC
; #@! TA.AperFunction,Plated,PTH,ViaDrill
T1C0.400
; #@! TA.AperFunction,Plated,PTH,ComponentDrill
T2C0.600
; #@! TA.AperFunction,Plated,PTH,ComponentDrill
T3C1.000
; #@! TA.AperFunction,Plated,PTH,ComponentDrill
T4C1.300
%
G90
G05
T1
X36.25Y-122.0
X38.5Y-107.0
X38.5Y-108.75
X39.0Y-115.75
X39.5Y-108.25
X41.25Y-111.0
X41.25Y-117.5
X41.75Y-122.0
X42.125Y-110.125
X42.25Y-128.25
X44.0Y-117.75
X44.638Y-115.112
X45.5Y-114.25
X46.25Y-105.25
X46.25Y-118.0
X47.0Y-104.5
X49.5Y-104.5
X49.5Y-117.25
X49.5Y-118.25
X49.75Y-114.25
X51.0Y-112.75
X51.25Y-110.0
X51.75Y-106.75
X51.75Y-108.0
X57.25Y-128.25
X61.5Y-108.25
X64.5Y-103.75
X65.75Y-104.5
X69.0Y-97.25
X70.5Y-97.25
X70.5Y-116.25
X70.8Y-120.175
X71.5Y-97.25
X72.075Y-120.175
X72.25Y-128.25
X72.75Y-107.25
X73.25Y-109.75
X73.25Y-112.75
X74.0Y-101.25
X76.25Y-114.0
X76.5Y-118.5
X77.0Y-99.25
X78.908Y-101.247
X79.5Y-107.0
X81.0Y-101.25
X81.125Y-106.625
X81.867Y-112.532
X81.88Y-111.519
X82.0Y-96.5
X83.25Y-105.75
X83.5Y-120.0
X84.0Y-111.5
X87.25Y-128.25
T2
X70.14Y-91.1G85X70.14Y-90.1
G05
X70.14Y-95.6G85X70.14Y-94.6
G05
X79.36Y-91.1G85X79.36Y-90.1
G05
X79.36Y-95.6G85X79.36Y-94.6
G05
T3
X36.25Y-97.55G85X36.25Y-99.05
G05
X36.25Y-132.45G85X36.25Y-130.95
G05
X43.75Y-97.55G85X43.75Y-99.05
G05
X43.75Y-132.45G85X43.75Y-130.95
G05
X51.25Y-97.55G85X51.25Y-99.05
G05
X51.25Y-132.45G85X51.25Y-130.95
G05
X58.75Y-97.55G85X58.75Y-99.05
G05
X58.75Y-132.45G85X58.75Y-130.95
G05
X66.25Y-132.45G85X66.25Y-130.95
G05
X73.75Y-132.45G85X73.75Y-130.95
G05
X81.25Y-132.45G85X81.25Y-130.95
G05
X88.75Y-132.45G85X88.75Y-130.95
G05
T4
X40.6Y-94.6G85X39.4Y-94.6
G05
X39.4Y-135.4G85X40.6Y-135.4
G05
X55.6Y-94.6G85X54.4Y-94.6
G05
X54.4Y-135.4G85X55.6Y-135.4
G05
X69.4Y-135.4G85X70.6Y-135.4
G05
X84.4Y-135.4G85X85.6Y-135.4
G05
T0
M30
